<svg xmlns="http://www.w3.org/2000/svg" xmlns:xlink="http://www.w3.org/1999/xlink" viewBox="0 0 692.18 410.89"><defs><style>.cls-1{fill:url(#linear-gradient);}.cls-2{fill:url(#linear-gradient-2);}.cls-3{fill:url(#linear-gradient-3);}.cls-4{fill:url(#linear-gradient-4);}.cls-5{fill:#0066b3;}.cls-6{opacity:0.8;}.cls-7{fill:#fff;}.cls-8{fill:url(#linear-gradient-5);}.cls-9{fill:url(#linear-gradient-6);}.cls-10{fill:url(#linear-gradient-7);}.cls-11{fill:url(#linear-gradient-8);}.cls-12{fill:url(#linear-gradient-9);}.cls-13{fill:url(#linear-gradient-10);}.cls-14{fill:url(#linear-gradient-11);}.cls-15{fill:url(#linear-gradient-12);}.cls-16{fill:url(#linear-gradient-13);}.cls-17{fill:url(#linear-gradient-14);}.cls-18{fill:url(#linear-gradient-15);}.cls-19{fill:url(#linear-gradient-16);}.cls-20{fill:url(#linear-gradient-17);}</style><linearGradient id="linear-gradient" x1="23.65" y1="347.68" x2="550.2" y2="192.82" gradientUnits="userSpaceOnUse"><stop offset="0" stop-color="#3a5fac"/><stop offset="0" stop-color="#315aa1"/><stop offset="0" stop-color="#1a4d84"/><stop offset="0" stop-color="#003e62"/><stop offset="0.03" stop-color="#0b436f"/><stop offset="0.09" stop-color="#285190"/><stop offset="0.11" stop-color="#3758a1"/><stop offset="0.37" stop-color="#2f478f"/><stop offset="0.88" stop-color="#1c1b61"/><stop offset="1" stop-color="#171056"/></linearGradient><linearGradient id="linear-gradient-2" x1="26.86" y1="225.61" x2="382.14" y2="220.14" gradientUnits="userSpaceOnUse"><stop offset="0" stop-color="#0095d5"/><stop offset="0.18" stop-color="#058acd"/><stop offset="0.49" stop-color="#136db6"/><stop offset="0.89" stop-color="#283d92"/><stop offset="1" stop-color="#2f2f87"/></linearGradient><linearGradient id="linear-gradient-3" x1="360.52" y1="72.24" x2="318.27" y2="-0.93" gradientTransform="matrix(0.96, -0.47, -0.89, -0.61, 58.02, 411.98)" gradientUnits="userSpaceOnUse"><stop offset="0" stop-color="#0066b3"/><stop offset="0.92" stop-color="#0088cb"/></linearGradient><linearGradient id="linear-gradient-4" x1="273.57" y1="187.05" x2="495.49" y2="187.05" gradientTransform="translate(-4.72 7.8) rotate(-1.36)" gradientUnits="userSpaceOnUse"><stop offset="0" stop-color="#006db8"/><stop offset="0.92" stop-color="#008cce"/></linearGradient><linearGradient id="linear-gradient-5" x1="272.12" y1="101.46" x2="535.49" y2="101.46" gradientUnits="userSpaceOnUse"><stop offset="0" stop-color="#2e3192" stop-opacity="0.2"/><stop offset="0.25" stop-color="#6a6db0" stop-opacity="0.17"/><stop offset="1" stop-color="#f1f2f2" stop-opacity="0.1"/></linearGradient><linearGradient id="linear-gradient-6" x1="301.84" y1="170.87" x2="440.74" y2="170.87" xlink:href="#linear-gradient-5"/><linearGradient id="linear-gradient-7" x1="214.31" y1="-57.77" x2="494.89" y2="162.69" gradientTransform="matrix(0.96, -0.47, -0.89, -0.61, 60.11, 412.55)" gradientUnits="userSpaceOnUse"><stop offset="0" stop-color="#6d6e71" stop-opacity="0"/><stop offset="0.92" stop-color="#f1f2f2"/></linearGradient><linearGradient id="linear-gradient-8" x1="284.97" y1="-68.19" x2="565.55" y2="152.27" gradientTransform="translate(-2.62 8.37) rotate(-1.36)" xlink:href="#linear-gradient-7"/><linearGradient id="linear-gradient-9" x1="268" y1="-46.6" x2="548.59" y2="173.85" gradientTransform="translate(-2.62 8.37) rotate(-1.36)" xlink:href="#linear-gradient-7"/><linearGradient id="linear-gradient-10" x1="314.69" y1="-106.03" x2="595.28" y2="114.43" gradientTransform="translate(-2.62 8.37) rotate(-1.36)" xlink:href="#linear-gradient-7"/><linearGradient id="linear-gradient-11" x1="290.28" y1="-74.96" x2="570.86" y2="145.5" gradientTransform="translate(-2.62 8.37) rotate(-1.36)" xlink:href="#linear-gradient-7"/><linearGradient id="linear-gradient-12" x1="280.41" y1="-62.39" x2="560.99" y2="158.07" gradientTransform="translate(-2.62 8.37) rotate(-1.36)" xlink:href="#linear-gradient-7"/><linearGradient id="linear-gradient-13" x1="243.39" y1="-15.28" x2="523.98" y2="205.18" gradientTransform="translate(-2.62 8.37) rotate(-1.36)" xlink:href="#linear-gradient-7"/><linearGradient id="linear-gradient-14" x1="232.49" y1="-1.4" x2="513.07" y2="219.06" gradientTransform="translate(-2.62 8.37) rotate(-1.36)" xlink:href="#linear-gradient-7"/><linearGradient id="linear-gradient-15" x1="221.84" y1="12.15" x2="502.42" y2="232.61" gradientTransform="translate(-2.62 8.37) rotate(-1.36)" xlink:href="#linear-gradient-7"/><linearGradient id="linear-gradient-16" x1="254.97" y1="-30.02" x2="535.56" y2="190.44" gradientTransform="translate(-2.62 8.37) rotate(-1.36)" xlink:href="#linear-gradient-7"/><linearGradient id="linear-gradient-17" x1="300.88" y1="-88.44" x2="581.46" y2="132.02" gradientTransform="translate(-2.62 8.37) rotate(-1.36)" xlink:href="#linear-gradient-7"/></defs><title>Asset 1</title><g id="Layer_2" data-name="Layer 2"><g id="Layer_2-2" data-name="Layer 2"><g id="Atlassian_Isometric" data-name="Atlassian Isometric"><path id="base" class="cls-1" d="M0,270V248C16.83,239.61,419.28,72.26,436.11,80.59L684.48,182c12.24,6.06,8.95,43.45-3.29,49.51L334,403.32a72.84,72.84,0,0,1-64.66,0Z"/><path id="top" class="cls-2" d="M0,248,382.68,58.53a60.24,60.24,0,0,1,53.43,0L681.19,179.84a16.49,16.49,0,0,1,0,29.56L334,381.26a72.91,72.91,0,0,1-64.66,0Z"/><g id="Blue"><path class="cls-3" d="M309,203c-4.68-.45-8.21,1.42-6.85,4.2L335,274.32c1,2,4.46,3.28,7.79,2.9a7.9,7.9,0,0,0,2.52-.7l53.74-26c1.79-.83,2.49-2.24,1.76-3.6C390.2,226.31,349.46,206.81,309,203Z"/><path class="cls-4" d="M272.32,145.2c10.07,31.92,46.55,55,87.09,66l73.88,20a9.87,9.87,0,0,0,6.49-.39l53.74-26c2.54-1.23,2.7-3.52.34-5.13a8,8,0,0,0-2.4-1.06L280.14,141.39C275.51,140.14,271.34,142.11,272.32,145.2Z"/><path class="cls-5" d="M426.62,258c2.87,2,6.59,2.8,13.22.77,4-1.18,5.22-1.18,6.25-.48s1,1.47-1.41,2.61a30.56,30.56,0,0,1-10.2,2.55l4.68,3.18a28,28,0,0,0,9.72-2.81c5.88-2.84,5.79-5.61,2.18-8.06m0,0c-3.4-2.31-6.95-2.46-13.55-.54-3.66,1-5,1-5.9.37-1.13-.76-.52-1.61,1.5-2.58a30.69,30.69,0,0,1,8.73-2.33l-4.47-3a26.73,26.73,0,0,0-8.27,2.45c-5.44,2.63-6.06,5.47-2.48,7.9"/><polygon class="cls-5" points="496.74 217.78 516.18 230.98 520.66 228.82 505.83 218.75 511.65 220.51 528.88 224.85 534.5 222.13 515.06 208.93 510.58 211.09 523.13 219.61 517.79 217.96 503.8 214.37 496.74 217.78"/><polygon class="cls-5" points="463.37 233.91 468.26 231.54 487.71 244.74 482.82 247.1 463.37 233.91"/><path class="cls-5" d="M471.42,245.93c-3.4-2.31-6.95-2.45-13.54-.54-3.66,1.05-5,1-5.91.38-1.12-.76-.51-1.61,1.51-2.58a30.29,30.29,0,0,1,8.72-2.33l-4.47-3a26.54,26.54,0,0,0-8.27,2.45c-5.44,2.62-6.06,5.47-2.48,7.9,2.87,1.95,6.59,2.8,13.23.76,4-1.18,5.21-1.17,6.24-.47s1,1.46-1.41,2.61a30.74,30.74,0,0,1-10.19,2.55l4.67,3.18a28.19,28.19,0,0,0,9.72-2.81c5.89-2.84,5.79-5.62,2.18-8.07"/><polygon class="cls-5" points="383.14 272.67 402.58 285.87 412.64 281.01 410.02 277.39 403.31 280.64 388.06 270.29 383.14 272.67"/><polygon class="cls-5" points="363.27 282.27 367.47 285.12 372.91 282.5 388.15 292.84 393.08 290.46 377.83 280.12 383.65 277.31 379.45 274.45 363.27 282.27"/><path class="cls-5" d="M356.13,285.72l-6.45,3.12,12.12,16.74,5.59-2.71-2.24-2.72a17.55,17.55,0,0,0,7.84-3.79l4.31,1.73,5.6-2.71Zm9.44,10.16a14.77,14.77,0,0,1-3.05,1.05l-5.8-7.06,11.18,4.46A9.36,9.36,0,0,1,365.57,295.88Z"/><path class="cls-5" d="M410.53,259.43l-6.45,3.12,12.12,16.74,5.6-2.7-2.24-2.73a17.55,17.55,0,0,0,7.83-3.78l4.31,1.72,5.6-2.7ZM420,269.59a14.78,14.78,0,0,1-3.05,1.06l-5.8-7.06,11.18,4.46a9.62,9.62,0,0,1-2.33,1.54Z"/><path class="cls-5" d="M485.89,223l-6.45,3.12,12.12,16.74,5.59-2.7-2.24-2.73a17.44,17.44,0,0,0,7.84-3.79l4.31,1.73,5.6-2.71Zm9.44,10.16a14.78,14.78,0,0,1-3.05,1.06l-5.8-7.07,11.19,4.46a9.62,9.62,0,0,1-2.34,1.55Z"/></g><g id="User_Groups" data-name="User Groups" class="cls-6"><path class="cls-7" d="M376.93,326.45l-13.53-9.63,3.27-1.65,13.7,9.74c3.48,2.48,7.37,3.47,11.55,1.35s3.22-4.57-.26-7.05L378,309.47l3.28-1.66,13.53,9.63c5.33,3.79,6.35,7.71.05,10.89S382.26,330.24,376.93,326.45Z"/><path class="cls-7" d="M414.92,318.18a22.94,22.94,0,0,1-7.58,2.31l-3.07-2.18a24.49,24.49,0,0,0,8.13-2.1c2.4-1.21,2.73-2.49,1.41-3.42s-3.08-.91-7.31.28c-4.95,1.4-8.12,1.23-10.88-.74-2.94-2.09-2.29-4.59,1.86-6.69a21.44,21.44,0,0,1,7.08-2.09l3,2.13a22.21,22.21,0,0,0-7.45,1.88c-2.29,1.16-2.79,2.31-1.47,3.25s2.8.92,6.89-.24c5-1.39,8.37-1.44,11.31.65S419.8,315.71,414.92,318.18Z"/><path class="cls-7" d="M434.07,308.51a17.4,17.4,0,0,1-18.6-1.32c-5.1-3.62-5.68-7.76-.15-10.56s11.48-1.4,16.61,2.25l1.31.93L420,306.53a11.69,11.69,0,0,0,11.46,0A15.35,15.35,0,0,0,436,303l2.66,1.9C438,306.22,435.93,307.57,434.07,308.51Zm-16.65-3.74,10.16-5.13c-3.32-2.14-6.64-2.64-9.77-1.06C414.49,300.25,414.81,302.52,417.42,304.77Z"/><path class="cls-7" d="M447.17,301.48,444.11,303l-16.88-12,3.06-1.55,3,2.12c-.93-2-.53-3.88,3.24-5.54l2.84,2c-4.38,1.76-5.71,3.78-2.13,6.32Z"/><path class="cls-7" d="M470,275.2l10.87,7.73c-.85,1.7-3.81,3.85-6.5,5.21a23.17,23.17,0,0,1-24-1.69c-7.23-5.14-6.45-10.74,2.07-15.05a29.67,29.67,0,0,1,7.1-2.52l3,2.16a26.17,26.17,0,0,0-7.17,2.43c-7.1,3.59-7.07,7.55-1.84,11.27s11.82,4.42,18.7.95a15.76,15.76,0,0,0,3.57-2.38l-6.18-4.39L463.55,282l-2.9-2.07Z"/><path class="cls-7" d="M491,279.35l-3.06,1.54-16.87-12,3.06-1.54,3,2.11c-.94-1.95-.54-3.88,3.24-5.54l2.83,2c-4.38,1.76-5.7,3.78-2.13,6.33Z"/><path class="cls-7" d="M490.57,269.26c-5.06-3.6-5.53-7.83-.07-10.59s12.27-1.73,17.33,1.87,5.64,7.87.22,10.61S495.64,272.86,490.57,269.26Zm3.06-1.54c3.21,2.28,7.82,3.47,11.72,1.51s2.63-4.86-.58-7.14-7.71-3.45-11.57-1.5S490.43,265.44,493.63,267.72Z"/><path class="cls-7" d="M502.71,252.91l3.13-1.58L516,258.58c3,2.16,5.7,2.46,8.68.95s3.13-3.75-.28-6.18l-9.38-6.67,3.13-1.58,16.87,12-3.13,1.58-2.77-2c.83,2-.2,3.88-2.64,5.12-4.19,2.11-9.26,1.43-13.92-1.88Z"/><path class="cls-7" d="M540,251l9.55,6.79-3.13,1.58-23.46-16.68,3.13-1.58,3,2.16c-1.06-2.17,0-4.09,2.78-5.51,4.84-2.44,11.09-1,16,2.56,4.76,3.39,6.23,7.53,1.13,10.1A12,12,0,0,1,540,251Zm-6.23-10.9c-2.8,1.42-3.66,3.86.08,6.53l1.35,1c3.75,2.66,7.7,2.68,10.36,1.34,3.53-1.79,3.19-4.24-.73-7S537,238.49,533.72,240.12Z"/><path class="cls-7" d="M566,241.86a22.87,22.87,0,0,1-7.58,2.31L555.39,242a24.43,24.43,0,0,0,8.13-2.1c2.41-1.22,2.73-2.49,1.42-3.42s-3.08-.91-7.32.28c-5,1.4-8.11,1.23-10.88-.74-2.94-2.09-2.29-4.59,1.87-6.69a21.32,21.32,0,0,1,7.07-2.09l3,2.13a22.27,22.27,0,0,0-7.46,1.88c-2.29,1.16-2.78,2.31-1.47,3.25s2.8.92,6.89-.24c5-1.39,8.38-1.44,11.31.65S570.92,239.39,566,241.86Z"/></g><path id="Projection_Back" data-name="Projection Back" class="cls-8" d="M493.86,199.77,278.35,141c-4.25-1.49-6.64,3.45-6.17,1.64L312.43,3.46A5,5,0,0,1,318.1.12L533.78,58.78s4.07,2.39-.34,5.13l-38,139Z"/><path id="Projection_Front" data-name="Projection Front" class="cls-9" d="M301.84,206.42l31.9,65.75c1.95,5.11,7,6.31,11.58,4.37L400,250l40.79-141.44L342.05,64.33Z"/><g id="logo_white" data-name="logo white"><path class="cls-10" d="M348.9,62c-4.68-.44-8.21,1.42-6.85,4.2l32.85,67.14c1,2,4.46,3.28,7.79,2.89a7.9,7.9,0,0,0,2.52-.69l53.74-26c1.79-.82,2.49-2.23,1.76-3.59C430.12,85.32,389.38,65.82,348.9,62Z"/><path class="cls-11" d="M312.24,4.21c10.07,31.91,46.55,55,87.09,66l73.88,20a9.8,9.8,0,0,0,6.49-.4l53.74-26c2.54-1.23,2.7-3.53.34-5.13a8,8,0,0,0-2.4-1.06L320.06.4C315.43-.85,311.26,1.12,312.24,4.21Z"/><path class="cls-12" d="M466.54,117c2.87,2,6.59,2.8,13.22.76,4-1.18,5.22-1.17,6.25-.47s1,1.46-1.41,2.61a30.8,30.8,0,0,1-10.2,2.55l4.68,3.18a28.19,28.19,0,0,0,9.72-2.81c5.88-2.84,5.79-5.62,2.18-8.07m0,0c-3.4-2.31-7-2.45-13.55-.54-3.66,1.05-5,1-5.9.38-1.13-.76-.51-1.61,1.5-2.58a30.36,30.36,0,0,1,8.73-2.33l-4.47-3a26.46,26.46,0,0,0-8.27,2.45c-5.44,2.63-6.06,5.47-2.48,7.9"/><polygon class="cls-13" points="536.65 76.79 556.1 89.99 560.58 87.83 545.75 77.76 551.57 79.52 568.8 83.86 574.42 81.14 554.98 67.94 550.5 70.1 563.05 78.62 557.72 76.97 543.72 73.38 536.65 76.79"/><polygon class="cls-14" points="503.29 92.91 508.18 90.55 527.63 103.75 522.74 106.11 503.29 92.91"/><path class="cls-15" d="M511.34,104.94c-3.4-2.31-6.95-2.45-13.54-.54-3.66,1-5,1-5.91.38-1.12-.77-.51-1.61,1.51-2.59a30.29,30.29,0,0,1,8.72-2.32l-4.47-3a26.81,26.81,0,0,0-8.27,2.45c-5.44,2.63-6.06,5.48-2.48,7.91,2.88,2,6.59,2.8,13.23.76,4-1.18,5.21-1.18,6.24-.47s1,1.46-1.41,2.6a30.74,30.74,0,0,1-10.19,2.56l4.67,3.17a28,28,0,0,0,9.72-2.8c5.89-2.85,5.79-5.62,2.18-8.07"/><polygon class="cls-16" points="423.06 131.68 442.5 144.88 452.56 140.02 449.94 136.4 443.23 139.65 427.98 129.3 423.06 131.68"/><polygon class="cls-17" points="403.19 141.28 407.39 144.13 412.83 141.5 428.07 151.85 433 149.47 417.75 139.12 423.57 136.31 419.37 133.46 403.19 141.28"/><path class="cls-18" d="M396.05,144.73l-6.45,3.11,12.12,16.74,5.59-2.7-2.24-2.72a17.55,17.55,0,0,0,7.84-3.79l4.31,1.72,5.6-2.7Zm9.44,10.15a14.78,14.78,0,0,1-3.05,1.06l-5.8-7.06,11.18,4.46A9.62,9.62,0,0,1,405.49,154.88Z"/><path class="cls-19" d="M450.45,118.44,444,121.56l12.12,16.74,5.6-2.71-2.24-2.72a17.46,17.46,0,0,0,7.83-3.79l4.31,1.73,5.6-2.71Zm9.44,10.16a15.39,15.39,0,0,1-3.05,1.06l-5.8-7.07,11.19,4.46a9.62,9.62,0,0,1-2.34,1.55Z"/><path class="cls-20" d="M525.81,82l-6.45,3.12,12.12,16.74,5.6-2.71-2.25-2.72a17.55,17.55,0,0,0,7.84-3.79L547,94.4l5.6-2.71Zm9.44,10.16a14.77,14.77,0,0,1-3,1l-5.8-7.06,11.19,4.46a9.62,9.62,0,0,1-2.34,1.55Z"/></g></g></g></g></svg>