<?xml version="1.0" encoding="utf-8"?>
<!-- Generator: Adobe Illustrator 23.0.0, SVG Export Plug-In . SVG Version: 6.00 Build 0)  -->
<svg version="1.1" id="Layer_1" xmlns="http://www.w3.org/2000/svg" xmlns:xlink="http://www.w3.org/1999/xlink" x="0px" y="0px"
	 viewBox="0 0 300 200" enable-background="new 0 0 300 200" xml:space="preserve">
<g>
	<g id="Layer_2-2">
		<g id="Drop_Shadow" opacity="0.7">
			
				<image overflow="visible" enable-background="new    " width="2993" height="1645" xlink:href="A1BA8C9E.png"  transform="matrix(7.245188e-02 0 0 7.245188e-02 2 80.5967)">
			</image>
		</g>
		<g id="base">
			<g>
				<defs>
					<path id="SVGID_1_" d="M2.2,117.2v-6.7c5.1-2.5,126.6-53,131.7-50.5l75,30.6c3.7,1.8,2.7,13.1-1,14.9L103,157.4
						c-6.1,3-13.4,3-19.5,0L2.2,117.2z"/>
				</defs>
				<clipPath id="SVGID_2_">
					<use xlink:href="#SVGID_1_"  overflow="visible"/>
				</clipPath>
				<g clip-path="url(#SVGID_2_)">
					<image overflow="visible" width="240" height="129" xlink:href="A1BA8CA2.png"  transform="matrix(1 0 0 1 -21 48)">
					</image>
				</g>
			</g>
		</g>
		<g id="top">
			<g>
				<defs>
					<path id="SVGID_3_" d="M2.2,110.5l115.5-57.2c5.1-2.5,11-2.5,16.1,0l74,36.6c2.5,1.2,3.5,4.2,2.3,6.7c-0.5,1-1.3,1.8-2.3,2.3
						L103,150.8c-6.1,3-13.4,3-19.5,0L2.2,110.5z"/>
				</defs>
				<clipPath id="SVGID_4_">
					<use xlink:href="#SVGID_3_"  overflow="visible"/>
				</clipPath>
				<g clip-path="url(#SVGID_4_)">
					<image overflow="visible" width="241" height="113" xlink:href="A1BA8CA5.png"  transform="matrix(1 0 0 1 -1 45)">
					</image>
				</g>
			</g>
		</g>
		<g enable-background="new    ">
			<path fill="#FFFFFF" d="M99.3,138.8c0.3,0.3,0.3,0.7,0.1,1c-0.2,0.3-0.6,0.6-1.2,0.9c-0.6,0.3-1.4,0.5-2.3,0.5
				c-0.9,0.1-1.9,0-3-0.2c-1.1-0.2-2.1-0.5-3.2-0.9l-0.9-0.3c-1.7-0.6-2.8-1.3-3.2-1.9s-0.1-1.2,0.8-1.6c0.8-0.4,1.8-0.6,2.9-0.6
				c1.1,0,2.3,0.2,3.6,0.6l-1.3,0.6c-1.5-0.4-2.7-0.5-3.6,0c-0.6,0.3-0.7,0.6-0.4,1s1.1,0.8,2.3,1.3l0.9,0.3
				c1.2,0.5,2.4,0.7,3.4,0.8c1,0.1,1.8,0,2.4-0.3c0.7-0.3,0.9-0.6,0.7-0.9l-2.2-0.8l-1.5,0.7l-1.5-0.6l2.9-1.3L99.3,138.8z"/>
			<path fill="#FFFFFF" d="M97.5,137.2c-0.8-0.3-1.5-0.6-1.9-1c-0.4-0.3-0.7-0.7-0.6-1c0-0.3,0.3-0.6,0.8-0.8
				c0.8-0.4,1.7-0.5,2.9-0.4s2.4,0.3,3.7,0.7l0.5,0.2c0.8,0.3,1.5,0.6,1.9,1c0.4,0.3,0.7,0.7,0.6,1c0,0.3-0.3,0.6-0.8,0.8
				c-0.8,0.4-1.8,0.5-3.1,0.4C100.2,138.1,98.9,137.8,97.5,137.2L97.5,137.2z M98.9,136.7c0.9,0.3,1.7,0.5,2.4,0.6
				c0.7,0.1,1.3,0,1.7-0.2c0.4-0.2,0.5-0.4,0.2-0.7c-0.3-0.3-0.9-0.6-1.8-1c-0.9-0.3-1.7-0.5-2.4-0.6c-0.7-0.1-1.3,0-1.7,0.2
				c-0.4,0.2-0.5,0.4-0.2,0.7C97.3,136,97.9,136.4,98.9,136.7z"/>
			<path fill="#FFFFFF" d="M103.5,134.4c-0.8-0.3-1.5-0.6-1.9-1c-0.4-0.3-0.7-0.7-0.6-1c0-0.3,0.3-0.6,0.8-0.8
				c0.8-0.4,1.7-0.5,2.9-0.4c1.2,0.1,2.4,0.3,3.7,0.7l0.5,0.2c0.8,0.3,1.5,0.6,1.9,1c0.4,0.3,0.7,0.7,0.6,1c0,0.3-0.3,0.6-0.8,0.8
				c-0.8,0.4-1.8,0.5-3.1,0.4C106.2,135.2,104.9,135,103.5,134.4L103.5,134.4z M104.9,133.9c0.9,0.3,1.7,0.5,2.4,0.6
				c0.7,0.1,1.3,0,1.7-0.2c0.4-0.2,0.5-0.4,0.2-0.7c-0.3-0.3-0.9-0.6-1.8-1c-0.9-0.3-1.7-0.5-2.4-0.6c-0.7-0.1-1.3,0-1.7,0.2
				c-0.4,0.2-0.5,0.4-0.2,0.7C103.3,133.2,104,133.5,104.9,133.9z"/>
			<path fill="#FFFFFF" d="M109.6,131.6c-1.3-0.5-2.2-1-2.5-1.5s-0.2-0.9,0.4-1.2c0.6-0.3,1.5-0.4,2.5-0.3l-0.8-0.3l1.1-0.5l8.2,3.1
				c1.1,0.4,1.8,0.8,1.9,1.3c0.2,0.5-0.1,0.9-0.9,1.2c-0.4,0.2-0.9,0.3-1.6,0.4c-0.6,0.1-1.3,0.1-1.9,0l-0.5-0.7
				c1.1,0.1,1.9,0,2.5-0.3c0.4-0.2,0.6-0.4,0.5-0.7c-0.1-0.2-0.5-0.5-1.1-0.7l-0.6-0.2c0.2,0.4,0.1,0.7-0.5,1
				c-0.7,0.3-1.6,0.4-2.8,0.3C112.3,132.4,111,132.1,109.6,131.6z M111,131.1c0.9,0.3,1.6,0.5,2.4,0.6c0.7,0.1,1.3,0,1.7-0.2
				c0.5-0.2,0.6-0.5,0.1-0.9l-3.7-1.4c-0.9-0.1-1.6-0.1-2.1,0.2c-0.4,0.2-0.5,0.4-0.2,0.7C109.4,130.4,110,130.7,111,131.1z"/>
			<path fill="#FFFFFF" d="M121.4,129.7l-1.3,0.6l-12-4.5l1.3-0.6L121.4,129.7z"/>
			<path fill="#FFFFFF" d="M125.4,127.9c-0.8,0.4-1.8,0.5-3.1,0.5c-1.3-0.1-2.5-0.3-3.8-0.8l-0.2-0.1c-0.8-0.3-1.5-0.6-1.9-1
				c-0.5-0.3-0.7-0.7-0.6-1c0-0.3,0.3-0.6,0.7-0.8c0.8-0.4,1.7-0.5,2.9-0.4c1.2,0.1,2.4,0.4,3.7,0.9l0.8,0.3l-3.7,1.7
				c0.7,0.2,1.4,0.4,2.1,0.4c0.7,0,1.2-0.1,1.6-0.2c0.6-0.3,0.7-0.6,0.3-1.1l1.7,0c0.3,0.3,0.4,0.6,0.3,0.9
				C126.2,127.5,125.9,127.7,125.4,127.9z M118,125.3c-0.3,0.2-0.4,0.4-0.3,0.6c0.2,0.2,0.5,0.5,1.1,0.8l2.4-1.1l-0.1-0.1
				c-0.7-0.2-1.3-0.4-1.8-0.4C118.8,125.1,118.3,125.1,118,125.3z"/>
			<path fill="#FFFFFF" d="M133.3,121c1.1,0.5,1.8,1,2,1.5c0.2,0.5-0.2,0.9-1,1.3c-0.6,0.3-1.3,0.4-2.2,0.5c-0.9,0.1-1.9,0-2.9-0.2
				c-1-0.2-2.1-0.5-3.2-0.8l-1.1-0.4c-1.1-0.4-1.9-0.8-2.5-1.2c-0.6-0.4-0.8-0.8-0.8-1.2c0-0.4,0.3-0.7,1-1c0.8-0.4,1.8-0.6,3-0.6
				c1.2,0,2.4,0.2,3.8,0.7l-1.3,0.6c-0.9-0.3-1.6-0.4-2.2-0.4c-0.6,0-1.2,0.1-1.7,0.3c-0.6,0.3-0.7,0.6-0.4,1
				c0.3,0.4,1.1,0.8,2.3,1.3l1,0.4c1.2,0.5,2.3,0.7,3.3,0.8c0.9,0.1,1.7,0,2.3-0.2c0.5-0.2,0.7-0.5,0.6-0.7
				c-0.1-0.3-0.5-0.5-1.3-0.9L133.3,121z"/>
		</g>
		<g enable-background="new    ">
			<path fill="#FFFFFF" d="M134.2,118c-0.2,0.1-0.4,0.1-0.6,0.2c-0.6,0.3-0.6,0.6-0.2,0.9l5.8,2.2l-1.3,0.6l-8.5-3.2l1.2-0.6l1,0.3
				c-0.4-0.4-0.4-0.7,0.2-1c0.2-0.1,0.4-0.1,0.6-0.2L134.2,118z"/>
		</g>
		<g enable-background="new    ">
			<path fill="#FFFFFF" d="M137,118.8c-0.8-0.3-1.5-0.6-1.9-1c-0.4-0.3-0.7-0.7-0.6-1c0-0.3,0.3-0.6,0.8-0.8
				c0.8-0.4,1.7-0.5,2.9-0.4c1.2,0.1,2.4,0.3,3.7,0.7l0.5,0.2c0.8,0.3,1.5,0.6,1.9,1c0.4,0.3,0.7,0.7,0.6,1c0,0.3-0.3,0.6-0.8,0.8
				c-0.8,0.4-1.8,0.5-3.1,0.4C139.7,119.6,138.4,119.3,137,118.8L137,118.8z M138.4,118.2c0.9,0.3,1.7,0.5,2.4,0.6
				c0.7,0.1,1.3,0,1.7-0.2c0.4-0.2,0.5-0.4,0.2-0.7c-0.3-0.3-0.9-0.6-1.8-1c-0.9-0.3-1.7-0.5-2.4-0.6c-0.7-0.1-1.3,0-1.7,0.2
				c-0.4,0.2-0.5,0.4-0.2,0.7C136.8,117.5,137.4,117.9,138.4,118.2z"/>
			<path fill="#FFFFFF" d="M149.9,114.2l-5-2.6l1.2-0.6l7,3.9l-1,0.5l-7-1.6l4.6,2.7l-1,0.5l-10-2.4l1.2-0.6l6.7,1.7l-4.6-2.7
				l0.9-0.4L149.9,114.2z"/>
			<path fill="#FFFFFF" d="M150.9,112.3c-1.3-0.5-2.2-1-2.5-1.5c-0.4-0.5-0.3-0.9,0.4-1.2c0.6-0.3,1.4-0.4,2.4-0.3l-4.3-1.6l1.3-0.6
				l12,4.5l-1.1,0.5l-0.9-0.3c0.3,0.4,0.2,0.8-0.5,1.1c-0.7,0.3-1.6,0.4-2.8,0.3C153.6,113.1,152.3,112.8,150.9,112.3z M152.3,111.8
				c0.9,0.3,1.6,0.5,2.3,0.6c0.7,0.1,1.3,0,1.7-0.2c0.5-0.2,0.5-0.5,0.1-0.9l-3.6-1.3c-0.9-0.1-1.6-0.1-2.1,0.1
				c-0.4,0.2-0.5,0.4-0.2,0.7C150.7,111.1,151.3,111.4,152.3,111.8z"/>
			<path fill="#FFFFFF" d="M162.2,108.7c-0.3-0.1-0.7-0.2-1.1-0.2c-0.4,0-0.8,0.1-1.4,0.3c-0.6,0.1-1.1,0.3-1.6,0.3
				c-1.1,0.1-2.1,0-2.9-0.3c-0.7-0.3-1.1-0.6-1.2-1c-0.1-0.4,0.2-0.7,0.8-1c0.7-0.3,1.5-0.5,2.4-0.5c0.9,0,1.8,0.1,2.6,0.4l-1.3,0.6
				c-0.4-0.1-0.8-0.2-1.2-0.2c-0.4,0-0.8,0.1-1.1,0.2c-0.3,0.1-0.4,0.3-0.4,0.4c0,0.2,0.2,0.3,0.5,0.4c0.3,0.1,0.6,0.2,0.9,0.1
				c0.3,0,0.8-0.1,1.5-0.3c0.7-0.2,1.2-0.3,1.7-0.3c0.5,0,1,0,1.4,0c0.5,0.1,0.9,0.2,1.4,0.3c0.8,0.3,1.2,0.6,1.2,1
				c0.1,0.4-0.3,0.7-0.9,1c-0.5,0.2-1,0.4-1.6,0.4c-0.6,0.1-1.2,0.1-1.9,0c-0.6-0.1-1.2-0.2-1.7-0.4l1.2-0.6
				c0.5,0.2,0.9,0.2,1.4,0.2c0.4,0,0.8-0.1,1.2-0.2c0.3-0.2,0.5-0.3,0.5-0.5C162.7,108.9,162.5,108.8,162.2,108.7z"/>
			<path fill="#FFFFFF" d="M162.3,106.9c-0.8-0.3-1.5-0.6-1.9-1c-0.4-0.3-0.7-0.7-0.6-1s0.3-0.6,0.8-0.8c0.8-0.4,1.7-0.5,2.9-0.4
				c1.2,0.1,2.4,0.3,3.7,0.7l0.5,0.2c0.8,0.3,1.5,0.6,1.9,1c0.4,0.3,0.7,0.7,0.6,1c0,0.3-0.3,0.6-0.8,0.8c-0.8,0.4-1.8,0.5-3.1,0.4
				C165,107.7,163.7,107.5,162.3,106.9L162.3,106.9z M163.7,106.4c0.9,0.3,1.7,0.5,2.4,0.6c0.7,0.1,1.3,0,1.7-0.2
				c0.4-0.2,0.5-0.4,0.2-0.7c-0.3-0.3-0.9-0.6-1.8-1c-0.9-0.3-1.7-0.5-2.4-0.6c-0.7-0.1-1.3,0-1.7,0.2c-0.4,0.2-0.5,0.4-0.2,0.7
				C162.1,105.7,162.8,106,163.7,106.4z"/>
			<path fill="#FFFFFF" d="M175.4,103.7c0.3,0.4,0.1,0.8-0.6,1.1c-0.6,0.3-1.3,0.4-2.2,0.3c-0.8-0.1-1.8-0.3-2.8-0.7l-5.5-2l1.3-0.6
				l5.5,2c1.1,0.4,1.9,0.5,2.5,0.2c0.6-0.3,0.7-0.6,0.2-0.9l-6.1-2.3l1.3-0.6l8.5,3.2l-1.2,0.6L175.4,103.7z"/>
		</g>
		<g enable-background="new    ">
			<path fill="#FFFFFF" d="M175,99c-0.2,0.1-0.4,0.1-0.6,0.2c-0.6,0.3-0.6,0.6-0.2,0.9l5.8,2.2l-1.3,0.6l-8.5-3.2l1.2-0.6l1,0.3
				c-0.4-0.4-0.4-0.7,0.2-1c0.2-0.1,0.4-0.1,0.6-0.2L175,99z"/>
		</g>
		<g enable-background="new    ">
			<path fill="#FFFFFF" d="M183.3,99.6c0.3-0.1,0.4-0.3,0.4-0.5c-0.1-0.2-0.3-0.4-0.7-0.5l1.2-0.6c0.5,0.2,0.9,0.4,1.2,0.7
				c0.3,0.3,0.3,0.5,0.3,0.8c-0.1,0.3-0.3,0.5-0.7,0.7c-0.8,0.4-1.8,0.5-3,0.4c-1.2-0.1-2.5-0.4-3.9-0.9l-0.2-0.1
				c-1.3-0.5-2.1-1-2.4-1.5c-0.3-0.5-0.1-0.9,0.7-1.3c0.7-0.3,1.5-0.5,2.5-0.4c1,0,2,0.2,3,0.6l-1.2,0.6c-0.5-0.2-1-0.3-1.5-0.3
				c-0.5,0-0.9,0-1.3,0.2c-0.4,0.2-0.5,0.4-0.3,0.7s0.8,0.6,1.7,0.9l0.3,0.1c0.9,0.3,1.7,0.5,2.4,0.6
				C182.4,99.8,182.9,99.8,183.3,99.6z"/>
			<path fill="#FFFFFF" d="M190.5,97.5c-0.8,0.4-1.8,0.5-3.1,0.5c-1.3-0.1-2.5-0.3-3.8-0.8l-0.2-0.1c-0.8-0.3-1.5-0.6-1.9-1
				c-0.5-0.3-0.7-0.7-0.6-1c0-0.3,0.3-0.6,0.7-0.8c0.8-0.4,1.7-0.5,2.9-0.4c1.2,0.1,2.4,0.4,3.7,0.9L189,95l-3.7,1.7
				c0.7,0.2,1.4,0.4,2.1,0.4c0.7,0,1.2-0.1,1.6-0.3c0.6-0.3,0.7-0.6,0.3-1.1l1.7,0c0.3,0.3,0.4,0.6,0.3,0.9
				C191.3,97,191,97.3,190.5,97.5z M183.1,94.8c-0.3,0.2-0.4,0.4-0.3,0.6c0.2,0.2,0.5,0.5,1.1,0.8l2.4-1.1l-0.1-0.1
				c-0.7-0.2-1.3-0.4-1.8-0.4C183.9,94.6,183.5,94.7,183.1,94.8z"/>
		</g>
		<g id="logo">
			<g id="man">
				
					<image overflow="visible" enable-background="new    " width="508" height="437" id="hand" xlink:href="A1BA8CA6.png"  transform="matrix(0.1268 -5.735774e-02 0.1268 4.226360e-02 34.395 109.5503)">
				</image>
				
					<image overflow="visible" enable-background="new    " width="209" height="209" id="face" xlink:href="A1BA8CA4.png"  transform="matrix(0.1268 -5.735774e-02 0.1268 4.226360e-02 55.4967 99.2983)">
				</image>
			</g>
			<g id="kid" opacity="0.2">
				
					<image overflow="visible" enable-background="new    " width="378" height="325" id="hand-2" xlink:href="A1BA8CA3.png"  transform="matrix(0.1268 -5.735774e-02 0.1268 4.226360e-02 89.9083 95.3618)">
				</image>
				
					<image overflow="visible" enable-background="new    " width="158" height="158" id="face-2" xlink:href="A1BA8CAD.png"  transform="matrix(0.1268 -5.735774e-02 0.1298 4.226360e-02 101.084 89.7498)">
				</image>
			</g>
		</g>
		<g opacity="0.8">
			
				<image overflow="visible" enable-background="new    " width="778" height="544" xlink:href="A1BA8CAE.png"  transform="matrix(0.1902 0 0 0.1902 31.7143 0)">
			</image>
		</g>
		<g>
			<g>
				<defs>
					<path id="SVGID_5_" d="M35,109.8l2.8-45.7c0,0,28.2,9.8,41.2,8.8c13-0.9,29.9,0.2,31.4,2.3l60.4-27.8l-4.4,45.2l-58.9,27.3
						c0,0-10.8-3.8-26.5-2c0,0-15.1-0.5-16.5-0.8C63.1,116.9,35,109.8,35,109.8z"/>
				</defs>
				<clipPath id="SVGID_6_">
					<use xlink:href="#SVGID_5_"  overflow="visible"/>
				</clipPath>
				<g clip-path="url(#SVGID_6_)">
					<image overflow="visible" width="137" height="73" xlink:href="A1BA8CAC.png"  transform="matrix(1 0 0 1 34 47)">
					</image>
				</g>
			</g>
		</g>
	</g>
</g>
</svg>
