<?xml version="1.0" encoding="utf-8"?>
<!-- Generator: Adobe Illustrator 23.0.0, SVG Export Plug-In . SVG Version: 6.00 Build 0)  -->
<svg version="1.1" id="Layer_1" xmlns="http://www.w3.org/2000/svg" xmlns:xlink="http://www.w3.org/1999/xlink" x="0px" y="0px"
	 viewBox="0 0 300 200" enable-background="new 0 0 300 200" xml:space="preserve">
<g>
	<g id="Layer_2-2_1_">
		<g id="Drop_Shadow_1_" opacity="0.7">
			
				<image overflow="visible" enable-background="new    " width="2993" height="1645" xlink:href="AE01976E.png"  transform="matrix(8.256199e-02 0 0 8.256199e-02 2 63.9855)">
			</image>
		</g>
		<g id="base_1_">
			<g>
				<defs>
					<path id="SVGID_1_" d="M2.2,105.7v-7.6c5.8-2.9,144.2-60.4,150-57.6l85.4,34.9c4.2,2.1,3.1,14.9-1.1,17l-119.4,59.1
						c-7,3.5-15.2,3.5-22.2,0L2.2,105.7z"/>
				</defs>
				<clipPath id="SVGID_2_">
					<use xlink:href="#SVGID_1_"  overflow="visible"/>
				</clipPath>
				<g clip-path="url(#SVGID_2_)">
					<image overflow="visible" width="271" height="145" xlink:href="AE019772.png"  transform="matrix(1 0 0 1 -3 25)">
					</image>
				</g>
			</g>
		</g>
		<g id="top_1_">
			<g>
				<defs>
					<path id="SVGID_3_" d="M2.2,98.1l131.6-65.2c5.8-2.9,12.6-2.9,18.4,0l84.3,41.7c2.8,1.4,4,4.8,2.6,7.6c-0.6,1.1-1.5,2-2.6,2.6
						L117.1,144c-7,3.5-15.2,3.5-22.2,0L2.2,98.1z"/>
				</defs>
				<clipPath id="SVGID_4_">
					<use xlink:href="#SVGID_3_"  overflow="visible"/>
				</clipPath>
				<g clip-path="url(#SVGID_4_)">
					<image overflow="visible" width="267" height="192" xlink:href="AE019775.png"  transform="matrix(1 0 0 1 -21 -11)">
					</image>
				</g>
			</g>
		</g>
		<g enable-background="new    ">
			<path fill="#F1F2F2" d="M137.5,118.6l-3.1,1.5l5.6,2.7l-1.4,0.7l-13.2-6.5l4.9-2.4l1.9,0.9l-3.6,1.8l3.9,1.9l3.1-1.5L137.5,118.6
				z"/>
			<path fill="#F1F2F2" d="M132.2,114.6c-0.3-0.2-0.6-0.3-0.7-0.5c-0.1-0.2,0-0.3,0.2-0.4c0.2-0.1,0.5-0.1,0.9-0.1
				c0.4,0,0.7,0.2,1,0.3c0.3,0.2,0.5,0.3,0.6,0.5c0.1,0.2,0,0.3-0.2,0.4c-0.2,0.1-0.5,0.2-0.9,0.1
				C132.9,114.9,132.5,114.8,132.2,114.6z M145.9,120l-1.3,0.6l-9.8-4.8l1.3-0.6L145.9,120z"/>
			<path fill="#F1F2F2" d="M142.1,117c-1.5-0.7-2.5-1.4-3-2.1c-0.5-0.7-0.4-1.1,0.3-1.5c0.7-0.3,1.6-0.4,2.7-0.2l-0.9-0.5l1.2-0.6
				l9.5,4.7c1.3,0.6,2.1,1.2,2.3,1.8c0.3,0.6,0,1.1-0.8,1.5c-0.4,0.2-1,0.3-1.7,0.4c-0.7,0.1-1.4,0-2.1-0.1l-0.7-0.9
				c1.2,0.2,2.1,0.2,2.7-0.1c0.4-0.2,0.6-0.5,0.4-0.8c-0.1-0.3-0.6-0.7-1.4-1l-0.7-0.3c0.3,0.5,0.2,0.9-0.4,1.3
				c-0.7,0.3-1.7,0.4-3,0.1C145.2,118.3,143.7,117.7,142.1,117z M143.6,116.4c1,0.5,1.9,0.8,2.7,1c0.8,0.2,1.4,0.1,1.8-0.1
				c0.5-0.3,0.5-0.6,0-1.1l-4.3-2.1c-1-0.2-1.7-0.2-2.3,0c-0.4,0.2-0.5,0.5-0.1,0.9C141.8,115.4,142.5,115.9,143.6,116.4z"/>
			<path fill="#F1F2F2" d="M144.9,110.8l1.1,0.5c-0.4-0.6-0.2-1.1,0.5-1.4c0.8-0.4,1.8-0.4,3.1,0c-0.6-0.7-0.5-1.2,0.3-1.6
				c0.6-0.3,1.4-0.4,2.3-0.3c0.9,0.1,2,0.5,3.1,1.1l6.4,3.2l-1.3,0.6l-6.4-3.1c-0.6-0.3-1.2-0.5-1.6-0.6c-0.5-0.1-0.9,0-1.2,0.2
				c-0.3,0.1-0.4,0.3-0.3,0.6c0.1,0.2,0.3,0.5,0.7,0.7l6.7,3.3l-1.3,0.6l-6.5-3.2c-1.2-0.6-2.1-0.7-2.8-0.3c-0.5,0.3-0.5,0.6,0,1.1
				l7.1,3.5l-1.3,0.6l-9.8-4.8L144.9,110.8z"/>
			<path fill="#F1F2F2" d="M166.5,109.9c-0.2-0.1-0.6-0.2-1.1-0.4c0.3,0.6,0.2,1-0.4,1.3c-0.6,0.3-1.3,0.4-2.3,0.3
				c-0.9-0.1-1.8-0.3-2.6-0.8c-1-0.5-1.6-1-1.7-1.5c-0.1-0.5,0.3-1,1.1-1.4l0.8-0.4l-0.6-0.3c-0.5-0.2-1-0.4-1.5-0.5
				c-0.5-0.1-0.9,0-1.2,0.2c-0.3,0.1-0.4,0.3-0.4,0.5c0.1,0.2,0.3,0.4,0.7,0.6l-1.3,0.6c-0.5-0.3-0.9-0.6-1.2-0.9
				c-0.3-0.3-0.3-0.7-0.2-1c0.1-0.3,0.4-0.6,0.8-0.8c0.7-0.3,1.5-0.5,2.5-0.4c1,0.1,2,0.4,3.1,0.9l4.4,2.2c0.9,0.4,1.7,0.7,2.3,0.9
				l0.2,0.1L166.5,109.9z M163.5,109.8c0.3-0.1,0.4-0.3,0.4-0.5c0-0.2-0.1-0.4-0.3-0.7l-1.9-0.9l-0.7,0.3c-0.5,0.2-0.7,0.5-0.7,0.7
				c0,0.3,0.3,0.5,0.8,0.8c0.4,0.2,0.8,0.3,1.3,0.4C162.9,110,163.2,109.9,163.5,109.8z"/>
			<path fill="#F1F2F2" d="M173.3,106.6l-1.3,0.7l-13.2-6.5l1.3-0.7L173.3,106.6z"/>
			<path fill="#F1F2F2" d="M166.2,100.4l1.2,0.5c-0.4-0.6-0.3-1.1,0.4-1.5c1.2-0.6,3-0.3,5.3,0.8l6.5,3.2l-1.3,0.6l-6.4-3.1
				c-0.6-0.3-1.2-0.5-1.6-0.6c-0.5-0.1-0.9,0-1.2,0.2c-0.5,0.3-0.5,0.6,0,1.2l7,3.4l-1.3,0.6L165,101L166.2,100.4z"/>
			<path fill="#F1F2F2" d="M175.6,100.5c-1.5-0.7-2.5-1.4-3-2.1c-0.5-0.7-0.4-1.1,0.3-1.5c0.6-0.3,1.5-0.4,2.6-0.2l-5-2.5l1.3-0.6
				l13.9,6.8l-1.2,0.6l-1.1-0.5c0.4,0.6,0.3,1-0.4,1.3c-0.7,0.3-1.7,0.4-3,0.1C178.7,101.8,177.2,101.3,175.6,100.5z M177.1,100
				c1,0.5,1.9,0.8,2.7,1c0.8,0.2,1.4,0.1,1.8-0.1c0.5-0.3,0.5-0.6,0-1.2l-4.2-2c-1-0.3-1.8-0.3-2.3,0c-0.4,0.2-0.5,0.5-0.1,0.9
				C175.3,98.9,176,99.4,177.1,100z"/>
			<path fill="#F1F2F2" d="M174.7,93.7c-0.3-0.2-0.6-0.3-0.7-0.5c-0.1-0.2,0-0.3,0.2-0.4c0.2-0.1,0.5-0.1,0.9-0.1
				c0.4,0,0.7,0.2,1,0.3c0.3,0.2,0.5,0.3,0.6,0.5c0.1,0.2,0,0.3-0.2,0.4c-0.2,0.1-0.5,0.2-0.9,0.1C175.4,94,175,93.9,174.7,93.7z
				 M188.4,99.1l-1.3,0.6l-9.8-4.8l1.3-0.6L188.4,99.1z"/>
			<path fill="#F1F2F2" d="M193.3,96.7c-0.2-0.1-0.6-0.2-1.1-0.4c0.3,0.6,0.2,1-0.4,1.3c-0.6,0.3-1.3,0.4-2.3,0.3
				c-0.9-0.1-1.8-0.3-2.6-0.8c-1-0.5-1.6-1-1.7-1.5s0.3-1,1.1-1.4l0.8-0.4l-0.6-0.3c-0.5-0.2-1-0.4-1.5-0.5c-0.5-0.1-0.9,0-1.2,0.2
				c-0.3,0.1-0.4,0.3-0.4,0.5c0.1,0.2,0.3,0.4,0.7,0.6l-1.3,0.6c-0.5-0.3-0.9-0.6-1.2-0.9c-0.3-0.3-0.3-0.7-0.2-1
				c0.1-0.3,0.4-0.6,0.8-0.8c0.7-0.3,1.5-0.5,2.5-0.4c1,0.1,2,0.4,3.1,0.9l4.4,2.2c0.9,0.4,1.7,0.7,2.3,0.9l0.2,0.1L193.3,96.7z
				 M190.3,96.7c0.3-0.1,0.4-0.3,0.4-0.5c0-0.2-0.1-0.4-0.3-0.7l-1.9-0.9l-0.7,0.3c-0.5,0.2-0.7,0.5-0.7,0.7c0,0.3,0.3,0.5,0.8,0.8
				c0.4,0.2,0.8,0.3,1.3,0.4C189.7,96.8,190,96.8,190.3,96.7z"/>
		</g>
		<g id="path0_fill">
			<path fill="#48BA7F" d="M140.8,104.3c7.2-3.2,8-8.2,1.9-11.4l-11.1-5.6l-13,5.7c-7.2,3.2-8,8.2-1.9,11.4S133.7,107.5,140.8,104.3
				z"/>
		</g>
		<g id="path1_fill">
			<path fill="#8162AA" d="M94.6,93.1c-6.1-3.1-5.3-8.2,1.9-11.4l13-5.7l22.2,11.3l-13,5.7C111.5,96.2,100.7,96.2,94.6,93.1z"/>
		</g>
		<g id="path1_fill-2">
			<path fill="#F05023" d="M72.5,81.8c-6.1-3.1-5.3-8.2,1.9-11.4l13-5.7l22.2,11.3l-13,5.7C89.4,84.9,78.6,84.9,72.5,81.8z"/>
		</g>
		<g id="path2_fill">
			<path fill="#F37264" d="M87.3,64.8l13-5.7c7.2-3.2,17.9-3.2,24-0.1s5.3,8.2-1.9,11.4l-13,5.7L87.3,64.8z"/>
		</g>
		<g id="path3_fill">
			<path fill="#47B8E9" d="M146.5,70.3c6.1,3.1,5.3,8.2-1.9,11.4c-7.2,3.2-17.9,3.2-24.1,0.1s-5.3-8.2,1.9-11.4
				C129.6,67.2,140.4,67.2,146.5,70.3z"/>
		</g>
		<g opacity="0.5">
			
				<image overflow="visible" enable-background="new    " width="1296" height="907" xlink:href="AE019776.png"  transform="matrix(8.256199e-02 0 0 8.256199e-02 62.3528 0)">
			</image>
		</g>
		<g>
			<g>
				<defs>
					<path id="SVGID_5_" d="M68.4,76l6.4-44c0,0-1.2,6.6,14.1,7.8l8-0.5l4.5-1.2l-4.5,3.4v3.4l1.6,2.3l2.4,1.7l4,1.4l4.5,0.7
						l4.8,0.1l3.2,0l3.4-1l2-0.7l-1.9,1.9l-1.9,2.6v2.7l1.9,2l2.2,1.5l3.5,1.3l5,0.9l3.2,0.1h3.2l3.5-0.7l3.6-0.9l5.5-2.8l1.4-1.4
						l1.1-2.7v-1.2l-6.4,45.5l-2,3.6l-4,2.5l-2.8,1l-4.5,1h-10.3l-6.4-1.9l-2.5-1.8l-1.4-4.4l3.6-4.1l2.2-1.1l-6,1.8l-4.8,0.3
						l-4.7,0.2l-1.8-0.2h-3.2l-1.3-1l-2.3-0.9l-4.1-4.5l0-2.9l6-4l-7.6,2.1L83.7,84h-2.8l-4-0.6l-4.4-1.5l-2.2-1.5l-1.5-2.1L68.4,76
						z"/>
				</defs>
				<clipPath id="SVGID_6_">
					<use xlink:href="#SVGID_5_"  overflow="visible"/>
				</clipPath>
				<g clip-path="url(#SVGID_6_)">
					<image overflow="visible" width="86" height="76" xlink:href="AE019774.png"  transform="matrix(1 0 0 1 68 31)">
					</image>
				</g>
			</g>
		</g>
	</g>
</g>
</svg>
