<?xml version="1.0" encoding="utf-8"?>
<!-- Generator: Adobe Illustrator 23.0.0, SVG Export Plug-In . SVG Version: 6.00 Build 0)  -->
<svg version="1.1" id="Layer_1" xmlns="http://www.w3.org/2000/svg" xmlns:xlink="http://www.w3.org/1999/xlink" x="0px" y="0px"
	 viewBox="0 0 300 200" enable-background="new 0 0 300 200" xml:space="preserve">
<g>
	<g id="Layer_2-2_2_">
		<g>
			<g>
				<defs>
					<path id="SVGID_1_" d="M140.8,18L135,55.4l0.7,2.9l2.5,2.3l2.5,1.6l2.4,1.2l2.9,1.1l3.4,1l4.3,0.9l2.6,0.4l4.9,0.3h6.9
						c0,0,2.5-1.1,2.6-1.1c0,0,3-1.1,3-1.1l2.6-1.7l1.4-2.3l-1-3.2l6.5-32.7c0,0-2.1,3.3-5.5,4c0,0-5,1.6-7.2,1.2c0,0-4.9,1-7.6,0.2
						l-3-0.6l-3.7-0.6l-3.3-0.9l-2.7-0.7l-2.3-1.3l-3-1.7l-2.2-1.8l-1.4-1.7L140.8,18z"/>
				</defs>
				<clipPath id="SVGID_2_">
					<use xlink:href="#SVGID_1_"  overflow="visible"/>
				</clipPath>
				<g clip-path="url(#SVGID_2_)">
					<image overflow="visible" width="50" height="51" xlink:href="9A0FEC01.png"  transform="matrix(1 0 0 1 134 17)">
					</image>
				</g>
			</g>
		</g>
		<g>
			<g>
				<defs>
					<polygon id="SVGID_3_" points="110,29.6 104.3,66.2 136.3,80.4 143.9,77.1 147.1,75.3 148.6,72.2 148.6,70 154.6,36.1 
						151.1,39.8 149.7,40.5 146,42.1 142,43.8 					"/>
				</defs>
				<clipPath id="SVGID_4_">
					<use xlink:href="#SVGID_3_"  overflow="visible"/>
				</clipPath>
				<g clip-path="url(#SVGID_4_)">
					<image overflow="visible" width="51" height="52" xlink:href="9A0FEC03.png"  transform="matrix(1 0 0 1 104 29)">
					</image>
				</g>
			</g>
		</g>
		<g>
			<g>
				<defs>
					<path id="SVGID_5_" d="M89.5,40.1l-5.8,37.4l0.7,2.9l2.5,2.3l2.5,1.6l2.4,1.2l2.9,1.1l3.4,1l4.3,0.9l2.6,0.4l4.9,0.3h6.9
						c0,0,2.5-1.1,2.6-1.1c0,0,3-1.1,3-1.1l2.6-1.7l1.4-2.3l-1-3.2l6.5-32.7c0,0-2.1,3.3-5.5,4c0,0-5,1.6-7.2,1.2c0,0-4.9,1-7.6,0.2
						l-3-0.6l-3.7-0.6l-3.3-0.9l-2.7-0.7l-2.3-1.2l-3.1-1.7L91.6,45l-1.4-1.7L89.5,40.1z"/>
				</defs>
				<clipPath id="SVGID_6_">
					<use xlink:href="#SVGID_5_"  overflow="visible"/>
				</clipPath>
				<g clip-path="url(#SVGID_6_)">
					<image overflow="visible" width="50" height="50" xlink:href="9A0FEC06.png"  transform="matrix(1 0 0 1 83 40)">
					</image>
				</g>
			</g>
		</g>
		<g id="Drop_Shadow_2_" opacity="0.7">
			
				<image overflow="visible" enable-background="new    " width="2993" height="1645" xlink:href="9A0FEC07.png"  transform="matrix(8.553291e-02 0 0 8.553291e-02 2 58.8584)">
			</image>
		</g>
		<g id="base_2_">
			<g>
				<defs>
					<path id="SVGID_7_" d="M2.2,102.1v-7.9c6-3,149.4-62.6,155.4-59.6l88.5,36.1c4.4,2.2,3.2,15.5-1.2,17.6l-123.7,61.2
						c-7.3,3.6-15.8,3.6-23,0L2.2,102.1z"/>
				</defs>
				<clipPath id="SVGID_8_">
					<use xlink:href="#SVGID_7_"  overflow="visible"/>
				</clipPath>
				<g clip-path="url(#SVGID_8_)">
					<image overflow="visible" width="281" height="150" xlink:href="9A0FEC02.png"  transform="matrix(1 0 0 1 -3 19)">
					</image>
				</g>
			</g>
		</g>
		<g id="top_2_">
			<g>
				<defs>
					<path id="SVGID_9_" d="M2.2,94.2l136.4-67.5c6-3,13-3,19,0L245,69.9c2.9,1.4,4.1,5,2.7,7.9c-0.6,1.2-1.5,2.1-2.7,2.7
						l-123.7,61.2c-7.3,3.6-15.8,3.6-23,0L2.2,94.2z"/>
				</defs>
				<clipPath id="SVGID_10_">
					<use xlink:href="#SVGID_9_"  overflow="visible"/>
				</clipPath>
				<g clip-path="url(#SVGID_10_)">
					<image overflow="visible" width="277" height="199" xlink:href="9A0FEC0D.png"  transform="matrix(1 0 0 1 -22 -19)">
					</image>
				</g>
			</g>
		</g>
		<g>
			<path fill-rule="evenodd" clip-rule="evenodd" fill="#767676" d="M104.3,66.2l7.7-3.3c7.8-3.3,19.4-2.5,28.7,1.7
				s11.1,9.2,3.3,12.5l-7.7,3.3L104.3,66.2z M139.2,74.9c5.4-2.3,4.9-5.5-2.4-8.7c-7.3-3.2-14.5-3.5-20-1.2l-4,1.7l22.3,9.9
				L139.2,74.9z"/>
		</g>
		<g>
			<path fill-rule="evenodd" clip-rule="evenodd" fill="#767676" d="M166.9,52.1L155,57.2l4.8,2.1l8.4-3.6c2.1,1.2,3.4,2.3,3.7,3.3
				c0.4,1.2,0.2,2.9-3.2,4.3c-5.3,2.3-14.9,1.6-21.6-1.4c-6.8-3-8.1-7.2-2.9-9.4c2.9-1.2,6.4-1.5,9.7-1.3l-0.7-2.5
				c-4.8-0.3-9.6,0.1-13.6,1.8c-7.2,3.1-5.7,9,3.6,13.2s22.9,4.9,30.1,1.8c3.9-1.7,5.2-3.6,4.4-6c-0.7-2.4-4.2-4.6-7.7-6.1
				C168.9,52.8,167.9,52.4,166.9,52.1L166.9,52.1z"/>
		</g>
		<g>
			<path fill-rule="evenodd" clip-rule="evenodd" fill="#767676" d="M115.7,74l-11.9,5.1l4.8,2.1l8.4-3.6c2.1,1.2,3.4,2.3,3.7,3.3
				c0.4,1.2,0.2,2.9-3.2,4.3c-5.3,2.3-14.9,1.6-21.6-1.4c-6.8-3-8.1-7.2-2.9-9.4c2.9-1.2,6.4-1.5,9.7-1.3l-0.7-2.5
				c-4.8-0.3-9.6,0.1-13.6,1.8c-7.2,3.1-5.7,9,3.6,13.2c9.3,4.1,22.9,4.9,30.1,1.8c3.9-1.7,5.2-3.6,4.4-6c-0.7-2.4-4.2-4.6-7.7-6.1
				C117.7,74.7,116.7,74.3,115.7,74L115.7,74z"/>
		</g>
		<g>
			<polygon fill-rule="evenodd" clip-rule="evenodd" fill="#FDC113" points="87.7,98.8 79.2,97.3 87,106.3 92.4,104 88,98.8 			"/>
		</g>
		<g>
			<polygon fill-rule="evenodd" clip-rule="evenodd" fill="#0F9D58" points="69.9,95.7 79.2,97.3 87,106.3 81.2,108.8 			"/>
		</g>
		<g>
			<polygon fill-rule="evenodd" clip-rule="evenodd" fill="#557EBF" points="45.8,88.1 40,90.5 88,98.8 84.5,94.8 84.4,94.8 			"/>
		</g>
		<g>
			<path fill-rule="evenodd" clip-rule="evenodd" fill="#DC4537" d="M82.2,92.1c-0.4-0.4-0.9-0.8-1.5-1c-0.7-0.3-1.5-0.6-2.3-0.7
				l-27.1-4.7l-5.5,2.3l38.7,6.7L82.2,92.1L82.2,92.1z"/>
		</g>
		<g enable-background="new    ">
			<path fill="#F1F2F2" d="M95.3,126c-0.7-0.3-1.4-0.5-2.1-0.6c-0.7,0-1.6,0-2.7,0.2c-1.1,0.2-2.2,0.3-3.1,0.3
				c-1.8,0-3.4-0.4-4.9-1.1c-1.3-0.6-2-1.3-2.3-2c-0.2-0.7,0.2-1.3,1.2-1.8c0.7-0.3,1.4-0.5,2.4-0.6c0.9-0.1,1.9,0,3,0.3
				c1,0.2,2,0.6,3,1l-1.6,0.8c-0.8-0.4-1.6-0.7-2.4-0.7c-0.8-0.1-1.5,0-2,0.3c-0.5,0.3-0.8,0.6-0.7,0.9c0.1,0.3,0.5,0.7,1.2,1
				c0.6,0.3,1.2,0.4,1.9,0.5c0.7,0,1.6,0,2.7-0.2c1.1-0.2,2.1-0.3,3-0.2c0.9,0,1.8,0.1,2.6,0.3c0.8,0.2,1.6,0.5,2.5,0.9
				c1.3,0.7,2.1,1.3,2.3,2c0.2,0.7-0.2,1.3-1.3,1.8c-0.7,0.3-1.5,0.5-2.5,0.6c-1,0.1-2,0-3.1-0.2c-1.1-0.2-2.1-0.6-3.1-1.1l1.6-0.8
				c0.9,0.4,1.8,0.7,2.6,0.8c0.8,0.1,1.6-0.1,2.3-0.4c0.6-0.3,0.8-0.6,0.7-0.9C96.3,126.6,95.9,126.3,95.3,126z"/>
			<path fill="#F1F2F2" d="M89.5,118.4l2.9,1.4l1.2-0.6l2,1l-1.2,0.6l6.6,3.2c0.5,0.2,0.8,0.4,1.1,0.4c0.3,0,0.6,0,0.9-0.1
				c0.2-0.1,0.3-0.2,0.4-0.3l2.1,1c-0.2,0.3-0.4,0.5-0.8,0.6c-1.2,0.6-2.9,0.3-5.2-0.8l-6.7-3.3l-1.1,0.6l-2-1l1.1-0.6l-2.9-1.4
				L89.5,118.4z"/>
			<path fill="#F1F2F2" d="M110.9,122.3c-0.3-0.1-0.7-0.2-1.3-0.5c0.4,0.7,0.2,1.2-0.5,1.5c-0.7,0.3-1.6,0.5-2.7,0.3
				c-1.1-0.1-2.2-0.4-3.2-0.9c-1.3-0.6-2-1.2-2.1-1.8c-0.1-0.6,0.3-1.2,1.4-1.7l1-0.5l-0.8-0.4c-0.6-0.3-1.2-0.5-1.8-0.6
				c-0.6-0.1-1.1,0-1.5,0.2c-0.4,0.2-0.5,0.4-0.4,0.7c0.1,0.3,0.3,0.5,0.8,0.7l-1.6,0.8c-0.7-0.3-1.1-0.7-1.4-1.1
				c-0.3-0.4-0.4-0.8-0.3-1.2c0.1-0.4,0.4-0.7,1-1c0.8-0.4,1.8-0.6,3-0.4c1.2,0.1,2.4,0.5,3.7,1.1l5.3,2.6c1.1,0.5,2,0.9,2.8,1.1
				l0.2,0.1L110.9,122.3z M107.2,122.2c0.3-0.2,0.5-0.4,0.5-0.6c0-0.3-0.1-0.5-0.4-0.8l-2.2-1.1l-0.8,0.4c-0.6,0.3-0.8,0.6-0.8,0.9
				c0.1,0.3,0.4,0.6,1,0.9c0.5,0.3,1,0.4,1.5,0.5S106.9,122.4,107.2,122.2z"/>
			<path fill="#F1F2F2" d="M103.5,114.4l1.4,0.6c-0.5-0.8-0.4-1.4,0.4-1.8c1.5-0.7,3.6-0.4,6.5,1l7.8,3.8l-1.6,0.8l-7.7-3.8
				c-0.8-0.4-1.4-0.6-2-0.7s-1,0-1.5,0.2c-0.6,0.3-0.6,0.8,0,1.4l8.4,4.1l-1.6,0.8l-11.9-5.8L103.5,114.4z"/>
			<path fill="#F1F2F2" d="M114.9,114.5c-1.8-0.9-3-1.7-3.7-2.5c-0.6-0.8-0.5-1.4,0.3-1.8c0.7-0.4,1.8-0.4,3.1-0.2l-6.1-3l1.6-0.8
				l16.8,8.2l-1.4,0.7l-1.3-0.6c0.5,0.7,0.4,1.2-0.4,1.6c-0.8,0.4-2,0.5-3.7,0.2C118.6,116,116.8,115.4,114.9,114.5z M116.7,113.8
				c1.2,0.6,2.3,1,3.2,1.2c0.9,0.2,1.7,0.2,2.2-0.1c0.6-0.3,0.6-0.8-0.1-1.4L117,111c-1.2-0.3-2.2-0.3-2.8,0
				c-0.5,0.2-0.6,0.6-0.2,1.1C114.4,112.6,115.3,113.1,116.7,113.8z"/>
			<path fill="#F1F2F2" d="M132.9,111.6c-0.3-0.1-0.7-0.2-1.3-0.5c0.4,0.7,0.2,1.2-0.5,1.5c-0.7,0.3-1.6,0.5-2.7,0.3
				c-1.1-0.1-2.2-0.4-3.2-0.9c-1.3-0.6-2-1.2-2.1-1.8c-0.1-0.6,0.3-1.2,1.4-1.7l1-0.5l-0.8-0.4c-0.6-0.3-1.2-0.5-1.8-0.6
				c-0.6-0.1-1.1,0-1.5,0.2c-0.4,0.2-0.5,0.4-0.4,0.7c0.1,0.3,0.3,0.5,0.8,0.7l-1.6,0.8c-0.7-0.3-1.1-0.7-1.4-1.1
				c-0.3-0.4-0.4-0.8-0.3-1.2c0.1-0.4,0.4-0.7,1-1c0.8-0.4,1.8-0.6,3-0.4c1.2,0.1,2.4,0.5,3.7,1.1l5.3,2.6c1.1,0.5,2,0.9,2.8,1.1
				l0.2,0.1L132.9,111.6z M129.2,111.5c0.3-0.2,0.5-0.4,0.5-0.6c0-0.3-0.1-0.5-0.4-0.8l-2.2-1.1l-0.8,0.4c-0.6,0.3-0.8,0.6-0.8,0.9
				c0.1,0.3,0.4,0.6,1,0.9c0.5,0.3,1,0.4,1.5,0.5C128.5,111.7,128.9,111.6,129.2,111.5z"/>
			<path fill="#F1F2F2" d="M130.1,103.7c-0.3,0.1-0.5,0.2-0.7,0.3c-0.7,0.4-0.7,0.8,0,1.4l8.1,4l-1.6,0.8l-11.9-5.8l1.5-0.7l1.4,0.6
				c-0.7-0.7-0.6-1.2,0-1.5c0.2-0.1,0.5-0.2,0.7-0.2L130.1,103.7z"/>
			<path fill="#F1F2F2" d="M134.2,105c-1.8-0.9-3-1.7-3.7-2.5c-0.6-0.8-0.5-1.4,0.3-1.8c0.7-0.4,1.8-0.4,3.1-0.2l-6.1-3l1.6-0.8
				l16.8,8.2l-1.4,0.7l-1.3-0.6c0.5,0.7,0.4,1.2-0.4,1.6c-0.8,0.4-2,0.5-3.7,0.2C137.9,106.6,136.1,106,134.2,105z M136,104.4
				c1.2,0.6,2.3,1,3.2,1.2c0.9,0.2,1.7,0.2,2.2-0.1c0.6-0.3,0.6-0.8-0.1-1.4l-5.1-2.5c-1.2-0.3-2.2-0.3-2.8,0
				c-0.5,0.2-0.6,0.6-0.2,1.1C133.7,103.1,134.6,103.7,136,104.4z"/>
			<path fill="#F1F2F2" d="M137.6,93.6l14.9,4.7L143,91l2.1-1l16,7.8l-1.6,0.8l-5.3-2.6l-6.9-3.5l9.5,7.4l-1.2,0.6l-15.1-4.6
				l7.2,3.4l5.3,2.6l-1.6,0.8l-16-7.8L137.6,93.6z"/>
			<path fill="#F1F2F2" d="M166.1,95.5c-1,0.5-2.3,0.6-4,0.4c-1.7-0.2-3.4-0.8-5.2-1.6l-0.3-0.2c-1.2-0.6-2.1-1.2-2.8-1.7
				c-0.7-0.6-1-1.1-1-1.6c0-0.5,0.3-0.9,0.8-1.2c1-0.5,2.2-0.6,3.8-0.3c1.5,0.2,3.3,0.8,5.2,1.8l1.1,0.5l-4.6,2.2
				c1,0.5,2,0.7,2.9,0.9c0.9,0.1,1.6,0,2.1-0.2c0.7-0.4,0.8-0.9,0.3-1.6l2.2,0.3c0.4,0.5,0.6,0.9,0.5,1.4
				C167,94.8,166.7,95.2,166.1,95.5z M155.8,90.6c-0.4,0.2-0.5,0.5-0.3,0.9c0.2,0.4,0.8,0.8,1.6,1.3l3-1.5l-0.2-0.1
				c-0.9-0.4-1.7-0.7-2.4-0.8C156.8,90.3,156.2,90.4,155.8,90.6z"/>
			<path fill="#F1F2F2" d="M159.5,86.9l1.3,0.6c-0.5-0.7-0.3-1.3,0.6-1.7c0.9-0.5,2.2-0.5,3.7-0.1c-0.7-0.8-0.6-1.5,0.3-1.9
				c0.8-0.4,1.7-0.5,2.8-0.3c1.1,0.2,2.4,0.6,3.8,1.3l7.8,3.8l-1.6,0.8l-7.7-3.8c-0.8-0.4-1.4-0.6-1.9-0.7c-0.5-0.1-1,0-1.5,0.2
				c-0.4,0.2-0.5,0.4-0.4,0.7c0.1,0.3,0.4,0.6,0.8,0.9l8.1,4l-1.6,0.8l-7.8-3.8c-1.4-0.7-2.5-0.8-3.4-0.4c-0.6,0.3-0.6,0.7,0,1.3
				l8.6,4.2l-1.6,0.8l-11.9-5.8L159.5,86.9z"/>
			<path fill="#F1F2F2" d="M181.7,81.9c1.8,0.9,3.1,1.7,3.7,2.5c0.6,0.8,0.5,1.4-0.4,1.8c-0.8,0.4-2,0.5-3.4,0.2l1.2,0.7l-1.4,0.7
				l-16.8-8.2l1.6-0.8l6.1,3c-0.5-0.7-0.3-1.2,0.5-1.6c0.9-0.4,2.1-0.5,3.6-0.2c1.6,0.3,3.3,0.9,5.2,1.8L181.7,81.9z M179.9,82.5
				c-1.3-0.6-2.4-1-3.3-1.2c-0.9-0.2-1.6-0.2-2.1,0.1c-0.7,0.3-0.7,0.8,0.1,1.4l4.9,2.4c1.3,0.4,2.3,0.4,3,0c0.5-0.2,0.6-0.6,0.2-1
				c-0.4-0.4-1.2-1-2.4-1.6L179.9,82.5z"/>
			<path fill="#F1F2F2" d="M192.2,82.7c-1,0.5-2.3,0.6-4,0.4c-1.7-0.2-3.4-0.8-5.2-1.6l-0.3-0.2c-1.2-0.6-2.1-1.2-2.8-1.7
				c-0.7-0.6-1-1.1-1-1.6c0-0.5,0.3-0.9,0.8-1.2c1-0.5,2.2-0.6,3.8-0.3c1.5,0.2,3.3,0.8,5.2,1.8l1.1,0.5l-4.6,2.2
				c1,0.5,2,0.7,2.9,0.9c0.9,0.1,1.6,0,2.1-0.2c0.7-0.4,0.8-0.9,0.3-1.6l2.2,0.3c0.4,0.5,0.6,0.9,0.5,1.4
				C193.1,82,192.7,82.4,192.2,82.7z M181.8,77.8c-0.4,0.2-0.5,0.5-0.3,0.9c0.2,0.4,0.8,0.8,1.6,1.3l3-1.5l-0.2-0.1
				c-0.9-0.4-1.7-0.7-2.4-0.8C182.8,77.5,182.2,77.6,181.8,77.8z"/>
			<path fill="#F1F2F2" d="M190.2,74.2c-0.3,0.1-0.5,0.2-0.7,0.3c-0.7,0.4-0.7,0.8,0,1.4l8.1,4l-1.6,0.8l-11.9-5.8l1.5-0.7l1.4,0.6
				c-0.7-0.7-0.6-1.2,0-1.5c0.2-0.1,0.5-0.2,0.7-0.2L190.2,74.2z"/>
			<path fill="#F1F2F2" d="M201.3,74.8c-0.5-0.2-1-0.4-1.4-0.4s-1.1,0.1-1.8,0.2c-0.7,0.2-1.4,0.3-2.1,0.3c-1.4,0.1-2.7-0.2-4-0.8
				c-1-0.5-1.6-1-1.8-1.6c-0.2-0.6,0.1-1.1,0.9-1.5c0.8-0.4,1.9-0.6,3.1-0.5c1.2,0.1,2.4,0.4,3.5,1l-1.6,0.8c-0.5-0.2-1-0.4-1.6-0.5
				c-0.6-0.1-1,0-1.4,0.2c-0.3,0.2-0.5,0.4-0.4,0.6c0.1,0.2,0.3,0.5,0.8,0.7c0.4,0.2,0.8,0.3,1.3,0.3c0.4,0,1.1-0.1,1.9-0.3
				c0.8-0.2,1.6-0.3,2.3-0.3c0.7,0,1.3,0,1.9,0.2c0.6,0.1,1.2,0.4,1.9,0.7c1.1,0.5,1.7,1.1,1.8,1.7c0.1,0.6-0.2,1.1-1.1,1.5
				c-0.6,0.3-1.3,0.4-2.1,0.5c-0.8,0-1.6,0-2.5-0.2c-0.9-0.2-1.6-0.4-2.4-0.8l1.5-0.7c0.7,0.3,1.3,0.5,1.9,0.5c0.6,0,1.1,0,1.5-0.3
				c0.4-0.2,0.6-0.4,0.5-0.7C202,75.3,201.7,75,201.3,74.8z"/>
			<path fill="#F1F2F2" d="M198.4,69.1c-0.5-0.7-0.4-1.3,0.4-1.7c1.5-0.7,3.7-0.4,6.6,1l7.8,3.8l-1.6,0.8l-7.7-3.7
				c-0.8-0.4-1.5-0.6-2.1-0.7c-0.5-0.1-1,0-1.4,0.2c-0.6,0.3-0.6,0.8,0,1.4l8.5,4.1l-1.6,0.8l-16.8-8.2l1.6-0.8L198.4,69.1z"/>
			<path fill="#F1F2F2" d="M199.8,64.1c-0.4-0.2-0.7-0.4-0.8-0.6c-0.1-0.2,0-0.4,0.2-0.5c0.3-0.1,0.6-0.2,1.1-0.1
				c0.4,0.1,0.8,0.2,1.3,0.4c0.4,0.2,0.7,0.4,0.8,0.6c0.1,0.2,0,0.4-0.3,0.5s-0.6,0.2-1.1,0.1C200.6,64.4,200.2,64.3,199.8,64.1z
				 M216.4,70.6l-1.6,0.8L203,65.5l1.6-0.8L216.4,70.6z"/>
			<path fill="#F1F2F2" d="M218.5,63.9c1.8,0.9,3.1,1.7,3.7,2.5c0.6,0.8,0.5,1.4-0.3,1.8c-0.8,0.4-1.8,0.5-3.1,0.3l5.6,2.7l-1.6,0.8
				l-16.4-8l1.4-0.7l1.3,0.6c-0.5-0.7-0.3-1.2,0.5-1.6c0.9-0.4,2.1-0.5,3.6-0.2c1.6,0.3,3.3,0.9,5.2,1.8L218.5,63.9z M216.7,64.5
				c-1.2-0.6-2.3-1-3.2-1.2c-1-0.2-1.7-0.2-2.2,0.1c-0.6,0.3-0.7,0.8,0,1.3l5.3,2.6c1.2,0.3,2.1,0.3,2.8,0c0.5-0.2,0.5-0.6,0.1-1.1
				C218.9,65.8,218.1,65.2,216.7,64.5z"/>
		</g>
		<g opacity="0.6">
			
				<image overflow="visible" enable-background="new    " width="1912" height="1006" xlink:href="9A0FEC0E.png"  transform="matrix(8.553291e-02 0 0 8.553291e-02 32.8774 -0.9291)">
			</image>
		</g>
		<g>
			<g>
				<defs>
					<polygon id="SVGID_11_" points="40,90.5 69.9,95.7 81.2,108.8 91.6,104.4 98.2,67.4 87,72.2 75.6,59.1 45.8,54 					"/>
				</defs>
				<clipPath id="SVGID_12_">
					<use xlink:href="#SVGID_11_"  overflow="visible"/>
				</clipPath>
				<g clip-path="url(#SVGID_12_)">
					<image overflow="visible" width="59" height="56" xlink:href="9A0FEC0F.png"  transform="matrix(1 0 0 1 40 53)">
					</image>
				</g>
			</g>
		</g>
	</g>
</g>
</svg>
