<?xml version="1.0" encoding="utf-8"?>
<!-- Generator: Adobe Illustrator 23.0.0, SVG Export Plug-In . SVG Version: 6.00 Build 0)  -->
<svg version="1.1" id="Layer_1" xmlns="http://www.w3.org/2000/svg" xmlns:xlink="http://www.w3.org/1999/xlink" x="0px" y="0px"
	 viewBox="0 0 300 200" enable-background="new 0 0 300 200" xml:space="preserve">
<g>
	<g id="Layer_2-2_3_">
		<g id="base_3_">
			<g id="Drop_Shadow_3_" opacity="0.7">
				
					<image overflow="visible" enable-background="new    " width="2993" height="1645" xlink:href="2232EA2.png"  transform="matrix(8.085533e-02 0 0 8.085533e-02 2 67.083)">
				</image>
			</g>
			<g id="base-2">
				<g>
					<defs>
						<path id="SVGID_1_" d="M2.2,107.9v-7.4c5.7-2.8,141.3-59.2,146.9-56.4l83.7,34.1c4.1,2,3,14.6-1.1,16.7l-117,57.9
							c-6.9,3.4-14.9,3.4-21.8,0L2.2,107.9z"/>
					</defs>
					<clipPath id="SVGID_2_">
						<use xlink:href="#SVGID_1_"  overflow="visible"/>
					</clipPath>
					<g clip-path="url(#SVGID_2_)">
						<image overflow="visible" width="265" height="170" xlink:href="2232EA6.png"  transform="matrix(1 0 0 1 -20 20)">
						</image>
					</g>
				</g>
			</g>
			<g id="top_3_">
				<g>
					<defs>
						<path id="SVGID_3_" d="M2.2,100.5l128.9-63.8c5.7-2.8,12.3-2.8,18,0l82.6,40.9c2.8,1.4,3.9,4.7,2.5,7.4
							c-0.5,1.1-1.4,2-2.5,2.5l-117,57.9c-6.9,3.4-14.9,3.4-21.8,0L2.2,100.5z"/>
					</defs>
					<clipPath id="SVGID_4_">
						<use xlink:href="#SVGID_3_"  overflow="visible"/>
					</clipPath>
					<g clip-path="url(#SVGID_4_)">
						<image overflow="visible" width="270" height="127" xlink:href="2232EA1.png"  transform="matrix(1 0 0 1 -2 27)">
						</image>
					</g>
				</g>
			</g>
		</g>
		<g enable-background="new    ">
			<path fill="#FFFFFF" d="M104.2,129.5c0.3,0.4,0.3,0.7,0.1,1.1c-0.2,0.4-0.7,0.7-1.4,1c-0.7,0.3-1.6,0.5-2.6,0.6
				c-1,0.1-2.1,0-3.3-0.2c-1.2-0.2-2.4-0.5-3.6-1l-1-0.4c-1.9-0.7-3.1-1.5-3.5-2.2c-0.5-0.7-0.1-1.3,0.9-1.8c0.9-0.4,2-0.6,3.3-0.6
				c1.2,0,2.6,0.2,4,0.7l-1.4,0.7c-1.7-0.5-3-0.5-4-0.1c-0.7,0.3-0.8,0.7-0.4,1.1c0.4,0.4,1.2,0.9,2.6,1.4l1,0.4
				c1.4,0.5,2.6,0.8,3.7,1c1.1,0.1,2,0,2.7-0.3c0.7-0.3,1-0.7,0.8-1l-2.5-1l-1.7,0.8l-1.7-0.6l3.2-1.5L104.2,129.5z"/>
			<path fill="#FFFFFF" d="M95.5,124.9c-0.3-0.1-0.5-0.3-0.6-0.4c-0.1-0.1,0-0.3,0.3-0.4c0.3-0.1,0.6-0.2,0.9-0.2
				c0.4,0,0.7,0.1,1,0.2c0.3,0.1,0.5,0.3,0.6,0.4c0.1,0.1,0,0.3-0.3,0.4c-0.3,0.1-0.6,0.2-0.9,0.2C96.2,125.1,95.8,125.1,95.5,124.9
				z M108.8,128.8l-1.4,0.7l-9.4-3.6l1.4-0.7L108.8,128.8z"/>
			<path fill="#FFFFFF" d="M100.4,122.8l2.3,0.9l1.1-0.5l1.6,0.6l-1.1,0.5l5.2,2c0.4,0.1,0.7,0.2,0.9,0.2c0.3,0,0.5,0,0.7-0.1
				c0.2-0.1,0.3-0.2,0.4-0.3l1.6,0.6c-0.2,0.2-0.4,0.4-0.7,0.5c-1.1,0.5-2.5,0.4-4.3-0.3l-5.3-2.1l-1,0.5l-1.6-0.6l1-0.5l-2.3-0.9
				L100.4,122.8z"/>
			<path fill="#FFFFFF" d="M121,123.1l-1.5,0.7l-5.6-2.2l-3.8,1.8l5.6,2.2l-1.5,0.7l-12.6-4.9l1.5-0.7l5.2,2l3.8-1.8l-5.2-2l1.5-0.7
				L121,123.1z"/>
			<path fill="#FFFFFF" d="M125.5,120.2c0.3,0.5,0.1,0.9-0.7,1.2c-0.7,0.3-1.5,0.4-2.4,0.4c-0.9-0.1-2-0.3-3.1-0.8l-6.1-2.3l1.4-0.7
				l6,2.3c1.2,0.5,2.1,0.5,2.8,0.2c0.7-0.3,0.8-0.7,0.3-1.1L117,117l1.4-0.7l9.4,3.6l-1.3,0.6L125.5,120.2z"/>
			<path fill="#FFFFFF" d="M130.1,114.9c1.5,0.6,2.4,1.1,2.8,1.6c0.4,0.5,0.3,1-0.5,1.3c-0.7,0.3-1.7,0.5-2.9,0.3l0.9,0.4l-1.3,0.6
				l-13.3-5.1l1.4-0.7l4.8,1.9c-0.3-0.5-0.1-0.9,0.6-1.2c0.8-0.4,1.8-0.5,3.1-0.3c1.3,0.1,2.7,0.5,4.2,1.1L130.1,114.9z
				 M128.5,115.5c-1-0.4-1.9-0.6-2.6-0.7c-0.7-0.1-1.3,0-1.8,0.2c-0.6,0.3-0.6,0.6-0.1,1.1l3.9,1.5c1.1,0.2,1.9,0.2,2.5-0.1
				c0.4-0.2,0.5-0.5,0.3-0.8c-0.3-0.3-0.9-0.6-1.9-1L128.5,115.5z"/>
			<path fill="#FFFFFF" d="M141.2,110.1c1.3,0.6,2,1.1,2.2,1.7c0.2,0.6-0.2,1.1-1.2,1.5c-0.7,0.3-1.5,0.5-2.5,0.6
				c-1,0.1-2.1,0-3.2-0.2c-1.2-0.2-2.3-0.5-3.5-1l-1.2-0.5c-1.2-0.5-2.1-0.9-2.7-1.4c-0.6-0.5-0.9-0.9-0.9-1.4
				c0-0.4,0.4-0.8,1.1-1.1c0.9-0.4,2-0.6,3.4-0.6c1.3,0,2.7,0.3,4.2,0.8l-1.5,0.7c-1-0.3-1.8-0.5-2.5-0.5c-0.7,0-1.3,0.1-1.8,0.3
				c-0.6,0.3-0.8,0.7-0.4,1.1c0.4,0.4,1.2,0.9,2.5,1.4l1.1,0.4c1.4,0.5,2.6,0.9,3.6,1c1,0.1,1.9,0,2.5-0.3c0.6-0.3,0.8-0.5,0.7-0.8
				c-0.1-0.3-0.6-0.6-1.4-1L141.2,110.1z"/>
			<path fill="#FFFFFF" d="M150.2,109.4c-0.2,0-0.6-0.1-1-0.3c0.3,0.5,0.1,0.9-0.6,1.2c-0.6,0.3-1.4,0.4-2.3,0.4
				c-0.9,0-1.8-0.2-2.6-0.5c-1-0.4-1.5-0.8-1.6-1.2c0-0.4,0.4-0.9,1.3-1.3l0.9-0.4l-0.6-0.2c-0.5-0.2-1-0.3-1.4-0.3
				c-0.5,0-0.9,0-1.3,0.2c-0.3,0.1-0.5,0.3-0.4,0.5s0.2,0.4,0.6,0.5l-1.4,0.7c-0.5-0.2-0.9-0.4-1.1-0.7c-0.2-0.3-0.3-0.6-0.1-0.8
				c0.1-0.3,0.4-0.5,0.9-0.8c0.7-0.3,1.6-0.5,2.6-0.5c1,0,2,0.2,3,0.6l4.2,1.6c0.8,0.3,1.6,0.5,2.3,0.7l0.1,0.1L150.2,109.4z
				 M147.2,109.6c0.3-0.1,0.4-0.3,0.5-0.5c0-0.2,0-0.4-0.3-0.6l-1.8-0.7l-0.8,0.4c-0.5,0.2-0.8,0.5-0.8,0.7c0,0.2,0.3,0.4,0.8,0.6
				c0.4,0.2,0.8,0.2,1.2,0.2C146.5,109.8,146.9,109.7,147.2,109.6z"/>
			<path fill="#FFFFFF" d="M144.8,103.9l1,0.4c-0.3-0.5-0.1-0.9,0.6-1.3c0.8-0.4,1.9-0.5,3.1-0.2c-0.5-0.6-0.3-1.1,0.5-1.5
				c0.7-0.3,1.5-0.5,2.4-0.4c0.9,0.1,1.9,0.3,3,0.7l6.1,2.4l-1.4,0.7l-6.1-2.4c-0.6-0.2-1.1-0.4-1.6-0.4c-0.4,0-0.9,0.1-1.3,0.2
				c-0.3,0.1-0.5,0.3-0.4,0.5c0.1,0.2,0.2,0.4,0.6,0.6l6.4,2.5l-1.4,0.7l-6.2-2.4c-1.1-0.4-2-0.5-2.8-0.1c-0.6,0.3-0.6,0.6-0.2,1
				l6.8,2.6l-1.4,0.7l-9.4-3.6L144.8,103.9z"/>
			<path fill="#FFFFFF" d="M164,99c1.4,0.6,2.4,1.1,2.8,1.6c0.4,0.5,0.3,1-0.5,1.3c-0.7,0.3-1.6,0.4-2.7,0.4l4.4,1.7l-1.4,0.7l-13-5
				l1.3-0.6l1,0.3c-0.3-0.5-0.2-0.9,0.6-1.2c0.8-0.4,1.8-0.5,3.1-0.3c1.3,0.1,2.7,0.5,4.2,1.1L164,99z M162.4,99.6
				c-0.9-0.4-1.8-0.6-2.6-0.7c-0.8-0.1-1.4,0-1.9,0.2c-0.6,0.3-0.6,0.6-0.2,1l4.2,1.6c1,0.2,1.8,0.1,2.3-0.2
				c0.4-0.2,0.5-0.5,0.2-0.8C164.2,100.4,163.5,100,162.4,99.6z"/>
			<path fill="#FFFFFF" d="M172.7,98.1c0.3,0.5,0.1,0.9-0.7,1.2c-0.7,0.3-1.5,0.4-2.4,0.4c-0.9-0.1-2-0.3-3.1-0.8l-6.1-2.3l1.4-0.7
				l6,2.3c1.2,0.5,2.1,0.5,2.8,0.2c0.7-0.3,0.8-0.7,0.3-1.1l-6.7-2.6l1.4-0.7l9.4,3.6l-1.3,0.6L172.7,98.1z"/>
			<path fill="#FFFFFF" d="M177.3,94.6c-0.4-0.1-0.8-0.2-1.2-0.2c-0.4,0-0.9,0.1-1.5,0.3c-0.6,0.2-1.2,0.3-1.8,0.3
				c-1.2,0.1-2.3,0-3.3-0.4c-0.8-0.3-1.3-0.7-1.3-1.1c-0.1-0.4,0.2-0.8,0.9-1.1c0.7-0.3,1.6-0.5,2.6-0.5c1,0,2,0.2,2.8,0.5l-1.4,0.7
				c-0.4-0.2-0.8-0.2-1.3-0.2c-0.5,0-0.9,0.1-1.2,0.2c-0.3,0.1-0.5,0.3-0.4,0.5c0,0.2,0.2,0.3,0.6,0.5c0.3,0.1,0.7,0.2,1,0.2
				c0.4,0,0.9-0.1,1.6-0.3c0.7-0.2,1.4-0.3,1.9-0.4s1.1,0,1.6,0c0.5,0.1,1,0.2,1.5,0.4c0.8,0.3,1.3,0.7,1.3,1.1
				c0.1,0.4-0.3,0.8-1,1.2c-0.5,0.2-1.1,0.4-1.8,0.5c-0.7,0.1-1.4,0.1-2.1,0c-0.7-0.1-1.3-0.2-1.9-0.4l1.4-0.6
				c0.5,0.2,1,0.3,1.5,0.3c0.5,0,0.9-0.1,1.3-0.3c0.4-0.2,0.5-0.3,0.5-0.5C177.8,94.9,177.6,94.7,177.3,94.6z"/>
			<path fill="#FFFFFF" d="M184.8,88.4l-3.4,1.6l3.9,1.5l4-1.9l1.7,0.7l-5.5,2.6L172.9,88l5.4-2.5l1.8,0.7l-4,1.9l3.5,1.3l3.4-1.6
				L184.8,88.4z"/>
			<path fill="#FFFFFF" d="M188,86.4l-1.9-1.7l1.6-0.7l2.7,2.7l6.7,0.9l-1.5,0.7l-4.4-0.7l2,1.8l-1.6,0.7l-2.8-2.8l-6.5-0.9l1.5-0.7
				L188,86.4z"/>
			<path fill="#FFFFFF" d="M198.9,82.7c1.4,0.6,2.4,1.1,2.8,1.6c0.4,0.5,0.3,1-0.5,1.3c-0.7,0.3-1.6,0.4-2.7,0.4l4.4,1.7l-1.4,0.7
				l-13-5l1.3-0.6l1,0.3c-0.3-0.5-0.2-0.9,0.6-1.2c0.8-0.4,1.8-0.5,3.1-0.3c1.3,0.1,2.7,0.5,4.2,1.1L198.9,82.7z M197.3,83.3
				c-0.9-0.4-1.8-0.6-2.6-0.7c-0.8-0.1-1.4,0-1.9,0.2c-0.6,0.3-0.6,0.6-0.2,1l4.2,1.6c1,0.2,1.8,0.1,2.3-0.2
				c0.4-0.2,0.5-0.5,0.2-0.8C199.1,84.1,198.4,83.7,197.3,83.3z"/>
			<path fill="#FFFFFF" d="M207.6,82.7c-0.9,0.4-2,0.6-3.4,0.5c-1.4-0.1-2.8-0.4-4.2-0.9l-0.3-0.1c-0.9-0.4-1.6-0.7-2.1-1.1
				c-0.5-0.4-0.7-0.8-0.7-1.1c0-0.4,0.3-0.7,0.8-0.9c0.8-0.4,1.9-0.5,3.2-0.4c1.3,0.1,2.7,0.4,4.1,1l0.8,0.3l-4.1,1.9
				c0.8,0.3,1.6,0.4,2.3,0.5c0.8,0,1.4-0.1,1.8-0.3c0.6-0.3,0.8-0.7,0.4-1.2l1.8,0.1c0.3,0.3,0.4,0.7,0.3,1
				C208.4,82.2,208.1,82.5,207.6,82.7z M199.4,79.7c-0.4,0.2-0.5,0.4-0.3,0.7c0.2,0.3,0.6,0.6,1.2,0.9L203,80l-0.2-0.1
				c-0.7-0.3-1.4-0.4-2-0.4C200.3,79.5,199.8,79.5,199.4,79.7z"/>
		</g>
		<g enable-background="new    ">
			<path fill="#FFFFFF" d="M206.8,76.6c-0.2,0.1-0.4,0.1-0.6,0.2c-0.6,0.3-0.7,0.6-0.2,1l6.4,2.5L211,81l-9.4-3.6l1.3-0.6l1.1,0.4
				c-0.5-0.5-0.4-0.8,0.2-1.1c0.2-0.1,0.4-0.2,0.6-0.2L206.8,76.6z"/>
		</g>
		<g enable-background="new    ">
			<path fill="#FFFFFF" d="M205.5,73.6l2.3,0.9l1.1-0.5l1.6,0.6l-1.1,0.5l5.2,2c0.4,0.1,0.7,0.2,0.9,0.2c0.3,0,0.5,0,0.7-0.1
				c0.2-0.1,0.3-0.2,0.4-0.3l1.6,0.6c-0.2,0.2-0.4,0.4-0.7,0.5c-1.1,0.5-2.5,0.4-4.3-0.3l-5.3-2.1l-1,0.5l-1.6-0.6l1-0.5l-2.3-0.9
				L205.5,73.6z"/>
		</g>
		<g opacity="0.63">
			
				<image overflow="visible" enable-background="new    " width="1160" height="471" xlink:href="2232EA3.png"  transform="matrix(8.085533e-02 0 0 8.085533e-02 54.1517 80.6667)">
			</image>
		</g>
		<g id="flag">
			<g>
				<path fill="#C32039" d="M175.1,21c3.8,1.6,7,4,10.3,6.4v0.3c-4.4-0.3-8.6,0.6-12.8,2.1c-8.2,2.8-15.4,7.5-22.4,12.4
					c-8.6,6.1-16.7,12.8-25.4,18.8c-1.6,1.1-3.1,2.2-4.8,3.1c0-0.4,0.2-0.6,0.5-0.9c2.1-1.7,4.3-3.3,6.3-5.1
					c5.4-5.2,10.7-10.5,15.7-16.2c4.2-4.8,8.2-9.6,12.8-14.1c2.4-2.3,5.2-4,8.3-5.1C167.3,21.3,171.2,20.9,175.1,21z"/>
			</g>
			<g>
				<path fill="#FFFFFF" d="M78.6,12.2c0-3.8,0-7.7,0-11.5c0-0.6,0.1-0.8,0.7-0.8c3.4,0,6.8,0,10.2,0c-0.5,0.9,0,1.8-0.1,2.7
					c-1.1,0.1-0.6,0.9-0.6,1.4c0.2,2.8,0.4,5.5,0.7,8.3C85.9,11.9,82.3,12,78.6,12.2z"/>
			</g>
			<g>
				<path fill="#E5B826" d="M78.6,12.2c3.6-0.3,7.3-0.4,10.9,0c0.1,1.2,0.4,2.4,0.3,3.7c-2.3,0.7-4.5,1.9-6.3,3.5
					c-0.8,0.7-1.2,0.6-1.6-0.3c-0.5-0.9-1.4-1.6-1.2-2.8l1.3-0.5l0.5-0.3c-0.3-0.3-0.5-0.1-0.8,0c-0.5,0.1-0.9,0.3-1.3,0.5
					c-0.5,0.2-0.9,0.1-1.1-0.5c-0.2-0.6-0.2-1.3-0.7-1.8L78.6,12.2z"/>
			</g>
			<g>
				<path fill="#7D1324" d="M89.4,2.6C89.6,1.8,89,0.8,89.6,0h2.1l0.1,2.4C91,2.3,90.2,2.4,89.4,2.6z"/>
			</g>
			<g>
				<path fill="#D51E3D" d="M175.1,21c-3.9-0.1-7.8,0.3-11.5,1.7c-3.1,1.1-5.9,2.9-8.3,5.1c-4.6,4.4-8.6,9.3-12.8,14.1
					c-5,5.6-10.2,11-15.7,16.2c-1.9,1.9-4.2,3.4-6.3,5.1c-0.3,0.2-0.6,0.4-0.5,0.9l0,0c-0.4,0-0.8-0.1-0.8,0.5
					c-5.9,3.8-12.1,6.9-19,8.5c0-3.4-0.6-6.7-0.8-10.1c-0.1-2.3-0.2-4.6-0.8-6.8c-0.2-0.7,0.3-1.4,0.2-2.2
					c-0.8-3.7-0.7-7.5-1.2-11.3c-0.4-3.3-0.5-6.7-0.8-10.1c-0.3-3.5-0.5-6.9,0.2-10.3c0.8-4,2.1-7.6,4.7-10.9c0.9-1.2,2.3-1.8,3.1-3
					c9.6,3.5,19.6,4.4,29.7,4.9c6.6,0.3,13.2,0.5,19.8,1.5c6.8,1,13.4,2.7,19.6,5.7C174.3,20.5,174.7,20.8,175.1,21z M117,42.2
					c-2.8-0.5-5.3-1.4-6.6-4c-1.1-2.2-1.6-4.6-0.4-6.9c0.3-0.6,0.4-1.2,0.2-1.8c-0.3-0.9-0.6-2.1,0.2-2.8c0.7-0.6,1.7,0.1,2.4,0.5
					c0.2,0.1,0.3,0.1,0.5,0.2c0.8,0.6,1.8,0.7,2.8,0.4c1.3-0.4,2.7-0.6,4.1-0.3c1.5,0.3,2.8,0,4.1-0.8c2-1.2,2.9-0.6,2.9,1.7
					c0,1,0.3,1.9,0.9,2.7c1.7,2.5,1.7,5.8,0,8.4c-0.9,1.3-2.3,1.9-3.8,2.3c-0.3,0.1-1.2,0.1-0.8,0.6c1.3,1.8,1,3.9,1.3,5.9
					c0.3,1.5,0.6,1.8,2,1.1c8-3.8,10.5-13.5,6.4-20.8c-3.7-6.5-10.5-9.5-17.9-8.3c-8,1.3-12.8,7.9-11.2,15.7
					c1.2,6.3,4.9,10.8,10.8,13.5c2.2,1,2.4,0.8,2.3-1.6c0-1.3-0.5-1.5-1.6-1.4c-1.3,0.1-2.5-0.1-3.4-1.1c-1.1-1.3-1.8-2.8-3.6-3.9
					c1.8-0.1,2.7,0.5,3.4,1.5c0.7,1.1,2,1.8,3.4,1.7C116.7,44.6,116.5,43.2,117,42.2z"/>
			</g>
			<g>
				<path fill="#C32039" d="M104.8,8.3c-0.8,1.2-2.2,1.9-3.1,3c-2.6,3.2-3.9,6.9-4.7,10.9c-0.7,3.4-0.5,6.8-0.2,10.3
					c0.3,3.3,0.4,6.7,0.8,10.1c0.5,3.8,0.3,7.6,1.2,11.3c0.2,0.8-0.4,1.5-0.2,2.2c0.6,2.2,0.7,4.6,0.8,6.8c0.2,3.4,0.8,6.7,0.8,10.1
					l-1.7,0.3c0,0-0.1,0-0.1,0c-0.3-2.3-0.5-4.6-0.6-6.9c-0.2-2.2-0.4-4.5-0.5-6.7c-0.3-3.7-0.7-7.5-1-11.2
					c-0.2-2.5-0.4-4.9-0.6-7.4c-0.3-3.9-0.7-7.8-1-11.7c-0.2-2.3-0.4-4.7-0.6-7c-0.3-3.8-0.7-7.7-1-11.5c-0.3-2.8-0.5-5.6-0.8-8.4
					c0.7,0,1.3,0.1,1.9,0.5C97.5,5.1,101.1,6.9,104.8,8.3z"/>
			</g>
			<g>
				<path fill="#7D1324" d="M98.4,73.4c0,0,0.1,0,0.1,0c0,2.6,0.4,5.2,0.6,7.8c0.5,5.7,1.1,11.3,1.6,17c0.1,1,0.1,1.9,0.2,2.9
					c-2.3-0.4-2.3-0.4-2.6-2.4c-0.3-3.9-0.7-7.7-1-11.6c-0.4-4.4-0.8-8.8-1.2-13.2L98.4,73.4z"/>
			</g>
			<g>
				<path fill="#C32039" d="M119.2,64.6c0-0.6,0.4-0.6,0.8-0.5C119.8,64.3,119.5,64.5,119.2,64.6z"/>
			</g>
			<g>
				<path fill="#D51E3D" d="M98.4,73.4l-2.3,0.5c-1.1,0.2-1.3-0.3-1.4-1.3c-0.3-3.8-0.6-7.5-1-11.3c-0.2-1.4,0-2.9-0.4-4.3
					c-0.1-3.9-0.6-7.8-0.9-11.7c-0.6-7.9-1.3-15.8-2-23.8c-0.2-1.9-0.4-3.8-0.6-5.7c0.1-1.2-0.2-2.4-0.3-3.7C89.3,9.5,89,6.8,88.9,4
					c0-0.5-0.5-1.3,0.6-1.4c0.8-0.2,1.6-0.3,2.4-0.2l0.4,0.2c0.3,2.8,0.5,5.6,0.8,8.4c0.3,3.8,0.8,7.6,1,11.5c0.2,2.4,0.4,4.7,0.6,7
					c0.3,3.9,0.7,7.8,1,11.7c0.2,2.5,0.4,4.9,0.6,7.4c0.3,3.7,0.7,7.5,1,11.2c0.2,2.2,0.4,4.5,0.5,6.7C98,68.8,98.2,71.1,98.4,73.4z
					"/>
			</g>
			<g>
				<path fill="#E5B826" d="M93.3,57.1c0.4,1.4,0.2,2.9,0.4,4.3c-2.3,0.7-4.4,1.9-6.2,3.5c-0.7,0.6-1.1,0.6-1.6-0.2
					c-1.8-2.6-1.8-2.6,1.1-3.7c1.1-0.4,2.3-0.9,3.8-1.4c-1.5,0-3,0.2-4.5,0.6c-0.7,0.2-0.8,0-1-0.6c-0.8-3.1-0.6-3.5,2.6-3.2
					C89.7,56.5,91.5,56.8,93.3,57.1z"/>
			</g>
			<g>
				<path fill="#FFFFFF" d="M82,15.9l-1.3,0.5c-0.1-0.1-0.2-0.2-0.3-0.3c0.4-0.3,0.9-0.5,1.3-0.5L82,15.9z"/>
			</g>
			<g>
				<path fill="#FFFFFF" d="M81.7,15.6c0.3-0.2,0.5-0.3,0.8,0L82,15.9L81.7,15.6z"/>
			</g>
			<g>
				<path fill="#7D1324" d="M117,42.2c-0.5,1-0.2,2.4-1.9,2.4c-1.3,0.1-2.7-0.5-3.4-1.7c-0.7-1-1.7-1.7-3.4-1.5
					c1.8,1.1,2.5,2.6,3.6,3.9c0.9,1,2.1,1.3,3.4,1.1c1.1-0.1,1.6,0.1,1.6,1.4c0.1,2.4-0.1,2.6-2.3,1.6c-5.9-2.6-9.6-7.2-10.8-13.5
					c-1.5-7.8,3.3-14.3,11.2-15.7c7.3-1.3,14.2,1.8,17.9,8.3c4.1,7.3,1.7,17-6.4,20.8c-1.4,0.7-1.7,0.4-2-1.1c-0.4-2,0-4.1-1.3-5.9
					c-0.4-0.6,0.5-0.5,0.8-0.6c1.5-0.4,2.9-1,3.8-2.3c1.7-2.5,1.7-5.8,0-8.4c-0.6-0.8-0.9-1.7-0.9-2.7c0-2.3-0.9-2.9-2.9-1.7
					c-1.3,0.8-2.5,1.2-4.1,0.8c-1.3-0.3-2.8-0.1-4.1,0.3c-0.9,0.3-2,0.1-2.8-0.4c-0.2-0.1-0.3-0.2-0.5-0.2c-0.8-0.4-1.8-1-2.4-0.5
					c-0.7,0.6-0.4,1.8-0.2,2.8c0.2,0.6,0.2,1.3-0.2,1.8c-1.2,2.3-0.7,4.7,0.4,6.9C111.6,40.8,114.2,41.7,117,42.2z"/>
			</g>
		</g>
	</g>
</g>
</svg>
