<?xml version="1.0" encoding="utf-8"?>
<!-- Generator: Adobe Illustrator 23.0.0, SVG Export Plug-In . SVG Version: 6.00 Build 0)  -->
<svg version="1.1" id="Layer_1" xmlns="http://www.w3.org/2000/svg" xmlns:xlink="http://www.w3.org/1999/xlink" x="0px" y="0px"
	 viewBox="0 0 300 200" enable-background="new 0 0 300 200" xml:space="preserve">
<g>
	<g id="Layer_1-2">
		<g id="Drop_Shadow_4_" opacity="0.7">
			
				<image overflow="visible" enable-background="new    " width="2993" height="1645" xlink:href="2063B58.png"  transform="matrix(8.252589e-02 0 0 8.252589e-02 2 64.1649)">
			</image>
		</g>
		<g id="base_4_">
			<g>
				<defs>
					<path id="SVGID_1_" d="M2.2,105.8v-7.6c5.8-2.9,144.2-60.4,150-57.5l85.4,34.9c4.2,2.1,3.1,14.9-1.1,17l-119.4,59.1
						c-7,3.5-15.2,3.5-22.2,0L2.2,105.8z"/>
				</defs>
				<clipPath id="SVGID_2_">
					<use xlink:href="#SVGID_1_"  overflow="visible"/>
				</clipPath>
				<g clip-path="url(#SVGID_2_)">
					<image overflow="visible" width="291" height="264" xlink:href="2063B59.png"  transform="matrix(1 0 0 1 -45 -23)">
					</image>
				</g>
			</g>
		</g>
		<g id="top_4_">
			<g>
				<defs>
					<path id="SVGID_3_" d="M2.2,98.3l131.6-65.1c5.8-2.9,12.6-2.9,18.4,0l84.3,41.7c2.8,1.4,4,4.8,2.6,7.6c-0.6,1.1-1.5,2-2.6,2.6
						l-119.4,59.1c-7,3.5-15.2,3.5-22.2,0L2.2,98.3z"/>
				</defs>
				<clipPath id="SVGID_4_">
					<use xlink:href="#SVGID_3_"  overflow="visible"/>
				</clipPath>
				<g clip-path="url(#SVGID_4_)">
					<image overflow="visible" width="265" height="131" xlink:href="2063B5F.png"  transform="matrix(1 0 0 1 0 24)">
					</image>
				</g>
			</g>
		</g>
		<g enable-background="new    ">
			<path fill="#F1F2F2" d="M136.4,114.8l6.9,3.4c1.1,0.5,1.8,1.1,2,1.6c0.2,0.5,0,0.9-0.7,1.3c-0.7,0.3-1.6,0.4-2.6,0.3
				c-1-0.1-2.1-0.4-3.2-1l-6.9-3.4l1.1-0.5l6.9,3.4c0.7,0.3,1.3,0.5,1.9,0.6c0.6,0.1,1.1,0,1.5-0.2c0.8-0.4,0.5-0.9-1-1.6l-6.9-3.4
				L136.4,114.8z"/>
			<path fill="#F1F2F2" d="M148.3,117.1c-0.3-0.2-0.6-0.2-0.9-0.2c-0.3,0-0.7,0-1.2,0.1c-0.5,0.1-0.9,0.2-1.3,0.2
				c-0.9,0-1.8-0.1-2.6-0.5c-0.7-0.3-1.1-0.7-1.2-1c-0.1-0.4,0.1-0.7,0.6-0.9c0.5-0.3,1.2-0.4,2-0.3c0.8,0.1,1.5,0.3,2.3,0.6l-1,0.5
				c-0.3-0.2-0.7-0.3-1-0.3c-0.4,0-0.7,0-0.9,0.1c-0.2,0.1-0.3,0.2-0.3,0.4c0,0.2,0.2,0.3,0.5,0.4c0.3,0.1,0.5,0.2,0.8,0.2
				c0.3,0,0.7,0,1.2-0.2c0.5-0.1,1-0.2,1.5-0.2c0.4,0,0.8,0,1.2,0.1c0.4,0.1,0.8,0.2,1.2,0.4c0.7,0.3,1.1,0.7,1.2,1.1
				c0.1,0.4-0.1,0.7-0.7,0.9c-0.4,0.2-0.8,0.3-1.3,0.3c-0.5,0-1.1,0-1.6-0.1c-0.6-0.1-1.1-0.3-1.5-0.5l1-0.5
				c0.4,0.2,0.8,0.3,1.2,0.3c0.4,0,0.7,0,1-0.2c0.3-0.1,0.4-0.3,0.4-0.4C148.8,117.4,148.6,117.2,148.3,117.1z"/>
			<path fill="#F1F2F2" d="M154.6,116.3c-0.6,0.3-1.5,0.4-2.6,0.2c-1.1-0.1-2.2-0.5-3.4-1.1l-0.2-0.1c-0.8-0.4-1.4-0.8-1.8-1.1
				c-0.4-0.4-0.7-0.7-0.7-1c0-0.3,0.2-0.6,0.5-0.7c0.6-0.3,1.4-0.4,2.4-0.2c1,0.2,2.1,0.6,3.3,1.1l0.7,0.3l-3,1.4
				c0.7,0.3,1.3,0.5,1.9,0.6c0.6,0.1,1,0,1.4-0.1c0.5-0.2,0.5-0.6,0.2-1l1.4,0.2c0.3,0.3,0.4,0.6,0.3,0.9
				C155.2,115.9,155,116.1,154.6,116.3z M147.9,113.1c-0.3,0.1-0.3,0.3-0.2,0.6c0.2,0.2,0.5,0.5,1.1,0.8l1.9-0.9l-0.1-0.1
				c-0.6-0.3-1.1-0.4-1.6-0.5C148.6,113,148.2,113,147.9,113.1z"/>
			<path fill="#F1F2F2" d="M153.5,110.8c-0.2,0-0.3,0.1-0.5,0.2c-0.5,0.2-0.5,0.5,0,0.9l5.3,2.6l-1,0.5l-7.7-3.8l1-0.5l0.9,0.4
				c-0.4-0.4-0.4-0.8,0-1c0.1-0.1,0.3-0.1,0.5-0.1L153.5,110.8z"/>
			<path fill="#F1F2F2" d="M166.2,109.4c0.3,0.3,0.3,0.7,0.2,1c-0.1,0.3-0.5,0.6-1,0.8c-0.5,0.2-1.2,0.4-1.9,0.4
				c-0.8,0-1.7-0.1-2.6-0.4c-0.9-0.3-1.9-0.6-2.9-1.1l-0.8-0.4c-1.6-0.8-2.6-1.5-3-2.1c-0.4-0.6-0.3-1.1,0.5-1.5
				c0.7-0.3,1.5-0.4,2.5-0.3c1,0.1,2,0.4,3.2,0.9l-1,0.5c-1.4-0.6-2.4-0.7-3.1-0.3c-0.5,0.2-0.5,0.5-0.2,0.9
				c0.3,0.4,1.1,0.9,2.2,1.4l0.8,0.4c1.1,0.5,2.1,0.9,3,1.1c0.9,0.2,1.6,0.1,2.1-0.1c0.5-0.3,0.7-0.5,0.5-0.9l-2-1l-1.3,0.6
				l-1.4-0.7l2.3-1.1L166.2,109.4z"/>
		</g>
		<g enable-background="new    ">
			<path fill="#F1F2F2" d="M165,105.4c-0.2,0-0.3,0.1-0.5,0.2c-0.5,0.2-0.5,0.5,0,0.9l5.3,2.6l-1,0.5l-7.7-3.8l1-0.5l0.9,0.4
				c-0.4-0.4-0.4-0.8,0-1c0.1-0.1,0.3-0.1,0.5-0.1L165,105.4z"/>
		</g>
		<g enable-background="new    ">
			<path fill="#F1F2F2" d="M167.7,106.2c-0.8-0.4-1.3-0.7-1.8-1.1c-0.4-0.4-0.6-0.7-0.7-1c0-0.3,0.2-0.6,0.6-0.8
				c0.6-0.3,1.4-0.4,2.5-0.2c1,0.1,2.1,0.5,3.3,1l0.4,0.2c0.8,0.4,1.3,0.7,1.8,1.1c0.4,0.4,0.6,0.7,0.6,1c0,0.3-0.2,0.6-0.6,0.8
				c-0.6,0.3-1.5,0.4-2.6,0.2C170.1,107.2,169,106.9,167.7,106.2L167.7,106.2z M168.8,105.8c0.8,0.4,1.5,0.6,2.1,0.8
				c0.6,0.1,1.1,0.1,1.5-0.1c0.3-0.2,0.4-0.4,0.1-0.7c-0.3-0.3-0.8-0.7-1.7-1.1c-0.8-0.4-1.5-0.6-2.1-0.8c-0.7-0.1-1.1-0.1-1.5,0
				c-0.3,0.2-0.4,0.4-0.1,0.7C167.4,105,168,105.4,168.8,105.8z"/>
			<path fill="#F1F2F2" d="M178.8,104c0.3,0.4,0.2,0.8-0.4,1c-0.5,0.2-1.1,0.3-1.8,0.2c-0.7-0.1-1.6-0.4-2.5-0.9l-5-2.4l1-0.5l5,2.4
				c1,0.5,1.7,0.6,2.2,0.4c0.5-0.2,0.5-0.5,0.1-0.9l-5.5-2.7l1-0.5l7.7,3.8l-1,0.5L178.8,104z"/>
			<path fill="#F1F2F2" d="M182,99.6c1.2,0.6,2,1.1,2.4,1.6c0.4,0.5,0.3,0.9-0.2,1.1c-0.5,0.2-1.2,0.3-2,0.2l3.6,1.8l-1,0.5
				l-10.6-5.2l0.9-0.4l0.8,0.4c-0.3-0.4-0.2-0.8,0.3-1c0.6-0.3,1.3-0.3,2.3-0.1c1,0.2,2.1,0.6,3.4,1.2L182,99.6z M180.8,100
				c-0.8-0.4-1.5-0.6-2.1-0.8c-0.6-0.1-1.1-0.1-1.4,0c-0.4,0.2-0.4,0.5,0,0.8l3.4,1.7c0.8,0.2,1.4,0.2,1.8,0
				c0.3-0.2,0.4-0.4,0.1-0.7C182.3,100.8,181.7,100.5,180.8,100z"/>
		</g>
		<g>
			<g>
				<defs>
					<path id="SVGID_5_" d="M155.5,65.3c0.1-0.5-0.3-1-0.9-1.5c-1.3-0.9-3.4-1-4.8-0.2c-0.6,0.3-1,0.8-1.1,1.4l0,0l-19.9,40.4
						c-0.6,0.8-0.7,1.8-0.3,2.8c1,2.4,5,4,9.1,3.4c2.8-0.4,4.8-1.7,5.5-3.3l0,0c0-0.1,0.1-0.2,0.1-0.4l12.2-41.5
						C155.5,66,155.5,65.6,155.5,65.3L155.5,65.3z"/>
				</defs>
				<clipPath id="SVGID_6_">
					<use xlink:href="#SVGID_5_"  overflow="visible"/>
				</clipPath>
				<g clip-path="url(#SVGID_6_)">
					<image overflow="visible" width="36" height="51" xlink:href="2063B5A.png"  transform="matrix(1 0 0 1 126 62)">
					</image>
				</g>
			</g>
		</g>
		<g>
			<g>
				<defs>
					<path id="SVGID_7_" d="M152.2,63.1L152.2,63.1l-65.8-0.8c-1.5-0.1-3,0.2-4.3,0.9c-2.2,1.3-2.2,3.5,0,4.8l0,0
						c1.2,0.7,2.5,1.1,3.9,1.1l0,0c0.4,0,0.8,0,1.1,0l65.2-1.8l0,0c0.8,0,1.5-0.2,2.2-0.5c1.4-0.8,1.5-2,0.3-2.9
						C153.9,63.4,153.1,63.1,152.2,63.1z"/>
				</defs>
				<clipPath id="SVGID_8_">
					<use xlink:href="#SVGID_7_"  overflow="visible"/>
				</clipPath>
				<g clip-path="url(#SVGID_8_)">
					<image overflow="visible" width="76" height="10" xlink:href="2063B5B.png"  transform="matrix(1 0 0 1 80 60)">
					</image>
				</g>
			</g>
		</g>
		<g>
			<g>
				<defs>
					<path id="SVGID_9_" d="M117.1,80.1c-0.1,0-36.7,2-37.4,2.1l0,0l-1.4,0.3c-4.2,1.1-5.9,4-4.1,6.5c1.7,2.2,5.7,3.4,9.4,2.9l0,0
						c0.5-0.1,1-0.2,1.5-0.3c0.3-0.1,33.5-7.7,33.5-7.7l0,0c1.4-0.3,2.2-1.1,2-1.9C120.4,80.8,118.8,80,117.1,80.1z"/>
				</defs>
				<clipPath id="SVGID_10_">
					<use xlink:href="#SVGID_9_"  overflow="visible"/>
				</clipPath>
				<g clip-path="url(#SVGID_10_)">
					<image overflow="visible" width="52" height="16" xlink:href="2063B56.png"  transform="matrix(1 0 0 1 71 77)">
					</image>
				</g>
			</g>
		</g>
		<g>
			<g>
				<defs>
					<path id="SVGID_11_" d="M82,63.2c-0.8,0.4-1.3,1.1-1.6,1.9l-6.8,20.8c0,0.1-0.1,0.1,0,0.1l-0.1,0l0,0c-0.3,1,0,2,0.6,2.8
						c1.9,2.5,6.8,3.7,10.9,2.7c2.6-0.6,4.3-2.1,4.7-3.6l0,0c0.1-0.3,0.1-0.7,0.1-1.1l1.8-20.6l0,0c0.2-1-0.3-2.1-1.6-2.9l0,0
						C87.9,62,84.3,61.9,82,63.2z"/>
				</defs>
				<clipPath id="SVGID_12_">
					<use xlink:href="#SVGID_11_"  overflow="visible"/>
				</clipPath>
				<g clip-path="url(#SVGID_12_)">
					<image overflow="visible" width="22" height="32" xlink:href="2063B57.png"  transform="matrix(1 0 0 1 72 61)">
					</image>
				</g>
			</g>
		</g>
		<g>
			<polygon fill="#010101" points="93.8,79.8 120.4,64.2 147,80.7 120.3,96.3 			"/>
		</g>
		<g>
			<polygon fill="#FFFFFF" points="117.6,91.8 127.6,86 129.3,87.1 119.3,92.9 			"/>
		</g>
		<g>
			<path fill="#FFFFFF" d="M103,82.8l0.1-0.9c0.4,0.1,0.8,0,1.1-0.1c0.3-0.2,0.3-0.4-0.2-0.7l-2.8-1.7l1.2-0.7l2.8,1.7
				c0.5,0.3,0.8,0.7,0.8,1c0,0.3-0.3,0.7-0.8,1C104.5,82.8,103.7,83,103,82.8z"/>
		</g>
		<g>
			<path fill="#FFFFFF" d="M102.8,78.6l3.5-2l1,0.6l-2.3,1.3l0.7,0.4l2.1-1.2l0.9,0.6l-2.1,1.2l0.7,0.4l2.3-1.4l1,0.6l-3.5,2
				L102.8,78.6z"/>
		</g>
		<g>
			<path fill="#FFFFFF" d="M108.8,76.3l-1.3,0.8l-1-0.6l3.8-2.2l1,0.6l-1.3,0.8l3.3,2l-1.2,0.7L108.8,76.3z"/>
		</g>
		<g>
			<path fill="#FFFFFF" d="M104.7,83.8l2.2-1.3c0.5-0.3,1-0.4,1.6-0.5c0.3,0,0.7,0.1,1,0.3l0,0c0.5,0.3,0.5,0.6,0.3,1
				c0.6-0.2,1.3-0.2,1.9,0.2l0,0c0.7,0.5,0.6,1.1-0.4,1.7l-2.2,1.3L104.7,83.8z M108.6,83.2c-0.3-0.1-0.6-0.1-0.9,0.1l-0.8,0.5
				l0.8,0.5l0.7-0.4C108.8,83.5,108.9,83.3,108.6,83.2L108.6,83.2z M109.4,84.2l-0.9,0.6l0.8,0.5l0.9-0.6c0.4-0.2,0.4-0.4,0.2-0.6
				l0,0C110.1,83.9,109.8,84,109.4,84.2L109.4,84.2z"/>
		</g>
		<g>
			<path fill="#FFFFFF" d="M108.8,81.4l2-1.2c0.6-0.4,1.2-0.5,1.9-0.5c0.5,0,0.9,0.1,1.4,0.4l0,0c0.7,0.4,0.7,0.9,0.5,1.4l2.6,0.3
				l-1.4,0.8l-2.2-0.3l-0.5,0.3l1.3,0.8l-1.2,0.7L108.8,81.4z M112.9,81.6c0.4-0.2,0.4-0.5,0.1-0.7l0,0c-0.4-0.2-0.8-0.2-1.1,0
				l-0.8,0.5l1,0.6L112.9,81.6z"/>
		</g>
		<g>
			<path fill="#FFFFFF" d="M114,78.4l1.1-0.7l6.2,1.7l-1.3,0.8l-1.1-0.3l-1.7,1l0.5,0.7l-1.3,0.7L114,78.4z M117.7,79.4l-1.7-0.5
				l0.7,1L117.7,79.4z"/>
		</g>
		<g>
			<path fill="#FFFFFF" d="M117.2,76.6l1.2-0.7l4.3,2.7l-1.2,0.7L117.2,76.6z"/>
		</g>
		<g>
			<path fill="#FFFFFF" d="M118.7,75.7l1.1-0.6l4.1,0.4l-2.3-1.4l1.2-0.7l4.3,2.7l-1,0.6l-4.2-0.4l2.4,1.5l-1.2,0.7L118.7,75.7z"/>
		</g>
		<g>
			<path fill="#FFFFFF" d="M126.5,75.5l-0.1-0.9c0.7,0,1.3-0.2,1.9-0.5c0.3-0.2,0.4-0.4,0.2-0.5l0,0c-0.2-0.1-0.4-0.1-1.1,0.2
				c-1.1,0.4-2.1,0.7-3,0.1l0,0c-0.8-0.5-0.8-1.2,0.3-1.8c0.7-0.4,1.5-0.7,2.3-0.7l0.2,0.9c-0.6,0-1.1,0.2-1.6,0.4
				c-0.3,0.2-0.3,0.3-0.2,0.4l0,0c0.2,0.1,0.4,0.1,1.1-0.2c1.2-0.5,2.1-0.6,3-0.1l0,0c0.9,0.6,0.7,1.3-0.4,1.9
				C128.4,75.3,127.5,75.5,126.5,75.5z"/>
		</g>
		<g>
			<g>
				<defs>
					<path id="SVGID_13_" d="M99.9,15.8L81.1,63.5l-7.8,23.4c0,0,1.8,6.8,13.7,4.2s18-4.8,18-4.8l15.6,9.3l17.6-10.5l-9.7,21
						c-0.2,0.5-0.2,1.1-0.1,1.6c0.7,2,6.2,6.8,13.9,1.9c0.3-0.2,0.6-0.5,0.7-0.9l19.3-48.7c0.1-0.3-0.2-0.8,0-0.6
						c1.8,1.9-10.4,7.6-14.6-0.3c-0.4-0.7,0.9-3.3,1.2-4l9-18.3l-18,10.3l-26.5-15.6l19.4-11.6l-27.2,0.7
						C105.5,20.5,99.9,20,99.9,15.8z"/>
				</defs>
				<clipPath id="SVGID_14_">
					<use xlink:href="#SVGID_13_"  overflow="visible"/>
				</clipPath>
				<g clip-path="url(#SVGID_14_)">
					<image overflow="visible" width="90" height="97" xlink:href="2063B68.png"  transform="matrix(1 0 0 1 73 15)">
					</image>
				</g>
			</g>
		</g>
		<g opacity="0.6">
			
				<image overflow="visible" enable-background="new    " width="1296" height="900" xlink:href="2063B6B.png"  transform="matrix(8.252589e-02 0 0 8.252589e-02 80.3171 1.1977)">
			</image>
		</g>
	</g>
</g>
</svg>
