<?xml version="1.0" encoding="utf-8"?>
<!-- Generator: Adobe Illustrator 23.0.0, SVG Export Plug-In . SVG Version: 6.00 Build 0)  -->
<svg version="1.1" id="Layer_1" xmlns="http://www.w3.org/2000/svg" xmlns:xlink="http://www.w3.org/1999/xlink" x="0px" y="0px"
	 viewBox="0 0 300 200" enable-background="new 0 0 300 200" xml:space="preserve">
<g>
	<g id="Layer_1-2">
		<g>
			<g>
				<defs>
					<path id="SVGID_1_" d="M117.8,25.8l-4,45c0,0.5,0.1,0.5,0.5,0.7l23.4,15.7c0.5,0.3,0.7,0.7,1.7,0.4l6.4-3.2
						c0.3-0.5,0.1-0.4,0-0.8l4.3-44.7l-6.5,3.5c-0.4,0.2-2-0.3-2.4-0.5L117.8,25.8z"/>
				</defs>
				<clipPath id="SVGID_2_">
					<use xlink:href="#SVGID_1_"  overflow="visible"/>
				</clipPath>
				<g clip-path="url(#SVGID_2_)">
					<image overflow="visible" width="38" height="63" xlink:href="58388E89.png"  transform="matrix(1 0 0 1 113 25)">
					</image>
				</g>
			</g>
		</g>
		<g>
			<g>
				<defs>
					<path id="SVGID_3_" d="M92.9,38.7L88.7,84l23.5,15.8c0.4,0.3,1.1,1,2.1,0.4L133.8,90l4.1-45.1l-19.4,10.1
						c-1,0.6-2.2-0.4-2.6-0.6L92.9,38.7z"/>
				</defs>
				<clipPath id="SVGID_4_">
					<use xlink:href="#SVGID_3_"  overflow="visible"/>
				</clipPath>
				<g clip-path="url(#SVGID_4_)">
					<image overflow="visible" width="50" height="63" xlink:href="58388E8B.png"  transform="matrix(1 0 0 1 88 38)">
					</image>
				</g>
			</g>
		</g>
		<g>
			<g>
				<defs>
					<polygon id="SVGID_5_" points="87,48.6 82.9,93.8 102.1,106.3 108.4,103.3 113.1,57.7 105.7,61.3 					"/>
				</defs>
				<clipPath id="SVGID_6_">
					<use xlink:href="#SVGID_5_"  overflow="visible"/>
				</clipPath>
				<g clip-path="url(#SVGID_6_)">
					<image overflow="visible" width="32" height="59" xlink:href="58388E8E.png"  transform="matrix(1 0 0 1 82 48)">
					</image>
				</g>
			</g>
		</g>
		<g>
			<g>
				<defs>
					<polygon id="SVGID_7_" points="75.8,53.7 95.1,66.8 101.4,63.3 97.2,108.8 91,112 71.8,99.2 					"/>
				</defs>
				<clipPath id="SVGID_8_">
					<use xlink:href="#SVGID_7_"  overflow="visible"/>
				</clipPath>
				<g clip-path="url(#SVGID_8_)">
					<image overflow="visible" width="31" height="59" xlink:href="58388E8F.png"  transform="matrix(1 0 0 1 71 53)">
					</image>
				</g>
			</g>
		</g>
		<g id="Drop_Shadow" opacity="0.7">
			
				<image overflow="visible" enable-background="new    " width="2994" height="1646" xlink:href="58388E8A.png"  transform="matrix(7.687678e-02 0 0 7.687678e-02 2 72.9908)">
			</image>
		</g>
		<g id="base">
			<g>
				<defs>
					<path id="SVGID_9_" d="M2.2,111.8v-7.1c5.4-2.7,134.4-56.3,139.8-53.6l79.6,32.5c3.9,1.9,2.9,13.9-1.1,15.9l-111.3,55.1
						c-6.5,3.2-14.2,3.2-20.7,0L2.2,111.8z"/>
				</defs>
				<clipPath id="SVGID_10_">
					<use xlink:href="#SVGID_9_"  overflow="visible"/>
				</clipPath>
				<g clip-path="url(#SVGID_10_)">
					<image overflow="visible" width="364" height="285" xlink:href="58388E85.png"  transform="matrix(1 0 0 1 -69 -42)">
					</image>
				</g>
			</g>
		</g>
		<g id="top">
			<g>
				<defs>
					<path id="SVGID_11_" d="M2.2,104.8l122.7-60.7c5.4-2.7,11.7-2.7,17.1,0l78.6,38.9c2.6,1.3,3.7,4.5,2.4,7.1
						c-0.5,1-1.4,1.9-2.4,2.4l-111.3,55.1c-6.5,3.2-14.2,3.2-20.7,0L2.2,104.8z"/>
				</defs>
				<clipPath id="SVGID_12_">
					<use xlink:href="#SVGID_11_"  overflow="visible"/>
				</clipPath>
				<g clip-path="url(#SVGID_12_)">
					<image overflow="visible" width="323" height="182" xlink:href="58388E86.png"  transform="matrix(1 0 0 1 -50 4)">
					</image>
				</g>
			</g>
		</g>
		<g id="Page-1">
			<g id="mlh-logo-color">
				<g id="Layer_1-3">
					<g id="Group">
						<g id="Shape">
							<path fill-rule="evenodd" clip-rule="evenodd" fill="#353635" d="M85.7,117.3c0.1,0,0.2,0,0.4,0c0.1,0,0.3,0,0.4,0.1
								c0.1,0,0.2,0.1,0.3,0.1l3.1,2.1c0,0,0.1,0,0,0.1c0,0,0,0-0.1,0.1l-0.9,0.5c0,0-0.1,0-0.1,0c0,0-0.1,0-0.1,0l-2.8-1.9
								l-0.7,0.4l2.8,1.9c0,0,0.1,0,0,0.1c0,0,0,0-0.1,0.1l-0.8,0.4c0,0-0.1,0-0.1,0c0,0-0.1,0-0.1,0l-2.8-1.9l-0.7,0.4l2.9,1.9
								c0.1,0,0.1,0.1,0,0.1l-0.9,0.5c-0.1,0-0.2,0-0.2,0l-3.7-2.5c-0.1,0-0.1-0.1,0-0.1l3.8-2C85.5,117.3,85.6,117.3,85.7,117.3
								L85.7,117.3z"/>
						</g>
						<g>
							<path fill-rule="evenodd" clip-rule="evenodd" fill="#353635" d="M90.1,115c0.1,0,0.2-0.1,0.3-0.1c0.1,0,0.3,0,0.4,0
								c0.1,0,0.3,0,0.4,0.1c0.1,0,0.2,0.1,0.3,0.2l3.1,2.1c0,0,0.1,0,0,0.1c0,0,0,0-0.1,0.1l-0.9,0.5c0,0-0.1,0-0.1,0
								c0,0-0.1,0-0.1,0l-1-0.7c0,0-0.1,0-0.1,0c0,0-0.1,0-0.1,0l-1.3,0.6c0,0-0.1,0-0.1,0.1s0,0,0,0.1l1,0.7c0.1,0,0.1,0.1,0,0.1
								l-0.9,0.5c-0.1,0-0.2,0-0.2,0l-3.1-2.1c-0.2-0.1-0.3-0.2-0.3-0.4c0-0.1,0-0.2,0.1-0.2c0.1-0.1,0.2-0.1,0.3-0.2L90.1,115
								L90.1,115z M91.5,116.4l-1-0.6l-1.5,0.8l1,0.6L91.5,116.4z"/>
						</g>
						<g>
							<path fill-rule="evenodd" clip-rule="evenodd" fill="#353635" d="M94.9,112.6C94.9,112.6,94.9,112.6,94.9,112.6l3.2,2.1
								c0.1,0.1,0.2,0.1,0.2,0.2c0,0.1,0.1,0.1,0.1,0.2c0,0.1-0.1,0.2-0.1,0.2c-0.1,0.1-0.2,0.1-0.3,0.2l-1.9,1
								c-0.1,0-0.2,0.1-0.3,0.1c-0.1,0-0.3,0-0.4,0c-0.1,0-0.3,0-0.4-0.1c-0.1,0-0.2-0.1-0.3-0.2l-1.2-0.8c-0.1,0-0.1-0.1,0-0.1
								l0.9-0.5c0.1,0,0.2,0,0.2,0l0.8,0.5c0,0,0.1,0,0.1,0c0,0,0.1,0,0.1,0l0.9-0.5c0,0,0.1,0,0.1-0.1c0,0,0,0,0-0.1l-2.7-1.8
								c0,0-0.1,0,0-0.1c0,0,0,0,0.1-0.1l0.9-0.5C94.7,112.6,94.8,112.5,94.9,112.6L94.9,112.6z"/>
						</g>
						<g>
							<path fill-rule="evenodd" clip-rule="evenodd" fill="#353635" d="M98.8,110.5c0.1,0,0.2-0.1,0.3-0.1c0.1,0,0.2,0,0.4,0
								c0.1,0,0.3,0,0.4,0.1c0.1,0,0.2,0.1,0.3,0.2l2.6,1.7c0.1,0.1,0.1,0.1,0.2,0.2c0,0.1,0.1,0.1,0.1,0.2c0,0.1-0.1,0.2-0.1,0.2
								c-0.1,0.1-0.2,0.1-0.3,0.2l-2.2,1.1c-0.1,0.1-0.2,0.1-0.3,0.1c-0.1,0-0.2,0-0.4,0c-0.1,0-0.3,0-0.4-0.1
								c-0.1,0-0.2-0.1-0.3-0.1l-2.6-1.7c-0.1-0.1-0.1-0.1-0.2-0.2c0-0.1-0.1-0.1-0.1-0.2c0-0.1,0.1-0.2,0.1-0.2
								c0.1-0.1,0.2-0.1,0.3-0.2L98.8,110.5L98.8,110.5z M99.4,111.3l-1.5,0.8l2,1.3l1.5-0.8L99.4,111.3z"/>
						</g>
						<g>
							<path fill-rule="evenodd" clip-rule="evenodd" fill="#353635" d="M108.3,110.2C108.3,110.2,108.3,110.2,108.3,110.2
								C108.3,110.2,108.3,110.2,108.3,110.2l-1,0.6c0,0-0.1,0-0.1,0H107l-1.7-0.4h-0.1l-0.8,0.4c0,0,0,0,0,0l1,0.7
								c0.1,0,0.1,0.1,0,0.1l-0.9,0.5c-0.1,0-0.2,0-0.2,0l-3.7-2.5c-0.1,0-0.1-0.1,0-0.1l2.9-1.5c0.1-0.1,0.2-0.1,0.3-0.1
								c0.1,0,0.3,0,0.4,0c0.1,0,0.3,0,0.4,0.1c0.1,0,0.2,0.1,0.3,0.1l1.5,1c0.1,0.1,0.2,0.2,0.2,0.3c0,0.1,0,0.3-0.1,0.4h0
								c0,0,0,0,0,0h0L108.3,110.2L108.3,110.2z M104.1,108.9l-1.5,0.8l1,0.6l1.5-0.8L104.1,108.9L104.1,108.9z"/>
						</g>
						<g>
							<path fill-rule="evenodd" clip-rule="evenodd" fill="#353635" d="M113.4,106.5C113.4,106.5,113.5,106.5,113.4,106.5
								c0.1,0,0.2,0,0.2,0l0.7,0.5c0,0,0.1,0,0,0.1s0,0-0.1,0.1l-2.7,1.4c-0.1,0-0.2,0-0.2,0l-3.7-2.5c-0.1,0-0.1-0.1,0-0.1l0.9-0.5
								c0.1,0,0.2,0,0.2,0l2.7,1.8c0,0,0.1,0,0.1,0c0,0,0.1,0,0.1,0L113.4,106.5L113.4,106.5L113.4,106.5z"/>
						</g>
						<g>
							<path fill-rule="evenodd" clip-rule="evenodd" fill="#353635" d="M114.6,102.5C114.6,102.5,114.7,102.5,114.6,102.5l0.4,0.2
								l0.2,0.1l0.2,0.1c0,0,0,0,0,0.1c0,0,0,0-0.1,0.1l-0.4,0.2l-1.3,0.7l-0.3,0.2c0,0,0,0,0,0l0.6,0.4h0l1.8-0.9c0,0,0.1,0,0.1,0
								c0,0,0.1,0,0.1,0l0.6,0.4c0,0,0.1,0,0,0.1c0,0,0,0-0.1,0.1l-1.8,0.9c0,0,0,0,0,0l0.3,0.2l0,0l0.3,0.2h0l0.3-0.1l1.4-0.7
								l0.4-0.2c0,0,0.1,0,0.1,0c0,0,0.1,0,0.1,0l0.2,0.1l0.3,0.2l0.2,0.1c0,0,0.1,0,0,0.1c0,0,0,0-0.1,0.1l-0.4,0.2l-2.4,1.2
								l-0.4,0.2c-0.1,0-0.2,0-0.2,0l-0.2-0.1l-3.2-2.2l-0.3-0.2c0,0-0.1,0,0-0.1c0,0,0,0,0.1-0.1l0.5-0.2l2.5-1.3l0.2-0.1
								C114.4,102.4,114.5,102.4,114.6,102.5L114.6,102.5z"/>
						</g>
						<g>
							<path fill-rule="evenodd" clip-rule="evenodd" fill="#353635" d="M118.6,100.4c0.1-0.1,0.2-0.1,0.3-0.1c0.1,0,0.3,0,0.4,0
								c0.1,0,0.3,0,0.4,0.1c0.1,0,0.2,0.1,0.3,0.1l3.1,2.1c0,0,0.1,0,0,0.1c0,0,0,0-0.1,0.1l-0.9,0.5c0,0-0.1,0-0.1,0
								c0,0-0.1,0-0.1,0l-1-0.7c0,0-0.1,0-0.1,0c0,0-0.1,0-0.1,0l-1.3,0.6c0,0-0.1,0-0.1,0.1s0,0,0,0.1l1,0.7c0.1,0,0.1,0.1,0,0.1
								l-0.9,0.5c-0.1,0-0.2,0-0.2,0l-3.1-2.1c-0.1-0.1-0.2-0.1-0.2-0.2c0-0.1-0.1-0.1-0.1-0.2c0-0.1,0.1-0.2,0.1-0.2
								c0.1-0.1,0.2-0.1,0.3-0.2L118.6,100.4L118.6,100.4z M120.1,101.8l-1-0.6l-1.5,0.8l1,0.6L120.1,101.8z"/>
						</g>
						<g>
							<path fill-rule="evenodd" clip-rule="evenodd" fill="#353635" d="M125.9,98.8C125.9,98.8,125.9,98.8,125.9,98.8l1.5,1
								c0.1,0.1,0.1,0.1,0.2,0.2c0,0.1,0.1,0.1,0.1,0.2c0,0.1,0,0.2-0.1,0.2c-0.1,0.1-0.2,0.1-0.3,0.2l-2.2,1.1
								c-0.1,0.1-0.2,0.1-0.3,0.1c-0.1,0-0.3,0-0.4,0c-0.1,0-0.3,0-0.4-0.1c-0.1,0-0.2-0.1-0.3-0.2l-2.6-1.7
								c-0.1-0.1-0.1-0.1-0.2-0.2c0-0.1-0.1-0.1-0.1-0.2c0-0.1,0.1-0.2,0.1-0.2c0.1-0.1,0.2-0.1,0.3-0.2l2.6-1.3c0,0,0.1,0,0.1,0
								c0,0,0.1,0,0.1,0l0.7,0.5c0,0,0.1,0,0,0.1s0,0-0.1,0.1l-2.1,1.1c0,0-0.1,0-0.1,0.1c0,0,0,0,0,0.1l1.8,1.2c0.1,0,0.1,0,0.2,0
								l1.3-0.6c0,0,0,0,0.1-0.1c0,0,0,0,0-0.1l-1-0.6c0,0-0.1,0,0-0.1s0,0,0.1-0.1l0.9-0.5C125.8,98.8,125.8,98.8,125.9,98.8
								L125.9,98.8z"/>
						</g>
						<g>
							<path fill-rule="evenodd" clip-rule="evenodd" fill="#353635" d="M128.8,95.2C128.8,95.2,128.8,95.2,128.8,95.2l3.2,2.2
								c0.1,0.1,0.1,0.1,0.2,0.2c0,0.1,0.1,0.1,0.1,0.2c0,0.1,0,0.2-0.1,0.2c-0.1,0.1-0.2,0.1-0.3,0.2l-2.2,1.1
								c-0.1,0.1-0.2,0.1-0.3,0.1c-0.1,0-0.2,0-0.4,0c-0.1,0-0.3,0-0.4-0.1c-0.1,0-0.2-0.1-0.3-0.1l-3.1-2.1c-0.1,0-0.1-0.1,0-0.1
								l0.9-0.5c0.1,0,0.2,0,0.2,0l2.7,1.8c0,0,0.1,0,0.1,0c0,0,0.1,0,0.1,0l1.3-0.6c0,0,0,0,0.1-0.1c0,0,0,0,0-0.1l-2.7-1.8
								c0,0-0.1,0,0-0.1c0,0,0,0,0.1-0.1l0.9-0.5C128.6,95.2,128.7,95.2,128.8,95.2L128.8,95.2z"/>
						</g>
						<g>
							<path fill-rule="evenodd" clip-rule="evenodd" fill="#353635" d="M133.2,92.9C133.2,92.9,133.2,93,133.2,92.9l0.4,0.3
								l0.2,0.1l0.2,0.2c0,0,0,0,0,0.1c0,0,0,0,0,0c0,0,0,0-0.1,0.1l-0.4,0.2l-1.3,0.7l-0.3,0.2c0,0,0,0,0,0l0.6,0.4h0l1.8-0.9
								c0.1,0,0.1,0,0.2,0l0.6,0.4c0,0,0.1,0,0,0.1s0,0-0.1,0.1l-1.8,0.9c0,0,0,0,0,0l0.3,0.2l0,0l0.3,0.2h0l0.3-0.1l1.4-0.7
								l0.4-0.2c0,0,0.1,0,0.1,0c0,0,0.1,0,0.1,0l0.2,0.1l0.3,0.2l0.2,0.1c0,0,0.1,0,0,0.1s0,0-0.1,0.1l-0.4,0.2l-2.4,1.2l-0.4,0.2
								c-0.1,0-0.2,0-0.2,0l-0.2-0.1l-3.2-2.2l-0.3-0.2c0,0-0.1,0,0-0.1c0,0,0,0,0.1-0.1l0.5-0.2l2.5-1.3l0.2-0.1
								C133,92.9,133.1,92.9,133.2,92.9L133.2,92.9z"/>
						</g>
						<g>
							<path fill-rule="evenodd" clip-rule="evenodd" fill="#353635" d="M139.9,89.4C140,89.4,140,89.4,139.9,89.4
								c0.1,0,0.2,0,0.2,0l3.7,2.5c0,0,0.1,0,0,0.1c0,0,0,0-0.1,0.1l-0.9,0.5c0,0-0.1,0-0.1,0c0,0-0.1,0-0.1,0l-1.3-0.9
								c-0.1,0-0.1,0-0.2,0l-1.3,0.6c0,0-0.1,0-0.1,0.1c0,0,0,0,0,0.1l1.3,0.9c0.1,0,0.1,0.1,0,0.1l-0.9,0.5c-0.1,0-0.2,0-0.2,0
								l-3.7-2.5c-0.1,0-0.1-0.1,0-0.1l0.9-0.5c0.1,0,0.2,0,0.2,0l1.3,0.8c0.1,0,0.2,0,0.2,0l1.3-0.6c0,0,0.1,0,0.1-0.1
								c0,0,0,0,0-0.1l-1.3-0.8c0,0-0.1,0,0-0.1s0,0,0.1-0.1L139.9,89.4L139.9,89.4L139.9,89.4z"/>
						</g>
						<g>
							<path fill-rule="evenodd" clip-rule="evenodd" fill="#353635" d="M144.1,87.3c0.1-0.1,0.2-0.1,0.3-0.1c0.1,0,0.2,0,0.4,0
								c0.1,0,0.3,0,0.4,0.1c0.1,0,0.2,0.1,0.3,0.2l3.1,2.1c0,0,0.1,0,0,0.1c0,0,0,0-0.1,0.1l-0.9,0.5c0,0-0.1,0-0.1,0
								c0,0-0.1,0-0.1,0l-1-0.7c0,0-0.1,0-0.1,0c0,0-0.1,0-0.1,0l-1.3,0.6c0,0-0.1,0-0.1,0.1c0,0,0,0,0,0.1l1,0.7
								c0.1,0,0.1,0.1,0,0.1l-0.9,0.5c-0.1,0-0.2,0-0.2,0l-3.1-2.1c-0.1-0.1-0.2-0.1-0.2-0.2c0-0.1-0.1-0.1-0.1-0.2
								c0-0.1,0-0.2,0.1-0.2c0.1-0.1,0.2-0.1,0.3-0.2L144.1,87.3L144.1,87.3z M145.5,88.8l-1-0.6l-1.5,0.8l1,0.6L145.5,88.8z"/>
						</g>
						<g>
							<path fill-rule="evenodd" clip-rule="evenodd" fill="#353635" d="M147.9,86.5C147.9,86.5,147.9,86.5,147.9,86.5l1.8,1.3
								c0,0,0.1,0,0.1,0c0,0,0.1,0,0.1,0l2-1c0,0,0.1,0,0.1,0c0,0,0.1,0,0.1,0l0.7,0.5c0,0,0.1,0,0,0.1c0,0,0,0-0.1,0.1l-1.3,0.7
								l-1.1,0.6l-0.1,0.1c-0.1,0-0.2,0.1-0.3,0.1c-0.1,0-0.3,0-0.4,0c-0.1,0-0.3,0-0.4-0.1c-0.1,0-0.2-0.1-0.3-0.2l-0.1-0.1
								l-0.4-0.3l-1.3-0.9l-0.4-0.2l-0.4-0.3c-0.1-0.1-0.1-0.1-0.2-0.2c0-0.1-0.1-0.1-0.1-0.2c0-0.1,0.1-0.1,0.1-0.2
								c0.1-0.1,0.2-0.1,0.3-0.2l0.1-0.1l2.4-1.2c0,0,0.1,0,0.1,0c0,0,0.1,0,0.1,0l0.7,0.5c0,0,0.1,0,0,0.1c0,0,0,0-0.1,0.1l-2,1
								C147.9,86.5,147.9,86.5,147.9,86.5L147.9,86.5z"/>
						</g>
						<g>
							<path fill-rule="evenodd" clip-rule="evenodd" fill="#353635" d="M154.4,84C154.4,84,154.4,84,154.4,84l3.7,0.7
								c0,0,0.1,0,0.1,0c0,0,0,0-0.1,0.1l-1.1,0.5c0,0-0.1,0-0.1,0h-0.1l-2.5-0.5h0l0,0.6c0,0,0,0.1,0,0.1c0,0,0,0.1,0.1,0.1
								l0.8,0.6c0.1,0,0.1,0.1,0,0.1l-0.9,0.4c-0.1,0-0.2,0-0.2,0l-3.7-2.5c-0.1,0-0.1-0.1,0-0.1l0.9-0.4c0.1,0,0.2,0,0.2,0l1.7,1.1
								l0-2c0,0,0-0.1,0-0.1c0,0,0-0.1,0.1-0.1l1.1-0.5c0,0,0,0,0.1,0c0,0,0,0,0,0.1L154.4,84L154.4,84z"/>
						</g>
						<g>
							<path fill-rule="evenodd" clip-rule="evenodd" fill="#353635" d="M160,83.7c0.1,0,0.1,0.1,0,0.1l-0.9,0.5c-0.1,0-0.2,0-0.2,0
								l-3.7-2.5c-0.1,0-0.1-0.1,0-0.1l0.9-0.5c0.1,0,0.2,0,0.2,0L160,83.7L160,83.7z"/>
						</g>
						<g>
							<path fill-rule="evenodd" clip-rule="evenodd" fill="#353635" d="M160.5,79c0.1,0,0.2,0,0.4,0c0.1,0,0.3,0,0.4,0.1
								c0.1,0,0.2,0.1,0.3,0.1l3.2,2.1c0,0,0.1,0,0,0.1s0,0-0.1,0.1l-0.9,0.4c0,0-0.1,0-0.1,0c0,0-0.1,0-0.1,0l-2.7-1.8
								c0,0-0.1,0-0.1,0c0,0-0.1,0-0.1,0l-1.3,0.6c0,0-0.1,0-0.1,0.1c0,0,0,0,0,0.1l2.7,1.8c0.1,0,0.1,0.1,0,0.1l-0.9,0.5
								c-0.1,0-0.2,0-0.2,0l-3.7-2.5c-0.1,0-0.1-0.1,0-0.1l2.9-1.5C160.3,79,160.4,79,160.5,79L160.5,79z"/>
						</g>
						<g>
							<path fill-rule="evenodd" clip-rule="evenodd" fill="#353635" d="M167.4,77.5C167.4,77.5,167.5,77.5,167.4,77.5l1.5,1
								c0.1,0.1,0.2,0.1,0.2,0.2c0,0.1,0.1,0.1,0.1,0.2c0,0.1-0.1,0.2-0.1,0.2c-0.1,0.1-0.2,0.1-0.3,0.2l-2.2,1.1
								c-0.1,0.1-0.2,0.1-0.3,0.1c-0.1,0-0.3,0-0.4,0c-0.1,0-0.3,0-0.4-0.1c-0.1,0-0.2-0.1-0.3-0.1l-2.6-1.7
								c-0.1-0.1-0.1-0.1-0.2-0.2c0-0.1-0.1-0.1-0.1-0.2c0-0.1,0.1-0.2,0.1-0.2c0.1-0.1,0.2-0.1,0.3-0.2l2.6-1.3c0,0,0.1,0,0.1,0
								c0,0,0.1,0,0.1,0l0.7,0.5c0,0,0.1,0,0,0.1c0,0,0,0-0.1,0.1l-2.1,1.1c0,0-0.1,0-0.1,0.1c0,0,0,0,0,0.1l1.8,1.2
								c0,0,0.1,0,0.1,0c0,0,0.1,0,0.1,0l1.2-0.6c0,0,0.1,0,0.1-0.1c0,0,0,0,0-0.1l-1-0.6c0,0-0.1,0,0-0.1c0,0,0,0,0.1-0.1l0.9-0.5
								C167.3,77.5,167.3,77.5,167.4,77.5L167.4,77.5z"/>
						</g>
					</g>
					<g>
						<path fill-rule="evenodd" clip-rule="evenodd" fill="#C34127" d="M81.4,87.6c0.8-0.1,1.6-0.2,2.4-0.2c0.8,0,1.6,0.2,2.3,0.4
							c0.7,0.2,1.4,0.5,2,0.9l20.4,13.7c0.2,0.1,0.3,0.3,0.3,0.4c0,0.2-0.2,0.3-0.3,0.4l-5.6,2.9c-0.2,0.1-0.5,0.2-0.7,0.1
							c-0.2,0-0.5-0.1-0.7-0.2L82.8,93.6l-4.5,2.3l18.6,12.5c0.2,0.1,0.3,0.2,0.3,0.4c0,0.2-0.2,0.3-0.3,0.4l-5.1,2.6
							c-0.2,0.1-0.5,0.2-0.7,0.1c-0.2,0-0.5-0.1-0.7-0.2L71.8,99.3l-4.5,2.3l18.6,12.5c0.4,0.3,0.4,0.6-0.1,0.8l-5.6,2.8
							c-0.4,0.3-1,0.2-1.4-0.1l-23.9-16c-0.4-0.3-0.4-0.6,0.1-0.8l24.2-12.4C79.9,88,80.6,87.8,81.4,87.6L81.4,87.6z"/>
					</g>
					<g>
						<path fill-rule="evenodd" clip-rule="evenodd" fill="#742114" d="M81.4,87.6c0.8-0.1,1.6-0.2,2.4-0.2c0.8,0,1.6,0.2,2.3,0.4
							c0.7,0.2,1.4,0.5,2,0.9l1.8,1.2l-7,3.7l-4.5,2.3l-6.5,3.3l-4.5,2.3l-7.1,3.6l-5.3-3.5c-0.5-0.3-0.4-0.6,0.1-0.8l24.2-12.4
							C79.9,88,80.7,87.8,81.4,87.6L81.4,87.6z"/>
					</g>
					<g>
						<path fill-rule="evenodd" clip-rule="evenodd" fill="#275B90" d="M127.4,86.3c0.2-0.1,0.5-0.2,0.7-0.1c0.3,0,0.5,0.1,0.7,0.2
							l4.8,3.2c0.2,0.1,0.3,0.3,0.3,0.4c0,0.2-0.1,0.3-0.3,0.4l-19.1,9.8c-0.5,0.3-1.1,0.3-1.5,0L89,84.2c-0.5-0.3-0.4-0.6,0.1-0.9
							l5.9-3c0.5-0.3,1.1-0.3,1.5,0l17.8,11.9c0.2,0.1,0.5,0.2,0.7,0.2c0.3,0,0.5-0.1,0.8-0.2L127.4,86.3L127.4,86.3z"/>
					</g>
					<g>
						<path fill-rule="evenodd" clip-rule="evenodd" fill="#172F51" d="M121,96.8l-6.6,3.4c-0.5,0.3-1.1,0.3-1.5,0L89,84.2
							c-0.5-0.3-0.4-0.6,0.1-0.9l5.9-3c0.5-0.3,1.1-0.3,1.5,0l17.8,11.9L121,96.8L121,96.8z"/>
					</g>
					<g>
						<path fill-rule="evenodd" clip-rule="evenodd" fill="#FBED13" d="M137.7,58.4c0.2-0.1,0.5-0.2,0.8-0.2c0.3,0,0.5,0.1,0.7,0.2
							l23.9,16.1c0.2,0.1,0.3,0.3,0.3,0.5c0,0.2-0.2,0.3-0.4,0.4l-6,3.1c-0.2,0.1-0.5,0.2-0.8,0.2c-0.3,0-0.5-0.1-0.7-0.2l-8.3-5.6
							c-0.2-0.1-0.4-0.2-0.7-0.2c-0.3,0-0.5,0-0.7,0.2l-8.3,4.3c-0.2,0.1-0.3,0.2-0.4,0.4c0,0.2,0.1,0.4,0.2,0.4l8.3,5.6
							c0.5,0.3,0.4,0.6-0.1,0.9l-5.9,3c-0.5,0.3-1.1,0.3-1.5,0l-23.9-16.1c-0.4-0.3-0.4-0.6,0.1-0.9l5.9-3c0.5-0.3,1.1-0.3,1.5,0
							l8.1,5.4c0.4,0.3,1,0.3,1.5,0l8.3-4.3c0.2-0.1,0.3-0.2,0.4-0.4c0-0.2-0.1-0.4-0.3-0.4l-8.1-5.4c-0.2-0.1-0.3-0.3-0.3-0.5
							c0-0.2,0.2-0.3,0.4-0.4L137.7,58.4z"/>
					</g>
					<g>
						<path fill-rule="evenodd" clip-rule="evenodd" fill="#EBC71C" d="M137.3,77.9l8.3,5.6c0.4,0.3,0.4,0.6-0.1,0.9l-5.9,3
							c-0.5,0.3-1.1,0.3-1.5,0l-23.9-16.1c-0.5-0.3-0.4-0.6,0.1-0.9l5.9-3c0.5-0.3,1.1-0.3,1.5,0l8.1,5.4L137.3,77.9L137.3,77.9z"/>
					</g>
					<g>
						<path fill-rule="evenodd" clip-rule="evenodd" fill="#EBC71C" d="M137.7,58.4c0.2-0.1,0.5-0.2,0.8-0.2c0.3,0,0.5,0.1,0.7,0.2
							l23.9,16.1c0.2,0.1,0.3,0.3,0.3,0.5c0,0.2-0.2,0.3-0.4,0.4l-6,3.1c-0.2,0.1-0.5,0.2-0.8,0.2c-0.3,0-0.5-0.1-0.7-0.2l-8.3-5.6
							l-7.5-5l-8.1-5.4c-0.2-0.1-0.3-0.3-0.3-0.5c0-0.2,0.2-0.4,0.4-0.4L137.7,58.4z"/>
					</g>
				</g>
			</g>
		</g>
		<g id="logo_projection" opacity="0.6">
			
				<image overflow="visible" enable-background="new    " width="1527" height="974" xlink:href="58388E87.png"  transform="matrix(8.965196e-02 0 0 8.965196e-02 45.3981 0)">
			</image>
		</g>
		<g>
			<g>
				<defs>
					<path id="SVGID_13_" d="M58.5,55.8l-3.7,45.8l24.6,16.3l6.2-3l4.6-45.7l-5.9,3.3c-0.6,0.3-2.2-0.6-2.7-1L58.5,55.8z"/>
				</defs>
				<clipPath id="SVGID_14_">
					<use xlink:href="#SVGID_13_"  overflow="visible"/>
				</clipPath>
				<g clip-path="url(#SVGID_14_)">
					<image overflow="visible" width="37" height="63" xlink:href="58388E99.png"  transform="matrix(1 0 0 1 54 55)">
					</image>
				</g>
			</g>
		</g>
		<g enable-background="new    ">
			<path fill="#FFFFFF" d="M124.4,117.8l2.8-1.3l1.5,0.5l-3.9,1.9l-10.8-3.4l1.1-0.5L124.4,117.8z"/>
			<path fill="#FFFFFF" d="M125.2,115.3c-0.8-0.2-1.4-0.5-1.9-0.8c-0.5-0.3-0.7-0.6-0.7-0.8c0-0.3,0.2-0.5,0.6-0.7
				c0.6-0.3,1.5-0.4,2.6-0.4c1.1,0,2.2,0.2,3.4,0.6l0.4,0.1c0.8,0.3,1.4,0.5,1.9,0.8c0.4,0.3,0.7,0.6,0.7,0.8c0,0.3-0.2,0.5-0.6,0.7
				c-0.7,0.3-1.6,0.4-2.7,0.4C127.7,116,126.5,115.8,125.2,115.3L125.2,115.3z M126.4,114.9c0.8,0.3,1.6,0.4,2.2,0.5
				c0.7,0.1,1.2,0,1.5-0.2c0.4-0.2,0.4-0.4,0.1-0.6c-0.3-0.2-0.9-0.5-1.8-0.8c-0.8-0.3-1.6-0.4-2.2-0.5c-0.7-0.1-1.2,0-1.5,0.2
				c-0.3,0.2-0.4,0.4-0.1,0.6C124.8,114.3,125.4,114.6,126.4,114.9z"/>
			<path fill="#FFFFFF" d="M135.1,112.9c0.3-0.1,0.3-0.3,0.3-0.4c-0.1-0.2-0.3-0.3-0.7-0.4l1-0.5c0.5,0.2,0.9,0.4,1.1,0.6
				c0.3,0.2,0.4,0.4,0.3,0.7c0,0.2-0.2,0.4-0.6,0.6c-0.7,0.3-1.5,0.4-2.6,0.4c-1.1,0-2.3-0.3-3.6-0.7l-0.2-0.1
				c-1.2-0.4-2-0.8-2.4-1.2c-0.4-0.4-0.2-0.8,0.4-1.1c0.6-0.3,1.3-0.4,2.2-0.4c0.9,0,1.8,0.2,2.7,0.4l-1,0.5
				c-0.5-0.1-0.9-0.2-1.4-0.2c-0.5,0-0.8,0-1.1,0.2c-0.3,0.2-0.4,0.4-0.1,0.6c0.2,0.2,0.8,0.5,1.6,0.7l0.3,0.1
				c0.9,0.3,1.6,0.4,2.2,0.5C134.3,113.1,134.8,113,135.1,112.9z"/>
			<path fill="#FFFFFF" d="M141.9,110.7c-0.2,0-0.5-0.1-0.9-0.2c0.3,0.3,0.2,0.6-0.3,0.9c-0.5,0.2-1.1,0.3-1.8,0.3
				c-0.8,0-1.5-0.1-2.2-0.3c-0.9-0.3-1.3-0.6-1.4-0.9c-0.1-0.3,0.2-0.6,0.9-1l0.6-0.3l-0.5-0.2c-0.4-0.1-0.8-0.2-1.2-0.2
				c-0.4,0-0.7,0-1,0.2c-0.2,0.1-0.3,0.2-0.3,0.4c0.1,0.1,0.2,0.3,0.6,0.4l-1,0.5c-0.4-0.1-0.8-0.3-1-0.5c-0.2-0.2-0.3-0.4-0.2-0.6
				c0.1-0.2,0.3-0.4,0.6-0.6c0.5-0.3,1.2-0.4,2-0.4c0.8,0,1.6,0.1,2.5,0.4l3.6,1.1c0.7,0.2,1.4,0.4,1.9,0.5l0.1,0L141.9,110.7z
				 M139.4,110.8c0.2-0.1,0.3-0.2,0.3-0.4c0-0.1-0.1-0.3-0.3-0.4l-1.5-0.5l-0.6,0.3c-0.4,0.2-0.6,0.4-0.5,0.5c0,0.2,0.3,0.3,0.7,0.5
				c0.3,0.1,0.7,0.2,1,0.2C138.9,111,139.2,110.9,139.4,110.8z"/>
			<path fill="#FFFFFF" d="M145,109.2l-1,0.5l-11.4-3.6l1-0.5L145,109.2z"/>
			<path fill="#FFFFFF" d="M151.2,106.3l-1.1,0.5l-4.8-1.5l-2.8,1.3l4.8,1.5l-1.1,0.5l-10.8-3.4l1.1-0.5l4.5,1.4l2.8-1.3l-4.5-1.4
				l1.1-0.5L151.2,106.3z"/>
			<path fill="#FFFFFF" d="M148.1,104.5c-0.8-0.2-1.4-0.5-1.9-0.8c-0.5-0.3-0.7-0.6-0.7-0.8c0-0.3,0.2-0.5,0.6-0.7
				c0.6-0.3,1.5-0.4,2.6-0.4c1.1,0,2.2,0.2,3.4,0.6l0.4,0.1c0.8,0.3,1.4,0.5,1.9,0.8c0.4,0.3,0.7,0.6,0.7,0.8c0,0.3-0.2,0.5-0.6,0.7
				c-0.7,0.3-1.6,0.4-2.7,0.4C150.6,105.2,149.4,104.9,148.1,104.5L148.1,104.5z M149.3,104.1c0.8,0.3,1.6,0.4,2.2,0.5
				c0.7,0.1,1.2,0,1.5-0.2c0.4-0.2,0.4-0.4,0.1-0.6c-0.3-0.2-0.9-0.5-1.8-0.8c-0.8-0.3-1.6-0.4-2.2-0.5c-0.7-0.1-1.2,0-1.5,0.2
				c-0.3,0.2-0.4,0.4-0.1,0.6C147.8,103.5,148.4,103.8,149.3,104.1z"/>
			<path fill="#FFFFFF" d="M157.8,101.4c-0.3-0.1-0.6-0.1-1-0.1c-0.3,0-0.7,0.1-1.2,0.2c-0.5,0.1-0.9,0.2-1.4,0.3
				c-1,0.1-1.9,0-2.7-0.2c-0.7-0.2-1.1-0.5-1.2-0.8c-0.1-0.3,0.1-0.6,0.6-0.8c0.6-0.3,1.2-0.4,2.1-0.4c0.8,0,1.6,0.1,2.4,0.3l-1,0.5
				c-0.3-0.1-0.7-0.2-1.1-0.2c-0.4,0-0.7,0.1-0.9,0.2c-0.2,0.1-0.3,0.2-0.3,0.4c0,0.1,0.2,0.2,0.5,0.3c0.3,0.1,0.6,0.1,0.8,0.1
				c0.3,0,0.7-0.1,1.3-0.2c0.6-0.1,1.1-0.2,1.5-0.3c0.4,0,0.9,0,1.3,0c0.4,0,0.8,0.1,1.3,0.3c0.7,0.2,1.1,0.5,1.2,0.8
				c0.1,0.3-0.1,0.6-0.7,0.9c-0.4,0.2-0.8,0.3-1.4,0.4c-0.5,0.1-1.1,0.1-1.7,0c-0.6-0.1-1.1-0.2-1.6-0.3l1-0.5
				c0.4,0.1,0.9,0.2,1.3,0.2c0.4,0,0.7-0.1,1-0.2c0.3-0.1,0.4-0.3,0.4-0.4C158.3,101.6,158.1,101.5,157.8,101.4z"/>
			<path fill="#FFFFFF" d="M153.3,97.4l2,0.6l0.8-0.4l1.3,0.4l-0.8,0.4l4.5,1.4c0.3,0.1,0.6,0.2,0.8,0.2c0.2,0,0.4,0,0.6-0.1
				c0.1-0.1,0.2-0.1,0.3-0.2l1.4,0.4c-0.1,0.1-0.3,0.3-0.5,0.4c-0.8,0.4-2,0.3-3.5-0.2l-4.6-1.4l-0.8,0.4l-1.3-0.4l0.8-0.4l-2-0.6
				L153.3,97.4z"/>
		</g>
	</g>
</g>
</svg>
