<?xml version="1.0" encoding="utf-8"?>
<!-- Generator: Adobe Illustrator 23.0.0, SVG Export Plug-In . SVG Version: 6.00 Build 0)  -->
<svg version="1.1" id="Layer_1" xmlns="http://www.w3.org/2000/svg" xmlns:xlink="http://www.w3.org/1999/xlink" x="0px" y="0px"
	 viewBox="0 0 300 200" enable-background="new 0 0 300 200" xml:space="preserve">
<g>
	<g id="Layer_1-2_1_">
		<g id="Drop_Shadow_1_" opacity="0.7">
			
				<image overflow="visible" enable-background="new    " width="2994" height="1646" xlink:href="5715672E.png"  transform="matrix(8.839945e-02 0 0 8.839945e-02 1.7254 54.6845)">
			</image>
		</g>
		<g id="base_1_">
			<g>
				<defs>
					<path id="SVGID_1_" d="M1.9,99.4v-8.1c6.2-3.1,154.5-64.8,160.7-61.7l91.5,37.4c4.5,2.2,3.3,16-1.2,18.2l-128,63.3
						c-7.5,3.7-16.3,3.7-23.8,0L1.9,99.4z"/>
				</defs>
				<clipPath id="SVGID_2_">
					<use xlink:href="#SVGID_1_"  overflow="visible"/>
				</clipPath>
				<g clip-path="url(#SVGID_2_)">
					<image overflow="visible" width="312" height="283" xlink:href="57156732.png"  transform="matrix(1 0 0 1 -49 -38)">
					</image>
				</g>
			</g>
		</g>
		<g id="top_1_">
			<g>
				<defs>
					<path id="SVGID_3_" d="M1.9,91.2l141-69.8c6.2-3.1,13.5-3.1,19.7,0L253,66.1c3,1.5,4.2,5.1,2.7,8.1c-0.6,1.2-1.6,2.2-2.7,2.7
						l-128,63.3c-7.5,3.7-16.3,3.7-23.8,0L1.9,91.2z"/>
				</defs>
				<clipPath id="SVGID_4_">
					<use xlink:href="#SVGID_3_"  overflow="visible"/>
				</clipPath>
				<g clip-path="url(#SVGID_4_)">
					<image overflow="visible" width="302" height="191" xlink:href="57156735.png"  transform="matrix(1 0 0 1 -4 -11)">
					</image>
				</g>
			</g>
		</g>
		<g>
			<path fill-rule="evenodd" clip-rule="evenodd" fill="#8E724F" d="M181.5,50c-0.1,0.1,0,0.3,0.2,0.3c1,0.4,3.7,1.5,5.5,2.2
				c0.1,0,0.2,0,0.3,0c0.4-0.2,1.4-0.7,2.3-1.1c0.7-0.3,1.4-0.7,1.9-1.2c0.5-0.7,0-1.3-1.1-1.7c-2.5-1-5.3-0.4-8,0.9
				C182.2,49.6,181.8,49.8,181.5,50L181.5,50z M200,51c-2.5-1-5.9-0.5-9.5,1.2c-0.2,0.1-1.3,0.6-1.6,0.8c-0.1,0-0.1,0.1,0,0.1
				c1.8,0.7,4.7,1.8,5.9,2.2c0.7,0.2,1.5,0.2,2.3,0.1c0.9-0.2,1.8-0.6,2.7-1C201.9,53.3,202.6,52,200,51L200,51z M174.5,52.2
				c0.3-0.1,1.2-0.5,3.3-1.5c2-1,3.5-1.8,5.5-2.7c2.4-1.2,6.4-2.5,9.8-1.2c1.6,0.6,1.7,1.7,0.7,2.8c-0.1,0,0,0.1,0.1,0
				c2.8-0.9,6.2-1.4,8.7-0.4s2.4,2.3,1,3.9c-0.9,0.9-2.5,1.9-4.3,2.8c-1.4,0.7-5.3,2.5-7.3,3.5c-0.3,0.1-0.8-0.5-0.8-0.6
				c0.4-0.2,0.8-0.5,1.2-0.8c0.6-0.4,0.4-0.5-0.5-1c-0.8-0.4-4-1.6-6.3-2.5c-3.1-1.2-5.2-2-6.2-2.4c-0.7-0.3-1.4-0.3-2.1,0
				c-0.5,0.2-1.4,0.5-2.1,0.8C174.8,52.9,174.4,52.3,174.5,52.2L174.5,52.2z M174.7,66c1.3-0.2,2.6-0.6,3.8-1.2
				c1.5-0.7,2.7-1.5,2.9-2.7c0.2-1.2-0.7-2.4-3.7-3.6c-3.3-1.2-6.8-1.4-10.2-0.8c-2.2,0.4-4.3,1.1-6.3,2.1c-0.5,0.2-0.9,0.5-1.3,0.8
				c0,0.1,0,0.2,0.1,0.3c0.5,0.2,4.4,1.7,6.7,2.6c2.4,0.9,5.7,2.2,6.2,2.3C173.5,66.1,174.1,66.1,174.7,66L174.7,66z M152.6,63
				c0.5-0.3,2.6-1.2,3.5-1.6c1.7-0.8,2.9-1.5,6.1-3.1c2.7-1.3,5.6-2.2,8.7-2.5c3.6-0.4,6.9,0,9.6,1c3.9,1.5,4.2,3.3,3.6,4.7
				c-0.6,1.4-2.3,2.9-5.8,4.6c-1.8,0.9-5.1,2.5-7.8,3.7h0c-0.4,0-0.9-0.5-0.7-0.7c0.4-0.2,0.7-0.4,1-0.7c0.4-0.4,0.2-0.5-0.7-0.9
				c-1.7-0.7-3.8-1.5-6.3-2.4c-1.7-0.7-5-2-6.2-2.3c-0.8-0.3-1.8-0.2-2.6,0.1c-0.5,0.2-1.1,0.4-2,0.7
				C152.9,63.6,152.6,63.1,152.6,63L152.6,63z"/>
		</g>
		<g>
			<path fill-rule="evenodd" clip-rule="evenodd" fill="#452E23" d="M136.5,85.6c-0.7,0.3-1.5,0.5-2.2,0.7c-0.2,0-0.4,0-0.6-0.1
				c-1-0.3-3.5-1.3-5.2-2c-1.4-0.6-2.8-0.9-4.3-0.9c-1.6,0-3.2,0.3-4.7,1c-1.1,0.5-1.9,1.5-2.3,2.7c0,0,0,0.2-0.3,0.1
				c-0.3-0.1-0.8-0.4-1.1-0.5c-0.2-0.1-0.5-0.1-0.7-0.1c-1,0.9-2,1.8-3.2,2.5c-0.5,0.4-0.1,0.7,0.8,0.4h0c0.7-0.2,1.5-0.4,2.3-0.5
				c0.3,0,0.7,0,1,0.2c1.9,0.7,4.9,1.8,6.4,2.5c0.6,0.3,0.7,0.4,0.3,0.7l0,0c-0.3,0.2-0.5,0.4-0.9,0.6c0,0.1,0.8,0.4,1.1,0.4
				c0.3-0.1,1.8-1,3.1-1.6c1.8-0.9,2.8-1.3,3.3-1.5c0-0.2-0.7-0.5-1-0.5c-0.5,0.2-0.9,0.4-1.4,0.6c-0.5,0.2-1,0.2-1.5,0
				c-1.4-0.5-4.3-1.6-6.2-2.3c-0.5-0.2-0.6-0.4-0.6-0.5c0.1-0.5,0.8-1.1,1.7-1.6c0.8-0.4,1.6-0.6,2.5-0.7c0.8-0.1,1.7,0,2.5,0.2
				c1.2,0.4,3.4,1.2,5.3,1.9c1,0.4,1.2,0.5,0.9,0.8c-0.3,0.3-0.7,0.5-1,0.7c0,0.2,0.8,0.4,1.2,0.4c0.8-0.4,1.6-0.9,3-1.5
				c1.7-0.8,2.8-1.3,3.3-1.5C137.6,86,136.9,85.7,136.5,85.6L136.5,85.6z M134.3,78.2c-1.4,0.7-1.3,1.5,0.3,2.2
				c1.6,0.6,4.4,1,6.6-0.1c0.4-0.2,0.9-0.6,0.9-0.9c0.1-0.4-0.5-0.9-1.5-1.3C138.7,77.2,136.4,77.2,134.3,78.2L134.3,78.2z
				 M145.4,82.6c-0.4,0.2-0.7,0.4-0.9,0.7c-0.4,0.8-0.3,1.3,0.5,1.6c0.9,0.3,1.9,0.4,2.8,0.2c1.5-0.2,2.9-0.6,4.2-1.3
				c2.8-1.4,2.6-2.5,1.2-3c-1.2-0.4-2.4-0.4-3.6,0C148.2,81.3,146.8,81.9,145.4,82.6L145.4,82.6z M152.3,85c-1.6,0.8-3.3,1.3-5,1.5
				c-1.3,0.2-2.7,0.1-4-0.3c-0.2-0.1-0.7-0.3-0.7-0.8c0-0.3,0.1-0.8,0.6-2c0,0,0-0.1,0-0.1c-0.1,0-0.2,0-0.2,0
				c-1.1,0.3-2.3,0.4-3.4,0.3l-0.1,0c-0.2,0-0.4-0.1-0.3-0.3c0.1-0.2,0.2-0.3,0.3-0.6c0.2-0.3,0.4-0.6,0.5-0.9c0,0,0-0.1-0.1-0.1
				c-0.1,0-0.2,0-0.2,0c-2.2,0.7-4.6,0.7-6.8-0.1c-1.3-0.5-1.9-1.3-1.5-2.1c0.2-0.6,1.4-1.8,2.7-2.4l0.1,0c1.2-0.5,2.4-0.9,3.6-1.2
				c0.7-0.2,1.4-0.4,2-0.8c1.1-0.5,1.2-0.9,1.2-1.2c0.2,0,0.4,0.1,0.6,0.1c0.4,0.1,0.6,0.3,0.8,0.6c0.1,0.2-0.2,0.5-0.7,0.8
				l-0.1,0.1c-0.5,0.2-0.8,0.3-0.8,0.3l-0.1,0.1c0,0,0.1,0,0.2,0.1h0.1c0.3,0.1,1.1,0.3,1.3,0.3c2.1,0.8,2.1,1.6,1.8,2.3
				c-0.4,0.9-1.2,1.6-2,2c-0.1,0.1-0.3,0.1-0.4,0.2c-0.1,0.1-0.3,0.2-0.3,0.2h0c-0.2,0.1-0.5,0.5,0,0.7s1.1,0.2,2.3-0.3
				c0.3-0.1,0.5-0.2,0.8-0.4c1.6-0.7,3.2-1.4,4.9-2c1.6-0.5,3.2-0.4,4.8,0c1.9,0.7,2.2,2.1,0.9,3.7C154.3,83.8,153.3,84.5,152.3,85
				L152.3,85z M150,70.6c-0.4,0.2-0.8,0.5-1.1,0.9c-0.4,0.8,0.2,1.5,2,2.2c3.4,1.3,7.5,1.3,10.1,0.1c0.8-0.4,1.2-0.7,1.3-1.2
				c0.2-0.6-0.6-1.3-2.4-2C156.6,69.3,152.6,69.3,150,70.6L150,70.6z M161.4,74.5c-3.9,1.9-8.4,2.2-12.5,0.7
				c-2.1-0.8-2.8-1.9-2.2-3.2c0.8-1.1,1.8-2,3-2.5c3.5-1.7,8.4-2,11.8-0.7c2.3,0.9,3.2,2.1,2.4,3.4C163.4,73.3,162.5,74,161.4,74.5
				L161.4,74.5z M101.8,94.1c-0.4,0.2-0.8,0.5-1.1,0.9c-0.4,0.8,0.2,1.5,2,2.2c3.4,1.3,7.5,1.3,10.1,0.1c0.8-0.4,1.2-0.7,1.3-1.2
				c0.2-0.6-0.6-1.3-2.4-2C108.4,92.9,104.4,92.9,101.8,94.1z M113.3,98.1c-3.9,1.9-8.4,2.2-12.5,0.7C98.7,98,98,97,98.6,95.6
				c0.8-1.1,1.8-2,3-2.5c3.5-1.7,8.4-2,11.8-0.7c2.3,0.9,3.2,2.1,2.4,3.4C115.6,96.5,114.6,97.5,113.3,98.1L113.3,98.1z M81.9,113.3
				c-0.2,0-0.5-0.1-0.7-0.2c-0.1,0-0.2-0.1-0.3-0.2c0.3-0.2,0.7-0.4,1-0.7c0.4-0.3,0.4-0.5-0.3-0.8c-1.5-0.6-4.4-1.8-6.4-2.5h-0.1
				c-0.3-0.1-0.7-0.2-1-0.1c-0.8,0.1-1.5,0.3-2.3,0.5c-0.2,0.1-0.5,0.1-0.7,0c-0.2-0.1-0.2-0.2,0.1-0.4c1.1-0.7,2.2-1.5,3.2-2.4
				c0.2,0,0.4,0,0.5,0.1l0.3,0.1c0.3,0.1,0.6,0.3,0.9,0.4c0.1,0,0.3,0,0.4,0c0,0,0.1-0.1,0.1-0.1c0.4-1.2,1.3-2.1,2.4-2.7
				c1.6-0.7,3.3-1,5-0.9c0.1,0,0.2,0,0.3-0.1c0.1,0,0.1-0.1,0.1-0.1c0.4-1.2,1.3-2.2,2.4-2.8c2.5-1.2,5.8-1.3,8.8-0.1
				c0.8,0.3,1.9,0.7,2.9,1.1c1,0.4,1.7,0.7,2.3,0.9c0.4,0.1,0.7,0.1,1.1,0c0.7-0.2,1.3-0.4,1.9-0.6h0c0.3,0.1,0.6,0.2,0.8,0.4
				c-0.2,0.1-0.4,0.2-0.7,0.3c-0.7,0.3-1.4,0.7-2.1,1c-1.7,0.8-2.5,1.3-3.3,1.7c-0.3-0.1-0.7-0.2-1-0.4c0.3-0.2,0.5-0.4,0.8-0.6
				c0.4-0.3,0.3-0.5-0.3-0.7c-0.5-0.2-4.5-1.8-5.7-2.1c-1.7-0.4-3.4-0.2-5,0.5c-0.8,0.3-1.4,1-1.8,1.7c0,0,0.1,0.1,0.1,0.2h0
				c0.8,0.2,1.5,0.4,2.2,0.7l1.7,0.6c1.2,0.4,2.2,0.9,3.1,1.2c0.5,0.2,1,0.2,1.5,0l0.5-0.2l1.1-0.4c0.2,0,0.5,0.1,0.7,0.3
				c0.1,0.1,0.2,0.1,0.2,0.2c-1,0.4-1.9,0.9-3.3,1.6c-0.4,0.2-1.1,0.5-1.7,0.8l-1.2,0.6c-0.2,0-0.4-0.1-0.6-0.2
				c-0.2-0.1-0.4-0.2-0.4-0.2c0.1-0.1,0.2-0.2,0.3-0.2c0.3-0.2,0.5-0.3,0.7-0.5c0.3-0.3,0.3-0.4-0.3-0.7c-1.9-0.8-3.9-1.6-5.9-2.2
				c-1.6-0.4-3.4-0.3-4.9,0.5c-0.8,0.4-1.4,1-1.8,1.7c0,0.1,0.1,0.3,0.3,0.3l1.5,0.6c1.8,0.7,4.2,1.6,5.2,2c0.5,0.2,1.1,0.1,1.6-0.1
				c0.2-0.1,0.4-0.1,0.7-0.3l0.6-0.2c0.3,0.1,0.6,0.2,0.9,0.4c-0.3,0.1-0.6,0.3-1,0.5c-0.6,0.3-1.4,0.6-2.2,1
				c-0.9,0.5-1.6,0.8-2.1,1.1C82.5,113,82.2,113.2,81.9,113.3L81.9,113.3z"/>
		</g>
		<g>
			<path fill-rule="evenodd" clip-rule="evenodd" fill="#A5A284" d="M130.6,70.4l-1.4,0.3c0,0-4.6-2.2-6.8-1.5
				c-2.6,0-55.4-24.9,4.6-2.1c0,0-0.9,1,0.1,1.6S130.6,70.4,130.6,70.4z"/>
		</g>
		<g>
			<path fill-rule="evenodd" clip-rule="evenodd" fill="#499D49" d="M126.6,68.1c0,0,3.7-6.2-9.5-10.3C107,55.1,99.5,56,98,55.8
				c-1-0.1-2.1-0.2-3.1-0.4l22.9,9.9C117.7,65.2,123.8,68.6,126.6,68.1"/>
		</g>
		<g>
			<path fill-rule="evenodd" clip-rule="evenodd" fill="#58AA50" d="M124.8,69.2c0,0-13.7,1.3-22.3-3c-8.6-4.3-7.2-8.8-6.8-9.7
				c0-0.6-0.2-0.8-0.9-1.1c1.5,0.2,15.7,6.6,17.4,7.3C118.8,65.4,124.1,68.4,124.8,69.2z"/>
		</g>
		<g enable-background="new    ">
			<path fill="#FFFFFF" d="M132.3,101.6l10.6,3.3c1.7,0.5,2.7,1.1,3.1,1.7c0.4,0.6,0,1.1-1,1.6c-1,0.5-2.4,0.7-3.9,0.7
				c-1.6,0-3.2-0.3-5-0.8l-10.6-3.3l1.6-0.7l10.6,3.3c1.1,0.3,2,0.5,2.9,0.5c0.9,0,1.6-0.1,2.2-0.4c1.2-0.6,0.7-1.2-1.5-1.9
				l-10.5-3.3L132.3,101.6z"/>
			<path fill="#FFFFFF" d="M150.3,103.1c-0.5-0.1-0.9-0.2-1.4-0.2c-0.5,0-1.1,0.1-1.8,0.3c-0.7,0.2-1.4,0.3-2,0.4
				c-1.4,0.2-2.7,0-3.9-0.3c-1-0.3-1.6-0.7-1.8-1.1c-0.2-0.4,0.1-0.8,0.8-1.2c0.8-0.4,1.8-0.6,3-0.6c1.2,0,2.3,0.1,3.5,0.5l-1.5,0.7
				c-0.5-0.2-1-0.2-1.6-0.2c-0.6,0-1,0.1-1.4,0.2c-0.3,0.2-0.5,0.3-0.4,0.5c0.1,0.2,0.3,0.3,0.8,0.5c0.4,0.1,0.8,0.2,1.2,0.2
				c0.4,0,1-0.1,1.9-0.3c0.8-0.2,1.6-0.3,2.2-0.4c0.7-0.1,1.3-0.1,1.9,0c0.6,0.1,1.2,0.2,1.9,0.4c1.1,0.3,1.7,0.7,1.8,1.2
				c0.2,0.4-0.2,0.9-1,1.2c-0.6,0.3-1.2,0.4-2,0.5c-0.8,0.1-1.6,0.1-2.4,0c-0.9-0.1-1.6-0.2-2.3-0.4l1.5-0.7
				c0.6,0.2,1.3,0.3,1.8,0.3c0.6,0,1.1-0.1,1.5-0.3c0.4-0.2,0.6-0.4,0.5-0.6C151,103.4,150.7,103.2,150.3,103.1z"/>
			<path fill="#FFFFFF" d="M159.5,101.4c-1,0.5-2.3,0.7-3.9,0.6c-1.7,0-3.4-0.3-5.1-0.9l-0.3-0.1c-1.2-0.4-2.1-0.8-2.8-1.2
				c-0.7-0.4-1-0.8-1.1-1.2c0-0.4,0.2-0.7,0.8-1c0.9-0.4,2.1-0.6,3.7-0.5c1.5,0.1,3.2,0.4,5.1,1l1.1,0.3l-4.4,2.1
				c1,0.3,2,0.4,2.9,0.5c0.9,0,1.6-0.1,2.1-0.3c0.7-0.3,0.8-0.7,0.2-1.3l2.2,0c0.4,0.3,0.6,0.7,0.6,1
				C160.4,100.9,160.1,101.2,159.5,101.4z M149.2,98.4c-0.4,0.2-0.5,0.4-0.2,0.7c0.3,0.3,0.8,0.6,1.6,0.9l2.9-1.4l-0.2-0.1
				c-0.9-0.3-1.7-0.4-2.4-0.4C150.2,98.1,149.7,98.2,149.2,98.4z"/>
			<path fill="#FFFFFF" d="M157.3,94.9c-0.3,0.1-0.5,0.2-0.7,0.3c-0.7,0.3-0.7,0.7,0,1.1l8.1,2.5l-1.5,0.7l-11.8-3.7l1.4-0.7
				l1.4,0.4c-0.7-0.5-0.7-0.9,0-1.2c0.2-0.1,0.4-0.2,0.7-0.2L157.3,94.9z"/>
			<path fill="#FFFFFF" d="M175.9,91.9c0.4,0.4,0.5,0.8,0.3,1.2c-0.2,0.4-0.7,0.8-1.4,1.1c-0.8,0.4-1.7,0.6-2.9,0.7
				c-1.2,0.1-2.5,0-3.9-0.2c-1.4-0.2-2.9-0.5-4.4-1l-1.2-0.4c-2.4-0.7-3.9-1.5-4.6-2.2c-0.7-0.7-0.4-1.4,0.7-1.9
				c1-0.5,2.3-0.7,3.7-0.7c1.5,0,3.1,0.2,4.8,0.7l-1.5,0.7c-2.1-0.5-3.7-0.5-4.8,0c-0.7,0.3-0.8,0.7-0.3,1.2
				c0.5,0.5,1.6,0.9,3.3,1.5l1.2,0.4c1.7,0.5,3.3,0.9,4.6,1c1.4,0.1,2.4,0,3.1-0.4c0.8-0.4,1.1-0.8,0.8-1.1l-3.1-1l-1.9,0.9
				l-2.1-0.7l3.4-1.6L175.9,91.9z"/>
		</g>
		<g enable-background="new    ">
			<path fill="#FFFFFF" d="M173.7,87.2c-0.3,0.1-0.5,0.2-0.7,0.3c-0.7,0.3-0.7,0.7,0,1.1l8.1,2.5l-1.5,0.7l-11.8-3.7l1.4-0.7
				l1.4,0.4c-0.7-0.5-0.7-0.9,0-1.2c0.2-0.1,0.4-0.2,0.7-0.2L173.7,87.2z"/>
		</g>
		<g enable-background="new    ">
			<path fill="#FFFFFF" d="M177.5,88c-1.2-0.4-2.1-0.7-2.7-1.2c-0.7-0.4-1-0.8-1-1.2c0-0.4,0.3-0.7,0.9-1c0.9-0.4,2.2-0.6,3.8-0.6
				c1.6,0.1,3.3,0.3,5,0.8l0.6,0.2c1.2,0.4,2.1,0.7,2.7,1.2c0.7,0.4,1,0.8,1,1.2c0,0.4-0.3,0.7-0.9,1c-1,0.5-2.3,0.6-3.9,0.6
				c-1.7-0.1-3.4-0.4-5.3-1L177.5,88z M179.3,87.4c1.2,0.4,2.3,0.6,3.3,0.7c1,0.1,1.7,0,2.2-0.2c0.5-0.2,0.6-0.5,0.1-0.9
				c-0.4-0.4-1.3-0.7-2.6-1.2c-1.2-0.4-2.3-0.6-3.3-0.7c-1-0.1-1.7,0-2.2,0.2c-0.5,0.2-0.5,0.5-0.1,0.9
				C177,86.6,177.9,86.9,179.3,87.4z"/>
			<path fill="#FFFFFF" d="M194,84c0.5,0.5,0.3,0.9-0.5,1.3c-0.7,0.3-1.7,0.5-2.8,0.4s-2.4-0.3-3.8-0.7l-7.6-2.4l1.5-0.7l7.6,2.4
				c1.5,0.5,2.6,0.5,3.3,0.2c0.7-0.3,0.8-0.7,0.1-1.1l-8.5-2.6l1.5-0.7l11.8,3.7l-1.4,0.7L194,84z"/>
			<path fill="#FFFFFF" d="M198.4,78.4c1.8,0.6,3,1.1,3.7,1.7c0.6,0.6,0.5,1-0.3,1.4c-0.7,0.4-1.8,0.5-3.1,0.4l5.6,1.7l-1.5,0.7
				l-16.3-5.1l1.4-0.7l1.3,0.3c-0.5-0.5-0.4-0.9,0.4-1.3c0.8-0.4,2-0.5,3.5-0.4c1.5,0.1,3.3,0.5,5.2,1.1L198.4,78.4z M196.6,79
				c-1.2-0.4-2.2-0.6-3.2-0.7c-1-0.1-1.7,0-2.2,0.2c-0.6,0.3-0.6,0.6,0,1.1l5.2,1.6c1.2,0.2,2.1,0.1,2.7-0.2
				c0.5-0.2,0.5-0.5,0.1-0.9C198.9,79.8,198,79.4,196.6,79z"/>
		</g>
		<g>
			<g>
				<defs>
					<polyline id="SVGID_5_" points="106.3,14.1 94.7,55.3 95.3,57.4 95.4,59.3 96,60.8 96.6,61.8 98,63.2 99,64.1 100.1,64.8 
						101.3,65.6 102.8,66.3 104,66.8 105.6,67.4 107.9,68.1 109,68.3 110,68.5 111.9,68.8 113.3,69 114.5,69.1 116.3,69.2 
						118.2,69.2 120.2,69.3 122,69.3 123.5,69.3 124.8,69.2 126.1,69.6 127.1,69.8 128.6,70.4 129.3,70.7 130.6,70.4 142.2,29.2 
						140.8,29.5 138.6,28.6 					"/>
				</defs>
				<clipPath id="SVGID_6_">
					<use xlink:href="#SVGID_5_"  overflow="visible"/>
				</clipPath>
				<g clip-path="url(#SVGID_6_)">
					<image overflow="visible" width="49" height="57" xlink:href="57156736.png"  transform="matrix(1 0 0 1 94 14)">
					</image>
				</g>
			</g>
		</g>
		<g opacity="0.6">
			<g>
				<path fill-rule="evenodd" clip-rule="evenodd" fill="#D1D2D4" d="M142.2,29.2l-1.3,0.3c0,0-4.6-2.2-6.8-1.5
					c-2.6,0-55.4-24.9,4.6-2.1c0,0-0.9,1,0.1,1.6C139.6,28.2,142.2,29.2,142.2,29.2L142.2,29.2z"/>
			</g>
			<g>
				<path fill-rule="evenodd" clip-rule="evenodd" fill="#D1D2D4" d="M138.2,26.9c0,0,3.7-6.2-9.5-10.3c-10.1-2.7-17.6-1.9-19.1-2.1
					c-1.3-0.1-3.1-0.4-3.1-0.4l22.9,9.9C129.2,24,135.3,27.4,138.2,26.9"/>
			</g>
			<g>
				<path fill-rule="evenodd" clip-rule="evenodd" fill="#D1D2D4" d="M136.3,27.9c0,0-13.7,1.3-22.3-3s-7.2-8.8-6.8-9.7
					c0-0.6-0.2-0.8-0.9-1.1c1.5,0.2,15.7,6.6,17.4,7.3C130.3,24.2,135.7,27.1,136.3,27.9z"/>
			</g>
		</g>
		<g>
			<line fill="none" x1="138.6" y1="28.6" x2="136.3" y2="27.9"/>
		</g>
		<g opacity="0.6">
			<g>
				<path fill-rule="evenodd" clip-rule="evenodd" fill="#D8D6D6" d="M192.5,3.8c-0.1,0.1,0,0.3,0.2,0.3c1,0.4,3.7,1.5,5.5,2.2
					c0.1,0,0.2,0,0.3,0c0.4-0.2,1.4-0.7,2.3-1.1c0.7-0.3,1.4-0.7,1.9-1.2c0.5-0.7,0-1.3-1.1-1.7c-2.5-0.9-5.3-0.4-8,0.9
					C193.2,3.3,192.8,3.5,192.5,3.8L192.5,3.8z M211,4.7c-2.5-1-5.9-0.5-9.5,1.2c-0.2,0.1-1.3,0.6-1.6,0.8c-0.1,0-0.1,0.1,0,0.1
					c1.8,0.7,4.7,1.8,5.9,2.2c0.7,0.2,1.5,0.2,2.3,0.1c0.9-0.3,1.8-0.6,2.7-1C212.9,7.1,213.6,5.7,211,4.7L211,4.7z M185.5,6
					c0.3-0.1,1.2-0.5,3.3-1.5c2-1,3.5-1.8,5.5-2.7c2.4-1.2,6.5-2.4,9.8-1.2c1.6,0.6,1.7,1.7,0.7,2.8c-0.1,0,0,0.1,0.1,0
					c2.8-0.9,6.2-1.4,8.7-0.4s2.4,2.3,1,3.9c-0.9,0.9-2.4,1.9-4.3,2.8c-1.4,0.7-5.3,2.5-7.3,3.5c-0.3,0.1-0.8-0.5-0.8-0.6
					c0.4-0.2,0.8-0.5,1.2-0.8c0.6-0.4,0.4-0.5-0.5-1c-0.8-0.4-4-1.6-6.3-2.5c-3.1-1.2-5.2-2-6.2-2.4c-0.7-0.3-1.4-0.3-2.1,0
					c-0.5,0.2-1.4,0.5-2.1,0.8C185.9,6.6,185.5,6.1,185.5,6L185.5,6z M185.7,19.8c1.3-0.2,2.6-0.6,3.8-1.2c1.5-0.7,2.7-1.5,2.9-2.7
					s-0.7-2.4-3.7-3.6c-3.3-1.2-6.8-1.4-10.2-0.8c-2.2,0.4-4.3,1.1-6.3,2.1c-0.5,0.2-0.9,0.5-1.4,0.8c0,0.1,0,0.2,0.1,0.3
					c0.5,0.2,4.4,1.7,6.7,2.6c2.4,0.9,5.7,2.2,6.2,2.3C184.5,19.8,185.1,19.9,185.7,19.8L185.7,19.8z M163.6,16.7
					c0.5-0.3,2.6-1.2,3.5-1.7c1.7-0.8,2.9-1.5,6.1-3.1c2.7-1.3,5.7-2.2,8.7-2.5c3.6-0.4,6.9,0,9.6,1c3.9,1.5,4.2,3.3,3.6,4.7
					c-0.6,1.4-2.3,2.9-5.8,4.6c-1.8,0.9-5.1,2.5-7.8,3.7h0c-0.4,0-0.9-0.5-0.7-0.7c0.4-0.2,0.7-0.4,1-0.7c0.4-0.4,0.2-0.5-0.7-0.9
					c-1.7-0.7-3.8-1.5-6.3-2.4c-1.7-0.7-5-2-6.2-2.3c-0.8-0.3-1.8-0.2-2.6,0.1c-0.5,0.2-1.1,0.4-2,0.7
					C163.9,17.3,163.6,16.8,163.6,16.7L163.6,16.7z"/>
			</g>
			<g>
				<path fill-rule="evenodd" clip-rule="evenodd" fill="#D8D6D6" d="M147.5,39.4c-0.7,0.3-1.5,0.5-2.2,0.7c-0.2,0-0.4,0-0.6-0.1
					c-1-0.3-3.5-1.3-5.2-2c-1.4-0.6-2.8-0.9-4.3-0.9c-1.6,0-3.2,0.3-4.7,1c-1.1,0.5-1.9,1.5-2.3,2.7c0,0,0,0.2-0.3,0.1
					s-0.8-0.4-1.1-0.5c-0.2-0.1-0.5-0.1-0.7-0.1c-1,0.9-2,1.8-3.2,2.5c-0.5,0.4-0.1,0.7,0.8,0.4h0c0.7-0.2,1.5-0.4,2.3-0.5
					c0.3,0,0.7,0,1,0.2c1.9,0.7,4.9,1.8,6.4,2.5c0.6,0.3,0.7,0.5,0.3,0.7l0,0c-0.3,0.2-0.5,0.4-0.9,0.6c0,0.1,0.8,0.4,1.1,0.4
					c0.3-0.1,1.8-1,3.1-1.6c1.8-0.9,2.8-1.3,3.3-1.5c0-0.2-0.7-0.5-1-0.5c-0.5,0.2-0.9,0.4-1.4,0.6c-0.5,0.2-1,0.2-1.5,0
					c-1.4-0.5-4.3-1.6-6.2-2.3c-0.5-0.2-0.6-0.4-0.6-0.5c0.1-0.5,0.8-1.1,1.7-1.6c0.8-0.4,1.6-0.6,2.5-0.7c0.8-0.1,1.7,0,2.5,0.2
					c1.2,0.4,3.4,1.2,5.3,1.9c1,0.4,1.2,0.5,0.9,0.8c-0.3,0.3-0.7,0.5-1,0.7c0,0.2,0.8,0.4,1.2,0.4c0.8-0.4,1.6-0.9,3-1.5
					c1.7-0.8,2.8-1.3,3.3-1.5C148.6,39.7,147.9,39.4,147.5,39.4L147.5,39.4z M145.3,31.9c-1.4,0.7-1.3,1.5,0.3,2.2
					c1.6,0.6,4.4,1,6.6-0.1c0.4-0.2,0.9-0.6,0.9-0.9c0.1-0.4-0.5-0.9-1.5-1.3C149.6,30.9,147.3,31,145.3,31.9L145.3,31.9z
					 M156.4,36.3c-0.4,0.1-0.7,0.4-0.9,0.7c-0.4,0.8-0.3,1.3,0.5,1.6c0.9,0.3,1.9,0.4,2.8,0.2c1.5-0.2,2.9-0.6,4.2-1.2
					c2.8-1.4,2.6-2.5,1.2-3c-1.2-0.4-2.4-0.4-3.6,0C159.2,35,157.8,35.6,156.4,36.3L156.4,36.3z M163.3,38.8c-1.6,0.8-3.3,1.3-5,1.5
					c-1.3,0.2-2.7,0.1-4-0.3c-0.2-0.1-0.7-0.3-0.7-0.8c0-0.3,0.1-0.8,0.6-2c0,0,0-0.1,0-0.1c-0.1,0-0.2,0-0.2,0
					c-1.1,0.3-2.3,0.4-3.4,0.3l-0.1,0c-0.2,0-0.4-0.1-0.3-0.3c0.1-0.2,0.2-0.3,0.3-0.6c0.2-0.3,0.4-0.6,0.5-0.9c0-0.1,0-0.1-0.1-0.1
					c-0.1,0-0.2,0-0.2,0c-2.2,0.7-4.6,0.7-6.8-0.1c-1.3-0.5-1.9-1.3-1.5-2.1c0.2-0.6,1.4-1.8,2.7-2.4l0.1,0c1.2-0.5,2.4-0.9,3.6-1.2
					c0.7-0.2,1.4-0.4,2-0.8c1.1-0.5,1.2-0.9,1.2-1.2c0.2,0,0.4,0.1,0.6,0.1c0.4,0.1,0.6,0.3,0.8,0.6c0.1,0.2-0.2,0.5-0.7,0.8
					l-0.1,0.1c-0.5,0.2-0.8,0.3-0.8,0.3l-0.1,0.1c0,0,0.1,0,0.2,0.1h0.1c0.3,0.1,1.1,0.3,1.3,0.3c2.1,0.8,2.1,1.6,1.9,2.3
					c-0.4,0.9-1.2,1.6-2,2c-0.1,0.1-0.3,0.1-0.4,0.2c-0.1,0.1-0.3,0.2-0.3,0.2h0c-0.2,0.1-0.5,0.5,0,0.7s1.1,0.2,2.3-0.3
					c0.3-0.1,0.5-0.2,0.8-0.4c1.6-0.7,3.2-1.4,4.9-2c1.6-0.5,3.2-0.4,4.8,0c1.9,0.7,2.2,2.1,0.9,3.7
					C165.3,37.5,164.4,38.2,163.3,38.8L163.3,38.8z M161,24.3c-0.4,0.2-0.8,0.5-1.1,0.9c-0.4,0.8,0.2,1.5,2,2.2
					c3.4,1.3,7.5,1.3,10.1,0.1c0.8-0.4,1.2-0.7,1.3-1.2c0.2-0.6-0.6-1.3-2.4-2C167.6,23.1,163.6,23.1,161,24.3L161,24.3z
					 M172.4,28.3c-3.9,1.9-8.4,2.2-12.5,0.7c-2.1-0.8-2.8-1.9-2.2-3.2c0.8-1.1,1.8-1.9,3-2.5c3.5-1.7,8.4-2,11.8-0.7
					c2.3,0.9,3.2,2.1,2.4,3.4C174.4,27,173.5,27.8,172.4,28.3L172.4,28.3z M112.8,47.9c-0.5,0.2-0.8,0.5-1.1,0.9
					c-0.4,0.7,0.2,1.5,2,2.2c3.4,1.3,7.5,1.3,10.1,0.1c0.8-0.4,1.2-0.7,1.3-1.2c0.2-0.6-0.6-1.3-2.4-2
					C119.4,46.6,115.5,46.6,112.8,47.9z M124.3,51.9c-3.9,1.9-8.4,2.2-12.5,0.7c-2.1-0.8-2.8-1.9-2.2-3.2c0.8-1.1,1.8-1.9,3-2.5
					c3.5-1.7,8.4-2,11.8-0.7c2.3,0.9,3.2,2.1,2.4,3.4C126.6,50.3,125.6,51.2,124.3,51.9L124.3,51.9z M92.9,67
					c-0.2,0-0.5-0.1-0.7-0.2c-0.1,0-0.2-0.1-0.3-0.2c0.3-0.2,0.7-0.4,1-0.7c0.4-0.3,0.4-0.5-0.3-0.8c-1.5-0.6-4.4-1.8-6.4-2.5h-0.1
					c-0.3-0.1-0.7-0.2-1-0.1c-0.8,0.1-1.5,0.3-2.3,0.5c-0.2,0.1-0.5,0.1-0.7,0c-0.2-0.1-0.2-0.2,0.1-0.4c1.1-0.7,2.2-1.5,3.2-2.4
					c0.2,0,0.4,0,0.5,0.1l0.3,0.1c0.3,0.1,0.6,0.3,0.9,0.4c0.1,0,0.3,0,0.4,0c0,0,0.1-0.1,0.1-0.1c0.4-1.2,1.3-2.1,2.4-2.7
					c1.6-0.7,3.3-1,5-0.9c0.1,0,0.2,0,0.3-0.1c0.1,0,0.1-0.1,0.1-0.1c0.4-1.2,1.3-2.2,2.4-2.8c2.5-1.2,5.8-1.3,8.8-0.1
					c0.8,0.3,1.9,0.7,2.9,1.1c1,0.4,1.7,0.7,2.3,0.9c0.4,0.1,0.7,0.1,1.1,0c0.7-0.2,1.3-0.4,1.9-0.6h0c0.3,0.1,0.6,0.2,0.8,0.4
					c-0.2,0.1-0.4,0.2-0.7,0.3c-0.7,0.3-1.4,0.7-2.1,1c-1.7,0.8-2.5,1.3-3.3,1.7c-0.3-0.1-0.7-0.2-1-0.4c0.3-0.2,0.5-0.4,0.8-0.6
					c0.4-0.3,0.3-0.5-0.3-0.7c-0.5-0.2-4.5-1.8-5.7-2.1c-1.7-0.4-3.4-0.2-5,0.5c-0.8,0.3-1.4,1-1.8,1.7c0,0,0.1,0.1,0.1,0.2h0
					c0.8,0.2,1.5,0.4,2.2,0.7l1.7,0.6c1.2,0.4,2.2,0.9,3.1,1.2c0.5,0.2,1,0.2,1.5,0l0.5-0.2l1.1-0.4c0.2,0,0.5,0.1,0.7,0.3
					c0.1,0.1,0.2,0.1,0.1,0.2c-0.9,0.4-1.9,0.9-3.3,1.6c-0.4,0.2-1.1,0.5-1.7,0.8c-0.5,0.2-0.9,0.5-1.2,0.6c-0.2,0-0.4-0.1-0.6-0.2
					c-0.2-0.1-0.4-0.2-0.4-0.2c0.1-0.1,0.2-0.1,0.3-0.2c0.3-0.2,0.5-0.3,0.7-0.5c0.3-0.3,0.3-0.4-0.3-0.7c-1.9-0.8-3.9-1.6-5.9-2.2
					c-1.6-0.4-3.4-0.3-4.9,0.5c-0.8,0.4-1.4,1-1.8,1.7c0,0.1,0.1,0.3,0.3,0.3l1.5,0.6c1.8,0.7,4.2,1.6,5.2,2
					c0.5,0.2,1.1,0.1,1.6-0.1c0.2-0.1,0.4-0.1,0.7-0.3l0.6-0.2c0.3,0.1,0.6,0.2,0.9,0.4c-0.3,0.1-0.6,0.3-1,0.5
					c-0.6,0.3-1.4,0.6-2.2,1c-0.9,0.5-1.6,0.8-2.1,1.1C93.5,66.8,93.2,66.9,92.9,67L92.9,67z"/>
			</g>
		</g>
		<g>
			<g>
				<defs>
					<path id="SVGID_7_" d="M71.1,109.4l11.1-46.7l0.6,0.4l2.3-0.5l7.5,2.6l0.3,0.8l-1,0.7l1,0.4L115.7,56l-0.8-0.5l-0.2-2.2
						l2.9,0.2l2.1-0.2l3-0.8l2.4-1.2l1.8-1.8v-1.8l5.7-1.1l1.1,0.4l14.8-7.3l-1-0.5l6.6-2.1l-0.6,2l0.7,0.8l1.6,0.4l2.4-0.1l2.7-0.6
						l2.3-0.9l2-1.3l0.9-0.8l0.8-0.9v-1.1l-0.5-0.9l-1.2-0.7l1.2-3l2-0.3l2.2-0.6l1.8-0.7l2.1-1.1l0.6-1.2l0.3-1.2l5.5-2l0.7,0.7
						l7.8-3.7l3.1-1.8l2-1.8l0.9-2.1l6.9-1.7L203,13l11-5.7l1.4-1.7l0.2-1.5l-11,46.3l-0.2,1.5l-0.8,1.1l-1.9,1.7l-4.5,2.1l-5.2,2.5
						l-0.8-0.6l-7.1,2.8l-1.7,2.1l-2.9,1.9l-3.2,1.6l-4.7,2.3l-1,0.5l-0.7-0.7l-5.5,1.5l-0.3,1.6l-1.8,1.8l-2,1l-2.7,0.8l-1.6,0.2
						l-3.3,0l1.6,3.2l1.5,1.1l0.2,1.8l-0.8,0.8l-2,1.6l-0.9,0.5l-3,1.2l-2.7,0.5l-2.2-0.1l-1.7-1l0.6-2l-3.6,0.2l-1.9,2.3l-3.3,1.5
						l-3,1.6l-1.2-0.4l-2,1l1,0.5l-6.4,3.1l-1.1-0.4l-5.4,1.9l-0.3,1l-2.6,2.2l-1.7,0.7l-2.8,0.7c0,0-1.4-0.6-2.5,0
						s-2.5,2.2-2.5,2.2l0.8,0.4l-6.1,3l-1-0.4l-1.9,1l0.8,0.4l-6.2,3l-0.6-0.6l-2.3,1.1l0.9,0.4l-6.4,3l-1-0.4l1-0.7l-6.7-3.3
						l-1-0.1l-2.3,0.5"/>
				</defs>
				<clipPath id="SVGID_8_">
					<use xlink:href="#SVGID_7_"  overflow="visible"/>
				</clipPath>
				<g clip-path="url(#SVGID_8_)">
					<image overflow="visible" width="145" height="110" xlink:href="57156734.png"  transform="matrix(1 0 0 1 71 4)">
					</image>
				</g>
			</g>
		</g>
	</g>
</g>
</svg>
