<?xml version="1.0" encoding="utf-8"?>
<!-- Generator: Adobe Illustrator 23.0.0, SVG Export Plug-In . SVG Version: 6.00 Build 0)  -->
<svg version="1.1" id="Layer_1" xmlns="http://www.w3.org/2000/svg" xmlns:xlink="http://www.w3.org/1999/xlink" x="0px" y="0px"
	 viewBox="0 0 300 200" enable-background="new 0 0 300 200" xml:space="preserve">
<g>
	<g id="Layer_2-2">
		<g id="Drop_Shadow_2_" opacity="0.7">
			
				<image overflow="visible" enable-background="new    " width="2993" height="1645" xlink:href="3FBBC177.png"  transform="matrix(8.104949e-02 0 0 8.104949e-02 2.4189 66.1936)">
			</image>
		</g>
		<g id="Mozilla_CC">
			<g id="base_2_">
				<g>
					<defs>
						<path id="SVGID_1_" d="M2.6,107.1v-7.4c5.7-2.8,141.6-59.3,147.3-56.5l83.9,34.2c4.1,2,3,14.7-1.1,16.7l-117.2,58
							c-6.9,3.4-15,3.4-21.8,0L2.6,107.1z"/>
					</defs>
					<clipPath id="SVGID_2_">
						<use xlink:href="#SVGID_1_"  overflow="visible"/>
					</clipPath>
					<g clip-path="url(#SVGID_2_)">
						<image overflow="visible" width="299" height="153" xlink:href="3FBBC175.png"  transform="matrix(1 0 0 1 -58 18)">
						</image>
					</g>
				</g>
			</g>
			<g id="top_2_">
				<g>
					<defs>
						<path id="SVGID_3_" d="M2.6,99.7l129.2-64c5.7-2.8,12.4-2.8,18,0l82.8,41c2.8,1.4,3.9,4.7,2.5,7.5c-0.5,1.1-1.4,2-2.5,2.5
							l-117.3,58c-6.9,3.4-15,3.4-21.8,0L2.6,99.7z"/>
					</defs>
					<clipPath id="SVGID_4_">
						<use xlink:href="#SVGID_3_"  overflow="visible"/>
					</clipPath>
					<g clip-path="url(#SVGID_4_)">
						<image overflow="visible" width="280" height="170" xlink:href="3FBBC17B.png"  transform="matrix(1 0 0 1 -36 11)">
						</image>
					</g>
				</g>
			</g>
			<g id="Base_Logo">
				<g id="text4190">
					<g id="path4271">
						<path fill="#FFFFFF" d="M91.4,115.8c-2.4,1.2-2.5,3.1,1.1,5s7.3,2,9.8,0.7c1.4-0.7,1.9-1.5,1.8-2.1l-1.7-0.1
							c-0.2,0.7-0.7,1.3-1.4,1.5c-1.6,0.8-4.1,0.8-7.1-0.8c-3.2-1.7-2.9-2.9-1.3-3.6c0.9-0.4,1.8-0.6,2.8-0.6l-0.1-0.9
							C94,115,92.6,115.3,91.4,115.8z"/>
					</g>
					<g id="path4273">
						<path fill="#FFFFFF" d="M101.3,113.6c-0.8,0.4-1.6,1-2.2,1.6l1.4,0.4c0.5-0.5,1.1-0.9,1.7-1.3c1-0.6,2.3-0.6,3.3,0l0.6,0.3
							l-1.2,0.6c-2.2,1.1-2.6,2.2-0.9,3.1c1.6,0.8,3.4,0.8,5,0c1-0.5,1.5-1.1,1.2-1.8c0.9,0.3,1.9,0.2,2.8-0.1l-0.7-0.7
							c-0.6,0.2-1.2,0.1-1.7-0.2l-3.7-1.9C105,112.7,103,112.7,101.3,113.6z M106.9,115.1l1.8,1c0.4,0.7,0.2,1.2-0.6,1.6
							c-0.9,0.4-2,0.4-2.8-0.1c-1.1-0.6-0.9-1.2,0.6-1.9L106.9,115.1z"/>
					</g>
					<g id="path4275">
						<path fill="#FFFFFF" d="M108.4,110.3l-1.2,0.6l8,4.2l1.4-0.7l-5.7-3c-0.3-0.7-0.4-1.2,0.5-1.7c0.6-0.3,1.5-0.4,2.7,0.3
							l5.6,2.9l1.4-0.7l-5.7-3c-0.3-0.7-0.4-1.2,0.5-1.7c0.6-0.3,1.5-0.4,2.7,0.3l5.5,2.9l1.4-0.7l-5.7-3c-1.5-0.8-3.3-0.9-4.6-0.2
							c-1.1,0.5-1.2,1.2-0.9,1.9c-1.1-0.3-2.4-0.3-3.5,0.2c-1.1,0.5-1.2,1.2-1,1.8L108.4,110.3z"/>
					</g>
					<g id="path4277">
						<path fill="#FFFFFF" d="M121.4,104l-1.2,0.6l11.3,5.9l1.2-0.8l-3.8-2c1,0.1,2.1-0.1,3-0.5c2.1-1,1.4-2.5-1-3.7
							c-2.5-1.3-5-1.8-7.2-0.8c-0.9,0.4-1.4,1.1-1.1,1.8L121.4,104z M123.8,105c-0.2-0.5-0.2-1.2,0.7-1.6c1.2-0.6,2.8-0.4,4.9,0.7
							c2.1,1.1,2.4,1.9,1.1,2.6c-0.9,0.4-1.8,0.5-2.7,0.3L123.8,105z"/>
					</g>
					<g id="path4279">
						<path fill="#FFFFFF" d="M139.5,100.9c0.3,0.7,0.2,1.3-0.6,1.7s-1.6,0.4-2.7-0.2l-5.6-2.9l-1.4,0.7l5.7,3
							c1.4,0.8,3.2,0.9,4.7,0.2c1.1-0.6,1.4-1.2,1.1-2l1.4,0.6l1.2-0.6l-8-4.2l-1.4,0.7L139.5,100.9z"/>
					</g>
					<g id="path4281">
						<path fill="#FFFFFF" d="M140.1,94.7c-1.7,0.8-2,1.9-0.7,2.6c1.1,0.6,2.6,0.7,4.8,0.1c2-0.5,2.7-0.6,3.5-0.1
							c0.7,0.4,0.5,0.9-0.6,1.4c-1,0.4-2,0.7-3,0.7l0.1,0.8c1.4,0,2.8-0.3,4.1-0.9c1.6-0.8,2.4-1.9,0.7-2.8c-1.4-0.7-3-0.6-5.2,0
							c-1.6,0.5-2.4,0.5-3,0.2c-0.7-0.3-0.5-0.8,0.4-1.3c0.9-0.4,1.8-0.6,2.8-0.6l-0.3-0.8C142.5,93.9,141.3,94.2,140.1,94.7z"/>
					</g>
					<g id="path4283">
						<path fill="#FFFFFF" d="M150.4,87.2c-2.4,1.2-2.5,3.1,1.1,5c3.5,1.9,7.3,2,9.8,0.7c1.4-0.7,1.9-1.5,1.8-2.1l-1.7-0.1
							c-0.2,0.7-0.7,1.3-1.4,1.5c-1.6,0.8-4.1,0.8-7.1-0.8c-3.2-1.7-2.9-2.9-1.3-3.6c0.9-0.4,1.8-0.6,2.8-0.6l-0.1-0.9
							C152.9,86.3,151.6,86.6,150.4,87.2z"/>
					</g>
					<g id="path4285">
						<path fill="#FFFFFF" d="M155.7,83.9l-1.2,0.8l9.7,5.1c1,0.6,2.3,0.7,3.4,0.1c0.4-0.2,0.7-0.4,0.9-0.7l-1.4-0.3
							c-0.1,0.1-0.3,0.2-0.4,0.3c-0.4,0.2-0.8,0.1-1.1-0.1L155.7,83.9z"/>
					</g>
					<g id="path4287">
						<path fill="#FFFFFF" d="M172.6,84.9c0.3,0.7,0.2,1.3-0.6,1.7c-0.9,0.4-1.6,0.4-2.7-0.2l-5.6-2.9l-1.4,0.7l5.7,3
							c1.4,0.8,3.2,0.9,4.7,0.2c1.1-0.6,1.4-1.2,1.1-2l1.4,0.6l1.2-0.6l-8-4.2l-1.4,0.7L172.6,84.9z"/>
					</g>
					<g id="path4289">
						<path fill="#FFFFFF" d="M169.2,77.4l-1.2,0.8l11.2,5.9l1.2-0.6l-0.7-0.5c1.1,0.1,2.2,0,3.2-0.5c1.9-0.9,1.5-2.4-1-3.7
							c-2.7-1.4-5.4-1.6-7.2-0.7c-1,0.5-1.3,1.1-1.1,1.7L169.2,77.4z M174.7,80.3c-0.2-0.5-0.3-1.1,0.6-1.6c1.1-0.5,2.7-0.5,4.9,0.7
							c2.2,1.1,2.3,2,1.1,2.6c-0.7,0.3-1.8,0.4-2.8,0.3L174.7,80.3z"/>
					</g>
					<g id="path4291">
						<path fill="#FFFFFF" d="M182.2,74.3c-1.7,0.8-2,1.9-0.7,2.6c1.1,0.6,2.6,0.7,4.8,0.1c2-0.5,2.7-0.6,3.5-0.1
							c0.7,0.4,0.5,0.9-0.6,1.5c-1,0.4-2,0.7-3,0.7l0.1,0.8c1.4,0,2.8-0.3,4.1-0.9c1.6-0.8,2.4-1.9,0.7-2.8c-1.4-0.7-3-0.6-5.2,0
							c-1.6,0.5-2.4,0.5-3,0.2c-0.7-0.3-0.5-0.8,0.4-1.3c0.9-0.4,1.8-0.6,2.8-0.6l-0.3-0.8C184.6,73.5,183.3,73.8,182.2,74.3
							L182.2,74.3z"/>
					</g>
				</g>
				<g id="g3975">
					<g id="rect3971">
						<polygon fill="#010101" points="59.2,103.1 154.6,56.8 179,69.6 83.6,115.9 						"/>
					</g>
					<g id="path3973">
						<path fill="#FFFFFF" d="M167.8,68.1c-0.1,0.1-0.3,0.2-0.4,0.3c-0.5,0.3-1.1,0.3-1.6,0l-4.6-2.4c-2.4-1.3-5.8-0.8-8.4,0.4
							c-2,1-2.8,1.6-4.1,3l2,1.5l3-1.2l-0.8-0.8c0.3-0.4,0.8-0.7,1.5-1c1.9-0.9,3.3-0.3,4.3,0.3l0.3,0.2c-0.7,0.3-1.4,0.6-2.1,0.9
							c-2.7,1.3-4.9,3-2.3,4.4c2.2,1.2,5,0.7,6.7-0.2c1.9-0.9,2.1-2.1,1.7-3c1.5,0.6,3.2,0.6,4.7-0.2c0.6-0.3,1.2-0.7,1.6-1.3
							L167.8,68.1z M160.4,71.6c-0.8,0.4-1.8,0.5-2.6,0c-1.2-0.6-0.4-1.3,0.8-1.9c0.6-0.3,1.2-0.5,1.9-0.8
							C162.2,70,161.6,71,160.4,71.6z M141.5,66.3l11.1,11l-3.4,1.6l-11.1-11L141.5,66.3z M134.6,69.7l11.1,11l-3.4,1.6l-11.1-11
							L134.6,69.7z M125.9,79.6l3.6-1.7l3.8,2l-3.6,1.7L125.9,79.6z M132.7,83.2l3.6-1.7l3.8,2l-3.6,1.7L132.7,83.2z M127.3,85.6
							l2.9-1.2l3,2.3l-10.4,5.1l-1.9-0.7l-0.2-6.7l-3.7,1.8l1.1,1.1l-2.7,1.1l-3.3-2.2l10.5-5.1l1.9,0.7l0.1,6.8l3.9-1.9L127.3,85.6
							z M103.3,90.3c-4.3,2.1-3.8,4.5-0.7,6.1c3.4,1.8,8,1.6,11.6-0.2c3.8-1.8,4.4-4.3,1-6.1C112.3,88.5,107.6,88.2,103.3,90.3z
							 M112,94.9c-1.9,0.9-4.2,0.6-6.1-0.3c-2-1.1-2.1-2.2-0.3-3c1.9-0.9,4.2-0.8,6,0.2C113.7,92.8,113.8,94,112,94.9L112,94.9z
							 M102.4,99.3l1.6-0.8l2.3,1.2l-5,2.4l-6-3.1c-1.8-1-3.2-1-4.6-0.3c-1.6,0.8-1.3,1.7,0.2,2.4l3.7,1.9l1.6-0.8l2.3,1.2l-5,2.4
							l-6-3.1c-1.8-1-3.2-1-4.6-0.3c-1.6,0.8-1.3,1.7,0.2,2.4l3.7,1.9l2.3-1.1l2.3,1.2l-7.3,3.5l-2.3-1.2l1.6-0.8l-6-3.2l-1.6,0.8
							l-2.3-1.2l5-2.4l1.6,0.8c-0.4-0.9,0.1-1.9,1.8-2.7c1.9-0.9,4.1-1.2,6.2-0.7c-0.8-1.1-0.3-2.2,1.6-3.1c2.1-1,5.3-1.4,7.8-0.1
							L102.4,99.3L102.4,99.3z"/>
					</g>
				</g>
			</g>
			<g id="Logo_Projection">
				<g id="rect3971-2" opacity="0.6">
					
						<image overflow="visible" enable-background="new    " width="1779" height="1030" xlink:href="3FBBC17D.png"  transform="matrix(8.104949e-02 0 0 8.104949e-02 66.0427 7.1896)">
					</image>
				</g>
				<g id="path3973-2">
					<path fill="#F1F2F2" d="M186,30.2c-0.1,0.1-0.3,0.2-0.4,0.3c-0.5,0.3-1.1,0.3-1.6,0l-4.6-2.4c-2.4-1.3-5.8-0.8-8.4,0.4
						c-2,0.9-2.8,1.6-4.1,3l2,1.5l3-1.2l-0.8-0.8c0.3-0.4,0.8-0.7,1.5-1c1.9-0.9,3.3-0.3,4.3,0.3l0.3,0.2c-0.7,0.3-1.4,0.6-2.1,0.9
						c-2.7,1.3-4.9,3-2.3,4.4c2.2,1.2,5,0.6,6.7-0.2c1.9-0.9,2.1-2.1,1.7-3c1.5,0.6,3.2,0.6,4.7-0.2c0.6-0.3,1.2-0.7,1.6-1.3
						L186,30.2z M178.6,33.7c-0.8,0.4-1.8,0.5-2.6,0c-1.2-0.6-0.4-1.3,0.8-1.9c0.6-0.3,1.2-0.5,1.9-0.8
						C180.3,32.1,179.8,33.1,178.6,33.7z M159.6,28.4l11.1,11l-3.4,1.6l-11.1-11L159.6,28.4z M152.7,31.8l11.1,11l-3.4,1.6l-11.1-11
						L152.7,31.8z M144,41.7l3.6-1.7l3.8,2l-3.6,1.7L144,41.7z M150.8,45.2l3.6-1.7l3.8,2l-3.6,1.7L150.8,45.2z M145.5,47.7l2.9-1.2
						l3,2.3L141,53.9l-2-0.7l-0.2-6.7l-3.7,1.8l1.1,1.1l-2.7,1.1l-3.3-2.2l10.5-5.1l1.9,0.7l0.1,6.8l3.9-1.9L145.5,47.7z
						 M121.5,52.4c-4.3,2.1-3.8,4.5-0.7,6.1c3.4,1.8,8,1.6,11.6-0.2c3.8-1.9,4.4-4.3,1-6.1C130.4,50.6,125.8,50.3,121.5,52.4
						L121.5,52.4z M130.2,57c-1.8,0.9-4.2,0.6-6.1-0.3c-2-1.1-2.1-2.2-0.3-3c1.9-0.9,4.2-0.8,6,0.2C131.8,54.9,132,56.1,130.2,57
						L130.2,57z M120.6,61.4l1.6-0.8l2.3,1.2l-5,2.4l-6-3.1c-1.8-1-3.2-1-4.6-0.3c-1.6,0.8-1.3,1.7,0.2,2.4l3.7,1.9l1.6-0.8l2.3,1.2
						l-5,2.4l-6-3.2c-1.8-1-3.2-1-4.6-0.3c-1.6,0.8-1.3,1.7,0.2,2.4l3.7,1.9l2.3-1.1l2.3,1.2l-7.3,3.5l-2.3-1.2l1.6-0.8l-6-3.2
						L94,68.2L91.7,67l5-2.4l1.6,0.8c-0.4-0.9,0.1-1.9,1.8-2.7c1.9-0.9,4.1-1.2,6.2-0.7c-0.8-1.1-0.3-2.2,1.6-3.1
						c2.1-1,5.3-1.4,7.8-0.1L120.6,61.4L120.6,61.4z"/>
				</g>
			</g>
			<g id="Projection_Shadow">
				<g>
					<defs>
						<polygon id="SVGID_5_" points="59.2,103.1 83.6,115.9 179,69.6 197.2,32.6 102.6,78.4 78.3,65.7 						"/>
					</defs>
					<clipPath id="SVGID_6_">
						<use xlink:href="#SVGID_5_"  overflow="visible"/>
					</clipPath>
					<g clip-path="url(#SVGID_6_)">
						<image overflow="visible" width="139" height="84" xlink:href="3FBBC17F.png"  transform="matrix(1 0 0 1 59 32)">
						</image>
					</g>
				</g>
			</g>
		</g>
	</g>
</g>
</svg>
