<svg xmlns="http://www.w3.org/2000/svg" xmlns:xlink="http://www.w3.org/1999/xlink" viewBox="0 0 500 519.4">
    <defs>
        <style>
            .cls-1 {
                fill: none;
            }
            
            .cls-2 {
                isolation: isolate;
            }
            
            .cls-3,
            .cls-54 {
                fill: #fff;
            }
            
            .cls-4 {
                opacity: 0.15;
            }
            
            .cls-5 {
                fill: #bdcefa;
            }
            
            .cls-6 {
                fill: url(#Degradado_sin_nombre_4);
            }
            
            .cls-7 {
                fill: url(#Degradado_sin_nombre_4-2);
            }
            
            .cls-8 {
                fill: url(#Degradado_sin_nombre_4-3);
            }
            
            .cls-9 {
                fill: url(#Degradado_sin_nombre_4-4);
            }
            
            .cls-10 {
                fill: #e8f2fe;
            }
            
            .cls-11 {
                fill: url(#Degradado_sin_nombre_3);
            }
            
            .cls-12 {
                fill: #ddd;
            }
            
            .cls-12,
            .cls-23 {
                mix-blend-mode: color-dodge;
            }
            
            .cls-13 {
                fill: url(#Degradado_sin_nombre_3-2);
            }
            
            .cls-14 {
                fill: #0084e9;
            }
            
            .cls-101,
            .cls-15 {
                fill: #52a3f6;
            }
            
            .cls-16 {
                fill: url(#Degradado_sin_nombre_11);
            }
            
            .cls-17 {
                fill: url(#Degradado_sin_nombre_8);
            }
            
            .cls-18 {
                fill: url(#Degradado_sin_nombre_3-3);
            }
            
            .cls-19 {
                fill: url(#Degradado_sin_nombre_3-4);
            }
            
            .cls-20 {
                fill: url(#Degradado_sin_nombre_3-5);
            }
            
            .cls-21 {
                fill: url(#Degradado_sin_nombre_3-6);
            }
            
            .cls-22 {
                fill: url(#Degradado_sin_nombre_3-7);
            }
            
            .cls-23 {
                fill: #c9c9c9;
            }
            
            .cls-24 {
                fill: url(#Degradado_sin_nombre_3-8);
            }
            
            .cls-25 {
                fill: url(#Degradado_sin_nombre_3-9);
            }
            
            .cls-26 {
                fill: url(#Degradado_sin_nombre_3-10);
            }
            
            .cls-27 {
                fill: #9ce3f0;
            }
            
            .cls-28 {
                fill: #39c2d1;
            }
            
            .cls-29 {
                fill: #20a8af;
            }
            
            .cls-30 {
                fill: #ff9100;
            }
            
            .cls-31 {
                fill: #d87600;
            }
            
            .cls-32 {
                fill: #bc6200;
            }
            
            .cls-33 {
                fill: #ffec00;
            }
            
            .cls-34 {
                fill: #d6c100;
            }
            
            .cls-35 {
                fill: #938100;
            }
            
            .cls-36 {
                fill: url(#Degradado_sin_nombre_3-11);
            }
            
            .cls-37 {
                fill: #76b5ce;
            }
            
            .cls-38 {
                fill: url(#Degradado_sin_nombre_3-12);
            }
            
            .cls-39 {
                fill: #f9ab83;
            }
            
            .cls-40 {
                fill: #010400;
            }
            
            .cls-41 {
                fill: #484968;
            }
            
            .cls-42 {
                fill: #f1ac85;
            }
            
            .cls-43 {
                fill: #e28c66;
            }
            
            .cls-44 {
                fill: #54a5f8;
            }
            
            .cls-45 {
                fill: #dd936f;
            }
            
            .cls-46 {
                fill: #3f4893;
            }
            
            .cls-47 {
                fill: url(#Degradado_sin_nombre_188);
            }
            
            .cls-48 {
                fill: url(#Degradado_sin_nombre_3-13);
            }
            
            .cls-49 {
                fill: url(#Degradado_sin_nombre_3-14);
            }
            
            .cls-50 {
                fill: url(#Degradado_sin_nombre_3-15);
            }
            
            .cls-51 {
                fill: #b8d0f6;
            }
            
            .cls-52 {
                fill: #99b6e0;
            }
            
            .cls-53 {
                fill: #e4f2ff;
            }
            
            .cls-54,
            .cls-55 {
                mix-blend-mode: overlay;
            }
            
            .cls-56 {
                clip-path: url(#clip-path);
            }
            
            .cls-57 {
                fill: url(#Degradado_sin_nombre_6);
            }
            
            .cls-58 {
                fill: url(#Degradado_sin_nombre_6-2);
            }
            
            .cls-59 {
                fill: url(#Degradado_sin_nombre_6-3);
            }
            
            .cls-60 {
                fill: url(#Degradado_sin_nombre_6-4);
            }
            
            .cls-61 {
                fill: url(#Degradado_sin_nombre_6-5);
            }
            
            .cls-62 {
                fill: url(#Degradado_sin_nombre_6-6);
            }
            
            .cls-63 {
                fill: url(#Degradado_sin_nombre_5);
            }
            
            .cls-64 {
                fill: url(#Degradado_sin_nombre_5-2);
            }
            
            .cls-65 {
                fill: url(#Degradado_sin_nombre_5-3);
            }
            
            .cls-66 {
                fill: url(#Degradado_sin_nombre_5-4);
            }
            
            .cls-67 {
                fill: url(#Degradado_sin_nombre_5-5);
            }
            
            .cls-68 {
                fill: url(#Degradado_sin_nombre_5-6);
            }
            
            .cls-69 {
                fill: url(#Degradado_sin_nombre_4-5);
            }
            
            .cls-70 {
                fill: url(#Degradado_sin_nombre_3-16);
            }
            
            .cls-71 {
                fill: url(#Degradado_sin_nombre_3-17);
            }
            
            .cls-72 {
                fill: url(#Degradado_sin_nombre_4-6);
            }
            
            .cls-73 {
                fill: url(#Degradado_sin_nombre_3-18);
            }
            
            .cls-74 {
                fill: url(#Degradado_sin_nombre_3-19);
            }
            
            .cls-75 {
                fill: url(#Degradado_sin_nombre_3-20);
            }
            
            .cls-76 {
                fill: url(#Degradado_sin_nombre_3-21);
            }
            
            .cls-77 {
                fill: url(#Degradado_sin_nombre_3-22);
            }
            
            .cls-78 {
                fill: url(#Degradado_sin_nombre_3-23);
            }
            
            .cls-79 {
                fill: url(#Degradado_sin_nombre_3-24);
            }
            
            .cls-80 {
                fill: #007dc9;
            }
            
            .cls-81 {
                fill: #2d0d60;
            }
            
            .cls-82 {
                fill: url(#Degradado_sin_nombre_2);
            }
            
            .cls-83 {
                fill: #a29afb;
            }
            
            .cls-84 {
                fill: #ffffeb;
            }
            
            .cls-85 {
                fill: #943bbb;
            }
            
            .cls-86 {
                fill: #fcc4b7;
            }
            
            .cls-87 {
                fill: #293677;
            }
            
            .cls-88 {
                fill: #55d1ff;
            }
            
            .cls-89 {
                fill: #5258a6;
            }
            
            .cls-90 {
                fill: #e58800;
            }
            
            .cls-101,
            .cls-102,
            .cls-103,
            .cls-90 {
                fill-rule: evenodd;
            }
            
            .cls-91 {
                fill: #1c1c38;
            }
            
            .cls-92 {
                fill: #fcfdff;
            }
            
            .cls-93 {
                fill: #0382ff;
            }
            
            .cls-102,
            .cls-94 {
                fill: #bbbeb5;
            }
            
            .cls-103,
            .cls-95 {
                fill: #eaeef1;
            }
            
            .cls-96 {
                fill: #d13985;
            }
            
            .cls-97 {
                fill: #46466c;
            }
            
            .cls-98 {
                fill: #2d2d4f;
            }
            
            .cls-99 {
                fill: #ed549c;
            }
            
            .cls-100 {
                fill: #e5a89c;
            }
        </style>
        <linearGradient id="Degradado_sin_nombre_4" x1="108.69" y1="71.82" x2="61.75" y2="172.06" gradientUnits="userSpaceOnUse">
            <stop offset="0" stop-color="#e4f2ff" />
            <stop offset="0.2" stop-color="#dceafe" stop-opacity="0.78" />
            <stop offset="0.6" stop-color="#cbdbfc" stop-opacity="0.37" />
            <stop offset="0.87" stop-color="#c1d2fb" stop-opacity="0.1" />
            <stop offset="1" stop-color="#bdcefa" stop-opacity="0" />
        </linearGradient>
        <linearGradient id="Degradado_sin_nombre_4-2" x1="140.58" y1="71.03" x2="176.24" y2="215.83" xlink:href="#Degradado_sin_nombre_4" />
        <linearGradient id="Degradado_sin_nombre_4-3" x1="225.63" y1="0.19" x2="224.04" y2="82.13" xlink:href="#Degradado_sin_nombre_4" />
        <linearGradient id="Degradado_sin_nombre_4-4" x1="109.72" y1="168.23" x2="95.4" y2="274.04" xlink:href="#Degradado_sin_nombre_4" />
        <linearGradient id="Degradado_sin_nombre_3" x1="434.94" y1="127.87" x2="363.94" y2="268.87" gradientUnits="userSpaceOnUse">
            <stop offset="0" stop-color="#e4f2ff" />
            <stop offset="0.06" stop-color="#e1efff" />
            <stop offset="0.65" stop-color="#c7d7fb" />
            <stop offset="1" stop-color="#bdcefa" />
        </linearGradient>
        <linearGradient id="Degradado_sin_nombre_3-2" x1="449.91" y1="57.9" x2="335.24" y2="228.57" xlink:href="#Degradado_sin_nombre_3" />
        <linearGradient id="Degradado_sin_nombre_11" x1="301.9" y1="574.36" x2="301.9" y2="404.27" gradientUnits="userSpaceOnUse">
            <stop offset="0" stop-color="#deebfe" />
            <stop offset="0.6" stop-color="#c7d7fb" />
            <stop offset="1" stop-color="#bdcefa" />
        </linearGradient>
        <linearGradient id="Degradado_sin_nombre_8" x1="130.29" y1="519.2" x2="130.71" y2="519.6" gradientUnits="userSpaceOnUse">
            <stop offset="0" stop-color="#fcfdff" />
            <stop offset="0.29" stop-color="#e7f2ff" />
            <stop offset="0.74" stop-color="#cde5fe" />
            <stop offset="1" stop-color="#c3e0fe" />
        </linearGradient>
        <linearGradient id="Degradado_sin_nombre_3-3" x1="424.04" y1="337.15" x2="272.65" y2="453.91" xlink:href="#Degradado_sin_nombre_3" />
        <linearGradient id="Degradado_sin_nombre_3-4" x1="379.21" y1="336.18" x2="325.58" y2="384.78" xlink:href="#Degradado_sin_nombre_3" />
        <linearGradient id="Degradado_sin_nombre_3-5" x1="448.06" y1="383.14" x2="306.04" y2="483.39" xlink:href="#Degradado_sin_nombre_3" />
        <linearGradient id="Degradado_sin_nombre_3-6" x1="425.38" y1="377.6" x2="358.55" y2="419.86" xlink:href="#Degradado_sin_nombre_3" />
        <linearGradient id="Degradado_sin_nombre_3-7" x1="462.87" y1="240.55" x2="209.7" y2="435.47" xlink:href="#Degradado_sin_nombre_3" />
        <linearGradient id="Degradado_sin_nombre_3-8" x1="317.26" y1="381.86" x2="216.92" y2="367.68" xlink:href="#Degradado_sin_nombre_3" />
        <linearGradient id="Degradado_sin_nombre_3-9" x1="251.34" y1="343.05" x2="127.84" y2="465.05" xlink:href="#Degradado_sin_nombre_3" />
        <linearGradient id="Degradado_sin_nombre_3-10" x1="313.6" y1="388.29" x2="127.6" y2="334.29" xlink:href="#Degradado_sin_nombre_3" />
        <linearGradient id="Degradado_sin_nombre_3-11" x1="450.76" y1="263.98" x2="375.26" y2="266.48" xlink:href="#Degradado_sin_nombre_3" />
        <linearGradient id="Degradado_sin_nombre_3-12" x1="368.39" y1="230.86" x2="309.89" y2="197.61" xlink:href="#Degradado_sin_nombre_3" />
        <linearGradient id="Degradado_sin_nombre_188" x1="135.19" y1="341.91" x2="306.05" y2="62.67" gradientUnits="userSpaceOnUse">
            <stop offset="0" stop-color="#0f123b" />
            <stop offset="0.07" stop-color="#141754" />
            <stop offset="0.21" stop-color="#1b1f7a" />
            <stop offset="0.35" stop-color="#212599" />
            <stop offset="0.49" stop-color="#262ab2" />
            <stop offset="0.64" stop-color="#292dc3" />
            <stop offset="0.81" stop-color="#2b2fce" />
            <stop offset="1" stop-color="#2c30d1" />
        </linearGradient>
        <linearGradient id="Degradado_sin_nombre_3-13" x1="270.51" y1="100.12" x2="153.01" y2="240.12" xlink:href="#Degradado_sin_nombre_3" />
        <linearGradient id="Degradado_sin_nombre_3-14" x1="196.87" y1="242.46" x2="146.22" y2="302.81" xlink:href="#Degradado_sin_nombre_3" />
        <linearGradient id="Degradado_sin_nombre_3-15" x1="397.03" y1="281.61" x2="216.08" y2="305.35" xlink:href="#Degradado_sin_nombre_3" />
        <clipPath id="clip-path">
            <polygon id="masker" class="cls-1" points="239.9 204.65 211.02 221.32 206.79 183.98 235.67 167.31 239.9 204.65" />
        </clipPath>
        <linearGradient id="Degradado_sin_nombre_6" x1="246.02" y1="194.14" x2="270.95" y2="178.81" gradientUnits="userSpaceOnUse">
            <stop offset="0" stop-color="#fcfdff" stop-opacity="0" />
            <stop offset="0.12" stop-color="#fcdbe7" stop-opacity="0.16" />
            <stop offset="0.37" stop-color="#fd9cb8" stop-opacity="0.45" />
            <stop offset="0.59" stop-color="#fe6a94" stop-opacity="0.69" />
            <stop offset="0.77" stop-color="#ff4679" stop-opacity="0.86" />
            <stop offset="0.91" stop-color="#ff2f69" stop-opacity="0.96" />
            <stop offset="1" stop-color="#ff2763" />
        </linearGradient>
        <linearGradient id="Degradado_sin_nombre_6-2" x1="243.9" y1="190.68" x2="268.83" y2="175.36" xlink:href="#Degradado_sin_nombre_6" />
        <linearGradient id="Degradado_sin_nombre_6-3" x1="241.77" y1="187.23" x2="266.7" y2="171.9" xlink:href="#Degradado_sin_nombre_6" />
        <linearGradient id="Degradado_sin_nombre_6-4" x1="245.86" y1="193.87" x2="270.79" y2="178.55" xlink:href="#Degradado_sin_nombre_6" />
        <linearGradient id="Degradado_sin_nombre_6-5" x1="243.73" y1="190.42" x2="268.67" y2="175.09" xlink:href="#Degradado_sin_nombre_6" />
        <linearGradient id="Degradado_sin_nombre_6-6" x1="241.61" y1="186.96" x2="266.54" y2="171.64" xlink:href="#Degradado_sin_nombre_6" />
        <linearGradient id="Degradado_sin_nombre_5" x1="208.64" y1="203.55" x2="180.44" y2="222.67" gradientUnits="userSpaceOnUse">
            <stop offset="0" stop-color="#fcfdff" stop-opacity="0" />
            <stop offset="0.12" stop-color="#fcfad7" stop-opacity="0.16" />
            <stop offset="0.37" stop-color="#fdf58c" stop-opacity="0.45" />
            <stop offset="0.59" stop-color="#fef150" stop-opacity="0.69" />
            <stop offset="0.77" stop-color="#ffee24" stop-opacity="0.86" />
            <stop offset="0.91" stop-color="#ffed0a" stop-opacity="0.96" />
            <stop offset="1" stop-color="#ffec00" />
        </linearGradient>
        <linearGradient id="Degradado_sin_nombre_5-2" x1="210.85" y1="206.82" x2="182.65" y2="225.94" xlink:href="#Degradado_sin_nombre_5" />
        <linearGradient id="Degradado_sin_nombre_5-3" x1="213.06" y1="210.08" x2="184.86" y2="229.2" xlink:href="#Degradado_sin_nombre_5" />
        <linearGradient id="Degradado_sin_nombre_5-4" x1="209.1" y1="204.23" x2="180.89" y2="223.35" xlink:href="#Degradado_sin_nombre_5" />
        <linearGradient id="Degradado_sin_nombre_5-5" x1="211.31" y1="207.49" x2="183.11" y2="226.61" xlink:href="#Degradado_sin_nombre_5" />
        <linearGradient id="Degradado_sin_nombre_5-6" x1="213.52" y1="210.75" x2="185.32" y2="229.87" xlink:href="#Degradado_sin_nombre_5" />
        <linearGradient id="Degradado_sin_nombre_4-5" x1="195.19" y1="166.34" x2="119.1" y2="300.17" xlink:href="#Degradado_sin_nombre_4" />
        <linearGradient id="Degradado_sin_nombre_3-16" x1="201.06" y1="184.89" x2="147.2" y2="277.32" xlink:href="#Degradado_sin_nombre_3" />
        <linearGradient id="Degradado_sin_nombre_3-17" x1="186.48" y1="176.4" x2="132.62" y2="268.83" gradientTransform="translate(277.39 -18.44) rotate(60)" xlink:href="#Degradado_sin_nombre_3" />
        <linearGradient id="Degradado_sin_nombre_4-6" x1="328.76" y1="73.3" x2="266.97" y2="201.87" xlink:href="#Degradado_sin_nombre_4" />
        <linearGradient id="Degradado_sin_nombre_3-18" x1="341.12" y1="122.61" x2="258.72" y2="195.38" xlink:href="#Degradado_sin_nombre_3" />
        <linearGradient id="Degradado_sin_nombre_3-19" x1="336.29" y1="117.14" x2="253.88" y2="189.9" xlink:href="#Degradado_sin_nombre_3" />
        <linearGradient id="Degradado_sin_nombre_3-20" x1="323.61" y1="102.78" x2="241.21" y2="175.55" xlink:href="#Degradado_sin_nombre_3" />
        <linearGradient id="Degradado_sin_nombre_3-21" x1="326.94" y1="106.55" x2="244.53" y2="179.31" xlink:href="#Degradado_sin_nombre_3" />
        <linearGradient id="Degradado_sin_nombre_3-22" x1="330.26" y1="110.31" x2="247.86" y2="183.08" xlink:href="#Degradado_sin_nombre_3" />
        <linearGradient id="Degradado_sin_nombre_3-23" x1="140.9" y1="371.52" x2="57.5" y2="539.65" xlink:href="#Degradado_sin_nombre_3" />
        <linearGradient id="Degradado_sin_nombre_3-24" x1="130.76" y1="338.98" x2="55.2" y2="446.03" xlink:href="#Degradado_sin_nombre_3" />
        <linearGradient id="Degradado_sin_nombre_2" x1="399.4" y1="308.1" x2="380.13" y2="300.58" gradientUnits="userSpaceOnUse">
            <stop offset="0" stop-color="#e8e9ff" />
            <stop offset="1" stop-color="#c0c0f6" />
        </linearGradient>
    </defs>
    <title>emisha-bg</title>
    <g class="cls-2">
        <g id="BACKGROUND">
            <rect class="cls-3" width="500" height="500" />
            
             <animateTransform id="any"
                      attributeName="transform"
                      attributeType="XML"
                      type="translate"
                      dur="30s"
                      values="800,0;-800,0"
                      repeatCount="indefinite"/>
        </g>
        <g id="OBJECTS">
            <g class="cls-4">
                <path class="cls-5" d="M449.84,413.09l-66.47,37.23c-2.95,1.7-8.14,1.48-11.54-.48l-22.11-13.19c-3.4-2-3.77-5-.82-6.66l66.21-38c2.95-1.7,8.14-1.48,11.54.48L449,406.43C452.41,408.39,452.79,411.39,449.84,413.09Z" />
                <path class="cls-5" d="M422.17,380.56,355.7,417.79c-2.95,1.7-8.14,1.49-11.54-.48l-22.11-13.19c-3.4-2-3.77-5-.83-6.66l66.22-38c2.95-1.7,8.14-1.48,11.54.48l22.36,13.94C424.74,375.86,425.11,378.86,422.17,380.56Z" />
                <path class="cls-5" d="M438.08,325.62,237.5,437.51c-8.88,5.13-24.55,4.48-34.81-1.44L85.83,368.6c-10.26-5.92-11.38-15-2.5-20.1L283.91,236.62c8.89-5.13,24.55-4.48,34.81,1.44l116.86,67.47C445.84,311.45,447,320.5,438.08,325.62Z" />
            </g>
            <path class="cls-6" d="M51.08,175.33A2.38,2.38,0,0,1,48.71,173V122.81a2.38,2.38,0,0,1,1.18-2L110.17,86a2.29,2.29,0,0,1,1.18-.33A2.38,2.38,0,0,1,113.72,88v50.15a2.36,2.36,0,0,1-1.18,2L52.26,175A2.29,2.29,0,0,1,51.08,175.33Z" />
            <path class="cls-7" d="M96.12,248.13a5.08,5.08,0,0,1-5.07-5.07V135.8a5.07,5.07,0,0,1,2.53-4.38L222.51,57a5,5,0,0,1,2.51-.69,5.09,5.09,0,0,1,5.08,5.07V168.62a5.06,5.06,0,0,1-2.54,4.38L98.64,247.44A5,5,0,0,1,96.12,248.13Z" />
            <path class="cls-8" d="M197.67,104.81a2.1,2.1,0,0,1-2.1-2.1V58.27a2.09,2.09,0,0,1,1.05-1.81L250,25.62a2,2,0,0,1,1-.29,2.1,2.1,0,0,1,2.1,2.1V71.87a2.11,2.11,0,0,1-1.05,1.82l-53.42,30.84A2.06,2.06,0,0,1,197.67,104.81Z" />
            <path class="cls-9" d="M73.07,281.44a2.11,2.11,0,0,1-2.1-2.1V234.9a2.1,2.1,0,0,1,1-1.82l53.42-30.84a2.07,2.07,0,0,1,1-.29,2.11,2.11,0,0,1,2.1,2.1v44.44a2.1,2.1,0,0,1-1.05,1.82L74.11,281.15A2,2,0,0,1,73.07,281.44Z" />
            <ellipse class="cls-5" cx="218.06" cy="113.75" rx="4.79" ry="2.77" transform="translate(8.14 241.91) rotate(-58.95)" />
            <path class="cls-5" d="M233.52,104.83a7.48,7.48,0,0,1-3.42,5.84c-1.9,1.1-3.43.25-3.43-1.89a7.47,7.47,0,0,1,3.43-5.85C232,101.84,233.52,102.69,233.52,104.83Z" />
            <path class="cls-5" d="M245.56,97.88a7.49,7.49,0,0,1-3.43,5.84c-1.89,1.1-3.42.25-3.42-1.89A7.49,7.49,0,0,1,242.13,96C244,94.89,245.56,95.74,245.56,97.88Z" />
            <path class="cls-5" d="M133.71,169.37A30,30,0,0,1,126,175.6c-7,4.05-13.2,1.8-13.2-7.77,0-10,6.26-22.23,15.83-27.75,7.45-4.3,12.78-1.47,12.78,6.74,0,7.13-3.47,13.63-8,16.27-2,1.15-3.43.8-3.64-1.66l-.09,0a13.61,13.61,0,0,1-5.46,6.91c-2.75,1.59-4.73.39-4.73-3.62,0-6,3.8-13.58,9.9-17.1a11.08,11.08,0,0,1,5-1.68l-1.27,9.77c-.42,3.13-.12,4.27,1.06,3.64,1.82-1,4.11-5,4.11-10.63,0-6.35-3.56-9.23-10.12-5.45S116,156.2,116,165.53c0,8.16,4.53,10.19,10.83,6.55A24.38,24.38,0,0,0,133,167Zm-3.77-18a6,6,0,0,0-1.31.56c-2.79,1.62-5,6.06-5,9.82,0,1.86.72,2.62,2.11,1.81,1.57-.9,3.22-4.15,3.6-7.2Z" />
            <path class="cls-5" d="M152,107.85l14.79,4.09c.45.13,1.16-.28,1.62-.93l14.79-21.12Z" />
            <path class="cls-5" d="M162.54,112.21l-10.28,17a1.51,1.51,0,0,1-.28-.93v-19Z" />
            <path class="cls-5" d="M171.77,107.67l10.36,5.19a3.92,3.92,0,0,1-1,.82l-27,15.61a2,2,0,0,1-.89.3l10.34-17.13,4.07,1.13Z" />
            <path class="cls-5" d="M183.3,91.21v19a3.5,3.5,0,0,1-.25,1.15l-10.23-5.15Z" />
            <path class="cls-5" d="M286.82,116.8a.25.25,0,0,1-.25-.25V43.07l-100,57.85a.25.25,0,1,1-.25-.43L287.07,42.2v74.35A.25.25,0,0,1,286.82,116.8Z" />
            <path class="cls-5" d="M293.51,117.11a.48.48,0,0,1-.5-.47v0a.5.5,0,0,1,.5-.5.5.5,0,0,1,.5.5A.52.52,0,0,1,293.51,117.11Z" />
            <path class="cls-5" d="M293.51,113.26a.47.47,0,0,1-.5-.45v-.1a.5.5,0,0,1,.5-.5.5.5,0,0,1,.5.5A.54.54,0,0,1,293.51,113.26Zm0-3.88a.46.46,0,0,1-.5-.45v-.09a.5.5,0,0,1,.5-.5.5.5,0,0,1,.5.5A.54.54,0,0,1,293.51,109.38Zm0-3.87a.47.47,0,0,1-.5-.45V105a.51.51,0,0,1,.5-.5.5.5,0,0,1,.5.5A.54.54,0,0,1,293.51,105.51Zm0-3.88a.46.46,0,0,1-.5-.45v-.09a.5.5,0,0,1,.5-.5.5.5,0,0,1,.5.5A.54.54,0,0,1,293.51,101.63Zm0-3.87a.47.47,0,0,1-.5-.45v-.1a.51.51,0,0,1,.5-.5.5.5,0,0,1,.5.5A.54.54,0,0,1,293.51,97.76Zm0-3.87a.47.47,0,0,1-.5-.46v-.09a.5.5,0,0,1,.5-.5.5.5,0,0,1,.5.5A.54.54,0,0,1,293.51,93.89Zm0-3.88a.47.47,0,0,1-.5-.45v-.1a.51.51,0,0,1,.5-.5.5.5,0,0,1,.5.5A.54.54,0,0,1,293.51,90Z" />
            <path class="cls-5" d="M293.51,86.16a.49.49,0,0,1-.41-.21.21.21,0,0,1,0-.06.48.48,0,0,1,.17-.67.56.56,0,0,1,.52,0,.48.48,0,0,1,.26.41A.52.52,0,0,1,293.51,86.16Z" />
            <path class="cls-5" d="M150.45,166a.49.49,0,0,1-.44-.26.51.51,0,0,1,.19-.68l.09,0a.5.5,0,0,1,.49.87l-.09.05A.5.5,0,0,1,150.45,166Zm3.57-2a.51.51,0,0,1-.43-.26.49.49,0,0,1,.19-.68l.09,0a.5.5,0,0,1,.49.87l-.09.05A.55.55,0,0,1,154,164Zm3.58-2a.51.51,0,0,1-.44-.26.51.51,0,0,1,.19-.68.56.56,0,0,1,.73.17.47.47,0,0,1-.15.66l-.08,0A.57.57,0,0,1,157.6,162Zm3.58-2a.5.5,0,0,1-.44-.25.49.49,0,0,1,.19-.68L161,159a.5.5,0,0,1,.68.19.5.5,0,0,1-.19.68l-.09,0A.53.53,0,0,1,161.18,160Zm3.57-2a.53.53,0,0,1-.44-.26.51.51,0,0,1,.2-.68l.08-.05a.5.5,0,0,1,.68.19.49.49,0,0,1-.19.68l-.09,0A.42.42,0,0,1,164.75,158Zm3.58-2a.5.5,0,0,1-.44-.25.52.52,0,0,1,.19-.69.56.56,0,0,1,.73.17.47.47,0,0,1-.15.66l-.09.05A.53.53,0,0,1,168.33,156Zm3.57-2a.5.5,0,0,1-.24-.93.53.53,0,0,1,.72.17.45.45,0,0,1-.15.65l-.08.05A.54.54,0,0,1,171.9,154Zm3.58-2a.49.49,0,0,1-.44-.26.51.51,0,0,1,.19-.68l.09-.05a.5.5,0,0,1,.49.88l-.09.05A.53.53,0,0,1,175.48,152Zm3.57-2a.5.5,0,0,1-.24-.93l.09,0a.5.5,0,1,1,.48.87l-.08.05A.54.54,0,0,1,179.05,150Zm3.58-2a.51.51,0,0,1-.44-.26.5.5,0,0,1,.2-.68.54.54,0,0,1,.72.17.47.47,0,0,1-.15.66l-.09,0A.44.44,0,0,1,182.63,148Zm3.57-2a.49.49,0,0,1-.43-.26.5.5,0,0,1,.19-.68.56.56,0,0,1,.73.17.46.46,0,0,1-.16.66l-.08,0A.54.54,0,0,1,186.2,146Zm3.58-2a.49.49,0,0,1-.24-.93.54.54,0,0,1,.72.17.46.46,0,0,1-.15.65l-.09,0A.5.5,0,0,1,189.78,144Zm3.58-2a.49.49,0,0,1-.44-.26.5.5,0,0,1,.19-.68.56.56,0,0,1,.73.17.47.47,0,0,1-.15.66l-.09.05A.53.53,0,0,1,193.36,142.05Zm3.57-2a.52.52,0,0,1-.44-.25.5.5,0,0,1,.2-.68.53.53,0,0,1,.72.16.46.46,0,0,1-.15.66l-.09.05A.5.5,0,0,1,196.93,140.05Zm3.58-2a.51.51,0,0,1-.44-.26.49.49,0,0,1,.19-.68.56.56,0,0,1,.73.17.47.47,0,0,1-.15.66l-.09,0A.44.44,0,0,1,200.51,138.06Zm3.57-2a.49.49,0,0,1-.43-.26.5.5,0,0,1,.19-.68l.09-.05a.5.5,0,1,1,.48.88l-.08.05A.57.57,0,0,1,204.08,136.06Zm3.58-2a.5.5,0,0,1-.25-.93.55.55,0,0,1,.73.16.47.47,0,0,1-.15.66l-.09.05A.5.5,0,0,1,207.66,134.06Zm3.57-2a.49.49,0,0,1-.43-.26.5.5,0,0,1,.19-.68l.09,0a.5.5,0,0,1,.68.2.51.51,0,0,1-.2.68l-.08,0A.45.45,0,0,1,211.23,132.07Zm3.58-2a.5.5,0,0,1-.25-.93l.09,0a.5.5,0,0,1,.49.87l-.09,0A.53.53,0,0,1,214.81,130.07Zm3.57-2a.51.51,0,0,1-.43-.26.5.5,0,0,1,.19-.68.54.54,0,0,1,.72.17.45.45,0,0,1-.14.65l-.09,0A.45.45,0,0,1,218.38,128.08Zm3.58-2a.51.51,0,0,1-.44-.26.51.51,0,0,1,.19-.68.56.56,0,0,1,.73.17.47.47,0,0,1-.15.66l-.09,0A.5.5,0,0,1,222,126.08Zm3.58-2a.5.5,0,0,1-.44-.25.49.49,0,0,1,.19-.68l.09-.05a.5.5,0,0,1,.68.19.5.5,0,0,1-.19.68l-.09,0A.53.53,0,0,1,225.54,124.08Zm3.57-2a.5.5,0,0,1-.24-.94l.08-.05a.5.5,0,0,1,.49.88l-.09,0A.42.42,0,0,1,229.11,122.09Zm3.58-2a.5.5,0,0,1-.25-.93.55.55,0,0,1,.73.16.47.47,0,0,1-.15.66l-.09,0A.53.53,0,0,1,232.69,120.09Zm3.57-2a.51.51,0,0,1-.43-.26.49.49,0,0,1,.19-.68.54.54,0,0,1,.72.17.45.45,0,0,1-.15.65l-.08,0A.55.55,0,0,1,236.26,118.1Zm3.58-2a.49.49,0,0,1-.44-.26.51.51,0,0,1,.19-.68l.09,0a.51.51,0,0,1,.68.2.5.5,0,0,1-.19.68l-.09.05A.53.53,0,0,1,239.84,116.1Zm3.57-2a.5.5,0,0,1-.24-.93l.09,0a.5.5,0,1,1,.48.87l-.08.05A.54.54,0,0,1,243.41,114.1Zm3.58-2a.49.49,0,0,1-.44-.26.51.51,0,0,1,.19-.68.55.55,0,0,1,.73.17.46.46,0,0,1-.15.65l-.09.05A.42.42,0,0,1,247,112.11Zm3.57-2a.5.5,0,0,1-.24-.93.53.53,0,0,1,.72.16.46.46,0,0,1-.14.66l-.09,0A.54.54,0,0,1,250.56,110.11Zm3.58-2a.5.5,0,0,1-.24-.94.54.54,0,0,1,.72.17.46.46,0,0,1-.15.65l-.09,0A.51.51,0,0,1,254.14,108.12Zm3.57-2a.49.49,0,0,1-.43-.26.49.49,0,0,1,.19-.68l.09-.05a.51.51,0,0,1,.68.2.5.5,0,0,1-.2.68l-.08,0A.54.54,0,0,1,257.71,106.12Zm3.58-2a.52.52,0,0,1-.44-.25.5.5,0,0,1,.2-.68.53.53,0,0,1,.72.17.45.45,0,0,1-.15.65l-.09,0A.5.5,0,0,1,261.29,104.12Zm3.58-2a.51.51,0,0,1-.44-.26.49.49,0,0,1,.19-.68.56.56,0,0,1,.73.17.47.47,0,0,1-.15.66l-.09,0A.44.44,0,0,1,264.87,102.13Zm3.57-2a.49.49,0,0,1-.43-.26.5.5,0,0,1,.19-.68.55.55,0,0,1,.72.17.46.46,0,0,1-.15.66l-.08,0A.54.54,0,0,1,268.44,100.13Zm3.58-2a.5.5,0,0,1-.25-.93.55.55,0,0,1,.73.17.46.46,0,0,1-.15.65l-.09,0A.53.53,0,0,1,272,98.13Zm3.57-2a.49.49,0,0,1-.43-.26.5.5,0,0,1,.19-.68l.09,0a.5.5,0,0,1,.48.88l-.08,0A.54.54,0,0,1,275.59,96.14Zm3.58-2a.51.51,0,0,1-.44-.25.5.5,0,0,1,.19-.68.55.55,0,0,1,.73.16.47.47,0,0,1-.15.66l-.09,0A.5.5,0,0,1,279.17,94.14Zm3.57-2a.51.51,0,0,1-.43-.26.5.5,0,0,1,.19-.68.55.55,0,0,1,.72.17.45.45,0,0,1-.14.65l-.09,0A.45.45,0,0,1,282.74,92.15Zm3.58-2a.49.49,0,0,1-.44-.26.5.5,0,0,1,.2-.68l.08,0a.51.51,0,0,1,.68.2.5.5,0,0,1-.19.68l-.09,0A.5.5,0,0,1,286.32,90.15Zm3.58-2a.5.5,0,0,1-.44-.25.49.49,0,0,1,.19-.68.54.54,0,0,1,.72.17.45.45,0,0,1-.14.65l-.09,0A.53.53,0,0,1,289.9,88.15Z" />
            <path class="cls-5" d="M146.92,168a.48.48,0,0,1-.5-.48.57.57,0,0,1,.25-.48.51.51,0,0,1,.7.18.47.47,0,0,1-.11.63A.49.49,0,0,1,146.92,168Z" />
            <path class="cls-5" d="M146.92,197.76a.5.5,0,0,1-.5-.5v-.1a.5.5,0,0,1,.5-.5.5.5,0,0,1,.5.5v.1A.5.5,0,0,1,146.92,197.76Zm0-4.25a.5.5,0,0,1-.5-.5v-.1a.5.5,0,0,1,.5-.5.5.5,0,0,1,.5.5v.1A.5.5,0,0,1,146.92,193.51Zm0-4.25a.5.5,0,0,1-.5-.5v-.1a.5.5,0,0,1,.5-.5.51.51,0,0,1,.5.5v.1A.5.5,0,0,1,146.92,189.26Zm0-4.24a.5.5,0,0,1-.5-.5v-.11a.5.5,0,0,1,.5-.5.51.51,0,0,1,.5.5v.11A.51.51,0,0,1,146.92,185Zm0-4.25a.5.5,0,0,1-.5-.5v-.11a.5.5,0,0,1,.5-.5.51.51,0,0,1,.5.5v.11A.51.51,0,0,1,146.92,180.77Zm0-4.25a.5.5,0,0,1-.5-.5v-.1a.5.5,0,0,1,.5-.5.5.5,0,0,1,.5.5v.1A.5.5,0,0,1,146.92,176.52Zm0-4.25a.5.5,0,0,1-.5-.5v-.1a.5.5,0,0,1,.5-.5.5.5,0,0,1,.5.5v.1A.5.5,0,0,1,146.92,172.27Z" />
            <path class="cls-5" d="M146.92,202a.5.5,0,0,1-.5-.5.52.52,0,0,1,.5-.53.48.48,0,0,1,.5.48v.05A.51.51,0,0,1,146.92,202Z" />
            <path class="cls-5" d="M84.27,221.7a.25.25,0,0,1-.25-.25v-40l.14-.07L107.63,169a.25.25,0,0,1,.34.1.26.26,0,0,1-.11.34L84.52,181.78v39.67A.25.25,0,0,1,84.27,221.7Z" />
            <path class="cls-5" d="M101.15,286a.46.46,0,0,1-.5-.45v-.1a.5.5,0,0,1,.5-.5.5.5,0,0,1,.5.5A.54.54,0,0,1,101.15,286Zm0-4.05a.5.5,0,0,1-.5-.5v-.1a.5.5,0,0,1,.5-.5.5.5,0,0,1,.5.5v.1A.5.5,0,0,1,101.15,281.94Zm0-4.15a.46.46,0,0,1-.5-.45v-.1a.5.5,0,0,1,.5-.5.5.5,0,0,1,.5.5A.54.54,0,0,1,101.15,277.79Zm0-4.05a.5.5,0,0,1-.5-.5v-.1a.5.5,0,0,1,.5-.5.5.5,0,0,1,.5.5v.1A.5.5,0,0,1,101.15,273.74Zm0-4.15a.46.46,0,0,1-.5-.45V269a.5.5,0,0,1,.5-.5.5.5,0,0,1,.5.5A.54.54,0,0,1,101.15,269.59Zm0-4.1a.46.46,0,0,1-.5-.45v-.1a.5.5,0,0,1,.5-.5.5.5,0,0,1,.5.5A.54.54,0,0,1,101.15,265.49Zm0-4.05a.5.5,0,0,1-.5-.5v-.1a.5.5,0,0,1,.5-.5.5.5,0,0,1,.5.5v.1A.5.5,0,0,1,101.15,261.44Zm0-4.15a.46.46,0,0,1-.5-.45v-.1a.5.5,0,0,1,.5-.5.5.5,0,0,1,.5.5A.54.54,0,0,1,101.15,257.29Zm0-4.05a.5.5,0,0,1-.5-.5v-.1a.5.5,0,0,1,.5-.5.5.5,0,0,1,.5.5v.1A.5.5,0,0,1,101.15,253.24Zm0-4.15a.46.46,0,0,1-.5-.45v-.1a.5.5,0,0,1,.5-.5.5.5,0,0,1,.5.5A.54.54,0,0,1,101.15,249.09Zm0-4.05a.5.5,0,0,1-.5-.5v-.1a.5.5,0,0,1,.5-.5.5.5,0,0,1,.5.5v.1A.5.5,0,0,1,101.15,245Zm0-4.1a.5.5,0,0,1-.5-.5v-.1a.5.5,0,0,1,.5-.5.5.5,0,0,1,.5.5v.1A.5.5,0,0,1,101.15,240.94Zm0-4.15a.46.46,0,0,1-.5-.45v-.1a.5.5,0,0,1,.5-.5.5.5,0,0,1,.5.5A.54.54,0,0,1,101.15,236.79Zm0-4a.5.5,0,0,1-.5-.5v-.1a.5.5,0,0,1,.5-.5.5.5,0,0,1,.5.5v.1A.5.5,0,0,1,101.15,232.74Zm0-4.1a.5.5,0,0,1-.5-.5V228a.5.5,0,0,1,.5-.5.5.5,0,0,1,.5.5v.1A.5.5,0,0,1,101.15,228.64Zm0-4.1a.5.5,0,0,1-.5-.5v-.1a.5.5,0,0,1,.5-.5.5.5,0,0,1,.5.5v.1A.5.5,0,0,1,101.15,224.54Zm0-4.1a.5.5,0,0,1-.5-.5v-.1a.5.5,0,0,1,.5-.5.5.5,0,0,1,.5.5v.1A.5.5,0,0,1,101.15,220.44Zm0-4.15a.46.46,0,0,1-.5-.45v-.1a.5.5,0,0,1,.5-.5.5.5,0,0,1,.5.5A.54.54,0,0,1,101.15,216.29Zm0-4a.5.5,0,0,1-.5-.5v-.1a.5.5,0,0,1,.5-.5.5.5,0,0,1,.5.5v.1A.5.5,0,0,1,101.15,212.24Zm0-4.1a.5.5,0,0,1-.5-.5v-.1a.5.5,0,0,1,.5-.5.5.5,0,0,1,.5.5v.1A.5.5,0,0,1,101.15,208.14Zm0-4.1a.5.5,0,0,1-.5-.5v-.1a.5.5,0,0,1,.5-.5.5.5,0,0,1,.5.5v.1A.5.5,0,0,1,101.15,204Zm0-4.1a.5.5,0,0,1-.5-.5v-.1a.5.5,0,0,1,.5-.5.5.5,0,0,1,.5.5v.1A.5.5,0,0,1,101.15,199.94Zm0-4.15a.46.46,0,0,1-.5-.45v-.1a.5.5,0,0,1,.5-.5.5.5,0,0,1,.5.5A.54.54,0,0,1,101.15,195.79Zm0-4a.5.5,0,0,1-.5-.5v-.1a.5.5,0,0,1,.5-.5.5.5,0,0,1,.5.5v.1A.5.5,0,0,1,101.15,191.74Zm0-4.1a.5.5,0,0,1-.5-.5V187a.5.5,0,0,1,.5-.5.5.5,0,0,1,.5.5v.1A.5.5,0,0,1,101.15,187.64Zm0-4.1a.5.5,0,0,1-.5-.5v-.1a.5.5,0,0,1,.5-.5.5.5,0,0,1,.5.5v.1A.5.5,0,0,1,101.15,183.54Zm0-4.1a.5.5,0,0,1-.5-.5v-.1a.5.5,0,0,1,.5-.5.5.5,0,0,1,.5.5v.1A.5.5,0,0,1,101.15,179.44Zm0-4.15a.46.46,0,0,1-.5-.45v-.1a.5.5,0,0,1,.5-.5.5.5,0,0,1,.5.5A.54.54,0,0,1,101.15,175.29Zm0-4a.5.5,0,0,1-.5-.5v-.1a.5.5,0,0,1,.5-.5.5.5,0,0,1,.5.5v.1A.5.5,0,0,1,101.15,171.24Zm0-4.1a.5.5,0,0,1-.5-.5v-.1a.5.5,0,0,1,.5-.5.5.5,0,0,1,.5.5v.1A.5.5,0,0,1,101.15,167.14Zm0-4.1a.5.5,0,0,1-.5-.5v-.1a.5.5,0,0,1,.5-.5.5.5,0,0,1,.5.5v.1A.5.5,0,0,1,101.15,163Zm0-4.1a.5.5,0,0,1-.5-.5v-.1a.5.5,0,0,1,.5-.5.5.5,0,0,1,.5.5v.1A.5.5,0,0,1,101.15,158.94Zm0-4.15a.46.46,0,0,1-.5-.45v-.1a.5.5,0,0,1,.5-.5.5.5,0,0,1,.5.5A.54.54,0,0,1,101.15,154.79Zm0-4a.5.5,0,0,1-.5-.5v-.1a.5.5,0,0,1,.5-.5.5.5,0,0,1,.5.5v.1A.5.5,0,0,1,101.15,150.74Zm0-4.1a.5.5,0,0,1-.5-.5V146a.5.5,0,0,1,.5-.5.5.5,0,0,1,.5.5v.1A.5.5,0,0,1,101.15,146.64Zm0-4.1a.5.5,0,0,1-.5-.5v-.1a.5.5,0,0,1,.5-.5.5.5,0,0,1,.5.5v.1A.5.5,0,0,1,101.15,142.54Zm0-4.1a.5.5,0,0,1-.5-.5v-.1a.5.5,0,0,1,.5-.5.5.5,0,0,1,.5.5v.1A.5.5,0,0,1,101.15,138.44Zm1.93-3a.5.5,0,0,1-.24-.93l.08-.05a.5.5,0,0,1,.5.86l-.09,0A.45.45,0,0,1,103.08,135.46Zm3.62-2.07a.51.51,0,0,1-.45-.24.47.47,0,0,1,.15-.66l.08,0a.5.5,0,1,1,.5.86A.57.57,0,0,1,106.7,133.39Zm3.56-2a.49.49,0,0,1-.44-.23.46.46,0,0,1,.14-.66l.09-.05a.51.51,0,0,1,.68.19.49.49,0,0,1-.19.68A.53.53,0,0,1,110.26,131.35Zm3.51-2a.51.51,0,0,1-.44-.26.51.51,0,0,1,.19-.68l.09-.05a.5.5,0,0,1,.49.87l-.08.05A.59.59,0,0,1,113.77,129.37Zm3.61-2.08a.5.5,0,0,1-.44-.23.46.46,0,0,1,.14-.66l.09-.05a.5.5,0,0,1,.49.87A.53.53,0,0,1,117.38,127.29Zm3.56-2a.5.5,0,0,1-.44-.23.46.46,0,0,1,.14-.66l.09-.05a.5.5,0,0,1,.49.87A.53.53,0,0,1,120.94,125.26Zm3.51-2a.5.5,0,0,1-.25-.93l.09,0a.49.49,0,0,1,.68.18.51.51,0,0,1-.18.69l-.09,0A.54.54,0,0,1,124.45,123.27Zm3.62-2.07a.51.51,0,0,1-.45-.24.47.47,0,0,1,.15-.66l.08,0a.51.51,0,0,1,.69.18.52.52,0,0,1-.19.69A.72.72,0,0,1,128.07,121.2Zm3.56-2a.51.51,0,0,1-.45-.24.47.47,0,0,1,.15-.66l.09,0a.5.5,0,0,1,.49.87A.57.57,0,0,1,131.63,119.17Zm3.51-2a.51.51,0,0,1-.44-.25.52.52,0,0,1,.19-.69l.08,0a.52.52,0,0,1,.69.19.51.51,0,0,1-.19.68l-.08,0A.47.47,0,0,1,135.14,117.18Zm3.61-2.08a.49.49,0,0,1-.44-.23.46.46,0,0,1,.14-.66l.09,0a.51.51,0,0,1,.68.19.49.49,0,0,1-.19.68A.53.53,0,0,1,138.75,115.1Zm3.56-2a.5.5,0,0,1-.44-.23.46.46,0,0,1,.14-.66l.09-.05a.5.5,0,0,1,.49.87A.53.53,0,0,1,142.31,113.07Zm3.51-2a.5.5,0,0,1-.25-.93l.09-.05a.5.5,0,0,1,.5.87l-.09,0A.54.54,0,0,1,145.82,111.08Z" />
            <path class="cls-5" d="M172.49,140.29a.48.48,0,0,1-.44-.24.45.45,0,0,1,.14-.65l.08-.05a.5.5,0,1,1,.5.86A.54.54,0,0,1,172.49,140.29Zm-1.64-1.21a.5.5,0,0,1-.5-.5v-.1a.5.5,0,0,1,.5-.5.5.5,0,0,1,.5.5v.1A.5.5,0,0,1,170.85,139.08Zm5.19-.85a.5.5,0,0,1-.45-.23.48.48,0,0,1,.14-.66l.09-.05a.5.5,0,0,1,.68.19.49.49,0,0,1-.18.68A.55.55,0,0,1,176,138.23Zm3.55-2a.52.52,0,0,1-.45-.23.47.47,0,0,1,.14-.66l.09,0a.5.5,0,0,1,.68.18.51.51,0,0,1-.18.69A.58.58,0,0,1,179.59,136.18Zm-8.74-1.2a.5.5,0,0,1-.5-.5v-.1a.5.5,0,0,1,.5-.5.5.5,0,0,1,.5.5v.1A.5.5,0,0,1,170.85,135Zm12.29-.85a.52.52,0,0,1-.45-.23.46.46,0,0,1,.14-.66l.09-.05a.5.5,0,0,1,.5.86A.6.6,0,0,1,183.14,134.13Zm3.49-2a.5.5,0,0,1-.25-.93l.09-.05a.5.5,0,0,1,.5.86l-.09.05A.45.45,0,0,1,186.63,132.12Zm-15.78-1.24a.5.5,0,0,1-.5-.5.54.54,0,0,1,.5-.55.46.46,0,0,1,.5.45v.1A.5.5,0,0,1,170.85,130.88Zm19.38-.86a.49.49,0,0,1-.44-.23.46.46,0,0,1,.14-.66l.09,0a.5.5,0,0,1,.68.18.51.51,0,0,1-.18.69A.59.59,0,0,1,190.23,130Zm3.55-2.05a.5.5,0,0,1-.44-.23.46.46,0,0,1,.14-.66l.09,0a.5.5,0,0,1,.68.18.51.51,0,0,1-.18.69A.59.59,0,0,1,193.78,128Zm-22.93-1.19a.5.5,0,0,1-.5-.5v-.1a.5.5,0,0,1,.5-.5.5.5,0,0,1,.5.5v.1A.5.5,0,0,1,170.85,126.78Zm26.43-.82A.5.5,0,0,1,197,125l.09,0a.5.5,0,1,1,.5.86l-.09,0A.47.47,0,0,1,197.28,126Zm3.6-2.1a.48.48,0,0,1-.44-.23.45.45,0,0,1,.14-.65l.08,0a.51.51,0,0,1,.69.18.5.5,0,0,1-.18.68A.59.59,0,0,1,200.88,123.86Zm-30-1.18a.5.5,0,0,1-.5-.5v-.1a.5.5,0,0,1,.5-.5.5.5,0,0,1,.5.5v.1A.5.5,0,0,1,170.85,122.68Zm33.58-.87a.5.5,0,0,1-.44-.23.46.46,0,0,1,.14-.66l.08,0a.51.51,0,0,1,.69.19.5.5,0,0,1-.19.68A.53.53,0,0,1,204.43,121.81Zm3.5-2a.51.51,0,0,1-.44-.25.51.51,0,0,1,.19-.68l.08-.05a.51.51,0,0,1,.69.18.52.52,0,0,1-.19.69l-.08,0A.57.57,0,0,1,207.93,119.8Zm3.6-2.09a.48.48,0,0,1-.44-.24.45.45,0,0,1,.14-.65l.08,0a.5.5,0,1,1,.5.86A.54.54,0,0,1,211.53,117.71Z" />
            <path class="cls-10" d="M421.74,117.23l-36.29,21c-2.65,1.52-7.31,1.33-10.37-.43l-34.8-20.1c-3.06-1.76-3.39-4.46-.75-6l36.3-21c2.64-1.53,7.31-1.33,10.36.43L421,111.25C424.05,113,424.39,115.7,421.74,117.23Z" />
            <path class="cls-11" d="M423.48,246V115.11h0a3.3,3.3,0,0,1-1.74,2.12l-36.29,21a9.38,9.38,0,0,1-4.82,1V271.05a9.38,9.38,0,0,0,4.82-1l36.29-20.95A2.92,2.92,0,0,0,423.48,246Z" />
            <path class="cls-12" d="M375.08,137.76l-34.8-20.1a4.61,4.61,0,0,1-2.48-2.93V245.64c-.27,1.31.58,2.77,2.48,3.87l34.8,20.09a12,12,0,0,0,5.55,1.45V139.2A12.08,12.08,0,0,1,375.08,137.76Z" />
            <path class="cls-13" d="M375.08,137.76l-34.8-20.1a4.61,4.61,0,0,1-2.48-2.93V245.64c-.27,1.31.58,2.77,2.48,3.87l34.8,20.09a12,12,0,0,0,5.55,1.45V139.2A12.08,12.08,0,0,1,375.08,137.76Z" />
            <path class="cls-14" d="M410.8,129.48c0,7.43-3.94,11.54-9.53,11a7.08,7.08,0,0,1-4.3-1.11L350.59,112.6c-.38-.23-.76-.48-1.13-.75-7.82-5.42-13.92-16.56-13.92-25.82,0-9,5.79-13.13,13.3-10,1.13-6.4,6.48-8.66,12.91-5a23.62,23.62,0,0,1,6,5.09c3.41-2.9,8.63-3,14.48.38,8.78,5.07,16.14,16.35,18.1,26.93a12.3,12.3,0,0,1,4.81,8.88C408.58,117.62,410.8,123.89,410.8,129.48Z"> 
                
             <animateTransform id="any"
                      attributeName="transform"
                      attributeType="XML"
                      type="translate"
                      dur="3s"
                      values="0,6;0,-6;0,6"
                      repeatCount="indefinite"/>
            
            </path>
            <path class="cls-15" d="M415.13,106.6a12.26,12.26,0,0,0-4.81-8.88c-2-10.58-9.32-21.86-18.1-26.93-5.14-3-9.8-3.25-13.17-1.3l-1.42.81a23.21,23.21,0,0,0-5.85-5c-3.64-2.11-6.93-2.29-9.31-.9L354,69.26a8,8,0,0,0-3.75.93l-9.93,5.68c2.28-1.2,5.23-1.21,8.5.14,1.13-6.4,6.48-8.66,12.91-5a23.62,23.62,0,0,1,6,5.09c3.41-2.9,8.63-3,14.48.38,8.78,5.07,16.14,16.35,18.09,26.93a12.28,12.28,0,0,1,4.82,8.88c3.48,5.28,5.7,11.55,5.7,17.14,0,5.06-1.83,8.57-4.76,10.13l9.94-5.68c3-1.53,4.85-5.07,4.85-10.19C420.83,118.15,418.61,111.89,415.13,106.6Z">
                
                 <animateTransform id="any"
                      attributeName="transform"
                      attributeType="XML"
                      type="translate"
                      dur="3s"
                      values="0,6;0,-6;0,6"
                      repeatCount="indefinite"/>
                
            </path>
            
            <g>
            <path class="cls-3" d="M356.66,106c0,1.83-1.29,2.57-2.87,1.66a6.36,6.36,0,0,1-2.87-5c0-1.83,1.29-2.57,2.87-1.66A6.36,6.36,0,0,1,356.66,106Z" />
            <path class="cls-3" d="M365.61,111.17c0,1.83-1.28,2.57-2.87,1.66a6.35,6.35,0,0,1-2.86-5c0-1.83,1.28-2.57,2.86-1.66A6.34,6.34,0,0,1,365.61,111.17Z" />
            <path class="cls-3" d="M374.56,116.34c0,1.83-1.28,2.57-2.86,1.65a6.3,6.3,0,0,1-2.87-5c0-1.83,1.28-2.57,2.87-1.66A6.35,6.35,0,0,1,374.56,116.34Z" />
            <path class="cls-3" d="M383.52,121.51c0,1.83-1.29,2.57-2.87,1.65a6.32,6.32,0,0,1-2.87-5c0-1.83,1.28-2.57,2.87-1.66A6.35,6.35,0,0,1,383.52,121.51Z" />
            <path class="cls-3" d="M392.47,126.68c0,1.82-1.29,2.57-2.87,1.65a6.35,6.35,0,0,1-2.87-5c0-1.82,1.29-2.57,2.87-1.65A6.35,6.35,0,0,1,392.47,126.68Z" />
                
                 <animateTransform id="any"
                      attributeName="transform"
                      attributeType="XML"
                      type="translate"
                      dur="3s"
                      values="0,6;0,-6;0,6"
                      repeatCount="indefinite"/>
                
            </g>
            
            <path class="cls-16" d="M302,481.22h-.11l.11,0Z" />
            <polygon class="cls-17" points="130.5 519.4 130.5 519.4 130.5 519.4 130.5 519.4" />
            <path class="cls-10" d="M422.17,343.3,355.7,380.53c-2.95,1.7-8.14,1.49-11.54-.47l-22.11-13.19c-3.4-2-3.77-5-.83-6.66l66.22-38c2.95-1.7,8.14-1.49,11.54.47l22.36,13.94C424.74,338.6,425.11,341.6,422.17,343.3Z" />
            <path class="cls-18" d="M424.1,347.46V341h0a3.66,3.66,0,0,1-1.93,2.36L355.7,380.53a10.54,10.54,0,0,1-5.36,1.14v7.55a10.43,10.43,0,0,0,5.36-1.13l66.47-37.23A3.26,3.26,0,0,0,424.1,347.46Z" />
            <path class="cls-19" d="M344.16,380.06l-22.11-13.19a5.16,5.16,0,0,1-2.76-3.27v6.52c-.3,1.46.65,3.08,2.76,4.3l22.11,13.19a13.27,13.27,0,0,0,6.18,1.61v-7.55A13.39,13.39,0,0,1,344.16,380.06Z" />
            <path class="cls-10" d="M449.84,384.26l-66.47,37.23c-2.95,1.7-8.14,1.49-11.54-.47l-22.11-13.19c-3.4-2-3.77-5-.82-6.66l66.21-38c2.95-1.69,8.14-1.48,11.54.48L449,377.6C452.41,379.56,452.79,382.56,449.84,384.26Z" />
            <path class="cls-20" d="M451.77,388.42v-6.51h0a3.66,3.66,0,0,1-1.93,2.36l-66.47,37.23a10.43,10.43,0,0,1-5.36,1.13v7.56a10.43,10.43,0,0,0,5.36-1.13l66.47-37.23A3.26,3.26,0,0,0,451.77,388.42Z" />
            <path class="cls-21" d="M371.83,421l-22.11-13.18a5.19,5.19,0,0,1-2.76-3.27v6.52c-.29,1.46.65,3.08,2.76,4.3l22.11,13.19a13.3,13.3,0,0,0,6.18,1.61v-7.56A13.3,13.3,0,0,1,371.83,421Z" />
            <path class="cls-10" d="M438.08,278.88,240.9,392.47C232,397.6,216.35,397,206.1,391L85.83,321.86c-10.26-5.93-11.38-15-2.5-20.1L283.91,189.87c8.89-5.13,24.55-4.48,34.81,1.45l116.86,67.46C445.84,264.71,447,273.75,438.08,278.88Z" />
            <path class="cls-22" d="M443.9,277.2v-5.43h0c-.54,2.68-2.47,5.17-5.82,7.11L240.9,392.47c-4.27,2.46-10.11,3.56-16.16,3.41v8.58c6,.14,11.89-.95,16.16-3.42L438.08,287.46C442.72,284.77,444.61,281,443.9,277.2Z" />
            <path class="cls-23" d="M206.1,391,85.83,321.86c-4.89-2.83-7.68-6.37-8.32-9.85v5.43c-.9,4.41,1.94,9.3,8.32,13L206.1,399.6a40.05,40.05,0,0,0,18.64,4.86v-8.58A40.16,40.16,0,0,1,206.1,391Z" />
            <path class="cls-24" d="M206.1,391,85.83,321.86c-4.89-2.83-7.68-6.37-8.32-9.85v5.43c-.9,4.41,1.94,9.3,8.32,13L206.1,399.6a40.05,40.05,0,0,0,18.64,4.86v-8.58A40.16,40.16,0,0,1,206.1,391Z" />
            <polygon class="cls-3" points="252.87 341.45 211.7 365.22 106.96 304.69 148.13 280.92 252.87 341.45" />
            <polygon class="cls-25" points="252.87 341.45 252.87 358.54 211.7 382.31 211.7 365.22 252.87 341.45" />
            <polygon class="cls-26" points="106.96 304.69 106.96 321.78 211.7 382.31 211.7 365.22 106.96 304.69" />
            <path class="cls-27" d="M167.38,299.25l-18.07,10.43a5.75,5.75,0,0,1-5.16-.22l-17.32-10c-1.52-.88-1.69-2.22-.37-3l18.06-10.43a5.75,5.75,0,0,1,5.16.22l17.33,10C168.53,297.15,168.69,298.49,167.38,299.25Z" />
            <path class="cls-28" d="M168.24,306.15v-8h0a1.63,1.63,0,0,1-.86,1.06l-18.07,10.43a4.64,4.64,0,0,1-2.39.5v8.43a4.64,4.64,0,0,0,2.39-.51l18.07-10.43A1.44,1.44,0,0,0,168.24,306.15Z" />
            <path class="cls-29" d="M144.15,309.46l-17.32-10a2.31,2.31,0,0,1-1.24-1.46v8c-.13.65.29,1.38,1.24,1.92l17.32,10a6.13,6.13,0,0,0,2.77.72v-8.43A5.88,5.88,0,0,1,144.15,309.46Z" />
            <path class="cls-30" d="M199.24,317.71l-18.07,10.43a5.75,5.75,0,0,1-5.16-.22l-17.32-10c-1.52-.88-1.69-2.22-.37-3l18.07-10.43a5.78,5.78,0,0,1,5.16.21l17.32,10C200.39,315.61,200.56,317,199.24,317.71Z" />
            <path class="cls-31" d="M200.1,324.61v-8h0a1.63,1.63,0,0,1-.86,1.06l-18.07,10.43a4.62,4.62,0,0,1-2.39.5v8.42a4.62,4.62,0,0,0,2.39-.5l18.07-10.43A1.44,1.44,0,0,0,200.1,324.61Z" />
            <path class="cls-32" d="M176,327.92l-17.32-10a2.26,2.26,0,0,1-1.23-1.46v8c-.14.65.28,1.38,1.23,1.92l17.32,10a5.88,5.88,0,0,0,2.77.72v-8.42A5.88,5.88,0,0,1,176,327.92Z" />
            <path class="cls-33" d="M231.77,336.43,213.7,346.86a5.75,5.75,0,0,1-5.16-.22l-17.32-10c-1.52-.88-1.69-2.22-.37-3l18.06-10.43a5.78,5.78,0,0,1,5.16.21l17.33,10C232.92,334.33,233.09,335.67,231.77,336.43Z" />
            <path class="cls-34" d="M232.63,343.33v-8h0a1.63,1.63,0,0,1-.86,1.06L213.7,346.86a4.74,4.74,0,0,1-2.39.5v8.42a4.64,4.64,0,0,0,2.39-.5l18.07-10.43A1.44,1.44,0,0,0,232.63,343.33Z" />
            <path class="cls-35" d="M208.54,346.64l-17.32-10a2.31,2.31,0,0,1-1.24-1.46v8c-.13.65.29,1.38,1.24,1.92l17.32,10a5.88,5.88,0,0,0,2.77.72v-8.42A5.88,5.88,0,0,1,208.54,346.64Z" />
            <ellipse class="cls-3" cx="402.46" cy="249.21" rx="27.86" ry="16.08" />
            <path class="cls-36" d="M422.16,260.58c-10.88,6.28-28.52,6.28-39.4,0-5.4-3.12-8.12-7.2-8.15-11.28v17.28c0,4.15,2.67,8.3,8.15,11.46,10.88,6.28,28.52,6.28,39.4,0,5.47-3.16,8.19-7.31,8.15-11.46V249.3C430.27,253.38,427.56,257.46,422.16,260.58Z" />
            <path class="cls-37" d="M402.46,237l17,9.83c-9.33,5.38-24.69,5.38-34,0s-9.34-14.26,0-19.65c5.21-3,12.53-4.47,19.85-4Z" />
            <path class="cls-29" d="M385.45,246.78c-4.65-2.68-7-6.22-7-9.77v9.89c0,3.58,2.31,7.16,7,9.87,9.33,5.39,24.69,5.39,34,0v-10C410.14,252.17,394.78,252.17,385.45,246.78Z" />
            <path class="cls-27" d="M402.46,237l17,9.83c-9.33,5.38-24.69,5.38-34,0s-9.34-14.26,0-19.65c5.21-3,12.53-4.47,19.85-4Z" />
            <path class="cls-30" d="M402.46,226.8,405.3,213a33.47,33.47,0,0,1,14.17,4c9.33,5.39,9.33,14.26,0,19.65Z" />
            <polygon class="cls-32" points="402.46 226.8 402.46 236.96 419.47 246.78 419.47 236.62 402.46 226.8" />
            <path class="cls-31" d="M426.46,246.85V226.9c0,3.53-2.37,7-7,9.72v20.15C424.18,254.05,426.51,250.45,426.46,246.85Z" />
            <path class="cls-3" d="M345.16,221.58l-39.59-22.86c-4.68-2.7-4.1-7.42,1.31-10.54h0c5.4-3.12,13.57-3.46,18.25-.76l39.6,22.87c4.68,2.7,4.09,7.42-1.31,10.54h0C358,224,349.84,224.29,345.16,221.58Z" />
            <path class="cls-38" d="M363.42,220.83c-5.4,3.12-13.58,3.46-18.26.75l-39.59-22.86c-2-1.17-3.08-2.73-3.16-4.37h0V206a.34.34,0,0,1,0,.1c0,1.68,1.08,3.28,3.16,4.48l39.59,22.86c4.68,2.7,12.86,2.36,18.26-.76,3.05-1.76,4.57-4,4.46-6.16V214.76C367.93,216.87,366.42,219.09,363.42,220.83Z" />
            <path class="cls-5" d="M322.44,195.28a8.13,8.13,0,0,1-7.35,0c-2-1.17-2-3.07,0-4.25a8.13,8.13,0,0,1,7.35,0C324.47,192.21,324.47,194.11,322.44,195.28Z" />
            <path class="cls-5" d="M333.92,201.9a8.07,8.07,0,0,1-7.35,0c-2-1.17-2-3.07,0-4.24a8.13,8.13,0,0,1,7.35,0C336,198.83,336,200.73,333.92,201.9Z" />
            <path class="cls-5" d="M345.39,208.53a8.13,8.13,0,0,1-7.35,0c-2-1.17-2-3.07,0-4.25a8.13,8.13,0,0,1,7.35,0C347.42,205.46,347.42,207.36,345.39,208.53Z" />
            <path class="cls-5" d="M356.87,215.15a8.07,8.07,0,0,1-7.35,0c-2-1.17-2-3.07,0-4.24a8.13,8.13,0,0,1,7.35,0C358.9,212.08,358.9,214,356.87,215.15Z" />
            <path class="cls-39" d="M328.57,201h0a2.56,2.56,0,0,0,2.95-2.06l2.5-14.15a2.55,2.55,0,0,0-2.06-2.94h0a2.54,2.54,0,0,0-2.94,2.05L326.52,198A2.56,2.56,0,0,0,328.57,201Z" />
            <path class="cls-39" d="M317.23,201.87h0a2.54,2.54,0,0,0,3.18,1.66l8.75-2.55a2.55,2.55,0,0,0,2.37-2.7h0a2.54,2.54,0,0,0-2.69-2.37l-10,2.78A2.54,2.54,0,0,0,317.23,201.87Z" />
            <path class="cls-40" d="M343.56,243.82c0,.34-.24.63-.69.92-.13.08,0-1.82-.42-1.51-.13.09-6.25,4.85-9.66,4a.73.73,0,0,1-.51-.74v-.77c0-.86,1.24-2.18,3.2-4.09,2.15-2.1,3.53-3.41,6.75-1.55.92.53,1.29.93,1.29,1.27Z" />
            <path class="cls-41" d="M335.48,241.61c-2.61,2.54-4,4-2.69,4.81s4-.39,6.75-2.46c2.4-1.82,5.91-2,2.69-3.9S337.63,239.51,335.48,241.61Z" />
            <path class="cls-42" d="M338.1,240.4l.19-23.42,7.74,2.51-1.33,3.81a28.2,28.2,0,0,1-1,10.27s-1.1,2.25-.88,7.5C342.84,241.07,340,242.69,338.1,240.4Z" />
            <path class="cls-40" d="M336.08,237.68c0,.34-.23.63-.68.92-.13.08,0-1.83-.43-1.51-.13.09-6.24,4.85-9.65,4a.73.73,0,0,1-.51-.74v-.77c-.05-.86,1.24-2.18,3.2-4.09,2.15-2.1,3.52-3.41,6.74-1.55.93.53,1.29.93,1.3,1.27Z" />
            <path class="cls-41" d="M328,235.47c-2.61,2.54-4,4-2.69,4.81s4-.39,6.75-2.46c2.4-1.82,5.91-2,2.68-3.9S330.16,233.37,328,235.47Z" />
            <path class="cls-43" d="M330.62,234.26l.19-23.42,7.75,2.51-1.33,3.81a28.2,28.2,0,0,1-1,10.27s-1.1,2.25-.89,7.5C335.36,234.93,332.52,236.55,330.62,234.26Z" />
            <path class="cls-27" d="M348.76,211.51v8.65s-10.13,3.42-19.66-8.65v-8.37Z" />
            <path class="cls-44" d="M344,214.84a.72.72,0,0,1-.33.11c-1.69.13-7.8-1.2-13.91-8.08a3.18,3.18,0,0,1-.83-2V185.35a3.23,3.23,0,0,1,1.37-3l4.6-2.68a3.24,3.24,0,0,1,3.27.3l6.27,3.62a10.21,10.21,0,0,1,4.6,8v19.65a1,1,0,0,1-.45.94Z" />
            <path class="cls-45" d="M342.17,184.81a1.59,1.59,0,0,1-.95,1.35,5.06,5.06,0,0,1-4.58,0,1.59,1.59,0,0,1-.94-1.35v-4.25a1.59,1.59,0,0,1,.94-1.35,5.06,5.06,0,0,1,4.58,0,1.59,1.59,0,0,1,.95,1.35Z" />
            <path class="cls-39" d="M341.91,178.78c0,1.06.75,1.49,1.67,1a3.7,3.7,0,0,0,1.67-2.89c0-1.06-.75-1.5-1.67-1A3.68,3.68,0,0,0,341.91,178.78Z" />
            <path class="cls-46" d="M333.22,190.25s-8.62-7.84-3.36-21.8l4,14.49Z" />
            <circle class="cls-42" cx="338.98" cy="173.7" r="8.92" transform="translate(-30.92 82.86) rotate(-13.33)" />
            <path class="cls-46" d="M336.33,190.25s6.64-7.31,2-20.85l-8.26,2.84s-2.85-7,6.5-9.07c0,0,6.22-1.36,8.39,3.79,0,0,5,.41,3.11,10.7C348.11,177.66,347.84,187.41,336.33,190.25Z" />
            <path class="cls-39" d="M342.19,206.68h0a2.55,2.55,0,0,0,3.13-1.77l3.93-14.62a2.56,2.56,0,0,0-1.77-3.13h0a2.54,2.54,0,0,0-3.12,1.77l-3.93,14.62A2.55,2.55,0,0,0,342.19,206.68Z" />
            <path class="cls-39" d="M328,207.19h0a2.56,2.56,0,0,0,3,1.95l11.81-2.4a2.53,2.53,0,0,0,2.61-2.46h0a2.54,2.54,0,0,0-2.46-2.61l-13,2.51A2.54,2.54,0,0,0,328,207.19Z" />
            <path class="cls-3" d="M167.64,266.87V179.31a6.2,6.2,0,0,1,3.11-5.38L276,113.17a6.22,6.22,0,0,1,9.33,5.38v87.56a6.22,6.22,0,0,1-3.11,5.38L177,272.25A6.21,6.21,0,0,1,167.64,266.87Z" />
            <path class="cls-47" d="M173.86,271a4.15,4.15,0,0,1-4.14-4.14V179.31a4.14,4.14,0,0,1,2.07-3.57L277,115a4.08,4.08,0,0,1,2-.56,4.15,4.15,0,0,1,4.14,4.14v87.56a4.13,4.13,0,0,1-2.06,3.57L175.92,270.45A4.12,4.12,0,0,1,173.86,271Z" />
            <path class="cls-48" d="M167.64,266.87V179.31a6.2,6.2,0,0,1,3.11-5.38L276,113.17a6.13,6.13,0,0,1,5.32-.42h0l-2.49-1.32A6.17,6.17,0,0,0,272,111L166.74,171.77a6.24,6.24,0,0,0-3.11,5.39v87.56a6.11,6.11,0,0,0,2.56,5h0l.07,0a6.57,6.57,0,0,0,1.33.72l2.78,1.5A6.11,6.11,0,0,1,167.64,266.87Z" />
            <path class="cls-49" d="M171.53,272.63h0Z" />
            <path class="cls-3" d="M177,283l75.83,43.78a6.21,6.21,0,0,0,6.21,0L364.25,266a6.21,6.21,0,0,0,0-10.76l-75.83-43.78a6.21,6.21,0,0,0-6.21,0L177,272.25A6.22,6.22,0,0,0,177,283Z" />
            <path class="cls-50" d="M364.25,266,259,326.8a6.21,6.21,0,0,1-6.21,0L177,283a6.17,6.17,0,0,1-3.11-5.38v5.68A6.14,6.14,0,0,0,177,288.7l75.83,43.78a6.21,6.21,0,0,0,6.21,0l105.25-60.76a6.14,6.14,0,0,0,3.09-5.1h0v-5.74A6.13,6.13,0,0,1,364.25,266Zm3.09-5.66a.13.13,0,0,0,0,.06v-.06Z" />
            <path class="cls-51" d="M325,248.86,234.64,301c-3.53,2-9.68,1.78-13.76-.57l-27.2-15.71c-4.07-2.35-4.51-5.91-1-7.94l90.38-52.18c3.52-2,9.68-1.78,13.75.57L324,240.92C328.1,243.27,328.54,246.82,325,248.86Z" />
            <path class="cls-52" d="M192.69,278.07l90.38-52.18c3.52-2,9.68-1.78,13.75.57L324,242.17c1.94,1.12,3,2.51,3.3,3.88.36-1.74-.77-3.67-3.3-5.13l-27.21-15.71c-4.07-2.35-10.23-2.6-13.75-.57l-90.38,52.18c-1.85,1.06-2.59,2.55-2.31,4.06A4.39,4.39,0,0,1,192.69,278.07Z" />
            <path class="cls-52" d="M265.63,248.5l-4.79-2.76-4.79,2.76,4.79,2.77Zm-9.42,5.44-4.79-2.76-4.79,2.76,4.79,2.77Zm18.84-10.88-4.79-2.76-4.79,2.76,4.79,2.77Zm27.37,2.9,10-5.76-4.79-2.77-10,5.76Zm1.89-10.44-4.8-2.76-4.79,2.76,4.79,2.77Zm-19.83,2.1-4.8-2.76-4.79,2.76,4.79,2.77Zm-37.69,21.76L242,256.61l-4.79,2.77,4.79,2.77ZM296,244.14,213.4,291.82l4.79,2.77,82.59-47.68Zm-58.62,20.68-4.79-2.77-4.8,2.77,4.8,2.77ZM292.21,237,205.3,287.15l4.8,2.77L297,239.74Zm23.5,5.13L221.5,296.5l4.79,2.76,94.21-54.39Zm-97.18,33.6-4.8-2.77-4.79,2.77,4.79,2.77Zm9.42-5.44-4.79-2.77-4.8,2.77,4.8,2.77Z" />
            <path class="cls-53" d="M265.63,247.67l-4.79-2.77-4.79,2.77,4.79,2.77Zm-9.42,5.44-4.79-2.77-4.79,2.77,4.79,2.77Zm18.84-10.88-4.79-2.77-4.79,2.77,4.79,2.77Zm27.37,2.9,10-5.77-4.79-2.76-10,5.76Zm1.89-10.44-4.8-2.77-4.79,2.77,4.79,2.77Zm-19.83,2.1-4.8-2.77-4.79,2.77,4.79,2.77Zm-37.69,21.76L242,255.78l-4.79,2.77,4.79,2.76ZM296,243.3,213.4,291l4.79,2.77,82.59-47.69ZM237.37,264l-4.79-2.77-4.8,2.77,4.8,2.76Zm54.84-27.85L205.3,286.32l4.8,2.76L297,238.91Zm23.5,5.13L221.5,295.66l4.79,2.77L320.5,244Zm-97.18,33.6-4.8-2.77-4.79,2.77,4.79,2.76Zm9.42-5.44-4.79-2.77-4.8,2.77,4.8,2.76Z" />
            <path class="cls-3" d="M270.26,239.88l4.43,2.56.36-.21-4.79-2.77-4.79,2.77.36.21Zm9.42-5.44,4.43,2.56.37-.21-4.8-2.77-4.79,2.77.36.21Zm-18.84,10.88,4.43,2.56.36-.21-4.79-2.77-4.79,2.77.36.21ZM298,242.57l9.62-5.56,4.43,2.56.36-.21-4.79-2.76-10,5.76Zm-46.57,8.19,4.43,2.56.36-.21-4.79-2.77-4.79,2.77.36.21Zm48.09-18.42L304,234.9l.36-.21-4.8-2.77-4.79,2.77.36.21Zm16.2,8.93L221.5,295.66l.36.21,93.85-54.18,4.43,2.56.36-.21Zm-19.07-2.16.37-.2-4.8-2.77L205.3,286.32l.36.2,86.55-50Zm-82.91,33.41,4.44,2.55.36-.2-4.8-2.77-4.79,2.77.36.2Zm86.69-26.24.36-.21L296,243.3,213.4,291l.36.21L296,243.72Zm-77.26,20.8,4.43,2.55.36-.2-4.79-2.77-4.8,2.77.36.2ZM242,256.2l4.43,2.56.36-.21L242,255.78l-4.79,2.77.36.21Zm-9.42,5.44L237,264.2l.36-.21-4.79-2.77-4.8,2.77.37.21Z" />
            <path class="cls-51" d="M317.62,279.5l-28.16,16.26a7.66,7.66,0,0,1-6.85-.28l-6.18-3.57c-2-1.17-2.24-3-.5-4l28.17-16.26a7.61,7.61,0,0,1,6.84.29l6.19,3.57C319.15,276.71,319.37,278.49,317.62,279.5Z" />
            <path class="cls-52" d="M275.93,288.79l28.17-16.26a7.64,7.64,0,0,1,6.84.28l6.19,3.57a3.14,3.14,0,0,1,1.6,1.83c.25-.89-.29-1.91-1.6-2.66L310.94,272a7.61,7.61,0,0,0-6.84-.29L275.93,288a1.9,1.9,0,0,0-1.1,2.13A2.17,2.17,0,0,1,275.93,288.79Z" />
            <path class="cls-54" d="M268.32,145.05v-3.24c0-2.78-1.95-3.91-4.36-2.52l-75,43.28a9.64,9.64,0,0,0-4.37,7.56v3.23Z" />
            <g class="cls-55">
                <path class="cls-3" d="M192.35,184.77a3.92,3.92,0,0,1-1.76,3c-1,.56-1.76.1-1.76-1a3.88,3.88,0,0,1,1.76-3C191.56,183.2,192.35,183.65,192.35,184.77Z" />
                <path class="cls-3" d="M198.53,181.2a3.88,3.88,0,0,1-1.76,3.05c-1,.56-1.76.1-1.76-1a3.88,3.88,0,0,1,1.76-3C197.74,179.63,198.53,180.08,198.53,181.2Z" />
                <path class="cls-3" d="M204.71,177.64a3.88,3.88,0,0,1-1.76,3c-1,.56-1.76.11-1.76-1a3.9,3.9,0,0,1,1.76-3C203.92,176.06,204.71,176.52,204.71,177.64Z" />
            </g>
            <g class="cls-56">
                <image width="622" height="696" transform="translate(208.07 183.07) rotate(-6.32) scale(0.04)" xlink:href="logo.png" />
            </g>
            <polygon class="cls-57" points="262.65 185.13 265.38 183.55 265.38 181.02 262.65 182.6 262.65 185.13" />
            <polygon class="cls-58" points="262.65 180.37 265.38 178.79 265.38 176.26 262.65 177.84 262.65 180.37" />
            <polygon class="cls-59" points="262.65 175.61 265.38 174.03 265.38 171.5 262.65 173.08 262.65 175.61" />
            <polygon class="cls-60" points="247.17 194.07 261.33 185.89 261.33 183.36 247.17 191.53 247.17 194.07" />
            <polygon class="cls-61" points="247.17 189.31 261.33 181.13 261.33 178.6 247.17 186.77 247.17 189.31" />
            <polygon class="cls-62" points="247.17 184.55 261.33 176.38 261.33 173.84 247.17 182.01 247.17 184.55" />
            <polygon class="cls-63" points="190.4 214.79 187.66 216.37 187.66 218.91 190.4 217.33 190.4 214.79" />
            <polygon class="cls-64" points="190.4 219.55 187.66 221.13 187.66 223.67 190.4 222.09 190.4 219.55" />
            <polygon class="cls-65" points="190.4 224.31 187.66 225.89 187.66 228.43 190.4 226.84 190.4 224.31" />
            <polygon class="cls-66" points="205.88 205.86 191.72 214.03 191.72 216.56 205.88 208.39 205.88 205.86" />
            <polygon class="cls-67" points="205.88 210.62 191.72 218.79 191.72 221.32 205.88 213.15 205.88 210.62" />
            <polygon class="cls-68" points="205.88 215.38 191.72 223.55 191.72 226.08 205.88 217.91 205.88 215.38" />
            <path class="cls-54" d="M262.75,202.11l-71.28,41.15c-1.48.85-2.69-.06-2.69-2h0a6.48,6.48,0,0,1,2.69-5.14l71.28-41.15c1.48-.85,2.69.06,2.69,2h0A6.48,6.48,0,0,1,262.75,202.11Z" />
            <path class="cls-69" d="M188.47,255.14l-67.62,39c-2.09,1.21-3.81-.08-3.81-2.87V227.38c0-2.79,1.72-6.06,3.81-7.27l67.62-39.05c2.1-1.2,3.81.09,3.81,2.88v63.93C192.28,250.66,190.57,253.93,188.47,255.14Z" />
            <g class="cls-55">
                <polygon class="cls-70" points="186.39 248.58 122.93 285.22 122.93 280.46 186.39 243.82 186.39 248.58" />
                <ellipse class="cls-71" cx="154.66" cy="231" rx="27.75" ry="16.02" transform="translate(-122.73 249.44) rotate(-60)" />
            </g>
            <path class="cls-72" d="M327.33,157.13,259.7,196.18c-2.09,1.2-3.8-.09-3.8-2.88V143.43c0-2.79,1.71-6.06,3.8-7.27l67.63-39c2.09-1.2,3.8.09,3.8,2.88v49.87C331.13,152.65,329.42,155.92,327.33,157.13Z" />
            <g class="cls-55">
                <polygon class="cls-73" points="325.25 148.71 261.78 185.35 261.78 180.59 325.25 143.95 325.25 148.71" />
                <polygon class="cls-74" points="325.25 138.96 261.78 175.6 261.78 170.84 325.25 134.21 325.25 138.96" />
                <polygon class="cls-75" points="280.11 153.64 263.07 163.48 263.07 143.8 280.11 133.96 280.11 153.64" />
                <polygon class="cls-76" points="302.04 140.98 284.99 150.82 284.99 131.14 302.04 121.3 302.04 140.98" />
                <polygon class="cls-77" points="323.96 128.32 306.92 138.16 306.92 118.48 323.96 108.64 323.96 128.32" />
            </g>
            <path class="cls-10" d="M137.11,375.33l-36.29,21c-2.65,1.52-7.31,1.33-10.37-.43l-34.8-20.1c-3.06-1.76-3.39-4.46-.74-6l36.29-21c2.65-1.53,7.31-1.33,10.37.43l34.8,20.1C139.43,371.11,139.76,373.8,137.11,375.33Z" />
            <path class="cls-78" d="M138.85,439.27V373.21h0a3.3,3.3,0,0,1-1.74,2.12l-36.29,21a9.37,9.37,0,0,1-4.81,1v67a9.37,9.37,0,0,0,4.81-1l36.29-21A2.91,2.91,0,0,0,138.85,439.27Z" />
            <path class="cls-79" d="M90.45,395.86l-34.8-20.1a4.61,4.61,0,0,1-2.48-2.93v66.05c-.27,1.32.58,2.77,2.48,3.87l34.8,20.1A12,12,0,0,0,96,464.29v-67A12.09,12.09,0,0,1,90.45,395.86Z" />
            <ellipse class="cls-80" cx="86.27" cy="352.79" rx="19.89" ry="34.46" transform="translate(-164.84 90.4) rotate(-30)" />
            <ellipse class="cls-14" cx="86.27" cy="352.79" rx="17.91" ry="31.02" transform="translate(-164.84 90.4) rotate(-30)" />
            <path class="cls-15" d="M98.93,317.34c-6.76-3.9-12.87-4.25-17.29-1.67L69.1,322.91h0c4.41-2.5,10.47-2.12,17.17,1.74,13.45,7.77,24.36,26.67,24.36,42.2,0,7.74-2.7,13.18-7.08,15.74h0l12.54-7.24c4.44-2.53,7.2-8,7.2-15.81C123.3,344,112.39,325.11,98.93,317.34Z" />
            <path class="cls-3" d="M80.1,357.55a12,12,0,0,1,3.25.65l.32.11a16.25,16.25,0,0,1,2,.89v-6.12l-6.57-3.8A42.86,42.86,0,0,0,80.1,357.55Z" />
            <path class="cls-3" d="M93,347h.4l.27,0a7.41,7.41,0,0,0,2.23-.51,31.73,31.73,0,0,0-5.78-7.14A27.49,27.49,0,0,1,92,343.59Q92.57,345.26,93,347Z" />
            <path class="cls-3" d="M84.52,335.64c-1.21,0-2.33.83-3.25,2.41a11.57,11.57,0,0,0-.85,1.87,29.17,29.17,0,0,0,3.1,3l.31.25a22.4,22.4,0,0,0,1.88,1.36v-8.33l-.1,0A11.91,11.91,0,0,0,84.52,335.64Z" />
            <path class="cls-3" d="M83.52,359.46a11.07,11.07,0,0,0-3.1-.57c.25,1,.53,1.94.85,2.85a19.6,19.6,0,0,0,3.25,6.17c.36.26.72.51,1.08.73l.11.07v-8.33a14.8,14.8,0,0,0-1.88-.81Z" />
            <path class="cls-3" d="M83.34,344a30.53,30.53,0,0,1-3.24-3.12,27.89,27.89,0,0,0-1,7.2l6.57,3.8v-6.15a22.63,22.63,0,0,1-2-1.47Z" />
            <path class="cls-3" d="M79.31,340c-.18-.21-.35-.43-.52-.64L78.5,339a38.66,38.66,0,0,1-2.31-3.34c-2.46,1.49-3.87,4.45-4,8.45l6.09,3.51A28.28,28.28,0,0,1,79.31,340Z" />
            <path class="cls-3" d="M79.63,358.91l-.36,0L79,359a7.25,7.25,0,0,0-2.08.61,31.72,31.72,0,0,0,5.5,6.63A28.05,28.05,0,0,1,80.55,362C80.21,361,79.9,360,79.63,358.91Z" />
            <path class="cls-3" d="M78.79,357.6l.52-.05a43.63,43.63,0,0,1-1-8.76l-6.09-3.52a29.23,29.23,0,0,0,4,13,7.85,7.85,0,0,1,2.32-.66Z" />
            <path class="cls-3" d="M79.27,338.54l.36.45a12.8,12.8,0,0,1,.92-2,6.18,6.18,0,0,1,1.86-2.08,8.33,8.33,0,0,0-5.47.31,33.44,33.44,0,0,0,2.06,3Z" />
            <path class="cls-3" d="M93.3,365.3c.19.21.37.45.55.66l.29.35a37.28,37.28,0,0,1,2.5,3.46c2.2-1.49,3.56-4.25,3.7-8.25L94.25,358A28.29,28.29,0,0,1,93.3,365.3Z" />
            <path class="cls-3" d="M89,346.25a12,12,0,0,0,3.17.75c-.27-1.09-.58-2.16-.94-3.18A19.6,19.6,0,0,0,88,337.65c-.36-.26-.73-.51-1.09-.74l-.15-.09v8.35a17.36,17.36,0,0,0,1.95.95Z" />
            <path class="cls-3" d="M93.4,366.77l-.4-.47a12.22,12.22,0,0,1-1,2.27,6.09,6.09,0,0,1-1.86,2.08,8.23,8.23,0,0,0,5.8-.43,33.94,33.94,0,0,0-2.25-3.12Z" />
            <path class="cls-3" d="M94.14,348.34l-.29,0H93.3a44.54,44.54,0,0,1,1,8.44l6.09,3.51a28.88,28.88,0,0,0-3.71-12.55A8,8,0,0,1,94.14,348.34Z" />
            <path class="cls-3" d="M92.49,348.31a13,13,0,0,1-3.32-.81l-.33-.14a19.82,19.82,0,0,1-2.08-1v6.12l6.63,3.83A41.88,41.88,0,0,0,92.49,348.31Z" />
            <path class="cls-3" d="M89.19,361.42a28.76,28.76,0,0,1,3.31,3,27.75,27.75,0,0,0,.89-6.91l-6.63-3.83v6.11a20.78,20.78,0,0,1,2.08,1.38Z" />
            <path class="cls-3" d="M92.19,365.41a25.91,25.91,0,0,0-3.17-2.9c-.09-.08-.2-.16-.31-.24A20.75,20.75,0,0,0,86.76,361v8.36l.15.08c.36.19.73.36,1.09.52,1.21,0,2.34-.83,3.26-2.41A12.39,12.39,0,0,0,92.19,365.41Z" />
            <path class="cls-40" d="M361,337.2c-.31.14-.43.52-.46,1,0,.16,1.57-.9,1.51-.36,0,.15-1.15,7.79,1.29,10.32a.7.7,0,0,0,.88.08l.67-.37c.77-.39,1.29-2.15,2-4.78.77-2.9,1.23-4.73-2-6.62-.91-.54-1.44-.66-1.73-.5Z" />
            <path class="cls-41" d="M366.91,343.13c-.92,3.5-1.53,5.47-2.85,4.69s-1.63-3.67-1.17-7.07c.39-3-1.13-6.12,2.06-4.24S367.68,340.23,366.91,343.13Z" />
            <path class="cls-43" d="M387.49,320.73l-6.55,2.4-2.66,3a28.14,28.14,0,0,0-8.43,5.88s-1.41,2.07-6.07,4.45c0,0,0,3.26,2.9,3.78l18.68-10.75a4.69,4.69,0,0,0,2.33-3.58A20.65,20.65,0,0,0,387.49,320.73Z" />
            <path class="cls-81" d="M373.71,353.74c0,.34.24.63.69.91.12.09,0-1.81.42-1.49.13.09,6.22,4.83,9.62,4a.73.73,0,0,0,.51-.74v-.76c.05-.86-1.24-2.18-3.19-4.08-2.14-2.09-3.51-3.4-6.72-1.54-.92.52-1.29.92-1.29,1.26Z" />
            <path class="cls-41" d="M381.76,351.54c2.6,2.53,4,4,2.68,4.79s-4-.39-6.73-2.45c-2.39-1.81-5.88-2-2.67-3.88S379.62,349.45,381.76,351.54Z" />
            <path class="cls-42" d="M379.16,350.33,379,327,372.64,329l-.07,4.26a28,28,0,0,0,1,10.23s1.1,2.24.88,7.47C374.43,351,377.26,352.61,379.16,350.33Z" />
            <path class="cls-43" d="M396.42,317.63h0a2.53,2.53,0,0,1-3.35-1.26l-10-22.13a2.55,2.55,0,0,1,1.26-3.35h0a2.53,2.53,0,0,1,3.35,1.26l10,22.13A2.54,2.54,0,0,1,396.42,317.63Z" />
            <polygon class="cls-82" points="397.4 315.11 381.71 306.06 381.71 293.4 397.4 302.46 397.4 315.11" />
            <polygon class="cls-83" points="393.53 311.7 393.53 302.1 393.87 302.29 393.87 311.89 393.53 311.7" />
            <polygon class="cls-83" points="392.77 308.42 392.77 301.66 393.11 301.86 393.11 308.61 392.77 308.42" />
            <polygon class="cls-83" points="392.02 310.08 392.02 301.22 392.35 301.42 392.35 310.27 392.02 310.08" />
            <polygon class="cls-83" points="391.26 310.38 391.26 300.79 391.59 300.98 391.59 310.58 391.26 310.38" />
            <polygon class="cls-83" points="390.5 303.86 390.5 300.35 390.83 300.54 390.83 304.06 390.5 303.86" />
            <path class="cls-30" d="M368.52,321.54v8.62s10.1,3.41,19.6-8.62V313.2Z" />
            <path class="cls-84" d="M373.1,324.21a.72.72,0,0,0,.32.11c1.7.13,7.78-1.19,13.87-8.06a3.18,3.18,0,0,0,.83-2V294.82a3.2,3.2,0,0,0-1.37-3l-4.58-2.68a3.22,3.22,0,0,0-3.26.3l-6.24,3.61a10.15,10.15,0,0,0-4.59,7.94v19.59a1,1,0,0,0,.44.93Z" />
            <path class="cls-45" d="M374.87,294.29a1.6,1.6,0,0,0,.95,1.34,5.08,5.08,0,0,0,4.56,0,1.6,1.6,0,0,0,.95-1.34V290a1.6,1.6,0,0,0-.95-1.34,5.08,5.08,0,0,0-4.56,0,1.6,1.6,0,0,0-.95,1.34Z" />
            <path class="cls-39" d="M357.64,322.15h0a2.54,2.54,0,0,1-1.11-3.4l11-21.82a2.52,2.52,0,0,1,3.39-1.11h0a2.53,2.53,0,0,1,1.12,3.4L361,321A2.54,2.54,0,0,1,357.64,322.15Z" />
            <path class="cls-85" d="M386.31,280.86l3.19,12.38a1.44,1.44,0,0,1-1.95,1.7l-7.35-3.06a1.45,1.45,0,0,1-.86-1.61l2.41-12.19a1.44,1.44,0,0,1,2.65-.47l1.75,2.85A1.4,1.4,0,0,1,386.31,280.86Z" />
            <path class="cls-39" d="M375.14,288.27c0,1.06-.75,1.49-1.67,1a3.7,3.7,0,0,1-1.66-2.88c0-1.06.75-1.49,1.66-1A3.68,3.68,0,0,1,375.14,288.27Z" />
            <circle class="cls-39" cx="378.06" cy="283.21" r="8.89" />
            <path class="cls-85" d="M369.42,284.4s7.51,4.12,11.17-6.6c0,0,2,4.53,6.84,3.53,0,0,0-7.05-7.27-8.42C380.16,272.91,367.3,271.63,369.42,284.4Z" />
            <path class="cls-85" d="M373.56,284.75l3.19,12.39a1.44,1.44,0,0,1-2,1.69l-7.34-3.05a1.44,1.44,0,0,1-.86-1.62L369,282a1.45,1.45,0,0,1,2.65-.48l1.75,2.86A1.36,1.36,0,0,1,373.56,284.75Z" />
            <path d="M302.59,322.77c-.06,1,1.5,2.49,3.89,3.87,3.16,1.83,4.29,4.14,8.2,1.88,1.12-.64,1.59-1.16,1.62-1.61v-2.43c.11-1.13-2.61-1.84-4.89-3.15-3.16-1.83-6.57-2.83-8.2-1.89a1.07,1.07,0,0,0-.62.9Z" />
            <path class="cls-81" d="M306.48,324.18c-3.17-1.83-4.9-3.8-3.27-4.74s5,.06,8.2,1.89,7.19,2.47,3.27,4.73S309.64,326,306.48,324.18Z" />
            <path d="M311.39,316.71c-.06,1,1.51,2.49,3.89,3.86,3.17,1.83,4.29,4.15,8.2,1.89,1.13-.65,1.59-1.16,1.62-1.61v-2.44c.11-1.13-2.6-1.83-4.88-3.15-3.17-1.83-6.58-2.82-8.21-1.88a1.08,1.08,0,0,0-.62.89Z" />
            <path class="cls-81" d="M315.28,318.11c-3.17-1.83-4.89-3.8-3.27-4.73s5,.05,8.21,1.88,7.18,2.48,3.26,4.74S318.45,319.94,315.28,318.11Z" />
            <path class="cls-86" d="M307.91,244h0a2.62,2.62,0,0,1,3.59.81L322.3,262a2.61,2.61,0,0,1-.81,3.59h0a2.62,2.62,0,0,1-3.59-.82l-10.81-17.19A2.6,2.6,0,0,1,307.91,244Z" />
            <path class="cls-87" d="M315,262.81l3.48,5.54a4,4,0,0,0,5.55,1.27h0a4,4,0,0,0,1.26-5.55l-3.49-5.54S317.43,256.88,315,262.81Z" />
            <path class="cls-88" d="M316.19,323.37a1.79,1.79,0,0,0,.18-.79V295.42c0-1.72-1.77-3.13-3.94-3.13h0c-2.16,0-3.94,1.41-3.94,3.13V325a1,1,0,0,0,.7.95C310.7,326.36,314.28,327,316.19,323.37Z" />
            <path class="cls-88" d="M325,317a1.78,1.78,0,0,0,.17-.79l-.6-27.16c0-1.72-1.84-3.08-4-3h0c-2.17,0-3.91,1.49-3.87,3.2l.65,29.53a1,1,0,0,0,.72.94C319.6,320.11,323.19,320.69,325,317Z" />
            <path class="cls-89" d="M309.79,300.3a.76.76,0,0,0,.34.11c1.74.13,8-1.23,14.25-8.28a3.25,3.25,0,0,0,.85-2v-20a3.27,3.27,0,0,0-1.41-3.05l-4.7-2.75a3.29,3.29,0,0,0-3.36.31l-6.42,3.7a10.47,10.47,0,0,0-4.71,8.17v20.13a1,1,0,0,0,.46,1Z" />
            <path class="cls-42" d="M311.61,269.54a1.65,1.65,0,0,0,1,1.37,5.19,5.19,0,0,0,4.7,0,1.63,1.63,0,0,0,1-1.37v-4.37a1.63,1.63,0,0,0-1-1.37,5.19,5.19,0,0,0-4.7,0,1.65,1.65,0,0,0-1,1.37Z" />
            <circle class="cls-86" cx="314.93" cy="258.22" r="9.14" />
            <path class="cls-86" d="M299.11,298.63h0a2.61,2.61,0,0,1-1.63-3.3l6.88-18.58a2.6,2.6,0,0,1,3.3-1.63h0a2.62,2.62,0,0,1,1.62,3.3L302.4,297A2.6,2.6,0,0,1,299.11,298.63Z" />
            <path class="cls-87" d="M309.59,281.91l2.11-6.2a4,4,0,0,0-2.5-5.1h0a4,4,0,0,0-5.11,2.5L302,279.32S303.45,283.75,309.59,281.91Z" />
            <path class="cls-90" d="M320.08,266.55c-2.88,1.68-5.08.4-5.87-.81-2-3.06-2.29-1-3.47-2.46-1.54-2.53-1.19-6-3.33-7.57-3.06-2.29-2.23-6.85,5.77-8.88,10.74-2.74,15,10.79,8.27,18.61A4.22,4.22,0,0,1,320.08,266.55Z" />
            <path class="cls-86" d="M311.74,263.66a1,1,0,0,1-1.91-.51,3.78,3.78,0,0,1,.89-3.3c.77-.77,1.62-.55,1.9.51A3.75,3.75,0,0,1,311.74,263.66Z" />
            <path class="cls-86" d="M265.18,371.47h0a2.3,2.3,0,0,1-3.21-.55l-10.38-14.7a2.3,2.3,0,0,1,.55-3.21h0a2.31,2.31,0,0,1,3.21.55l10.38,14.7A2.3,2.3,0,0,1,265.18,371.47Z" />
            <path class="cls-5" d="M258,355.15l-3.35-4.74a3.57,3.57,0,0,0-5-.86h0a3.58,3.58,0,0,0-.86,5l3.35,4.74S256.14,360.51,258,355.15Z" />
            <path class="cls-89" d="M246.32,374a1.44,1.44,0,0,0,.52.49L259,381.41c1.32.76,3.18,0,4.14-1.65h0c.95-1.66.65-3.65-.67-4.4l-13.95-8a.89.89,0,0,0-1,.12C246.44,368.45,244.35,370.91,246.32,374Z" />
            <path class="cls-89" d="M238.29,378.1a1.5,1.5,0,0,0,.52.48l12.13,6.94c1.32.76,3.18,0,4.14-1.65h0c.95-1.66.65-3.64-.67-4.4l-13.95-8a.89.89,0,0,0-1,.12C238.41,372.56,236.32,375,238.29,378.1Z" />
            <path class="cls-40" d="M257.26,399c-.1,1,2.3,1.63,4.32,2.8,2.81,1.62,5.84,2.5,7.28,1.67a1,1,0,0,0,.55-.79V401c0-.94-1.34-2.36-3.45-4.41-2.32-2.26-3.8-3.68-7.27-1.67-1,.57-1.39,1-1.39,1.36Z" />
            <path class="cls-91" d="M266,396.59c2.81,2.73,4.34,4.35,2.9,5.18s-4.32-.42-7.28-2.65c-2.58-2-6.36-2.2-2.89-4.2S263.64,394.33,266,396.59Z" />
            <path class="cls-89" d="M263.72,394.61a1.56,1.56,0,0,0,.16-.7V377.69c0-1.53-1.57-2.77-3.49-2.77h0c-1.92,0-3.49,1.24-3.49,2.77V396a.87.87,0,0,0,.62.84C258.86,397.26,262,397.84,263.72,394.61Z" />
            <path class="cls-92" d="M239.5,379.51a.56.56,0,0,0,.29.1c1.54.12,7.09-1.09,12.64-7.34a2.94,2.94,0,0,0,.75-1.8V352.73a2.91,2.91,0,0,0-1.25-2.71l-4.17-2.44a2.89,2.89,0,0,0-3,.28l-5.69,3.28a9.27,9.27,0,0,0-4.18,7.24v17.85a.91.91,0,0,0,.4.85Z" />
            <path class="cls-40" d="M248.94,402.65c-.1,1,2.31,1.63,4.33,2.79,2.81,1.62,5.83,2.51,7.27,1.67a.94.94,0,0,0,.55-.79v-1.65c.05-.93-1.33-2.35-3.44-4.41-2.32-2.26-3.8-3.67-7.28-1.67-1,.58-1.39,1-1.39,1.37Z" />
            <path class="cls-91" d="M257.65,400.26c2.8,2.74,4.33,4.35,2.89,5.19s-4.32-.43-7.27-2.66c-2.59-2-6.37-2.19-2.9-4.2S255.33,398,257.65,400.26Z" />
            <path class="cls-89" d="M255.4,398.28a1.42,1.42,0,0,0,.17-.7V381.36c0-1.52-1.57-2.77-3.49-2.77h0c-1.92,0-3.49,1.25-3.49,2.77v18.33a.88.88,0,0,0,.62.84C250.55,400.93,253.72,401.51,255.4,398.28Z" />
            <path class="cls-42" d="M240.13,352.24a1.43,1.43,0,0,0,.86,1.22,4.56,4.56,0,0,0,4.16,0,1.45,1.45,0,0,0,.86-1.22v-3.86a1.43,1.43,0,0,0-.86-1.22,4.56,4.56,0,0,0-4.16,0,1.41,1.41,0,0,0-.86,1.22Z" />
            <circle class="cls-86" cx="243.07" cy="342.21" r="8.1" />
            <path class="cls-93" d="M238.72,348.56a6.55,6.55,0,0,0,1.67-2.7.68.68,0,0,0,0-.2v-3.88a4.1,4.1,0,0,1,.6-2.19,1.77,1.77,0,0,1,1.58-1s6.5,2.84,8.93-2.46a.71.71,0,0,0-.46-1c-.47-.11-1.08-.51-1.76-1.62a.72.72,0,0,0-.77-.33,2.86,2.86,0,0,1-2.92-1.07.64.64,0,0,0-.53-.23c-1.24,0-5.52.23-7.85,1.91l0,0c-.5.41-8.54,7.27.58,14.77A.72.72,0,0,0,238.72,348.56Z" />
            <path class="cls-86" d="M240.36,346.76c0,1-.68,1.36-1.51.87a3.33,3.33,0,0,1-1.52-2.62c0-1,.68-1.36,1.52-.88A3.38,3.38,0,0,1,240.36,346.76Z" />
            <polygon class="cls-94" points="263.35 374.45 248.91 382.76 237.83 376.72 252.61 368.27 263.35 374.45" />
            <polygon class="cls-95" points="263.35 374.45 265.62 359.97 249.59 369.22 248.91 382.76 263.35 374.45" />
            <path class="cls-86" d="M250.71,376.92h0a2.3,2.3,0,0,1-3.21-.54l-10.45-14.66a2.31,2.31,0,0,1,.54-3.21h0a2.32,2.32,0,0,1,3.22.54l10.44,14.66A2.3,2.3,0,0,1,250.71,376.92Z" />
            <path class="cls-5" d="M243.05,361.27l-2.91-5a3.58,3.58,0,0,0-4.88-1.29h0a3.57,3.57,0,0,0-1.29,4.87l2.91,5S240.7,366.44,243.05,361.27Z" />
            <path class="cls-39" d="M456.94,326.1h0a2.45,2.45,0,0,0,2.83-2l1.78-9.93a2.45,2.45,0,0,0-2-2.83h0a2.45,2.45,0,0,0-2.83,2L455,323.27A2.45,2.45,0,0,0,456.94,326.1Z" />
            <path class="cls-96" d="M454.91,316.05l1.08-6a3.78,3.78,0,0,1,4.38-3.05h0a3.77,3.77,0,0,1,3,4.37l-1.08,6.05S459.11,320.35,454.91,316.05Z" />
            <path class="cls-39" d="M446,327h0a2.45,2.45,0,0,0,3.06,1.6l8.41-2.46a2.44,2.44,0,0,0,2.28-2.58h0a2.45,2.45,0,0,0-2.59-2.28l-9.56,2.67A2.44,2.44,0,0,0,446,327Z" />
            <path class="cls-40" d="M472.24,365.68c.11,1.06-2.44,1.72-4.58,2.95-3,1.72-6.17,2.65-7.69,1.77a1,1,0,0,1-.58-.83v-1.75c-.06-1,1.41-2.49,3.64-4.66,2.46-2.4,4-3.89,7.7-1.77,1,.6,1.47,1.06,1.47,1.45Z" />
            <path class="cls-91" d="M463,363.16c-3,2.89-4.58,4.6-3.06,5.48s4.57-.45,7.69-2.81c2.74-2.07,6.74-2.32,3.07-4.44S465.49,360.76,463,363.16Z" />
            <path class="cls-97" d="M465.41,361.06a1.58,1.58,0,0,1-.17-.74V334.85c0-1.61,1.66-2.93,3.69-2.93h0c2,0,3.69,1.32,3.69,2.93v27.7a.93.93,0,0,1-.66.89C470.55,363.86,467.19,364.48,465.41,361.06Z" />
            <path class="cls-40" d="M464.25,359.79c.11,1.06-2.44,1.72-4.58,2.95-3,1.72-6.17,2.65-7.69,1.77a1,1,0,0,1-.58-.84v-1.74c0-1,1.41-2.49,3.64-4.66,2.46-2.4,4-3.89,7.7-1.77,1.05.6,1.47,1.06,1.47,1.44Z" />
            <path class="cls-91" d="M455,357.27c-3,2.89-4.58,4.6-3.06,5.48s4.57-.45,7.69-2.81c2.74-2.07,6.74-2.32,3.07-4.44S457.5,354.87,455,357.27Z" />
            <path class="cls-98" d="M457.42,355.17a1.58,1.58,0,0,1-.17-.74V329c0-1.61,1.66-2.93,3.69-2.93h0c2,0,3.69,1.32,3.69,2.93v27.7a.94.94,0,0,1-.66.89C462.56,358,459.2,358.59,457.42,355.17Z" />
            <path class="cls-99" d="M471.4,339.43a.63.63,0,0,1-.31.1c-1.63.13-7.5-1.15-13.37-7.77a3.08,3.08,0,0,1-.8-1.9V311.09a3.08,3.08,0,0,1,1.32-2.86l4.42-2.58a3.07,3.07,0,0,1,3.14.29l6,3.47a9.82,9.82,0,0,1,4.42,7.66V336a1,1,0,0,1-.43.9Z" />
            <path class="cls-100" d="M469.69,310.58a1.52,1.52,0,0,1-.91,1.29,4.87,4.87,0,0,1-4.4,0,1.52,1.52,0,0,1-.91-1.29v-4.09a1.51,1.51,0,0,1,.91-1.29,4.87,4.87,0,0,1,4.4,0,1.51,1.51,0,0,1,.91,1.29Z" />
            <circle class="cls-86" cx="466.58" cy="299.97" r="8.57" />
            <path class="cls-101" d="M473.73,289.83c7.32,2.52,3.68,13.21-1.64,17.07-2.61-1.42.56-4-3-2.2-.71-3.44.88-2.39-.08-6.72-3.73,1.94-11-.42-12.1-4,1.3-.57,2.65-4.26,5.69-5.61C466.51,286.62,471.51,287.39,473.73,289.83Z" />
            <path class="cls-86" d="M469.44,304.78c0,1,.72,1.44,1.61.92a3.54,3.54,0,0,0,1.6-2.77c0-1-.72-1.44-1.6-.93A3.55,3.55,0,0,0,469.44,304.78Z" />
            <polygon class="cls-102" points="472.61 326.98 459.19 334.72 445.77 326.98 445.77 321.08 459.19 313.33 472.61 321.08 472.61 326.98" />
            <polygon class="cls-103" points="459.19 313.33 472.61 321.08 459.19 328.67 445.77 321.08 459.19 313.33" />
            <path class="cls-39" d="M472.2,332.06h0A2.44,2.44,0,0,0,475,330l1.42-10a2.44,2.44,0,0,0-2.06-2.76h0a2.44,2.44,0,0,0-2.76,2.07l-1.43,10A2.44,2.44,0,0,0,472.2,332.06Z" />
            <path class="cls-96" d="M469.81,322.09l.87-6.08a3.8,3.8,0,0,1,4.27-3.2h0a3.8,3.8,0,0,1,3.2,4.27l-.87,6.08S474.16,326.24,469.81,322.09Z" />
            <path class="cls-39" d="M458.7,334.31h0a2.44,2.44,0,0,0,3.11,1.49l11-3.75a2.46,2.46,0,0,0,2.18-2.67h0a2.44,2.44,0,0,0-2.67-2.18l-12.1,4A2.44,2.44,0,0,0,458.7,334.31Z" />
        </g>
    </g>
</svg>