<?xml version="1.0" encoding="utf-8"?>
<!-- Generator: Adobe Illustrator 23.0.0, SVG Export Plug-In . SVG Version: 6.00 Build 0)  -->
<svg version="1.1" id="Layer_1" xmlns="http://www.w3.org/2000/svg" xmlns:xlink="http://www.w3.org/1999/xlink" x="0px" y="0px"
	 viewBox="0 0 500 519.4" style="enable-background:new 0 0 500 519.4;" xml:space="preserve">
<style type="text/css">
	.st0{fill:#FFFFFF;}
	.st1{opacity:0.15;}
	.st2{fill:#BDCEFA;}
	.st3{fill:url(#SVGID_1_);}
	.st4{fill:url(#SVGID_2_);}
	.st5{fill:url(#SVGID_3_);}
	.st6{fill:url(#SVGID_4_);}
	.st7{fill:#E8F2FE;}
	.st8{fill:url(#SVGID_5_);}
	.st9{fill:#DDDDDD;}
	.st10{fill:url(#SVGID_6_);}
	.st11{fill:#0084E9;}
	.st12{fill:#52A3F6;}
	.st13{fill:url(#SVGID_7_);}
	.st14{fill:url(#SVGID_8_);}
	.st15{fill:url(#SVGID_9_);}
	.st16{fill:url(#SVGID_10_);}
	.st17{fill:url(#SVGID_11_);}
	.st18{fill:url(#SVGID_12_);}
	.st19{fill:url(#SVGID_13_);}
	.st20{fill:#C9C9C9;}
	.st21{fill:url(#SVGID_14_);}
	.st22{fill:url(#SVGID_15_);}
	.st23{fill:url(#SVGID_16_);}
	.st24{fill:#9CE3F0;}
	.st25{fill:#39C2D1;}
	.st26{fill:#20A8AF;}
	.st27{fill:#FF9100;}
	.st28{fill:#D87600;}
	.st29{fill:#BC6200;}
	.st30{fill:#FFEC00;}
	.st31{fill:#D6C100;}
	.st32{fill:#938100;}
	.st33{fill:url(#SVGID_17_);}
	.st34{fill:#76B5CE;}
	.st35{fill:url(#SVGID_18_);}
	.st36{fill:#F9AB83;}
	.st37{fill:#010400;}
	.st38{fill:#484968;}
	.st39{fill:#F1AC85;}
	.st40{fill:#E28C66;}
	.st41{fill:#54A5F8;}
	.st42{fill:#DD936F;}
	.st43{fill:#3F4893;}
	.st44{fill:url(#SVGID_19_);}
	.st45{fill:url(#SVGID_20_);}
	.st46{fill:url(#SVGID_21_);}
	.st47{fill:url(#SVGID_22_);}
	.st48{fill:#B8D0F6;}
	.st49{fill:#99B6E0;}
	.st50{fill:#E4F2FF;}
	.st51{clip-path:url(#SVGID_24_);}
	.st52{fill:url(#SVGID_25_);}
	.st53{fill:url(#SVGID_26_);}
	.st54{fill:url(#SVGID_27_);}
	.st55{fill:url(#SVGID_28_);}
	.st56{fill:url(#SVGID_29_);}
	.st57{fill:url(#SVGID_30_);}
	.st58{fill:url(#SVGID_31_);}
	.st59{fill:url(#SVGID_32_);}
	.st60{fill:url(#SVGID_33_);}
	.st61{fill:url(#SVGID_34_);}
	.st62{fill:url(#SVGID_35_);}
	.st63{fill:url(#SVGID_36_);}
	.st64{fill:url(#SVGID_37_);}
	.st65{fill:url(#SVGID_38_);}
	.st66{fill:url(#SVGID_39_);}
	.st67{fill:url(#SVGID_40_);}
	.st68{fill:url(#SVGID_41_);}
	.st69{fill:url(#SVGID_42_);}
	.st70{fill:url(#SVGID_43_);}
	.st71{fill:url(#SVGID_44_);}
	.st72{fill:url(#SVGID_45_);}
	.st73{fill:url(#SVGID_46_);}
	.st74{fill:url(#SVGID_47_);}
	.st75{fill:#2D0D60;}
	.st76{fill:url(#SVGID_48_);}
	.st77{fill:#A29AFB;}
	.st78{fill:#FFFFEB;}
	.st79{fill:#943BBB;}
	.st80{fill:#FCC4B7;}
	.st81{fill:#293677;}
	.st82{fill:#55D1FF;}
	.st83{fill:#5258A6;}
	.st84{fill-rule:evenodd;clip-rule:evenodd;fill:#E58800;}
	.st85{fill:#1C1C38;}
	.st86{fill:#FCFDFF;}
	.st87{fill:#0382FF;}
	.st88{fill:#BBBEB5;}
	.st89{fill:#EAEEF1;}
	.st90{fill:#D13985;}
	.st91{fill:#46466C;}
	.st92{fill:#2D2D4F;}
	.st93{fill:#ED549C;}
	.st94{fill:#E5A89C;}
	.st95{fill-rule:evenodd;clip-rule:evenodd;fill:#52A3F6;}
	.st96{fill-rule:evenodd;clip-rule:evenodd;fill:#BBBEB5;}
	.st97{fill-rule:evenodd;clip-rule:evenodd;fill:#EAEEF1;}
	.st98{fill:#007DC9;}
</style>
<title>emisha-bg</title>

<g>
	<g>
		<rect y="-3.2" class="st0" width="500" height="500"/>
	</g>
	<g class="st1">
		<path class="st2" d="M449.8,413.1l-66.5,37.2c-3,1.7-8.1,1.5-11.5-0.5l-22.1-13.2c-3.4-2-3.8-5-0.8-6.7l66.2-38
			c3-1.7,8.1-1.5,11.5,0.5l22.4,14C452.4,408.4,452.8,411.4,449.8,413.1z"/>
		<path class="st2" d="M422.2,380.6l-66.5,37.2c-3,1.7-8.1,1.5-11.5-0.5L322,404.1c-3.4-2-3.8-5-0.8-6.7l66.2-38
			c3-1.7,8.1-1.5,11.5,0.5l22.4,13.9C424.7,375.9,425.1,378.9,422.2,380.6z"/>
		<path class="st2" d="M438.1,325.6L237.5,437.5c-8.9,5.1-24.6,4.5-34.8-1.4L85.8,368.6c-10.3-5.9-11.4-15-2.5-20.1l200.6-111.9
			c8.9-5.1,24.5-4.5,34.8,1.4l116.9,67.5C445.8,311.5,447,320.5,438.1,325.6z"/>
	</g>
	
		<linearGradient id="SVGID_1_" gradientUnits="userSpaceOnUse" x1="108.6864" y1="450.1817" x2="61.7464" y2="349.9417" gradientTransform="matrix(1 0 0 -1 0 522)">
		<stop  offset="0" style="stop-color:#E4F2FF"/>
		<stop  offset="0.2" style="stop-color:#DCEAFE;stop-opacity:0.78"/>
		<stop  offset="0.6" style="stop-color:#CBDBFC;stop-opacity:0.37"/>
		<stop  offset="0.87" style="stop-color:#C1D2FB;stop-opacity:0.1"/>
		<stop  offset="1" style="stop-color:#BDCEFA;stop-opacity:0"/>
	</linearGradient>
	<path class="st3" d="M51.1,175.3c-1.3,0-2.3-1-2.4-2.3v-50.2c0-0.8,0.5-1.6,1.2-2L110.2,86c0.4-0.2,0.8-0.3,1.2-0.3
		c1.3,0,2.3,1,2.4,2.3v50.1c0,0.8-0.5,1.6-1.2,2L52.3,175C51.9,175.2,51.5,175.3,51.1,175.3z"/>
	
		<linearGradient id="SVGID_2_" gradientUnits="userSpaceOnUse" x1="140.5792" y1="450.9698" x2="176.2393" y2="306.1698" gradientTransform="matrix(1 0 0 -1 0 522)">
		<stop  offset="0" style="stop-color:#E4F2FF"/>
		<stop  offset="0.2" style="stop-color:#DCEAFE;stop-opacity:0.78"/>
		<stop  offset="0.6" style="stop-color:#CBDBFC;stop-opacity:0.37"/>
		<stop  offset="0.87" style="stop-color:#C1D2FB;stop-opacity:0.1"/>
		<stop  offset="1" style="stop-color:#BDCEFA;stop-opacity:0"/>
	</linearGradient>
	<path class="st4" d="M96.1,248.1c-2.8,0-5.1-2.3-5.1-5.1V135.8c0-1.8,1-3.5,2.5-4.4L222.5,57c0.8-0.4,1.6-0.7,2.5-0.7
		c2.8,0,5.1,2.3,5.1,5.1v107.2c0,1.8-1,3.5-2.5,4.4L98.6,247.4C97.9,247.9,97,248.1,96.1,248.1z"/>
	
		<linearGradient id="SVGID_3_" gradientUnits="userSpaceOnUse" x1="225.594" y1="521.8107" x2="224.004" y2="439.8707" gradientTransform="matrix(1 0 0 -1 0 522)">
		<stop  offset="0" style="stop-color:#E4F2FF"/>
		<stop  offset="0.2" style="stop-color:#DCEAFE;stop-opacity:0.78"/>
		<stop  offset="0.6" style="stop-color:#CBDBFC;stop-opacity:0.37"/>
		<stop  offset="0.87" style="stop-color:#C1D2FB;stop-opacity:0.1"/>
		<stop  offset="1" style="stop-color:#BDCEFA;stop-opacity:0"/>
	</linearGradient>
	<path class="st5" d="M197.7,104.8c-1.2,0-2.1-0.9-2.1-2.1c0,0,0,0,0,0V58.3c0-0.7,0.4-1.4,1.1-1.8L250,25.6c0.3-0.2,0.6-0.3,1-0.3
		c1.2,0,2.1,0.9,2.1,2.1c0,0,0,0,0,0v44.4c0,0.8-0.4,1.4-1.1,1.8l-53.4,30.8C198.3,104.7,198,104.8,197.7,104.8z"/>
	
		<linearGradient id="SVGID_4_" gradientUnits="userSpaceOnUse" x1="109.6713" y1="353.7766" x2="95.3513" y2="247.9666" gradientTransform="matrix(1 0 0 -1 0 522)">
		<stop  offset="0" style="stop-color:#E4F2FF"/>
		<stop  offset="0.2" style="stop-color:#DCEAFE;stop-opacity:0.78"/>
		<stop  offset="0.6" style="stop-color:#CBDBFC;stop-opacity:0.37"/>
		<stop  offset="0.87" style="stop-color:#C1D2FB;stop-opacity:0.1"/>
		<stop  offset="1" style="stop-color:#BDCEFA;stop-opacity:0"/>
	</linearGradient>
	<path class="st6" d="M73.1,281.4c-1.2,0-2.1-0.9-2.1-2.1v-44.4c0-0.7,0.4-1.4,1-1.8l53.4-30.8c0.3-0.2,0.6-0.3,1-0.3
		c1.2,0,2.1,0.9,2.1,2.1v44.4c0,0.8-0.4,1.4-1.1,1.8l-53.3,30.8C73.8,281.3,73.4,281.4,73.1,281.4z"/>
	<ellipse transform="matrix(0.5158 -0.8567 0.8567 0.5158 8.1253 241.9057)" class="st2" cx="218.1" cy="113.8" rx="4.8" ry="2.8"/>
	<path class="st2" d="M233.5,104.8c-0.1,2.4-1.4,4.5-3.4,5.8c-1.9,1.1-3.4,0.3-3.4-1.9c0.1-2.4,1.4-4.6,3.4-5.8
		C232,101.8,233.5,102.7,233.5,104.8z"/>
	<path class="st2" d="M245.6,97.9c-0.1,2.4-1.4,4.6-3.4,5.8c-1.9,1.1-3.4,0.3-3.4-1.9c0.1-2.4,1.4-4.5,3.4-5.8
		C244,94.9,245.6,95.7,245.6,97.9z"/>
	<path class="st2" d="M133.7,169.4c-2.2,2.5-4.8,4.6-7.7,6.2c-7,4.1-13.2,1.8-13.2-7.8c0-10,6.3-22.2,15.8-27.8
		c7.4-4.3,12.8-1.5,12.8,6.7c0,7.1-3.5,13.6-8,16.3c-2,1.1-3.4,0.8-3.6-1.7h-0.1c-1,2.8-2.9,5.3-5.5,6.9c-2.8,1.6-4.7,0.4-4.7-3.6
		c0-6,3.8-13.6,9.9-17.1c1.5-1,3.2-1.5,5-1.7l-1.3,9.8c-0.4,3.1-0.1,4.3,1.1,3.6c1.8-1,4.1-5,4.1-10.6c0-6.4-3.6-9.2-10.1-5.4
		S116,156.2,116,165.5c0,8.2,4.5,10.2,10.8,6.6c2.3-1.3,4.4-3.1,6.2-5.1L133.7,169.4z M129.9,151.4c-0.5,0.1-0.9,0.3-1.3,0.6
		c-2.8,1.6-5,6.1-5,9.8c0,1.9,0.7,2.6,2.1,1.8c1.6-0.9,3.2-4.1,3.6-7.2L129.9,151.4z"/>
	<path class="st2" d="M152,107.8l14.8,4.1c0.4,0.1,1.2-0.3,1.6-0.9l14.8-21.1L152,107.8z"/>
	<path class="st2" d="M162.5,112.2l-10.3,17c-0.2-0.3-0.3-0.6-0.3-0.9v-19L162.5,112.2z"/>
	<path class="st2" d="M171.8,107.7l10.4,5.2c-0.3,0.3-0.6,0.6-1,0.8l-27,15.6c-0.3,0.2-0.6,0.3-0.9,0.3l10.3-17.1l4.1,1.1
		L171.8,107.7z"/>
	<path class="st2" d="M183.3,91.2v19c0,0.4-0.1,0.8-0.3,1.2l-10.2-5.2L183.3,91.2z"/>
	<path class="st2" d="M286.8,116.8c-0.1,0-0.3-0.1-0.3-0.3V43.1l-100,57.8c-0.1,0.1-0.3,0.1-0.3-0.1s-0.1-0.3,0.1-0.3c0,0,0,0,0,0
		l100.8-58.3v74.4C287.1,116.7,287,116.8,286.8,116.8z"/>
	<path class="st2" d="M293.5,117.1c-0.3,0-0.5-0.2-0.5-0.5c0,0,0,0,0,0l0,0c0-0.3,0.2-0.5,0.5-0.5s0.5,0.2,0.5,0.5
		C294,116.9,293.8,117.1,293.5,117.1z"/>
	<path class="st2" d="M293.5,113.3c-0.3,0-0.5-0.2-0.5-0.4c0,0,0,0,0,0v-0.1c0-0.3,0.2-0.5,0.5-0.5s0.5,0.2,0.5,0.5
		C294,113,293.8,113.2,293.5,113.3z M293.5,109.4c-0.3,0-0.5-0.2-0.5-0.4c0,0,0,0,0,0v-0.1c0-0.3,0.2-0.5,0.5-0.5s0.5,0.2,0.5,0.5
		C294,109.1,293.8,109.4,293.5,109.4z M293.5,105.5c-0.3,0-0.5-0.2-0.5-0.4c0,0,0,0,0,0V105c0-0.3,0.2-0.5,0.5-0.5
		c0.3,0,0.5,0.2,0.5,0.5C294,105.3,293.8,105.5,293.5,105.5z M293.5,101.6c-0.3,0-0.5-0.2-0.5-0.4c0,0,0,0,0,0v-0.1
		c0-0.3,0.2-0.5,0.5-0.5s0.5,0.2,0.5,0.5C294,101.4,293.8,101.6,293.5,101.6z M293.5,97.8c-0.3,0-0.5-0.2-0.5-0.4c0,0,0,0,0,0v-0.1
		c0-0.3,0.2-0.5,0.5-0.5c0.3,0,0.5,0.2,0.5,0.5C294,97.5,293.8,97.7,293.5,97.8z M293.5,93.9c-0.3,0-0.5-0.2-0.5-0.4c0,0,0,0,0,0
		v-0.1c0-0.3,0.2-0.5,0.5-0.5s0.5,0.2,0.5,0.5C294,93.6,293.8,93.9,293.5,93.9z M293.5,90c-0.3,0-0.5-0.2-0.5-0.4c0,0,0,0,0,0v-0.1
		c0-0.3,0.2-0.5,0.5-0.5c0.3,0,0.5,0.2,0.5,0.5C294,89.7,293.8,90,293.5,90L293.5,90z"/>
	<path class="st2" d="M293.5,86.2c-0.2,0-0.3-0.1-0.4-0.2c0,0,0,0,0-0.1c-0.1-0.2-0.1-0.5,0.2-0.7c0,0,0,0,0,0
		c0.2-0.1,0.4-0.1,0.5,0c0.2,0.1,0.3,0.2,0.3,0.4C294.1,85.9,293.8,86.2,293.5,86.2C293.5,86.2,293.5,86.2,293.5,86.2z"/>
	<path class="st2" d="M150.4,166c-0.2,0-0.4-0.1-0.4-0.3c-0.1-0.2,0-0.5,0.2-0.7h0.1c0.2-0.1,0.5,0,0.7,0.2c0.1,0.2,0,0.5-0.2,0.6
		l-0.1,0.1C150.6,166,150.5,166,150.4,166z M154,164c-0.2,0-0.3-0.1-0.4-0.3c-0.1-0.2-0.1-0.5,0.2-0.7c0,0,0,0,0,0h0.1
		c0.2-0.1,0.5,0,0.7,0.2c0.1,0.2,0,0.5-0.2,0.6l-0.1,0.1C154.2,164,154.1,164,154,164L154,164z M157.6,162c-0.2,0-0.4-0.1-0.4-0.3
		c-0.1-0.2,0-0.5,0.2-0.7c0.3-0.1,0.6-0.1,0.7,0.2c0.1,0.2,0.1,0.5-0.1,0.7c0,0,0,0,0,0h-0.1C157.8,161.9,157.7,162,157.6,162z
		 M161.2,160c-0.2,0-0.3-0.1-0.4-0.3c-0.1-0.2-0.1-0.5,0.2-0.7c0,0,0,0,0,0l0.1-0.1c0.2-0.1,0.5,0,0.7,0.2c0.1,0.2,0,0.5-0.2,0.7
		h-0.1C161.3,159.9,161.3,160,161.2,160L161.2,160z M164.8,158c-0.2,0-0.3-0.1-0.4-0.3c-0.1-0.2,0-0.5,0.2-0.7l0.1-0.1
		c0.2-0.1,0.5,0,0.7,0.2c0.1,0.2,0.1,0.5-0.2,0.7c0,0,0,0,0,0H165C164.9,157.9,164.8,158,164.8,158L164.8,158z M168.3,156
		c-0.2,0-0.3-0.1-0.4-0.3c-0.1-0.2,0-0.5,0.2-0.7c0.3-0.1,0.6-0.1,0.7,0.2c0.1,0.2,0.1,0.5-0.1,0.7c0,0,0,0,0,0l-0.1,0.1
		C168.5,156,168.4,156,168.3,156L168.3,156z M171.9,154c-0.3,0-0.5-0.2-0.5-0.5c0-0.2,0.1-0.3,0.2-0.4c0.2-0.1,0.6-0.1,0.7,0.2
		c0.1,0.2,0.1,0.5-0.1,0.6c0,0,0,0,0,0l-0.1,0.1C172.1,154,172,154,171.9,154L171.9,154z M175.5,152c-0.2,0-0.4-0.1-0.4-0.3
		c-0.1-0.2,0-0.5,0.2-0.7l0.1-0.1c0.2-0.1,0.5,0,0.7,0.2c0.1,0.2,0,0.5-0.2,0.7l0,0l-0.1,0.1C175.6,152,175.6,152,175.5,152
		L175.5,152z M179.1,150c-0.3,0-0.5-0.2-0.5-0.5c0-0.2,0.1-0.3,0.2-0.4h0.1c0.2-0.2,0.5-0.1,0.7,0.1c0.2,0.2,0.1,0.5-0.1,0.7
		c0,0-0.1,0-0.1,0.1l-0.1,0.1C179.2,150,179.1,150,179.1,150L179.1,150z M182.6,148c-0.2,0-0.4-0.1-0.4-0.3c-0.1-0.2,0-0.5,0.2-0.7
		c0,0,0,0,0,0c0.2-0.1,0.6-0.1,0.7,0.2c0.1,0.2,0.1,0.5-0.1,0.7c0,0,0,0,0,0h-0.1C182.8,148,182.7,148,182.6,148L182.6,148z
		 M186.2,146c-0.2,0-0.3-0.1-0.4-0.3c-0.1-0.2,0-0.5,0.2-0.7c0.3-0.1,0.6-0.1,0.7,0.2c0.1,0.2,0.1,0.5-0.1,0.6c0,0,0,0,0,0h-0.1
		C186.4,145.9,186.3,146,186.2,146L186.2,146z M189.8,144c-0.3,0-0.5-0.2-0.5-0.5c0-0.2,0.1-0.4,0.3-0.5c0.2-0.1,0.6-0.1,0.7,0.2
		c0.1,0.2,0.1,0.5-0.1,0.6c0,0,0,0,0,0H190C190,143.9,189.9,144,189.8,144L189.8,144z M193.4,142c-0.2,0-0.4-0.1-0.4-0.3
		c-0.1-0.2,0-0.5,0.2-0.7c0.3-0.1,0.6-0.1,0.7,0.2c0.1,0.2,0.1,0.5-0.1,0.7c0,0,0,0,0,0l-0.1,0.1C193.5,142,193.4,142,193.4,142
		L193.4,142z M196.9,140c-0.2,0-0.3-0.1-0.4-0.3c-0.1-0.2,0-0.5,0.2-0.7c0,0,0,0,0,0c0.2-0.1,0.6-0.1,0.7,0.2
		c0.1,0.2,0.1,0.5-0.1,0.6c0,0,0,0,0,0l-0.1,0.1C197.1,140,197,140,196.9,140L196.9,140z M200.5,138c-0.2,0-0.4-0.1-0.4-0.3
		c-0.1-0.2-0.1-0.5,0.2-0.7c0,0,0,0,0,0c0.3-0.1,0.6-0.1,0.7,0.2c0.1,0.2,0.1,0.5-0.1,0.7c0,0,0,0,0,0h-0.1
		C200.7,138,200.6,138,200.5,138L200.5,138z M204.1,136c-0.2,0-0.3-0.1-0.4-0.3c-0.1-0.2,0-0.5,0.2-0.7l0.1-0.1
		c0.2-0.1,0.5,0,0.7,0.2c0.1,0.2,0,0.5-0.2,0.7l-0.1,0.1C204.3,136,204.2,136,204.1,136L204.1,136z M207.7,134
		c-0.3,0-0.5-0.2-0.5-0.5c0-0.2,0.1-0.3,0.2-0.4c0.2-0.1,0.6-0.1,0.7,0.2c0.1,0.2,0.1,0.5-0.1,0.7c0,0,0,0,0,0l-0.1,0.1
		C207.8,134,207.7,134,207.7,134L207.7,134z M211.2,132c-0.2,0-0.3-0.1-0.4-0.3c-0.1-0.2,0-0.5,0.2-0.7h0.1c0.2-0.1,0.5,0,0.7,0.2
		c0,0,0,0,0,0c0.1,0.2,0,0.5-0.2,0.7h-0.1C211.4,132,211.3,132.1,211.2,132L211.2,132z M214.8,130c-0.3,0-0.5-0.2-0.5-0.5
		c0-0.2,0.1-0.3,0.2-0.4h0.1c0.2-0.1,0.5,0,0.7,0.2c0.1,0.2,0,0.5-0.2,0.6h-0.1C215,130,214.9,130,214.8,130L214.8,130z M218.4,128
		c-0.2,0-0.3-0.1-0.4-0.3c-0.1-0.2,0-0.5,0.2-0.7c0.2-0.1,0.6-0.1,0.7,0.2c0.1,0.2,0.1,0.5-0.1,0.6c0,0,0,0,0,0h-0.1
		C218.6,128,218.5,128,218.4,128L218.4,128z M222,126c-0.2,0-0.4-0.1-0.4-0.3c-0.1-0.2,0-0.5,0.2-0.7c0.3-0.1,0.6-0.1,0.7,0.2
		c0.1,0.2,0.1,0.5-0.1,0.7c0,0,0,0,0,0h-0.1C222.2,126,222.1,126,222,126L222,126z M225.5,124c-0.2,0-0.3-0.1-0.4-0.3
		c-0.1-0.2-0.1-0.5,0.2-0.7c0,0,0,0,0,0l0.1-0.1c0.2-0.1,0.5,0,0.7,0.2c0.1,0.2,0,0.5-0.2,0.7h-0.1C225.7,124,225.6,124,225.5,124
		L225.5,124z M229.1,122c-0.3,0-0.5-0.2-0.5-0.5c0-0.2,0.1-0.4,0.3-0.4l0.1-0.1c0.2-0.1,0.5,0,0.7,0.2c0.1,0.2,0,0.5-0.2,0.7h-0.1
		C229.3,122,229.2,122.1,229.1,122L229.1,122z M232.7,120c-0.3,0-0.5-0.2-0.5-0.5c0-0.2,0.1-0.3,0.2-0.4c0.2-0.1,0.6-0.1,0.7,0.2
		c0.1,0.2,0.1,0.5-0.1,0.7c0,0,0,0,0,0h-0.1C232.9,120,232.8,120,232.7,120L232.7,120z M236.3,118c-0.2,0-0.3-0.1-0.4-0.3
		c-0.1-0.2-0.1-0.5,0.2-0.7c0,0,0,0,0,0c0.2-0.1,0.6-0.1,0.7,0.2c0.1,0.2,0.1,0.5-0.1,0.6c0,0,0,0,0,0h-0.1
		C236.5,118,236.4,118.1,236.3,118L236.3,118z M239.8,116c-0.2,0-0.4-0.1-0.4-0.3c-0.1-0.2,0-0.5,0.2-0.7h0.1c0.2-0.1,0.5,0,0.7,0.2
		c0.1,0.2,0,0.5-0.2,0.7l-0.1,0.1C240,116,239.9,116.1,239.8,116L239.8,116z M243.4,114c-0.3,0-0.5-0.2-0.5-0.5
		c0-0.2,0.1-0.3,0.2-0.4h0.1c0.2-0.2,0.5-0.1,0.7,0.1s0.1,0.5-0.1,0.7c0,0-0.1,0-0.1,0.1l-0.1,0.1C243.6,114,243.5,114.1,243.4,114
		L243.4,114z M247,112c-0.2,0-0.4-0.1-0.4-0.3c-0.1-0.2,0-0.5,0.2-0.7c0.3-0.1,0.6-0.1,0.7,0.2c0.1,0.2,0.1,0.5-0.1,0.6c0,0,0,0,0,0
		l-0.1,0.1c-0.1,0.1-0.1,0.1-0.2,0.2L247,112z M250.6,110c-0.3,0-0.5-0.2-0.5-0.5c0-0.2,0.1-0.3,0.2-0.4c0.2-0.1,0.6-0.1,0.7,0.2
		c0.1,0.2,0.1,0.5-0.1,0.6c0,0,0,0,0,0h-0.1c-0.1,0.1-0.1,0.2-0.3,0.2L250.6,110z M254.1,108c-0.3,0-0.5-0.2-0.5-0.5
		c0-0.2,0.1-0.4,0.3-0.4c0.2-0.1,0.6-0.1,0.7,0.2c0.1,0.2,0.1,0.5-0.1,0.6c0,0,0,0,0,0h-0.1c-0.1,0.1-0.1,0.2-0.2,0.2L254.1,108z
		 M257.7,106c-0.2,0-0.3-0.1-0.4-0.3c-0.1-0.2-0.1-0.5,0.2-0.7c0,0,0,0,0,0l0.1-0.1c0.2-0.1,0.5,0,0.7,0.2c0.1,0.2,0,0.5-0.2,0.7
		c0,0,0,0,0,0H258c-0.1,0.1-0.1,0.2-0.3,0.2L257.7,106z M261.3,104c-0.2,0-0.3-0.1-0.4-0.3c-0.1-0.2,0-0.5,0.2-0.7c0,0,0,0,0,0
		c0.2-0.1,0.6-0.1,0.7,0.2c0.1,0.2,0.1,0.5-0.1,0.6c0,0,0,0,0,0h-0.1c-0.1,0.1-0.1,0.2-0.2,0.2L261.3,104z M264.9,102
		c-0.2,0-0.4-0.1-0.4-0.3c-0.1-0.2-0.1-0.5,0.2-0.7c0,0,0,0,0,0c0.3-0.1,0.6-0.1,0.7,0.2c0.1,0.2,0.1,0.5-0.1,0.7c0,0,0,0,0,0h-0.1
		c0,0.1-0.1,0.2-0.2,0.2L264.9,102z M268.4,100c-0.2,0-0.3-0.1-0.4-0.3c-0.1-0.2,0-0.5,0.2-0.7c0.2-0.1,0.6-0.1,0.7,0.2
		c0.1,0.2,0.1,0.5-0.1,0.6c0,0,0,0,0,0h-0.1c-0.1,0.1-0.1,0.2-0.3,0.2L268.4,100z M272,98c-0.3,0-0.5-0.2-0.5-0.5
		c0-0.2,0.1-0.3,0.2-0.4c0.3-0.1,0.6-0.1,0.7,0.2c0.1,0.2,0.1,0.5-0.1,0.6c0,0,0,0,0,0h-0.1c-0.1,0.1-0.1,0.2-0.3,0.2L272,98z
		 M275.6,96c-0.2,0-0.3-0.1-0.4-0.3c-0.1-0.2,0-0.5,0.2-0.7h0.1c0.2-0.1,0.5,0,0.7,0.2c0.1,0.2,0,0.5-0.2,0.7h-0.1
		c-0.1,0.1-0.1,0.2-0.3,0.2L275.6,96z M279.2,94c-0.2,0-0.3-0.1-0.4-0.3c-0.1-0.2,0-0.5,0.2-0.7c0.2-0.1,0.6-0.1,0.7,0.2
		c0.1,0.2,0.1,0.5-0.1,0.7c0,0,0,0,0,0h-0.1c0,0.1-0.1,0.2-0.2,0.2L279.2,94z M282.7,92c-0.2,0-0.3-0.1-0.4-0.3
		c-0.1-0.2,0-0.5,0.2-0.7c0.2-0.1,0.6-0.1,0.7,0.2c0.1,0.2,0.1,0.5-0.1,0.6c0,0,0,0,0,0H283c0,0.1-0.1,0.2-0.3,0.3L282.7,92z
		 M286.3,90c-0.2,0-0.4-0.1-0.4-0.3c-0.1-0.2,0-0.5,0.2-0.7c0,0,0,0,0,0h0.1c0.2-0.1,0.5,0,0.7,0.2c0.1,0.2,0,0.5-0.2,0.7h-0.1
		c-0.1,0.1-0.1,0.2-0.2,0.2L286.3,90z M289.9,88c-0.2,0-0.3-0.1-0.4-0.3c-0.1-0.2-0.1-0.5,0.2-0.7c0,0,0,0,0,0
		c0.2-0.1,0.6-0.1,0.7,0.2c0.1,0.2,0.1,0.5-0.1,0.6c0,0,0,0,0,0h-0.1c0,0.1-0.1,0.2-0.2,0.3L289.9,88z"/>
	<path class="st2" d="M146.9,168c-0.3,0-0.5-0.2-0.5-0.5c0,0,0,0,0,0c0-0.2,0.1-0.4,0.3-0.5c0.2-0.1,0.6-0.1,0.7,0.2c0,0,0,0,0,0
		c0.1,0.2,0.1,0.5-0.1,0.6C147.2,167.9,147,168,146.9,168z"/>
	<path class="st2" d="M146.9,197.8c-0.3,0-0.5-0.2-0.5-0.5v-0.1c0-0.3,0.2-0.5,0.5-0.5s0.5,0.2,0.5,0.5v0.1
		C147.4,197.5,147.2,197.8,146.9,197.8z M146.9,193.5c-0.3,0-0.5-0.2-0.5-0.5v-0.1c0-0.3,0.2-0.5,0.5-0.5s0.5,0.2,0.5,0.5v0.1
		C147.4,193.3,147.2,193.5,146.9,193.5z M146.9,189.3c-0.3,0-0.5-0.2-0.5-0.5v-0.1c0-0.3,0.2-0.5,0.5-0.5c0.3,0,0.5,0.2,0.5,0.5v0.1
		C147.4,189,147.2,189.3,146.9,189.3z M146.9,185c-0.3,0-0.5-0.2-0.5-0.5v-0.1c0-0.3,0.2-0.5,0.5-0.5c0.3,0,0.5,0.2,0.5,0.5v0.1
		C147.4,184.8,147.2,185,146.9,185L146.9,185z M146.9,180.8c-0.3,0-0.5-0.2-0.5-0.5v-0.1c0-0.3,0.2-0.5,0.5-0.5
		c0.3,0,0.5,0.2,0.5,0.5v0.1C147.4,180.5,147.2,180.8,146.9,180.8L146.9,180.8z M146.9,176.5c-0.3,0-0.5-0.2-0.5-0.5v-0.1
		c0-0.3,0.2-0.5,0.5-0.5s0.5,0.2,0.5,0.5v0.1C147.4,176.3,147.2,176.5,146.9,176.5L146.9,176.5L146.9,176.5z M146.9,172.3
		c-0.3,0-0.5-0.2-0.5-0.5v-0.1c0-0.3,0.2-0.5,0.5-0.5s0.5,0.2,0.5,0.5v0.1C147.4,172,147.2,172.3,146.9,172.3L146.9,172.3
		L146.9,172.3z"/>
	<path class="st2" d="M146.9,202c-0.3,0-0.5-0.2-0.5-0.5c0-0.3,0.2-0.5,0.5-0.5c0.3,0,0.5,0.2,0.5,0.5c0,0,0,0,0,0v0.1
		C147.4,201.8,147.2,202,146.9,202z"/>
	<path class="st2" d="M84.3,221.7c-0.1,0-0.3-0.1-0.3-0.3v-40l0.1-0.1l23.5-12.4c0.1-0.1,0.3,0,0.3,0.1c0,0,0,0,0,0
		c0.1,0.1,0,0.3-0.1,0.3l-23.3,12.3v39.7C84.5,221.6,84.4,221.7,84.3,221.7z"/>
	<path class="st2" d="M101.2,286c-0.3,0-0.5-0.2-0.5-0.4c0,0,0,0,0,0v-0.1c0-0.3,0.2-0.5,0.5-0.5s0.5,0.2,0.5,0.5
		C101.7,285.7,101.4,286,101.2,286z M101.2,282c-0.3,0-0.5-0.2-0.5-0.5v-0.1c0-0.3,0.2-0.5,0.5-0.5s0.5,0.2,0.5,0.5v0.1
		C101.6,281.7,101.4,281.9,101.2,282L101.2,282z M101.2,277.8c-0.3,0-0.5-0.2-0.5-0.4c0,0,0,0,0,0v-0.1c0-0.3,0.2-0.5,0.5-0.5
		s0.5,0.2,0.5,0.5C101.7,277.5,101.4,277.8,101.2,277.8L101.2,277.8z M101.2,273.8c-0.3,0-0.5-0.2-0.5-0.5v-0.1
		c0-0.3,0.2-0.5,0.5-0.5s0.5,0.2,0.5,0.5v0.1C101.6,273.5,101.4,273.7,101.2,273.8L101.2,273.8z M101.2,269.6
		c-0.3,0-0.5-0.2-0.5-0.4c0,0,0,0,0,0V269c0-0.3,0.2-0.5,0.5-0.5s0.5,0.2,0.5,0.5C101.7,269.3,101.5,269.6,101.2,269.6
		C101.2,269.6,101.2,269.6,101.2,269.6L101.2,269.6z M101.2,265.5c-0.3,0-0.5-0.2-0.5-0.4c0,0,0,0,0,0V265c0-0.3,0.2-0.5,0.5-0.5
		s0.5,0.2,0.5,0.5C101.7,265.2,101.4,265.5,101.2,265.5L101.2,265.5z M101.2,261.5c-0.3,0-0.5-0.2-0.5-0.5v-0.1
		c0-0.3,0.2-0.5,0.5-0.5s0.5,0.2,0.5,0.5v0.1C101.6,261.2,101.4,261.4,101.2,261.5L101.2,261.5z M101.2,257.3
		c-0.3,0-0.5-0.2-0.5-0.4c0,0,0,0,0,0v-0.1c0-0.3,0.2-0.5,0.5-0.5s0.5,0.2,0.5,0.5C101.7,257,101.4,257.3,101.2,257.3L101.2,257.3z
		 M101.2,253.3c-0.3,0-0.5-0.2-0.5-0.5v-0.1c0-0.3,0.2-0.5,0.5-0.5s0.5,0.2,0.5,0.5v0.1C101.6,253,101.4,253.2,101.2,253.3
		L101.2,253.3z M101.2,249.1c-0.3,0-0.5-0.2-0.5-0.4c0,0,0,0,0,0v-0.1c0-0.3,0.2-0.5,0.5-0.5s0.5,0.2,0.5,0.5
		C101.7,248.8,101.4,249.1,101.2,249.1L101.2,249.1z M101.2,245.1c-0.3,0-0.5-0.2-0.5-0.5v-0.1c0-0.3,0.2-0.5,0.5-0.5
		s0.5,0.2,0.5,0.5v0.1C101.6,244.8,101.4,245,101.2,245.1L101.2,245.1z M101.2,241c-0.3,0-0.5-0.2-0.5-0.5v-0.1
		c0-0.3,0.2-0.5,0.5-0.5s0.5,0.2,0.5,0.5v0.1C101.6,240.7,101.4,240.9,101.2,241L101.2,241z M101.2,236.8c-0.3,0-0.5-0.2-0.5-0.4
		c0,0,0,0,0,0v-0.1c0-0.3,0.2-0.5,0.5-0.5s0.5,0.2,0.5,0.5C101.7,236.5,101.4,236.8,101.2,236.8L101.2,236.8z M101.2,232.8
		c-0.3,0-0.5-0.2-0.5-0.5v-0.1c0-0.3,0.2-0.5,0.5-0.5s0.5,0.2,0.5,0.5v0.1C101.6,232.6,101.4,232.7,101.2,232.8L101.2,232.8z
		 M101.2,228.7c-0.3,0-0.5-0.2-0.5-0.5V228c0-0.3,0.2-0.5,0.5-0.5s0.5,0.2,0.5,0.5v0.1C101.7,228.4,101.5,228.6,101.2,228.7
		C101.2,228.6,101.2,228.6,101.2,228.7L101.2,228.7z M101.2,224.6c-0.3,0-0.5-0.2-0.5-0.5V224c0-0.3,0.2-0.5,0.5-0.5
		s0.5,0.2,0.5,0.5v0.1C101.6,224.4,101.4,224.5,101.2,224.6L101.2,224.6z M101.2,220.5c-0.3,0-0.5-0.2-0.5-0.5v-0.1
		c0-0.3,0.2-0.5,0.5-0.5s0.5,0.2,0.5,0.5v0.1C101.6,220.3,101.4,220.4,101.2,220.5L101.2,220.5z M101.2,216.4
		c-0.3,0-0.5-0.2-0.5-0.4c0,0,0,0,0,0v-0.1c0-0.3,0.2-0.5,0.5-0.5s0.5,0.2,0.5,0.5C101.6,216.1,101.4,216.3,101.2,216.4L101.2,216.4
		z M101.2,212.4c-0.3,0-0.5-0.2-0.5-0.5v-0.1c0-0.3,0.2-0.5,0.5-0.5s0.5,0.2,0.5,0.5v0.1c-0.1,0.2-0.3,0.4-0.5,0.4V212.4z
		 M101.2,208.3c-0.3,0-0.5-0.2-0.5-0.5v-0.1c0-0.3,0.2-0.5,0.5-0.5s0.5,0.2,0.5,0.5v0.1c-0.1,0.2-0.3,0.4-0.5,0.4V208.3z
		 M101.2,204.2c-0.3,0-0.5-0.2-0.5-0.5v-0.1c0-0.3,0.2-0.5,0.5-0.5s0.5,0.2,0.5,0.5v0.1c-0.1,0.2-0.3,0.4-0.5,0.3V204.2z
		 M101.2,200.1c-0.3,0-0.5-0.2-0.5-0.5v-0.1c0-0.3,0.2-0.5,0.5-0.5s0.5,0.2,0.5,0.5v0.1c-0.1,0.2-0.3,0.4-0.5,0.4V200.1z
		 M101.2,195.9c-0.3,0-0.5-0.2-0.5-0.4c0,0,0,0,0,0v-0.1c0-0.3,0.2-0.5,0.5-0.5s0.5,0.2,0.5,0.5c0,0.2-0.3,0.4-0.5,0.4V195.9z
		 M101.2,191.9c-0.3,0-0.5-0.2-0.5-0.5v-0.1c0-0.3,0.2-0.5,0.5-0.5s0.5,0.2,0.5,0.5v0.1c-0.1,0.2-0.3,0.4-0.5,0.3V191.9z
		 M101.2,187.8c-0.3,0-0.5-0.2-0.5-0.5V187c0-0.3,0.2-0.5,0.5-0.5s0.5,0.2,0.5,0.5v0.1c0,0.3-0.2,0.5-0.5,0.5c0,0,0,0,0,0V187.8z
		 M101.2,183.7c-0.3,0-0.5-0.2-0.5-0.5v-0.1c0-0.3,0.2-0.5,0.5-0.5s0.5,0.2,0.5,0.5v0.1c-0.1,0.2-0.3,0.4-0.5,0.3V183.7z
		 M101.2,179.6c-0.3,0-0.5-0.2-0.5-0.5V179c0-0.3,0.2-0.5,0.5-0.5s0.5,0.2,0.5,0.5v0.1c-0.1,0.2-0.3,0.4-0.5,0.3V179.6z
		 M101.2,175.5c-0.3,0-0.5-0.2-0.5-0.4c0,0,0,0,0,0v-0.1c0-0.3,0.2-0.5,0.5-0.5s0.5,0.2,0.5,0.5c-0.1,0.2-0.3,0.4-0.5,0.4V175.5z
		 M101.2,171.5c-0.3,0-0.5-0.2-0.5-0.5v-0.1c0-0.3,0.2-0.5,0.5-0.5s0.5,0.2,0.5,0.5v0.1c-0.1,0.2-0.3,0.3-0.5,0.3V171.5z
		 M101.2,167.4c-0.3,0-0.5-0.2-0.5-0.5v-0.1c0-0.3,0.2-0.5,0.5-0.5s0.5,0.2,0.5,0.5v0.1c-0.1,0.2-0.3,0.3-0.5,0.3V167.4z
		 M101.2,163.3c-0.3,0-0.5-0.2-0.5-0.5v-0.1c0-0.3,0.2-0.5,0.5-0.5s0.5,0.2,0.5,0.5v0.1c-0.1,0.2-0.3,0.3-0.5,0.3V163.3z
		 M101.2,159.1c-0.3,0-0.5-0.2-0.5-0.5v-0.1c0-0.3,0.2-0.5,0.5-0.5s0.5,0.2,0.5,0.5v0.1c-0.1,0.2-0.3,0.3-0.5,0.3V159.1z M101.2,155
		c-0.3,0-0.5-0.2-0.5-0.4c0,0,0,0,0,0v-0.1c0-0.3,0.2-0.5,0.5-0.5s0.5,0.2,0.5,0.5c-0.1,0.2-0.3,0.3-0.5,0.3V155z M101.2,151
		c-0.3,0-0.5-0.2-0.5-0.5v-0.1c0-0.3,0.2-0.5,0.5-0.5s0.5,0.2,0.5,0.5v0.1c-0.1,0.2-0.3,0.3-0.5,0.2V151z M101.2,146.9
		c-0.3,0-0.5-0.2-0.5-0.5V146c0-0.3,0.2-0.5,0.5-0.5s0.5,0.2,0.5,0.5v0.1c0,0.3-0.2,0.5-0.5,0.5c0,0,0,0,0,0V146.9z M101.2,142.8
		c-0.3,0-0.5-0.2-0.5-0.5v-0.1c0-0.3,0.2-0.5,0.5-0.5s0.5,0.2,0.5,0.5v0.1c-0.1,0.2-0.3,0.3-0.5,0.2V142.8z M101.2,138.7
		c-0.3,0-0.5-0.2-0.5-0.5v-0.1c0-0.3,0.2-0.5,0.5-0.5s0.5,0.2,0.5,0.5v0.1c-0.1,0.2-0.3,0.3-0.5,0.2V138.7z M103.1,135.7
		c-0.3,0-0.5-0.2-0.5-0.5c0-0.2,0.1-0.3,0.2-0.4l0.1-0.1c0.3-0.1,0.5,0,0.7,0.2c0.1,0.2,0,0.5-0.2,0.6h-0.1c-0.1,0-0.2-0.1-0.3-0.1
		V135.7z M106.7,133.6c-0.2,0-0.4-0.1-0.4-0.2c-0.1-0.2-0.1-0.5,0.1-0.7c0,0,0,0,0,0h0.1c0.2-0.2,0.5-0.1,0.7,0.1
		c0.2,0.2,0.1,0.5-0.1,0.7c0,0-0.1,0-0.1,0.1c-0.1,0-0.2-0.1-0.3-0.2L106.7,133.6z M110.3,131.6c-0.2,0-0.3-0.1-0.4-0.2
		c-0.1-0.2-0.1-0.5,0.1-0.6c0,0,0,0,0,0l0.1-0.1c0.2-0.1,0.5,0,0.7,0.2c0.1,0.2,0.1,0.5-0.2,0.7c0,0,0,0,0,0c-0.1,0-0.2-0.1-0.3-0.2
		V131.6z M113.8,129.6c-0.2,0-0.4-0.1-0.4-0.3c-0.1-0.2,0-0.5,0.2-0.7l0.1-0.1c0.2-0.1,0.5,0,0.7,0.2c0.1,0.2,0,0.5-0.2,0.6
		l-0.1,0.1c-0.1,0-0.2-0.1-0.3-0.2L113.8,129.6z M117.4,127.5c-0.2,0-0.3-0.1-0.4-0.2c-0.1-0.2-0.1-0.5,0.1-0.6c0,0,0,0,0,0l0.1-0.1
		c0.2-0.1,0.5,0,0.7,0.2c0.1,0.2,0,0.5-0.2,0.6c-0.1,0-0.2-0.1-0.3-0.2L117.4,127.5z M120.9,125.5c-0.2,0-0.3-0.1-0.4-0.2
		c-0.1-0.2-0.1-0.5,0.1-0.6c0,0,0,0,0,0l0.1-0.1c0.2-0.1,0.5,0,0.7,0.2c0.1,0.2,0,0.5-0.2,0.6c-0.1,0-0.2-0.1-0.3-0.2V125.5z
		 M124.5,123.5c-0.3,0-0.5-0.2-0.5-0.5c0-0.2,0.1-0.3,0.2-0.4h0.1c0.2-0.1,0.5-0.1,0.7,0.2c0,0,0,0,0,0c0.1,0.2,0.1,0.5-0.2,0.7
		h-0.1c-0.1,0-0.2-0.1-0.3-0.2L124.5,123.5z M128.1,121.5c-0.2,0-0.4-0.1-0.4-0.2c-0.1-0.2-0.1-0.5,0.1-0.7c0,0,0,0,0,0h0.1
		c0.2-0.1,0.5-0.1,0.7,0.2c0.1,0.2,0,0.5-0.2,0.7c-0.1-0.1-0.2-0.1-0.3-0.2V121.5z M131.6,119.5c-0.2,0-0.4-0.1-0.4-0.2
		c-0.1-0.2-0.1-0.5,0.1-0.7c0,0,0,0,0,0h0.1c0.2-0.1,0.5,0,0.7,0.2c0.1,0.2,0,0.5-0.2,0.6c-0.1-0.1-0.2-0.2-0.3-0.3V119.5z
		 M135.1,117.5c-0.2,0-0.3-0.1-0.4-0.3c-0.1-0.2,0-0.5,0.2-0.7h0.1c0.2-0.1,0.5,0,0.7,0.2c0.1,0.2,0,0.5-0.2,0.7h-0.1
		c-0.1,0-0.2-0.1-0.3-0.2V117.5z M138.8,115.4c-0.2,0-0.3-0.1-0.4-0.2c-0.1-0.2-0.1-0.5,0.1-0.6c0,0,0,0,0,0h0.1
		c0.2-0.1,0.5,0,0.7,0.2c0.1,0.2,0.1,0.5-0.2,0.7c0,0,0,0,0,0c-0.1-0.1-0.2-0.2-0.3-0.3V115.4z M142.3,113.4c-0.2,0-0.3-0.1-0.4-0.2
		c-0.1-0.2-0.1-0.5,0.1-0.6c0,0,0,0,0,0l0.1-0.1c0.2-0.1,0.5,0,0.7,0.2c0.1,0.2,0,0.5-0.2,0.6c-0.1,0-0.2-0.1-0.3-0.3V113.4z
		 M145.8,111.4c-0.3,0-0.5-0.2-0.5-0.5c0-0.2,0.1-0.3,0.2-0.4l0.1-0.1c0.2-0.1,0.5-0.1,0.7,0.2c0.1,0.2,0.1,0.5-0.2,0.7h-0.1
		c-0.1,0-0.2-0.1-0.2-0.2L145.8,111.4z"/>
	<path class="st2" d="M172.5,140.3c-0.2,0-0.4-0.1-0.4-0.2c-0.1-0.2-0.1-0.5,0.1-0.6c0,0,0,0,0,0l0.1-0.1c0.2-0.2,0.5-0.1,0.7,0.1
		s0.1,0.5-0.1,0.7c0,0-0.1,0-0.1,0.1C172.7,140.3,172.6,140.3,172.5,140.3z M170.9,139.1c-0.3,0-0.5-0.2-0.5-0.5v-0.1
		c0-0.3,0.2-0.5,0.5-0.5s0.5,0.2,0.5,0.5v0.1C171.4,138.9,171.1,139.1,170.9,139.1L170.9,139.1L170.9,139.1z M176,138.2
		c-0.2,0-0.4-0.1-0.4-0.2c-0.1-0.2-0.1-0.5,0.1-0.7l0.1-0.1c0.2-0.1,0.5,0,0.7,0.2c0.1,0.2,0.1,0.5-0.2,0.7c0,0,0,0,0,0
		C176.2,138.2,176.1,138.2,176,138.2L176,138.2z M179.6,136.2c-0.2,0-0.3-0.1-0.4-0.2c-0.1-0.2-0.1-0.5,0.1-0.7c0,0,0,0,0,0h0.1
		c0.2-0.1,0.5-0.1,0.7,0.2c0.1,0.2,0.1,0.5-0.2,0.7C179.8,136.2,179.7,136.2,179.6,136.2L179.6,136.2z M170.9,135
		c-0.3,0-0.5-0.2-0.5-0.5v-0.1c0-0.3,0.2-0.5,0.5-0.5s0.5,0.2,0.5,0.5v0.1C171.3,134.8,171.1,135,170.9,135L170.9,135z M183.1,134.2
		c-0.2,0-0.3-0.1-0.4-0.2c-0.1-0.2-0.1-0.5,0.1-0.6c0,0,0,0,0,0l0.1-0.1c0.3-0.1,0.5,0,0.7,0.2c0.1,0.2,0,0.5-0.2,0.6
		C183.3,134.1,183.2,134.1,183.1,134.2L183.1,134.2z M186.6,132.2c-0.3,0-0.5-0.2-0.5-0.5c0-0.2,0.1-0.3,0.2-0.4l0.1-0.1
		c0.3-0.1,0.5,0,0.7,0.2c0.1,0.2,0,0.5-0.2,0.6l-0.1,0.1C186.8,132.1,186.7,132.1,186.6,132.2L186.6,132.2z M170.9,130.9
		c-0.3,0-0.5-0.2-0.5-0.5c0-0.3,0.2-0.5,0.5-0.6c0.3,0,0.5,0.2,0.5,0.4c0,0,0,0,0,0v0.1C171.3,130.7,171.1,130.9,170.9,130.9
		L170.9,130.9z M190.2,130.1c-0.2,0-0.3-0.1-0.4-0.2c-0.1-0.2-0.1-0.5,0.1-0.6c0,0,0,0,0,0h0.1c0.2-0.1,0.5-0.1,0.7,0.2
		c0.1,0.2,0.1,0.5-0.2,0.7C190.4,130.1,190.3,130,190.2,130.1L190.2,130.1z M193.8,128c-0.2,0-0.3-0.1-0.4-0.2
		c-0.1-0.2-0.1-0.5,0.1-0.6c0,0,0,0,0,0h0.1c0.2-0.1,0.5-0.1,0.7,0.2c0.1,0.2,0.1,0.5-0.2,0.7C194,128,193.9,128,193.8,128
		L193.8,128z M170.9,126.8c-0.3,0-0.5-0.2-0.5-0.5v-0.1c0-0.3,0.2-0.5,0.5-0.5s0.5,0.2,0.5,0.5v0.1
		C171.3,126.6,171.1,126.8,170.9,126.8L170.9,126.8z M197.3,126c-0.3,0.1-0.6-0.1-0.6-0.4c-0.1-0.3,0.1-0.6,0.4-0.6l0,0h0.1
		c0.2-0.2,0.5-0.1,0.7,0.1c0.2,0.2,0.1,0.5-0.1,0.7c0,0-0.1,0-0.1,0.1h-0.1C197.4,125.9,197.4,126,197.3,126L197.3,126z
		 M200.9,123.9c-0.2,0-0.3-0.1-0.4-0.2c-0.1-0.2-0.1-0.5,0.1-0.6c0,0,0,0,0,0h0.1c0.2-0.1,0.5-0.1,0.7,0.2c0.1,0.2,0.1,0.5-0.2,0.7
		C201.1,123.9,201,123.9,200.9,123.9L200.9,123.9z M170.9,122.7c-0.3,0-0.5-0.2-0.5-0.5v-0.1c0-0.3,0.2-0.5,0.5-0.5s0.5,0.2,0.5,0.5
		v0.1C171.3,122.5,171.1,122.7,170.9,122.7L170.9,122.7z M204.5,121.9c-0.2,0-0.3-0.1-0.4-0.2c-0.1-0.2-0.1-0.5,0.1-0.6c0,0,0,0,0,0
		h0.1c0.2-0.1,0.6-0.1,0.7,0.2c0.1,0.2,0,0.5-0.2,0.7C204.6,121.9,204.5,121.9,204.5,121.9L204.5,121.9z M208,119.9
		c-0.2,0-0.3-0.1-0.4-0.3c-0.1-0.2,0-0.5,0.2-0.7l0.1-0.1c0.2-0.1,0.5-0.1,0.7,0.2c0.1,0.2,0,0.5-0.2,0.7h-0.1
		C208.1,119.8,208,119.8,208,119.9L208,119.9z M211.6,117.8c-0.2,0-0.4-0.1-0.4-0.2c-0.1-0.2-0.1-0.5,0.1-0.6c0,0,0,0,0,0h0.1
		c0.2-0.2,0.5-0.1,0.7,0.1c0.2,0.2,0.1,0.5-0.1,0.7c0,0-0.1,0-0.1,0.1C211.7,117.8,211.6,117.8,211.6,117.8L211.6,117.8z"/>
	<path class="st7" d="M421.7,117.2l-36.3,21c-2.6,1.5-7.3,1.3-10.4-0.4l-34.8-20.1c-3.1-1.8-3.4-4.5-0.8-6l36.3-21
		c2.6-1.5,7.3-1.3,10.4,0.4l34.8,20.1C424,113,424.4,115.7,421.7,117.2z"/>
	
		<linearGradient id="SVGID_5_" gradientUnits="userSpaceOnUse" x1="434.9491" y1="394.1254" x2="363.9491" y2="253.1254" gradientTransform="matrix(1 0 0 -1 0 522)">
		<stop  offset="0" style="stop-color:#E4F2FF"/>
		<stop  offset="6.000000e-02" style="stop-color:#E1EFFF"/>
		<stop  offset="0.65" style="stop-color:#C7D7FB"/>
		<stop  offset="1" style="stop-color:#BDCEFA"/>
	</linearGradient>
	<path class="st8" d="M423.5,246V115.1l0,0c-0.2,0.9-0.9,1.7-1.7,2.1l-36.3,21c-1.5,0.8-3.2,1.1-4.8,1V271c1.7,0.1,3.3-0.2,4.8-1
		l36.3-20.9C423,248.6,423.7,247.3,423.5,246z"/>
	<path class="st9" d="M375.1,137.8l-34.8-20.1c-1.2-0.6-2.1-1.6-2.5-2.9v130.9c-0.3,1.3,0.6,2.8,2.5,3.9l34.8,20.1
		c1.7,0.9,3.6,1.4,5.5,1.5V139.2C378.7,139.2,376.8,138.7,375.1,137.8z"/>
	
		<linearGradient id="SVGID_6_" gradientUnits="userSpaceOnUse" x1="449.9116" y1="464.0989" x2="335.2415" y2="293.4289" gradientTransform="matrix(1 0 0 -1 0 522)">
		<stop  offset="0" style="stop-color:#E4F2FF"/>
		<stop  offset="6.000000e-02" style="stop-color:#E1EFFF"/>
		<stop  offset="0.65" style="stop-color:#C7D7FB"/>
		<stop  offset="1" style="stop-color:#BDCEFA"/>
	</linearGradient>
	<path class="st10" d="M375.1,137.8l-34.8-20.1c-1.2-0.6-2.1-1.6-2.5-2.9v130.9c-0.3,1.3,0.6,2.8,2.5,3.9l34.8,20.1
		c1.7,0.9,3.6,1.4,5.5,1.5V139.2C378.7,139.2,376.8,138.7,375.1,137.8z"/>
	<g id="cloud">
		<path class="st11" d="M420,131.6c0,7.4-3.9,11.5-9.5,11c-1.5,0.1-3-0.3-4.3-1.1l-46.4-26.8c-0.4-0.2-0.8-0.5-1.1-0.8
			c-7.8-5.4-13.9-16.6-13.9-25.8c0-9,5.8-13.1,13.3-10c1.1-6.4,6.5-8.7,12.9-5c2.3,1.3,4.3,3.1,6,5.1c3.4-2.9,8.6-3,14.5,0.4
			c8.8,5.1,16.1,16.3,18.1,26.9c2.8,2.1,4.6,5.4,4.8,8.9C417.8,119.7,420,126,420,131.6z		">
<animateTransform  accumulate="none" additive="replace" attributeName="transform" attributeType="XML" calcMode="linear" dur="3s" fill="remove" id="any" repeatCount="indefinite" restart="always" type="translate" values="0,10;0,-10;0,10">
				</animateTransform>
		</path>
		<path class="st12" d="M424.4,108.7c-0.3-3.5-2-6.7-4.8-8.9c-2-10.6-9.3-21.9-18.1-26.9c-5.1-3-9.8-3.3-13.2-1.3l-1.4,0.8
			c-1.7-2-3.6-3.7-5.9-5c-3.6-2.1-6.9-2.3-9.3-0.9l-8.5,4.9c-1.3,0-2.6,0.3-3.8,0.9l-9.9,5.7c2.3-1.2,5.2-1.2,8.5,0.1
			c1.1-6.4,6.5-8.7,12.9-5c2.3,1.3,4.3,3.1,6,5.1c3.4-2.9,8.6-3,14.5,0.4c8.8,5.1,16.1,16.3,18.1,26.9c2.8,2.1,4.6,5.4,4.8,8.9
			c3.5,5.3,5.7,11.6,5.7,17.1c0,5.1-1.8,8.6-4.8,10.1l9.9-5.7c3-1.5,4.9-5.1,4.9-10.2C430.1,120.3,427.8,114,424.4,108.7z		">
<animateTransform  accumulate="none" additive="replace" attributeName="transform" attributeType="XML" calcMode="linear" dur="3s" fill="remove" id="any" repeatCount="indefinite" restart="always" type="translate" values="0,10;0,-10;0,10">
				</animateTransform>
		</path>
		<g>
			<path class="st0" d="M365.9,108.1c0,1.8-1.3,2.6-2.9,1.7c-1.7-1.1-2.8-3-2.9-5c0-1.8,1.3-2.6,2.9-1.7
				C364.7,104.2,365.8,106.1,365.9,108.1z"/>
			<path class="st0" d="M374.8,113.3c0,1.8-1.3,2.6-2.9,1.7c-1.7-1.1-2.8-3-2.9-5c0-1.8,1.3-2.6,2.9-1.7
				C373.7,109.4,374.7,111.2,374.8,113.3z"/>
			<path class="st0" d="M383.8,118.4c0,1.8-1.3,2.6-2.9,1.7c-1.7-1.1-2.8-3-2.9-5c0-1.8,1.3-2.6,2.9-1.7
				C382.6,114.5,383.7,116.4,383.8,118.4z"/>
			<path class="st0" d="M392.8,123.6c0,1.8-1.3,2.6-2.9,1.7c-1.7-1.1-2.8-3-2.9-5c0-1.8,1.3-2.6,2.9-1.7
				C391.6,119.7,392.7,121.6,392.8,123.6z"/>
			<path class="st0" d="M401.7,128.8c0,1.8-1.3,2.6-2.9,1.7c-1.7-1.1-2.8-3-2.9-5c0-1.8,1.3-2.6,2.9-1.7
				C400.5,124.9,401.6,126.8,401.7,128.8z"/>
			
				<animateTransform  accumulate="none" additive="replace" attributeName="transform" attributeType="XML" calcMode="linear" dur="3s" fill="remove" id="any" repeatCount="indefinite" restart="always" type="translate" values="0,10;0,-10;0,10">
				</animateTransform>
		</g>
	</g>
	
		<linearGradient id="SVGID_7_" gradientUnits="userSpaceOnUse" x1="301.945" y1="40.78" x2="301.945" y2="40.78" gradientTransform="matrix(1 0 0 -1 0 522)">
		<stop  offset="0" style="stop-color:#DEEBFE"/>
		<stop  offset="0.6" style="stop-color:#C7D7FB"/>
		<stop  offset="1" style="stop-color:#BDCEFA"/>
	</linearGradient>
	<path class="st13" d="M302,481.2h-0.1H302z"/>
	
		<linearGradient id="SVGID_8_" gradientUnits="userSpaceOnUse" x1="130.5" y1="2.6" x2="130.5" y2="2.6" gradientTransform="matrix(1 0 0 -1 0 522)">
		<stop  offset="0" style="stop-color:#FCFDFF"/>
		<stop  offset="0.29" style="stop-color:#E7F2FF"/>
		<stop  offset="0.74" style="stop-color:#CDE5FE"/>
		<stop  offset="1" style="stop-color:#C3E0FE"/>
	</linearGradient>
	<polygon class="st14" points="130.5,519.4 130.5,519.4 130.5,519.4 	"/>
	<path class="st7" d="M422.2,343.3l-66.5,37.2c-3,1.7-8.1,1.5-11.5-0.5L322,366.9c-3.4-2-3.8-5-0.8-6.7l66.2-38
		c3-1.7,8.1-1.5,11.5,0.5l22.4,13.9C424.7,338.6,425.1,341.6,422.2,343.3z"/>
	
		<linearGradient id="SVGID_9_" gradientUnits="userSpaceOnUse" x1="424.057" y1="184.828" x2="272.667" y2="68.068" gradientTransform="matrix(1 0 0 -1 0 522)">
		<stop  offset="0" style="stop-color:#E4F2FF"/>
		<stop  offset="6.000000e-02" style="stop-color:#E1EFFF"/>
		<stop  offset="0.65" style="stop-color:#C7D7FB"/>
		<stop  offset="1" style="stop-color:#BDCEFA"/>
	</linearGradient>
	<path class="st15" d="M424.1,347.5V341l0,0c-0.3,1-1,1.9-1.9,2.4l-66.5,37.2c-1.7,0.8-3.5,1.2-5.4,1.1v7.5c1.9,0.1,3.7-0.3,5.4-1.1
		l66.5-37.2C423.5,350.3,424.3,348.9,424.1,347.5z"/>
	
		<linearGradient id="SVGID_10_" gradientUnits="userSpaceOnUse" x1="379.2094" y1="185.8207" x2="325.5794" y2="137.2206" gradientTransform="matrix(1 0 0 -1 0 522)">
		<stop  offset="0" style="stop-color:#E4F2FF"/>
		<stop  offset="6.000000e-02" style="stop-color:#E1EFFF"/>
		<stop  offset="0.65" style="stop-color:#C7D7FB"/>
		<stop  offset="1" style="stop-color:#BDCEFA"/>
	</linearGradient>
	<path class="st16" d="M344.2,380.1L322,366.9c-1.3-0.6-2.4-1.8-2.8-3.3v6.5c-0.3,1.5,0.6,3.1,2.8,4.3l22.1,13.2
		c1.9,1,4,1.6,6.2,1.6v-7.5C348.2,381.6,346.1,381.1,344.2,380.1z"/>
	<path class="st7" d="M449.8,384.3l-66.5,37.2c-3,1.7-8.1,1.5-11.5-0.5l-22.1-13.2c-3.4-2-3.8-5-0.8-6.7l66.2-38
		c3-1.7,8.1-1.5,11.5,0.5l22.4,13.9C452.4,379.6,452.8,382.6,449.8,384.3z"/>
	
		<linearGradient id="SVGID_11_" gradientUnits="userSpaceOnUse" x1="448.0769" y1="138.836" x2="306.0569" y2="38.586" gradientTransform="matrix(1 0 0 -1 0 522)">
		<stop  offset="0" style="stop-color:#E4F2FF"/>
		<stop  offset="6.000000e-02" style="stop-color:#E1EFFF"/>
		<stop  offset="0.65" style="stop-color:#C7D7FB"/>
		<stop  offset="1" style="stop-color:#BDCEFA"/>
	</linearGradient>
	<path class="st17" d="M451.8,388.4v-6.5l0,0c-0.3,1-1,1.9-1.9,2.4l-66.5,37.2c-1.7,0.8-3.5,1.2-5.4,1.1v7.6
		c1.9,0.1,3.7-0.3,5.4-1.1l66.5-37.2C451.2,391.2,452,389.9,451.8,388.4z"/>
	
		<linearGradient id="SVGID_12_" gradientUnits="userSpaceOnUse" x1="425.3747" y1="144.4084" x2="358.5447" y2="102.1484" gradientTransform="matrix(1 0 0 -1 0 522)">
		<stop  offset="0" style="stop-color:#E4F2FF"/>
		<stop  offset="6.000000e-02" style="stop-color:#E1EFFF"/>
		<stop  offset="0.65" style="stop-color:#C7D7FB"/>
		<stop  offset="1" style="stop-color:#BDCEFA"/>
	</linearGradient>
	<path class="st18" d="M371.8,421l-22.1-13.2c-1.3-0.6-2.4-1.8-2.8-3.3v6.5c-0.3,1.5,0.6,3.1,2.8,4.3l22.1,13.2c1.9,1,4,1.6,6.2,1.6
		v-7.6C375.8,422.6,373.7,422,371.8,421z"/>
	<path class="st7" d="M438.1,278.9L240.9,392.5c-8.9,5.1-24.5,4.5-34.8-1.5L85.8,321.9c-10.3-5.9-11.4-15-2.5-20.1l200.6-111.9
		c8.9-5.1,24.5-4.5,34.8,1.4l116.9,67.5C445.8,264.7,447,273.8,438.1,278.9z"/>
	
		<linearGradient id="SVGID_13_" gradientUnits="userSpaceOnUse" x1="462.8698" y1="281.4503" x2="209.6998" y2="86.5303" gradientTransform="matrix(1 0 0 -1 0 522)">
		<stop  offset="0" style="stop-color:#E4F2FF"/>
		<stop  offset="6.000000e-02" style="stop-color:#E1EFFF"/>
		<stop  offset="0.65" style="stop-color:#C7D7FB"/>
		<stop  offset="1" style="stop-color:#BDCEFA"/>
	</linearGradient>
	<path class="st19" d="M443.9,277.2v-5.4l0,0c-0.5,2.7-2.5,5.2-5.8,7.1L240.9,392.5c-4.3,2.5-10.1,3.6-16.2,3.4v8.6
		c6,0.1,11.9-1,16.2-3.4l197.2-113.6C442.7,284.8,444.6,281,443.9,277.2z"/>
	<path class="st20" d="M206.1,391L85.8,321.9c-4.9-2.8-7.7-6.4-8.3-9.9v5.4c-0.9,4.4,1.9,9.3,8.3,13l120.3,69.2
		c5.7,3.1,12.1,4.8,18.6,4.9v-8.6C218.2,395.8,211.8,394.1,206.1,391z"/>
	
		<linearGradient id="SVGID_14_" gradientUnits="userSpaceOnUse" x1="317.2574" y1="140.1213" x2="216.9173" y2="154.3013" gradientTransform="matrix(1 0 0 -1 0 522)">
		<stop  offset="0" style="stop-color:#E4F2FF"/>
		<stop  offset="6.000000e-02" style="stop-color:#E1EFFF"/>
		<stop  offset="0.65" style="stop-color:#C7D7FB"/>
		<stop  offset="1" style="stop-color:#BDCEFA"/>
	</linearGradient>
	<path class="st21" d="M206.1,391L85.8,321.9c-4.9-2.8-7.7-6.4-8.3-9.9v5.4c-0.9,4.4,1.9,9.3,8.3,13l120.3,69.2
		c5.7,3.1,12.1,4.8,18.6,4.9v-8.6C218.2,395.8,211.8,394.1,206.1,391z"/>
	<polygon class="st0" points="252.9,341.5 211.7,365.2 107,304.7 148.1,280.9 	"/>
	
		<linearGradient id="SVGID_15_" gradientUnits="userSpaceOnUse" x1="251.3432" y1="178.9467" x2="127.8432" y2="56.9467" gradientTransform="matrix(1 0 0 -1 0 522)">
		<stop  offset="0" style="stop-color:#E4F2FF"/>
		<stop  offset="6.000000e-02" style="stop-color:#E1EFFF"/>
		<stop  offset="0.65" style="stop-color:#C7D7FB"/>
		<stop  offset="1" style="stop-color:#BDCEFA"/>
	</linearGradient>
	<polygon class="st22" points="252.9,341.5 252.9,358.5 211.7,382.3 211.7,365.2 	"/>
	
		<linearGradient id="SVGID_16_" gradientUnits="userSpaceOnUse" x1="313.6005" y1="133.7118" x2="127.6005" y2="187.7118" gradientTransform="matrix(1 0 0 -1 0 522)">
		<stop  offset="0" style="stop-color:#E4F2FF"/>
		<stop  offset="6.000000e-02" style="stop-color:#E1EFFF"/>
		<stop  offset="0.65" style="stop-color:#C7D7FB"/>
		<stop  offset="1" style="stop-color:#BDCEFA"/>
	</linearGradient>
	<polygon class="st23" points="107,304.7 107,321.8 211.7,382.3 211.7,365.2 	"/>
	<g>
		<path class="st24" d="M167.4,299.3l-18.1,10.4c-1.7,0.7-3.6,0.7-5.2-0.2l-17.3-10c-1.5-0.9-1.7-2.2-0.4-3l18.1-10.4
			c1.7-0.7,3.6-0.7,5.2,0.2l17.3,10C168.5,297.1,168.7,298.5,167.4,299.3z"/>
		<path class="st25" d="M168.2,306.1v-8l0,0c-0.1,0.5-0.4,0.8-0.9,1.1l-18.1,10.4c-0.7,0.4-1.6,0.5-2.4,0.5v8.4
			c0.8,0,1.7-0.1,2.4-0.5l18.1-10.4C168,307.4,168.3,306.8,168.2,306.1z"/>
		<path class="st26" d="M144.1,309.5l-17.3-10c-0.6-0.3-1.1-0.8-1.2-1.5v8c-0.1,0.6,0.3,1.4,1.2,1.9l17.3,10
			c0.9,0.5,1.8,0.7,2.8,0.7v-8.4C145.9,310.2,145,309.9,144.1,309.5z"/>
		
			<animateTransform  accumulate="none" additive="replace" attributeName="transform" attributeType="XML" calcMode="linear" dur="1s" fill="remove" id="any" repeatCount="indefinite" restart="always" type="translate" values="0,2;0,-2;0,2">
			</animateTransform>
	</g>
	<g>
		<path class="st27" d="M199.2,317.7l-18.1,10.4c-1.7,0.7-3.6,0.7-5.2-0.2l-17.3-10c-1.5-0.9-1.7-2.2-0.4-3l18.1-10.4
			c1.7-0.7,3.6-0.7,5.2,0.2l17.3,10C200.4,315.6,200.6,317,199.2,317.7z"/>
		<path class="st28" d="M200.1,324.6v-8l0,0c-0.1,0.5-0.4,0.8-0.9,1.1l-18.1,10.4c-0.7,0.4-1.6,0.6-2.4,0.5v8.4
			c0.8,0.1,1.7-0.1,2.4-0.5l18.1-10.4C199.8,325.8,200.2,325.2,200.1,324.6z"/>
		<path class="st29" d="M176,327.9l-17.3-10c-0.6-0.3-1.1-0.8-1.2-1.5v8c-0.1,0.6,0.3,1.4,1.2,1.9l17.3,10c0.8,0.5,1.8,0.7,2.8,0.7
			v-8.4C177.8,328.7,176.8,328.4,176,327.9z"/>
		
			<animateTransform  accumulate="none" additive="replace" attributeName="transform" attributeType="XML" calcMode="linear" dur="1.5s" fill="remove" id="any" repeatCount="indefinite" restart="always" type="translate" values="0,4;0,-4;0,4">
			</animateTransform>
	</g>
	<g>
		<path class="st30" d="M231.8,336.4l-18.1,10.4c-1.7,0.7-3.6,0.7-5.2-0.2l-17.3-10c-1.5-0.9-1.7-2.2-0.4-3l18.1-10.4
			c1.7-0.7,3.6-0.7,5.2,0.2l17.3,10C232.9,334.3,233.1,335.7,231.8,336.4z"/>
		<path class="st31" d="M232.6,343.3v-8l0,0c-0.1,0.5-0.4,0.8-0.9,1.1l-18.1,10.5c-0.7,0.4-1.6,0.5-2.4,0.5v8.4
			c0.8,0,1.7-0.1,2.4-0.5l18.1-10.4C232.4,344.6,232.7,344,232.6,343.3z"/>
		<path class="st32" d="M208.5,346.6l-17.3-10c-0.6-0.3-1.1-0.8-1.2-1.5v8c-0.1,0.6,0.3,1.4,1.2,1.9l17.3,10
			c0.8,0.5,1.8,0.7,2.8,0.7v-8.4C210.3,347.4,209.4,347.1,208.5,346.6z"/>
		
			<animateTransform  accumulate="none" additive="replace" attributeName="transform" attributeType="XML" calcMode="linear" dur="2s" fill="remove" id="any" repeatCount="indefinite" restart="always" type="translate" values="0,8;0,-8;0,8">
			</animateTransform>
	</g>
	<ellipse class="st0" cx="402.5" cy="249.2" rx="27.9" ry="16.1"/>
	
		<linearGradient id="SVGID_17_" gradientUnits="userSpaceOnUse" x1="450.7599" y1="258.0221" x2="375.2599" y2="255.5221" gradientTransform="matrix(1 0 0 -1 0 522)">
		<stop  offset="0" style="stop-color:#E4F2FF"/>
		<stop  offset="6.000000e-02" style="stop-color:#E1EFFF"/>
		<stop  offset="0.65" style="stop-color:#C7D7FB"/>
		<stop  offset="1" style="stop-color:#BDCEFA"/>
	</linearGradient>
	<path class="st33" d="M422.2,260.6c-10.9,6.3-28.5,6.3-39.4,0c-5.4-3.1-8.1-7.2-8.1-11.3v17.3c0,4.1,2.7,8.3,8.1,11.5
		c10.9,6.3,28.5,6.3,39.4,0c5.5-3.2,8.2-7.3,8.1-11.5v-17.3C430.3,253.4,427.6,257.5,422.2,260.6z"/>
	<path class="st34" d="M402.5,237l17,9.8c-9.3,5.4-24.7,5.4-34,0s-9.3-14.3,0-19.6c5.2-3,12.5-4.5,19.9-4L402.5,237z"/>
	<path class="st26" d="M385.5,246.8c-4.6-2.7-7-6.2-7-9.8v9.9c0,3.6,2.3,7.2,7,9.9c9.3,5.4,24.7,5.4,34,0v-10
		C410.1,252.2,394.8,252.2,385.5,246.8z"/>
	<path class="st24" d="M402.5,237l17,9.8c-9.3,5.4-24.7,5.4-34,0s-9.3-14.3,0-19.6c5.2-3,12.5-4.5,19.9-4L402.5,237z"/>
	<path class="st27" d="M402.5,226.8l2.8-13.8c5,0.3,9.8,1.6,14.2,4c9.3,5.4,9.3,14.3,0,19.6L402.5,226.8z"/>
	<polygon class="st29" points="402.5,226.8 402.5,237 419.5,246.8 419.5,236.6 	"/>
	<path class="st28" d="M426.5,246.9v-20c0,3.5-2.4,7-7,9.7v20.1C424.2,254.1,426.5,250.4,426.5,246.9z"/>
	<path class="st0" d="M345.2,221.6l-39.6-22.9c-4.7-2.7-4.1-7.4,1.3-10.5l0,0c5.4-3.1,13.6-3.5,18.3-0.8l39.6,22.9
		c4.7,2.7,4.1,7.4-1.3,10.5l0,0C358,224,349.8,224.3,345.2,221.6z"/>
	
		<linearGradient id="SVGID_18_" gradientUnits="userSpaceOnUse" x1="368.3957" y1="291.15" x2="309.8957" y2="324.4" gradientTransform="matrix(1 0 0 -1 0 522)">
		<stop  offset="0" style="stop-color:#E4F2FF"/>
		<stop  offset="6.000000e-02" style="stop-color:#E1EFFF"/>
		<stop  offset="0.65" style="stop-color:#C7D7FB"/>
		<stop  offset="1" style="stop-color:#BDCEFA"/>
	</linearGradient>
	<path class="st35" d="M363.4,220.8c-5.4,3.1-13.6,3.5-18.3,0.8l-39.6-22.9c-2-1.2-3.1-2.7-3.2-4.4l0,0V206c0,0,0,0.1,0,0.1
		c0,1.7,1.1,3.3,3.2,4.5l39.6,22.9c4.7,2.7,12.9,2.4,18.3-0.8c3-1.8,4.6-4,4.5-6.2v-11.8C367.9,216.9,366.4,219.1,363.4,220.8z"/>
	<path class="st2" d="M322.4,195.3c-2.3,1.2-5,1.2-7.4,0c-2-1.2-2-3.1,0-4.3c2.3-1.2,5-1.2,7.4,0
		C324.5,192.2,324.5,194.1,322.4,195.3z"/>
	<path class="st2" d="M333.9,201.9c-2.3,1.2-5,1.2-7.4,0c-2-1.2-2-3.1,0-4.2c2.3-1.2,5-1.2,7.4,0C336,198.8,336,200.7,333.9,201.9z"
		/>
	<path class="st2" d="M345.4,208.5c-2.3,1.2-5,1.2-7.4,0c-2-1.2-2-3.1,0-4.3c2.3-1.2,5-1.2,7.4,0
		C347.4,205.5,347.4,207.4,345.4,208.5z"/>
	<path class="st2" d="M356.9,215.1c-2.3,1.2-5,1.2-7.4,0c-2-1.2-2-3.1,0-4.2c2.3-1.2,5-1.2,7.4,0C358.9,212.1,358.9,214,356.9,215.1
		z"/>
	<path class="st36" d="M328.6,201L328.6,201c1.4,0.2,2.7-0.7,3-2.1l2.5-14.1c0.2-1.4-0.7-2.7-2.1-2.9l0,0c-1.4-0.2-2.7,0.7-2.9,2.1
		l-2.5,14.1C326.3,199.4,327.2,200.7,328.6,201C328.6,201,328.6,201,328.6,201z"/>
	<path class="st36" d="M317.2,201.9L317.2,201.9c0.4,1.3,1.8,2.1,3.2,1.7l8.8-2.6c1.4-0.1,2.5-1.3,2.4-2.7l0,0
		c-0.1-1.4-1.3-2.5-2.7-2.4l-10,2.8C317.5,199.1,316.8,200.5,317.2,201.9z"/>
	<path class="st37" d="M343.6,243.8c0,0.3-0.2,0.6-0.7,0.9c-0.1,0.1,0-1.8-0.4-1.5c-0.1,0.1-6.3,4.9-9.7,4c-0.3-0.1-0.5-0.4-0.5-0.7
		v-0.8c0-0.9,1.2-2.2,3.2-4.1c2.1-2.1,3.5-3.4,6.8-1.6c0.9,0.5,1.3,0.9,1.3,1.3L343.6,243.8z"/>
	<path class="st38" d="M335.5,241.6c-2.6,2.5-4,4-2.7,4.8s4-0.4,6.8-2.5c2.4-1.8,5.9-2,2.7-3.9S337.6,239.5,335.5,241.6z"/>
	<path class="st39" d="M338.1,240.4l0.2-23.4l7.7,2.5l-1.3,3.8c0.3,3.5,0,6.9-1,10.3c0,0-1.1,2.3-0.9,7.5
		C342.8,241.1,340,242.7,338.1,240.4z"/>
	<path class="st37" d="M336.1,237.7c0,0.3-0.2,0.6-0.7,0.9c-0.1,0.1,0-1.8-0.4-1.5c-0.1,0.1-6.2,4.9-9.6,4c-0.3-0.1-0.5-0.4-0.5-0.7
		v-0.8c0-0.9,1.2-2.2,3.2-4.1c2.1-2.1,3.5-3.4,6.7-1.6c0.9,0.5,1.3,0.9,1.3,1.3L336.1,237.7z"/>
	<path class="st38" d="M328,235.5c-2.6,2.5-4,4-2.7,4.8s4-0.4,6.8-2.5c2.4-1.8,5.9-2,2.7-3.9S330.2,233.4,328,235.5z"/>
	<path class="st40" d="M330.6,234.3l0.2-23.4l7.8,2.5l-1.3,3.8c0.3,3.5,0,6.9-1,10.3c0,0-1.1,2.3-0.9,7.5
		C335.4,234.9,332.5,236.6,330.6,234.3z"/>
	<path class="st24" d="M348.8,211.5v8.6c0,0-10.1,3.4-19.7-8.6v-8.4L348.8,211.5z"/>
	<path class="st41" d="M344,214.8c-0.1,0.1-0.2,0.1-0.3,0.1c-1.7,0.1-7.8-1.2-13.9-8.1c-0.5-0.5-0.8-1.3-0.8-2v-19.5
		c-0.1-1.2,0.4-2.3,1.4-3l4.6-2.7c1.1-0.5,2.3-0.4,3.3,0.3l6.3,3.6c2.7,1.8,4.4,4.8,4.6,8v19.6c0,0.4-0.1,0.7-0.5,0.9L344,214.8z"/>
	<path class="st42" d="M342.2,184.8c0,0.6-0.4,1.1-1,1.4c-1.4,0.7-3.1,0.7-4.6,0c-0.5-0.2-0.9-0.8-0.9-1.4v-4.3
		c0-0.6,0.4-1.1,0.9-1.4c1.4-0.7,3.1-0.7,4.6,0c0.5,0.2,0.9,0.8,1,1.4V184.8z"/>
	<path class="st36" d="M341.9,178.8c0,1.1,0.8,1.5,1.7,1c1-0.6,1.6-1.7,1.7-2.9c0-1.1-0.8-1.5-1.7-1
		C342.6,176.5,342,177.6,341.9,178.8z"/>
	<path class="st43" d="M333.2,190.3c0,0-8.6-7.8-3.4-21.8l4,14.5L333.2,190.3z"/>
	<ellipse transform="matrix(0.9731 -0.2306 0.2306 0.9731 -30.9214 82.8344)" class="st39" cx="339" cy="173.7" rx="8.9" ry="8.9"/>
	<path class="st43" d="M336.3,190.3c0,0,6.6-7.3,2-20.9l-8.3,2.8c0,0-2.9-7,6.5-9.1c0,0,6.2-1.4,8.4,3.8c0,0,5,0.4,3.1,10.7
		C348.1,177.7,347.8,187.4,336.3,190.3z"/>
	<path class="st36" d="M342.2,206.7L342.2,206.7c1.4,0.4,2.8-0.4,3.1-1.8l3.9-14.6c0.4-1.4-0.4-2.7-1.8-3.1l0,0
		c-1.4-0.4-2.7,0.4-3.1,1.8l-3.9,14.6C340.1,204.9,340.8,206.3,342.2,206.7z"/>
	<path class="st36" d="M328,207.2L328,207.2c0.3,1.4,1.6,2.2,3,1.9l11.8-2.4c1.4,0,2.6-1.1,2.6-2.4c0,0,0,0,0,0l0,0
		c0-1.4-1.1-2.6-2.5-2.6l-13,2.5C328.6,204.5,327.7,205.8,328,207.2z"/>
	<path class="st0" d="M167.6,266.9v-87.6c0-2.2,1.2-4.3,3.1-5.4L276,113.2c3-1.7,6.8-0.7,8.5,2.3c0.5,0.9,0.8,2,0.8,3.1v87.6
		c0,2.2-1.2,4.3-3.1,5.4L177,272.3c-3,1.7-6.8,0.8-8.5-2.2C167.9,269.1,167.6,268,167.6,266.9z"/>
	
		<linearGradient id="SVGID_19_" gradientUnits="userSpaceOnUse" x1="135.161" y1="180.1078" x2="306.0209" y2="459.3477" gradientTransform="matrix(1 0 0 -1 0 522)">
		<stop  offset="0" style="stop-color:#0F123B"/>
		<stop  offset="7.000000e-02" style="stop-color:#141754"/>
		<stop  offset="0.21" style="stop-color:#1B1F7A"/>
		<stop  offset="0.35" style="stop-color:#212599"/>
		<stop  offset="0.49" style="stop-color:#262AB2"/>
		<stop  offset="0.64" style="stop-color:#292DC3"/>
		<stop  offset="0.81" style="stop-color:#2B2FCE"/>
		<stop  offset="1" style="stop-color:#2C30D1"/>
	</linearGradient>
	<path class="st44" d="M173.9,271c-2.3,0-4.1-1.9-4.1-4.1v-87.5c0-1.5,0.8-2.8,2.1-3.6L277,115c0.6-0.4,1.3-0.5,2-0.6
		c2.3,0,4.1,1.9,4.1,4.1v87.6c0,1.5-0.8,2.8-2.1,3.6l-105.2,60.7C175.3,270.8,174.6,271,173.9,271z"/>
	
		<linearGradient id="SVGID_20_" gradientUnits="userSpaceOnUse" x1="270.4939" y1="421.8936" x2="152.9939" y2="281.8936" gradientTransform="matrix(1 0 0 -1 0 522)">
		<stop  offset="0" style="stop-color:#E4F2FF"/>
		<stop  offset="6.000000e-02" style="stop-color:#E1EFFF"/>
		<stop  offset="0.65" style="stop-color:#C7D7FB"/>
		<stop  offset="1" style="stop-color:#BDCEFA"/>
	</linearGradient>
	<path class="st45" d="M167.6,266.9v-87.6c0-2.2,1.2-4.3,3.1-5.4L276,113.2c1.6-0.9,3.6-1.1,5.3-0.4l0,0l-2.5-1.3
		c-2-1.5-4.7-1.7-6.8-0.4l-105.3,60.8c-1.9,1.1-3.1,3.2-3.1,5.4v87.6c0,2,0.9,3.8,2.6,5l0,0h0.1c0.4,0.3,0.9,0.5,1.3,0.7l2.8,1.5
		C168.7,270.8,167.6,268.9,167.6,266.9z"/>
	
		<linearGradient id="SVGID_21_" gradientUnits="userSpaceOnUse" x1="171.53" y1="249.37" x2="171.53" y2="249.37" gradientTransform="matrix(1 0 0 -1 0 522)">
		<stop  offset="0" style="stop-color:#E4F2FF"/>
		<stop  offset="6.000000e-02" style="stop-color:#E1EFFF"/>
		<stop  offset="0.65" style="stop-color:#C7D7FB"/>
		<stop  offset="1" style="stop-color:#BDCEFA"/>
	</linearGradient>
	<path class="st46" d="M171.5,272.6L171.5,272.6z"/>
	<path class="st0" d="M177,283l75.8,43.8c1.9,1.1,4.3,1.1,6.2,0L364.3,266c3-1.7,4-5.5,2.3-8.5c-0.5-0.9-1.3-1.7-2.3-2.3l-75.8-43.8
		c-1.9-1.1-4.3-1.1-6.2,0L177,272.3c-3,1.7-4,5.5-2.2,8.5C175.3,281.7,176.1,282.5,177,283z"/>
	
		<linearGradient id="SVGID_22_" gradientUnits="userSpaceOnUse" x1="397.0286" y1="240.4004" x2="216.0786" y2="216.6604" gradientTransform="matrix(1 0 0 -1 0 522)">
		<stop  offset="0" style="stop-color:#E4F2FF"/>
		<stop  offset="6.000000e-02" style="stop-color:#E1EFFF"/>
		<stop  offset="0.65" style="stop-color:#C7D7FB"/>
		<stop  offset="1" style="stop-color:#BDCEFA"/>
	</linearGradient>
	<path class="st47" d="M364.3,266L259,326.8c-1.9,1.1-4.3,1.1-6.2,0L177,283c-1.9-1.1-3.1-3.2-3.1-5.4v5.7c0,2.2,1.2,4.3,3.1,5.4
		l75.8,43.8c1.9,1.1,4.3,1.1,6.2,0l105.3-60.8c1.8-1.1,3-3,3.1-5.1l0,0v-5.7C367.3,263,366.1,265,364.3,266z M367.3,260.3
		C367.3,260.4,367.3,260.4,367.3,260.3L367.3,260.3z"/>
	<path class="st48" d="M325,248.9L234.6,301c-3.5,2-9.7,1.8-13.8-0.6l-27.2-15.7c-4.1-2.4-4.5-5.9-1-7.9l90.4-52.2
		c3.5-2,9.7-1.8,13.8,0.6l27.2,15.7C328.1,243.3,328.5,246.8,325,248.9z"/>
	<path class="st49" d="M192.7,278.1l90.4-52.2c3.5-2,9.7-1.8,13.8,0.6l27.2,15.7c1.9,1.1,3,2.5,3.3,3.9c0.4-1.7-0.8-3.7-3.3-5.1
		l-27.2-15.7c-4.1-2.4-10.2-2.6-13.8-0.6l-90.4,52.2c-1.9,1.1-2.6,2.5-2.3,4.1C190.7,279.6,191.5,278.6,192.7,278.1z"/>
	<path class="st49" d="M265.6,248.5l-4.8-2.8l-4.8,2.8l4.8,2.8L265.6,248.5z M256.2,253.9l-4.8-2.8l-4.8,2.8l4.8,2.8L256.2,253.9z
		 M275,243.1l-4.8-2.8l-4.8,2.8l4.8,2.8L275,243.1z M302.4,246l10-5.8l-4.8-2.8l-10,5.8L302.4,246z M304.3,235.5l-4.8-2.8l-4.8,2.8
		l4.8,2.8L304.3,235.5z M284.5,237.6l-4.8-2.8l-4.8,2.8l4.8,2.8L284.5,237.6z M246.8,259.4l-4.8-2.8l-4.8,2.8l4.8,2.8L246.8,259.4z
		 M296,244.1l-82.6,47.7l4.8,2.8l82.6-47.7L296,244.1z M237.4,264.8l-4.8-2.8l-4.8,2.8l4.8,2.8L237.4,264.8z M292.2,237l-86.9,50.1
		l4.8,2.8l86.9-50.2L292.2,237z M315.7,242.1l-94.2,54.4l4.8,2.8l94.2-54.4L315.7,242.1z M218.5,275.7l-4.8-2.8l-4.8,2.8l4.8,2.8
		L218.5,275.7z M227.9,270.3l-4.8-2.8l-4.8,2.8l4.8,2.8L227.9,270.3z"/>
	<path class="st50" d="M265.6,247.7l-4.8-2.8l-4.8,2.8l4.8,2.8L265.6,247.7z M256.2,253.1l-4.8-2.8l-4.8,2.8l4.8,2.8L256.2,253.1z
		 M275,242.2l-4.8-2.8l-4.8,2.8l4.8,2.8L275,242.2z M302.4,245.1l10-5.8l-4.8-2.8l-10,5.8L302.4,245.1z M304.3,234.7l-4.8-2.8
		l-4.8,2.8l4.8,2.8L304.3,234.7z M284.5,236.8l-4.8-2.8l-4.8,2.8l4.8,2.8L284.5,236.8z M246.8,258.5l-4.8-2.8l-4.8,2.8l4.8,2.8
		L246.8,258.5z M296,243.3L213.4,291l4.8,2.8l82.6-47.7L296,243.3z M237.4,264l-4.8-2.8l-4.8,2.8l4.8,2.8L237.4,264z M292.2,236.1
		l-86.9,50.2l4.8,2.8l86.9-50.2L292.2,236.1z M315.7,241.3l-94.2,54.4l4.8,2.8l94.2-54.4L315.7,241.3z M218.5,274.9l-4.8-2.8
		l-4.8,2.8l4.8,2.8L218.5,274.9z M227.9,269.4l-4.8-2.8l-4.8,2.8l4.8,2.8L227.9,269.4z"/>
	<path class="st0" d="M270.3,239.9l4.4,2.6l0.4-0.2l-4.8-2.8l-4.8,2.8l0.4,0.2L270.3,239.9z M279.7,234.4l4.4,2.6l0.4-0.2l-4.8-2.8
		l-4.8,2.8l0.4,0.2L279.7,234.4z M260.8,245.3l4.4,2.6l0.4-0.2l-4.8-2.8l-4.8,2.8l0.4,0.2L260.8,245.3z M298,242.6l9.6-5.6l4.4,2.6
		l0.4-0.2l-4.8-2.8l-10,5.8L298,242.6z M251.4,250.8l4.4,2.6l0.4-0.2l-4.8-2.8l-4.8,2.8l0.4,0.2L251.4,250.8z M299.5,232.3l4.5,2.6
		l0.4-0.2l-4.8-2.8l-4.8,2.8l0.4,0.2L299.5,232.3z M315.7,241.3l-94.2,54.4l0.4,0.2l93.8-54.2l4.4,2.6l0.4-0.2L315.7,241.3z
		 M296.6,239.1l0.4-0.2l-4.8-2.8l-86.9,50.2l0.4,0.2l86.6-50L296.6,239.1z M213.7,272.5l4.4,2.5l0.4-0.2l-4.8-2.8l-4.8,2.8l0.4,0.2
		L213.7,272.5z M300.4,246.3l0.4-0.2l-4.8-2.8L213.4,291l0.4,0.2l82.2-47.5L300.4,246.3z M223.2,267.1l4.4,2.5l0.4-0.2l-4.8-2.8
		l-4.8,2.8l0.4,0.2L223.2,267.1z M242,256.2l4.4,2.6l0.4-0.2l-4.8-2.8l-4.8,2.8l0.4,0.2L242,256.2z M232.6,261.6l4.4,2.6l0.4-0.2
		l-4.8-2.8l-4.8,2.8l0.4,0.2L232.6,261.6z"/>
	<path class="st48" d="M317.6,279.5l-28.2,16.3c-2.2,1-4.7,0.9-6.9-0.3l-6.2-3.6c-2-1.2-2.2-3-0.5-4l28.2-16.3
		c2.2-1,4.7-0.9,6.8,0.3l6.2,3.6C319.1,276.7,319.4,278.5,317.6,279.5z"/>
	<path class="st49" d="M275.9,288.8l28.2-16.3c2.2-1,4.7-0.9,6.8,0.3l6.2,3.6c0.8,0.4,1.3,1,1.6,1.8c0.3-0.9-0.3-1.9-1.6-2.7
		l-6.2-3.5c-2.1-1.2-4.6-1.3-6.8-0.3L275.9,288c-0.8,0.4-1.3,1.2-1.1,2.1C275,289.5,275.4,289.1,275.9,288.8z"/>
	<path class="st0" d="M268.3,145.1v-3.2c0-2.8-2-3.9-4.4-2.5l-75,43.3c-2.6,1.7-4.2,4.5-4.4,7.6v3.2L268.3,145.1z"/>
	<g>
		<path class="st0" d="M192.4,184.8c-0.1,1.2-0.7,2.3-1.8,3c-1,0.6-1.8,0.1-1.8-1c0.1-1.2,0.7-2.3,1.8-3
			C191.6,183.2,192.4,183.6,192.4,184.8z"/>
		<path class="st0" d="M198.5,181.2c-0.1,1.2-0.7,2.4-1.8,3.1c-1,0.6-1.8,0.1-1.8-1c0.1-1.2,0.7-2.3,1.8-3
			C197.7,179.6,198.5,180.1,198.5,181.2z"/>
		<path class="st0" d="M204.7,177.6c-0.1,1.2-0.7,2.3-1.8,3c-1,0.6-1.8,0.1-1.8-1c0.1-1.2,0.7-2.3,1.8-3
			C203.9,176.1,204.7,176.5,204.7,177.6z"/>
	</g>
	<g>
		<defs>
			<polygon id="SVGID_23_" points="239.9,204.6 211,221.3 206.8,184 235.7,167.3 			"/>
		</defs>
		<clipPath id="SVGID_24_">
			<use xlink:href="#SVGID_23_"  style="overflow:visible;"/>
		</clipPath>
		<g class="st51">
			
				<image style="overflow:visible;enable-background:new    ;" width="500" height="200" xlink:href="logo.png"  transform="matrix(6.891240e-02 -7.632349e-03 7.632349e-03 6.891240e-02 203.9754 190.5528)">
			</image>
		</g>
	</g>
	
		<linearGradient id="SVGID_25_" gradientUnits="userSpaceOnUse" x1="246.0202" y1="327.8596" x2="270.9503" y2="343.1896" gradientTransform="matrix(1 0 0 -1 0 522)">
		<stop  offset="0" style="stop-color:#FCFDFF;stop-opacity:0"/>
		<stop  offset="0.12" style="stop-color:#FCDBE7;stop-opacity:0.16"/>
		<stop  offset="0.37" style="stop-color:#FD9CB8;stop-opacity:0.45"/>
		<stop  offset="0.59" style="stop-color:#FE6A94;stop-opacity:0.69"/>
		<stop  offset="0.77" style="stop-color:#FF4679;stop-opacity:0.86"/>
		<stop  offset="0.91" style="stop-color:#FF2F69;stop-opacity:0.96"/>
		<stop  offset="1" style="stop-color:#FF2763"/>
	</linearGradient>
	<polygon class="st52" points="262.6,185.1 265.4,183.6 265.4,181 262.6,182.6 	"/>
	
		<linearGradient id="SVGID_26_" gradientUnits="userSpaceOnUse" x1="243.8983" y1="331.3228" x2="268.8282" y2="346.6429" gradientTransform="matrix(1 0 0 -1 0 522)">
		<stop  offset="0" style="stop-color:#FCFDFF;stop-opacity:0"/>
		<stop  offset="0.12" style="stop-color:#FCDBE7;stop-opacity:0.16"/>
		<stop  offset="0.37" style="stop-color:#FD9CB8;stop-opacity:0.45"/>
		<stop  offset="0.59" style="stop-color:#FE6A94;stop-opacity:0.69"/>
		<stop  offset="0.77" style="stop-color:#FF4679;stop-opacity:0.86"/>
		<stop  offset="0.91" style="stop-color:#FF2F69;stop-opacity:0.96"/>
		<stop  offset="1" style="stop-color:#FF2763"/>
	</linearGradient>
	<polygon class="st53" points="262.6,180.4 265.4,178.8 265.4,176.3 262.6,177.8 	"/>
	
		<linearGradient id="SVGID_27_" gradientUnits="userSpaceOnUse" x1="241.7718" y1="334.7672" x2="266.7018" y2="350.0971" gradientTransform="matrix(1 0 0 -1 0 522)">
		<stop  offset="0" style="stop-color:#FCFDFF;stop-opacity:0"/>
		<stop  offset="0.12" style="stop-color:#FCDBE7;stop-opacity:0.16"/>
		<stop  offset="0.37" style="stop-color:#FD9CB8;stop-opacity:0.45"/>
		<stop  offset="0.59" style="stop-color:#FE6A94;stop-opacity:0.69"/>
		<stop  offset="0.77" style="stop-color:#FF4679;stop-opacity:0.86"/>
		<stop  offset="0.91" style="stop-color:#FF2F69;stop-opacity:0.96"/>
		<stop  offset="1" style="stop-color:#FF2763"/>
	</linearGradient>
	<polygon class="st54" points="262.6,175.6 265.4,174 265.4,171.5 262.6,173.1 	"/>
	
		<linearGradient id="SVGID_28_" gradientUnits="userSpaceOnUse" x1="245.8581" y1="328.133" x2="270.7881" y2="343.453" gradientTransform="matrix(1 0 0 -1 0 522)">
		<stop  offset="0" style="stop-color:#FCFDFF;stop-opacity:0"/>
		<stop  offset="0.12" style="stop-color:#FCDBE7;stop-opacity:0.16"/>
		<stop  offset="0.37" style="stop-color:#FD9CB8;stop-opacity:0.45"/>
		<stop  offset="0.59" style="stop-color:#FE6A94;stop-opacity:0.69"/>
		<stop  offset="0.77" style="stop-color:#FF4679;stop-opacity:0.86"/>
		<stop  offset="0.91" style="stop-color:#FF2F69;stop-opacity:0.96"/>
		<stop  offset="1" style="stop-color:#FF2763"/>
	</linearGradient>
	<polygon class="st55" points="247.2,194.1 261.3,185.9 261.3,183.4 247.2,191.5 	"/>
	
		<linearGradient id="SVGID_29_" gradientUnits="userSpaceOnUse" x1="243.7284" y1="331.5826" x2="268.6684" y2="346.9126" gradientTransform="matrix(1 0 0 -1 0 522)">
		<stop  offset="0" style="stop-color:#FCFDFF;stop-opacity:0"/>
		<stop  offset="0.12" style="stop-color:#FCDBE7;stop-opacity:0.16"/>
		<stop  offset="0.37" style="stop-color:#FD9CB8;stop-opacity:0.45"/>
		<stop  offset="0.59" style="stop-color:#FE6A94;stop-opacity:0.69"/>
		<stop  offset="0.77" style="stop-color:#FF4679;stop-opacity:0.86"/>
		<stop  offset="0.91" style="stop-color:#FF2F69;stop-opacity:0.96"/>
		<stop  offset="1" style="stop-color:#FF2763"/>
	</linearGradient>
	<polygon class="st56" points="247.2,189.3 261.3,181.1 261.3,178.6 247.2,186.8 	"/>
	
		<linearGradient id="SVGID_30_" gradientUnits="userSpaceOnUse" x1="241.6111" y1="335.0381" x2="266.5411" y2="350.3582" gradientTransform="matrix(1 0 0 -1 0 522)">
		<stop  offset="0" style="stop-color:#FCFDFF;stop-opacity:0"/>
		<stop  offset="0.12" style="stop-color:#FCDBE7;stop-opacity:0.16"/>
		<stop  offset="0.37" style="stop-color:#FD9CB8;stop-opacity:0.45"/>
		<stop  offset="0.59" style="stop-color:#FE6A94;stop-opacity:0.69"/>
		<stop  offset="0.77" style="stop-color:#FF4679;stop-opacity:0.86"/>
		<stop  offset="0.91" style="stop-color:#FF2F69;stop-opacity:0.96"/>
		<stop  offset="1" style="stop-color:#FF2763"/>
	</linearGradient>
	<polygon class="st57" points="247.2,184.6 261.3,176.4 261.3,173.8 247.2,182 	"/>
	
		<linearGradient id="SVGID_31_" gradientUnits="userSpaceOnUse" x1="208.6419" y1="318.4472" x2="180.4419" y2="299.3272" gradientTransform="matrix(1 0 0 -1 0 522)">
		<stop  offset="0" style="stop-color:#FCFDFF;stop-opacity:0"/>
		<stop  offset="0.12" style="stop-color:#FCFAD7;stop-opacity:0.16"/>
		<stop  offset="0.37" style="stop-color:#FDF58C;stop-opacity:0.45"/>
		<stop  offset="0.59" style="stop-color:#FEF150;stop-opacity:0.69"/>
		<stop  offset="0.77" style="stop-color:#FFEE24;stop-opacity:0.86"/>
		<stop  offset="0.91" style="stop-color:#FFED0A;stop-opacity:0.96"/>
		<stop  offset="1" style="stop-color:#FFEC00"/>
	</linearGradient>
	<polygon class="st58" points="190.4,214.8 187.7,216.4 187.7,218.9 190.4,217.3 	"/>
	
		<linearGradient id="SVGID_32_" gradientUnits="userSpaceOnUse" x1="210.848" y1="315.1829" x2="182.648" y2="296.0629" gradientTransform="matrix(1 0 0 -1 0 522)">
		<stop  offset="0" style="stop-color:#FCFDFF;stop-opacity:0"/>
		<stop  offset="0.12" style="stop-color:#FCFAD7;stop-opacity:0.16"/>
		<stop  offset="0.37" style="stop-color:#FDF58C;stop-opacity:0.45"/>
		<stop  offset="0.59" style="stop-color:#FEF150;stop-opacity:0.69"/>
		<stop  offset="0.77" style="stop-color:#FFEE24;stop-opacity:0.86"/>
		<stop  offset="0.91" style="stop-color:#FFED0A;stop-opacity:0.96"/>
		<stop  offset="1" style="stop-color:#FFEC00"/>
	</linearGradient>
	<polygon class="st59" points="190.4,219.6 187.7,221.1 187.7,223.7 190.4,222.1 	"/>
	
		<linearGradient id="SVGID_33_" gradientUnits="userSpaceOnUse" x1="213.0564" y1="311.9253" x2="184.8564" y2="292.8053" gradientTransform="matrix(1 0 0 -1 0 522)">
		<stop  offset="0" style="stop-color:#FCFDFF;stop-opacity:0"/>
		<stop  offset="0.12" style="stop-color:#FCFAD7;stop-opacity:0.16"/>
		<stop  offset="0.37" style="stop-color:#FDF58C;stop-opacity:0.45"/>
		<stop  offset="0.59" style="stop-color:#FEF150;stop-opacity:0.69"/>
		<stop  offset="0.77" style="stop-color:#FFEE24;stop-opacity:0.86"/>
		<stop  offset="0.91" style="stop-color:#FFED0A;stop-opacity:0.96"/>
		<stop  offset="1" style="stop-color:#FFEC00"/>
	</linearGradient>
	<polygon class="st60" points="190.4,224.3 187.7,225.9 187.7,228.4 190.4,226.8 	"/>
	
		<linearGradient id="SVGID_34_" gradientUnits="userSpaceOnUse" x1="209.0995" y1="317.7708" x2="180.8895" y2="298.6507" gradientTransform="matrix(1 0 0 -1 0 522)">
		<stop  offset="0" style="stop-color:#FCFDFF;stop-opacity:0"/>
		<stop  offset="0.12" style="stop-color:#FCFAD7;stop-opacity:0.16"/>
		<stop  offset="0.37" style="stop-color:#FDF58C;stop-opacity:0.45"/>
		<stop  offset="0.59" style="stop-color:#FEF150;stop-opacity:0.69"/>
		<stop  offset="0.77" style="stop-color:#FFEE24;stop-opacity:0.86"/>
		<stop  offset="0.91" style="stop-color:#FFED0A;stop-opacity:0.96"/>
		<stop  offset="1" style="stop-color:#FFEC00"/>
	</linearGradient>
	<polygon class="st61" points="205.9,205.9 191.7,214 191.7,216.6 205.9,208.4 	"/>
	
		<linearGradient id="SVGID_35_" gradientUnits="userSpaceOnUse" x1="211.3091" y1="314.5114" x2="183.1091" y2="295.3914" gradientTransform="matrix(1 0 0 -1 0 522)">
		<stop  offset="0" style="stop-color:#FCFDFF;stop-opacity:0"/>
		<stop  offset="0.12" style="stop-color:#FCFAD7;stop-opacity:0.16"/>
		<stop  offset="0.37" style="stop-color:#FDF58C;stop-opacity:0.45"/>
		<stop  offset="0.59" style="stop-color:#FEF150;stop-opacity:0.69"/>
		<stop  offset="0.77" style="stop-color:#FFEE24;stop-opacity:0.86"/>
		<stop  offset="0.91" style="stop-color:#FFED0A;stop-opacity:0.96"/>
		<stop  offset="1" style="stop-color:#FFEC00"/>
	</linearGradient>
	<polygon class="st62" points="205.9,210.6 191.7,218.8 191.7,221.3 205.9,213.1 	"/>
	
		<linearGradient id="SVGID_36_" gradientUnits="userSpaceOnUse" x1="213.5198" y1="311.2502" x2="185.3198" y2="292.1302" gradientTransform="matrix(1 0 0 -1 0 522)">
		<stop  offset="0" style="stop-color:#FCFDFF;stop-opacity:0"/>
		<stop  offset="0.12" style="stop-color:#FCFAD7;stop-opacity:0.16"/>
		<stop  offset="0.37" style="stop-color:#FDF58C;stop-opacity:0.45"/>
		<stop  offset="0.59" style="stop-color:#FEF150;stop-opacity:0.69"/>
		<stop  offset="0.77" style="stop-color:#FFEE24;stop-opacity:0.86"/>
		<stop  offset="0.91" style="stop-color:#FFED0A;stop-opacity:0.96"/>
		<stop  offset="1" style="stop-color:#FFEC00"/>
	</linearGradient>
	<polygon class="st63" points="205.9,215.4 191.7,223.6 191.7,226.1 205.9,217.9 	"/>
	<path class="st0" d="M262.8,202.1l-71.3,41.2c-1.5,0.9-2.7-0.1-2.7-2l0,0c0-2,1-3.9,2.7-5.1l71.3-41.2c1.5-0.9,2.7,0.1,2.7,2l0,0
		C265.4,199,264.4,200.9,262.8,202.1z"/>
	
		<linearGradient id="SVGID_37_" gradientUnits="userSpaceOnUse" x1="195.1912" y1="355.6593" x2="119.1012" y2="221.8293" gradientTransform="matrix(1 0 0 -1 0 522)">
		<stop  offset="0" style="stop-color:#E4F2FF"/>
		<stop  offset="0.2" style="stop-color:#DCEAFE;stop-opacity:0.78"/>
		<stop  offset="0.6" style="stop-color:#CBDBFC;stop-opacity:0.37"/>
		<stop  offset="0.87" style="stop-color:#C1D2FB;stop-opacity:0.1"/>
		<stop  offset="1" style="stop-color:#BDCEFA;stop-opacity:0"/>
	</linearGradient>
	<path class="st64" d="M188.5,255.1l-67.6,39c-2.1,1.2-3.8-0.1-3.8-2.9v-63.9c0-2.8,1.7-6.1,3.8-7.3l67.6-39.1
		c2.1-1.2,3.8,0.1,3.8,2.9v63.9C192.3,250.7,190.6,253.9,188.5,255.1z"/>
	<g>
		
			<linearGradient id="SVGID_38_" gradientUnits="userSpaceOnUse" x1="201.061" y1="337.1094" x2="147.201" y2="244.6794" gradientTransform="matrix(1 0 0 -1 0 522)">
			<stop  offset="0" style="stop-color:#E4F2FF"/>
			<stop  offset="6.000000e-02" style="stop-color:#E1EFFF"/>
			<stop  offset="0.65" style="stop-color:#C7D7FB"/>
			<stop  offset="1" style="stop-color:#BDCEFA"/>
		</linearGradient>
		<polygon class="st65" points="186.4,248.6 122.9,285.2 122.9,280.5 186.4,243.8 		"/>
		
			<linearGradient id="SVGID_39_" gradientUnits="userSpaceOnUse" x1="186.4775" y1="345.6015" x2="132.6175" y2="253.1715" gradientTransform="matrix(1 0 0 -1 -4.504655e-03 521.9932)">
			<stop  offset="0" style="stop-color:#E4F2FF"/>
			<stop  offset="6.000000e-02" style="stop-color:#E1EFFF"/>
			<stop  offset="0.65" style="stop-color:#C7D7FB"/>
			<stop  offset="1" style="stop-color:#BDCEFA"/>
		</linearGradient>
		<path class="st66" d="M140.8,223c7.7-13.3,20.1-20.4,27.7-16c7.7,4.4,7.7,18.8,0,32s-20.1,20.4-27.7,16
			C133.1,250.6,133.1,236.3,140.8,223z"/>
	</g>
	
		<linearGradient id="SVGID_40_" gradientUnits="userSpaceOnUse" x1="328.765" y1="448.6976" x2="266.9749" y2="320.1276" gradientTransform="matrix(1 0 0 -1 0 522)">
		<stop  offset="0" style="stop-color:#E4F2FF"/>
		<stop  offset="0.2" style="stop-color:#DCEAFE;stop-opacity:0.78"/>
		<stop  offset="0.6" style="stop-color:#CBDBFC;stop-opacity:0.37"/>
		<stop  offset="0.87" style="stop-color:#C1D2FB;stop-opacity:0.1"/>
		<stop  offset="1" style="stop-color:#BDCEFA;stop-opacity:0"/>
	</linearGradient>
	<path class="st67" d="M327.3,157.1l-67.6,39c-2.1,1.2-3.8-0.1-3.8-2.9v-49.9c0-2.8,1.7-6.1,3.8-7.3l67.6-39
		c2.1-1.2,3.8,0.1,3.8,2.9v49.9C331.1,152.6,329.4,155.9,327.3,157.1z"/>
	<g>
		
			<linearGradient id="SVGID_41_" gradientUnits="userSpaceOnUse" x1="341.1193" y1="399.3908" x2="258.7193" y2="326.6208" gradientTransform="matrix(1 0 0 -1 0 522)">
			<stop  offset="0" style="stop-color:#E4F2FF"/>
			<stop  offset="6.000000e-02" style="stop-color:#E1EFFF"/>
			<stop  offset="0.65" style="stop-color:#C7D7FB"/>
			<stop  offset="1" style="stop-color:#BDCEFA"/>
		</linearGradient>
		<polygon class="st68" points="325.3,148.7 261.8,185.4 261.8,180.6 325.3,143.9 		"/>
		
			<linearGradient id="SVGID_42_" gradientUnits="userSpaceOnUse" x1="336.287" y1="404.8635" x2="253.877" y2="332.1035" gradientTransform="matrix(1 0 0 -1 0 522)">
			<stop  offset="0" style="stop-color:#E4F2FF"/>
			<stop  offset="6.000000e-02" style="stop-color:#E1EFFF"/>
			<stop  offset="0.65" style="stop-color:#C7D7FB"/>
			<stop  offset="1" style="stop-color:#BDCEFA"/>
		</linearGradient>
		<polygon class="st69" points="325.3,139 261.8,175.6 261.8,170.8 325.3,134.2 		"/>
		
			<linearGradient id="SVGID_43_" gradientUnits="userSpaceOnUse" x1="323.6097" y1="419.2203" x2="241.2098" y2="346.4503" gradientTransform="matrix(1 0 0 -1 0 522)">
			<stop  offset="0" style="stop-color:#E4F2FF"/>
			<stop  offset="6.000000e-02" style="stop-color:#E1EFFF"/>
			<stop  offset="0.65" style="stop-color:#C7D7FB"/>
			<stop  offset="1" style="stop-color:#BDCEFA"/>
		</linearGradient>
		<polygon class="st70" points="280.1,153.6 263.1,163.5 263.1,143.8 280.1,134 		"/>
		
			<linearGradient id="SVGID_44_" gradientUnits="userSpaceOnUse" x1="326.9395" y1="415.4506" x2="244.5295" y2="342.6906" gradientTransform="matrix(1 0 0 -1 0 522)">
			<stop  offset="0" style="stop-color:#E4F2FF"/>
			<stop  offset="6.000000e-02" style="stop-color:#E1EFFF"/>
			<stop  offset="0.65" style="stop-color:#C7D7FB"/>
			<stop  offset="1" style="stop-color:#BDCEFA"/>
		</linearGradient>
		<polygon class="st71" points="302,141 285,150.8 285,131.1 302,121.3 		"/>
		
			<linearGradient id="SVGID_45_" gradientUnits="userSpaceOnUse" x1="330.261" y1="411.6889" x2="247.861" y2="338.9189" gradientTransform="matrix(1 0 0 -1 0 522)">
			<stop  offset="0" style="stop-color:#E4F2FF"/>
			<stop  offset="6.000000e-02" style="stop-color:#E1EFFF"/>
			<stop  offset="0.65" style="stop-color:#C7D7FB"/>
			<stop  offset="1" style="stop-color:#BDCEFA"/>
		</linearGradient>
		<polygon class="st72" points="324,128.3 306.9,138.2 306.9,118.5 324,108.6 		"/>
	</g>
	<path class="st7" d="M115.7,381.5l-36.3,21c-2.7,1.5-7.3,1.3-10.4-0.4L34.2,382c-3.1-1.8-3.4-4.5-0.7-6l36.3-21
		c2.7-1.5,7.3-1.3,10.4,0.4l34.8,20.1C118,377.3,118.3,380,115.7,381.5z"/>
	
		<linearGradient id="SVGID_46_" gradientUnits="userSpaceOnUse" x1="119.4604" y1="145.2831" x2="36.0604" y2="-22.847" gradientTransform="matrix(1 0 0 -1 0 522)">
		<stop  offset="0" style="stop-color:#E4F2FF"/>
		<stop  offset="6.000000e-02" style="stop-color:#E1EFFF"/>
		<stop  offset="0.65" style="stop-color:#C7D7FB"/>
		<stop  offset="1" style="stop-color:#BDCEFA"/>
	</linearGradient>
	<path class="st73" d="M117.4,444.5v-66.1l0,0c-0.2,0.9-0.9,1.7-1.7,2.1l-36.3,21c-1.5,0.8-3.1,1.1-4.8,1v67c1.7,0.1,3.3-0.2,4.8-1
		l36.3-21C116.9,447,117.6,445.8,117.4,444.5z"/>
	
		<linearGradient id="SVGID_47_" gradientUnits="userSpaceOnUse" x1="109.3076" y1="178.83" x2="33.7476" y2="71.78" gradientTransform="matrix(1 0 0 -1 0 522)">
		<stop  offset="0" style="stop-color:#E4F2FF"/>
		<stop  offset="6.000000e-02" style="stop-color:#E1EFFF"/>
		<stop  offset="0.65" style="stop-color:#C7D7FB"/>
		<stop  offset="1" style="stop-color:#BDCEFA"/>
	</linearGradient>
	<path class="st74" d="M69,400.1L34.2,380c-1.2-0.6-2.1-1.6-2.5-2.9v66.1c-0.3,1.3,0.6,2.8,2.5,3.9L69,467c1.7,0.9,3.6,1.4,5.6,1.4
		v-67C72.6,401.5,70.7,401,69,400.1z"/>
	<path class="st37" d="M361,337.2c-0.3,0.1-0.4,0.5-0.5,1c0,0.2,1.6-0.9,1.5-0.4c0,0.1-1.1,7.8,1.3,10.3c0.2,0.2,0.6,0.3,0.9,0.1
		l0.7-0.4c0.8-0.4,1.3-2.1,2-4.8c0.8-2.9,1.2-4.7-2-6.6c-0.9-0.5-1.4-0.7-1.7-0.5L361,337.2z"/>
	<path class="st38" d="M366.9,343.1c-0.9,3.5-1.5,5.5-2.9,4.7s-1.6-3.7-1.2-7.1c0.4-3-1.1-6.1,2.1-4.2S367.7,340.2,366.9,343.1z"/>
	<path class="st40" d="M387.5,320.7l-6.5,2.4l-2.7,3c-3.1,1.4-6,3.4-8.4,5.9c0,0-1.4,2.1-6.1,4.5c0,0,0,3.3,2.9,3.8l18.7-10.8
		c1.3-0.7,2.2-2.1,2.3-3.6C387.8,324.2,387.8,322.4,387.5,320.7z"/>
	<path class="st75" d="M373.7,353.7c0,0.3,0.2,0.6,0.7,0.9c0.1,0.1,0-1.8,0.4-1.5c0.1,0.1,6.2,4.8,9.6,4c0.3-0.1,0.5-0.4,0.5-0.7
		v-0.8c0-0.9-1.2-2.2-3.2-4.1c-2.1-2.1-3.5-3.4-6.7-1.5c-0.9,0.5-1.3,0.9-1.3,1.3L373.7,353.7z"/>
	<path class="st38" d="M381.8,351.5c2.6,2.5,4,4,2.7,4.8s-4-0.4-6.7-2.5c-2.4-1.8-5.9-2-2.7-3.9S379.6,349.5,381.8,351.5z"/>
	<path class="st39" d="M379.2,350.3L379,327l-6.4,2l-0.1,4.3c-0.3,3.4,0,6.9,1,10.2c0,0,1.1,2.2,0.9,7.5
		C374.4,351,377.3,352.6,379.2,350.3z"/>
	<path class="st40" d="M396.4,317.6L396.4,317.6c-1.3,0.6-2.8,0-3.3-1.3c0,0,0,0,0,0l-10-22.1c-0.6-1.3,0-2.8,1.3-3.4l0,0
		c1.3-0.6,2.8,0,3.3,1.3c0,0,0,0,0,0l10,22.1C398.3,315.6,397.7,317,396.4,317.6z"/>
	
		<linearGradient id="SVGID_48_" gradientUnits="userSpaceOnUse" x1="399.401" y1="213.9026" x2="380.131" y2="221.4227" gradientTransform="matrix(1 0 0 -1 0 522)">
		<stop  offset="0" style="stop-color:#E8E9FF"/>
		<stop  offset="1" style="stop-color:#C0C0F6"/>
	</linearGradient>
	<polygon class="st76" points="397.4,315.1 381.7,306.1 381.7,293.4 397.4,302.5 	"/>
	<polygon class="st77" points="393.5,311.7 393.5,302.1 393.9,302.3 393.9,311.9 	"/>
	<polygon class="st77" points="392.8,308.4 392.8,301.7 393.1,301.9 393.1,308.6 	"/>
	<polygon class="st77" points="392,310.1 392,301.2 392.4,301.4 392.4,310.3 	"/>
	<polygon class="st77" points="391.3,310.4 391.3,300.8 391.6,301 391.6,310.6 	"/>
	<polygon class="st77" points="390.5,303.9 390.5,300.4 390.8,300.5 390.8,304.1 	"/>
	<path class="st27" d="M368.5,321.5v8.6c0,0,10.1,3.4,19.6-8.6v-8.3L368.5,321.5z"/>
	<path class="st78" d="M373.1,324.2c0.1,0.1,0.2,0.1,0.3,0.1c1.7,0.1,7.8-1.2,13.9-8.1c0.5-0.5,0.8-1.3,0.8-2v-19.4
		c0.1-1.2-0.4-2.3-1.4-3l-4.6-2.7c-1.1-0.5-2.3-0.4-3.3,0.3l-6.2,3.6c-2.7,1.8-4.4,4.7-4.6,7.9v19.6c0,0.4,0.1,0.7,0.4,0.9
		L373.1,324.2z"/>
	<path class="st42" d="M374.9,294.3c0,0.6,0.4,1.1,1,1.3c1.4,0.7,3.1,0.7,4.6,0c0.5-0.2,0.9-0.8,1-1.3V290c0-0.6-0.4-1.1-1-1.3
		c-1.4-0.7-3.1-0.7-4.6,0c-0.5,0.2-0.9,0.8-1,1.3V294.3z"/>
	<path class="st36" d="M357.6,322.1L357.6,322.1c-1.2-0.6-1.7-2.2-1.1-3.4l11-21.8c0.6-1.2,2.1-1.7,3.4-1.1c0,0,0,0,0,0l0,0
		c1.2,0.6,1.7,2.1,1.1,3.4c0,0,0,0,0,0L361,321C360.4,322.2,358.9,322.7,357.6,322.1z"/>
	<path class="st79" d="M386.3,280.9l3.2,12.4c0.2,0.8-0.2,1.6-1,1.8c-0.3,0.1-0.6,0.1-0.9-0.1l-7.4-3.1c-0.6-0.3-1-0.9-0.9-1.6
		l2.4-12.2c0.1-0.8,0.9-1.3,1.7-1.1c0.4,0.1,0.8,0.3,1,0.7l1.8,2.9C386.2,280.6,386.3,280.7,386.3,280.9z"/>
	<path class="st36" d="M375.1,288.3c0,1.1-0.8,1.5-1.7,1c-1-0.6-1.6-1.7-1.7-2.9c0-1.1,0.8-1.5,1.7-1
		C374.5,286,375.1,287.1,375.1,288.3z"/>
	<circle class="st36" cx="378.1" cy="283.2" r="8.9"/>
	<path class="st79" d="M369.4,284.4c0,0,7.5,4.1,11.2-6.6c0,0,2,4.5,6.8,3.5c0,0,0-7-7.3-8.4C380.2,272.9,367.3,271.6,369.4,284.4z"
		/>
	<path class="st79" d="M373.6,284.8l3.2,12.4c0.2,0.8-0.2,1.6-1,1.8c-0.3,0.1-0.7,0.1-1-0.1l-7.3-3c-0.6-0.3-1-0.9-0.9-1.6L369,282
		c0.2-0.8,0.9-1.3,1.7-1.1c0.4,0.1,0.7,0.3,0.9,0.7l1.8,2.9C373.5,284.5,373.5,284.6,373.6,284.8z"/>
	<path d="M302.6,322.8c-0.1,1,1.5,2.5,3.9,3.9c3.2,1.8,4.3,4.1,8.2,1.9c1.1-0.6,1.6-1.2,1.6-1.6v-2.4c0.1-1.1-2.6-1.8-4.9-3.1
		c-3.2-1.8-6.6-2.8-8.2-1.9c-0.4,0.2-0.6,0.5-0.6,0.9V322.8z"/>
	<path class="st75" d="M306.5,324.2c-3.2-1.8-4.9-3.8-3.3-4.7s5,0.1,8.2,1.9s7.2,2.5,3.3,4.7S309.6,326,306.5,324.2z"/>
	<path d="M311.4,316.7c-0.1,1,1.5,2.5,3.9,3.9c3.2,1.8,4.3,4.1,8.2,1.9c1.1-0.6,1.6-1.2,1.6-1.6v-2.4c0.1-1.1-2.6-1.8-4.9-3.1
		c-3.2-1.8-6.6-2.8-8.2-1.9c-0.4,0.2-0.6,0.5-0.6,0.9L311.4,316.7z"/>
	<path class="st75" d="M315.3,318.1c-3.2-1.8-4.9-3.8-3.3-4.7s5,0,8.2,1.9s7.2,2.5,3.3,4.7S318.5,319.9,315.3,318.1z"/>
	<path class="st80" d="M307.9,244L307.9,244c1.2-0.8,2.8-0.4,3.6,0.8l10.8,17.2c0.8,1.2,0.4,2.8-0.8,3.6l0,0
		c-1.2,0.8-2.8,0.4-3.6-0.8l-10.8-17.2C306.3,246.4,306.7,244.8,307.9,244z"/>
	<path class="st81" d="M315,262.8l3.5,5.5c1.2,1.9,3.6,2.5,5.5,1.3c0,0,0,0,0,0l0,0c1.9-1.2,2.5-3.6,1.3-5.5c0,0,0,0,0,0l-3.5-5.5
		C321.8,258.5,317.4,256.9,315,262.8z"/>
	<path class="st82" d="M316.2,323.4c0.1-0.2,0.2-0.5,0.2-0.8v-27.2c0-1.7-1.8-3.1-3.9-3.1l0,0c-2.2,0-3.9,1.4-3.9,3.1V325
		c0,0.4,0.3,0.8,0.7,1C310.7,326.4,314.3,327,316.2,323.4z"/>
	<path class="st82" d="M325,317c0.1-0.2,0.2-0.5,0.2-0.8l-0.6-27.2c0-1.7-1.8-3.1-4-3l0,0c-2.2,0-3.9,1.5-3.9,3.2l0.6,29.5
		c0,0.4,0.3,0.8,0.7,0.9C319.6,320.1,323.2,320.7,325,317z"/>
	<path class="st83" d="M309.8,300.3c0.1,0.1,0.2,0.1,0.3,0.1c1.7,0.1,8-1.2,14.3-8.3c0.5-0.5,0.8-1.3,0.9-2v-20
		c0.1-1.2-0.4-2.4-1.4-3l-4.7-2.8c-1.1-0.5-2.4-0.4-3.4,0.3l-6.4,3.7c-2.8,1.8-4.5,4.9-4.7,8.2v20.1c-0.1,0.4,0.1,0.8,0.5,1
		L309.8,300.3z"/>
	<path class="st39" d="M311.6,269.5c0.1,0.6,0.4,1.1,1,1.4c1.5,0.8,3.2,0.8,4.7,0c0.6-0.2,0.9-0.8,1-1.4v-4.4
		c-0.1-0.6-0.4-1.1-1-1.4c-1.5-0.8-3.2-0.8-4.7,0c-0.6,0.2-0.9,0.8-1,1.4V269.5z"/>
	<circle class="st80" cx="314.9" cy="258.2" r="9.1"/>
	<path class="st80" d="M299.1,298.6L299.1,298.6c-1.4-0.5-2.1-1.9-1.6-3.3l6.9-18.6c0.5-1.4,1.9-2.1,3.3-1.6c0,0,0,0,0,0l0,0
		c1.4,0.5,2.1,1.9,1.6,3.3l-6.9,18.6C301.9,298.4,300.5,299.1,299.1,298.6z"/>
	<path class="st81" d="M309.6,281.9l2.1-6.2c0.7-2.1-0.4-4.4-2.5-5.1c0,0,0,0,0,0l0,0c-2.1-0.7-4.4,0.4-5.1,2.5c0,0,0,0,0,0
		l-2.1,6.2C302,279.3,303.5,283.8,309.6,281.9z"/>
	<path class="st84" d="M320.1,266.5c-2.9,1.7-5.1,0.4-5.9-0.8c-2-3.1-2.3-1-3.5-2.5c-1.5-2.5-1.2-6-3.3-7.6
		c-3.1-2.3-2.2-6.9,5.8-8.9c10.7-2.7,15,10.8,8.3,18.6C321.1,265.9,320.6,266.3,320.1,266.5z"/>
	<path class="st80" d="M311.7,263.7c-0.2,0.5-0.8,0.7-1.3,0.5c-0.4-0.2-0.6-0.6-0.6-1c-0.2-1.2,0.1-2.4,0.9-3.3
		c0.8-0.8,1.6-0.5,1.9,0.5C312.9,261.5,312.5,262.8,311.7,263.7z"/>
	<path class="st80" d="M265.2,371.5L265.2,371.5c-1,0.7-2.5,0.5-3.2-0.5c0,0,0,0,0,0l-10.4-14.7c-0.7-1-0.5-2.5,0.5-3.2c0,0,0,0,0,0
		l0,0c1-0.7,2.5-0.5,3.2,0.5l10.4,14.7C266.5,369.3,266.2,370.7,265.2,371.5C265.2,371.5,265.2,371.5,265.2,371.5z"/>
	<path class="st2" d="M258,355.1l-3.4-4.7c-1.1-1.6-3.4-2-5-0.9c0,0,0,0,0,0l0,0c-1.6,1.1-2,3.4-0.9,5c0,0,0,0,0,0l3.4,4.7
		C252.1,359.3,256.1,360.5,258,355.1z"/>
	<path class="st83" d="M246.3,374c0.1,0.2,0.3,0.4,0.5,0.5l12.2,6.9c1.3,0.8,3.2,0,4.1-1.6l0,0c1-1.7,0.6-3.6-0.7-4.4l-13.9-8
		c-0.3-0.2-0.7-0.1-1,0.1C246.4,368.5,244.4,370.9,246.3,374z"/>
	<path class="st83" d="M238.3,378.1c0.1,0.2,0.3,0.4,0.5,0.5l12.1,6.9c1.3,0.8,3.2,0,4.1-1.6l0,0c0.9-1.7,0.6-3.6-0.7-4.4l-13.9-8
		c-0.3-0.2-0.7-0.1-1,0.1C238.4,372.6,236.3,375,238.3,378.1z"/>
	<path class="st37" d="M257.3,399c-0.1,1,2.3,1.6,4.3,2.8c2.8,1.6,5.8,2.5,7.3,1.7c0.3-0.2,0.5-0.4,0.5-0.8V401
		c0-0.9-1.3-2.4-3.5-4.4c-2.3-2.3-3.8-3.7-7.3-1.7c-1,0.6-1.4,1-1.4,1.4L257.3,399z"/>
	<path class="st85" d="M266,396.6c2.8,2.7,4.3,4.4,2.9,5.2s-4.3-0.4-7.3-2.6c-2.6-2-6.4-2.2-2.9-4.2
		C262.2,392.9,263.6,394.3,266,396.6z"/>
	<path class="st83" d="M263.7,394.6c0.1-0.2,0.2-0.5,0.2-0.7v-16.2c0-1.5-1.6-2.8-3.5-2.8l0,0c-1.9,0-3.5,1.2-3.5,2.8V396
		c0,0.4,0.2,0.7,0.6,0.8C258.9,397.3,262,397.8,263.7,394.6z"/>
	<path class="st86" d="M239.5,379.5c0.1,0.1,0.2,0.1,0.3,0.1c1.5,0.1,7.1-1.1,12.6-7.3c0.4-0.5,0.7-1.1,0.8-1.8v-17.7
		c0.1-1.1-0.4-2.1-1.3-2.7l-4.2-2.4c-1-0.5-2.1-0.4-3,0.3l-5.7,3.3c-2.5,1.6-4,4.3-4.2,7.2v17.9c0,0.3,0.1,0.7,0.4,0.9L239.5,379.5z
		"/>
	<path class="st37" d="M248.9,402.6c-0.1,1,2.3,1.6,4.3,2.8c2.8,1.6,5.8,2.5,7.3,1.7c0.3-0.1,0.5-0.4,0.5-0.8v-1.6
		c0-0.9-1.3-2.4-3.4-4.4c-2.3-2.3-3.8-3.7-7.3-1.7c-1,0.6-1.4,1-1.4,1.4L248.9,402.6z"/>
	<path class="st85" d="M257.6,400.3c2.8,2.7,4.3,4.4,2.9,5.2s-4.3-0.4-7.3-2.7c-2.6-2-6.4-2.2-2.9-4.2S255.3,398,257.6,400.3z"/>
	<path class="st83" d="M255.4,398.3c0.1-0.2,0.2-0.5,0.2-0.7v-16.2c0-1.5-1.6-2.8-3.5-2.8l0,0c-1.9,0-3.5,1.3-3.5,2.8v18.3
		c0,0.4,0.3,0.7,0.6,0.8C250.6,400.9,253.7,401.5,255.4,398.3z"/>
	<path class="st39" d="M240.1,352.2c0,0.5,0.4,1,0.9,1.2c1.3,0.7,2.9,0.7,4.2,0c0.5-0.2,0.8-0.7,0.9-1.2v-3.9c0-0.5-0.4-1-0.9-1.2
		c-1.3-0.7-2.9-0.7-4.2,0c-0.5,0.2-0.8,0.7-0.9,1.2V352.2z"/>
	<circle class="st80" cx="243.1" cy="342.2" r="8.1"/>
	<path class="st87" d="M238.7,348.6c0.8-0.7,1.3-1.7,1.7-2.7c0-0.1,0-0.1,0-0.2v-3.9c0-0.8,0.2-1.5,0.6-2.2c0.3-0.6,0.9-1,1.6-1
		c0,0,6.5,2.8,8.9-2.5c0.2-0.4,0-0.8-0.3-1c0,0-0.1,0-0.1,0c-0.5-0.1-1.1-0.5-1.8-1.6c-0.2-0.3-0.5-0.4-0.8-0.3
		c-1.1,0.2-2.2-0.2-2.9-1.1c-0.1-0.2-0.3-0.2-0.5-0.2c-1.2,0-5.5,0.2-7.9,1.9l0,0c-0.5,0.4-8.5,7.3,0.6,14.8
		C238.1,348.8,238.5,348.8,238.7,348.6z"/>
	<path class="st80" d="M240.4,346.8c0,1-0.7,1.4-1.5,0.9c-0.9-0.6-1.5-1.6-1.5-2.6c0-1,0.7-1.4,1.5-0.9
		C239.7,344.7,240.3,345.7,240.4,346.8z"/>
	<polygon class="st88" points="263.4,374.5 248.9,382.8 237.8,376.7 252.6,368.3 	"/>
	<polygon class="st89" points="263.4,374.5 265.6,360 249.6,369.2 248.9,382.8 	"/>
	<path class="st80" d="M250.7,376.9L250.7,376.9c-1,0.7-2.5,0.5-3.2-0.5c0,0,0,0,0,0l-10.4-14.7c-0.7-1-0.5-2.5,0.5-3.2l0,0
		c1-0.7,2.5-0.5,3.2,0.5l10.4,14.7C252,374.7,251.7,376.2,250.7,376.9C250.7,376.9,250.7,376.9,250.7,376.9z"/>
	<path class="st2" d="M243.1,361.3l-2.9-5c-1-1.7-3.2-2.3-4.9-1.3l0,0c-1.7,1-2.3,3.2-1.3,4.9l2.9,5
		C236.9,364.8,240.7,366.4,243.1,361.3z"/>
	<path class="st36" d="M456.9,326.1L456.9,326.1c1.3,0.2,2.6-0.7,2.8-2c0,0,0,0,0,0l1.8-9.9c0.2-1.3-0.7-2.6-2-2.8c0,0,0,0,0,0l0,0
		c-1.3-0.2-2.6,0.7-2.8,2c0,0,0,0,0,0l-1.7,9.9C454.8,324.6,455.6,325.8,456.9,326.1z"/>
	<path class="st90" d="M454.9,316l1.1-6c0.4-2,2.3-3.4,4.4-3l0,0c2,0.4,3.4,2.3,3,4.4l-1.1,6C462.3,317.4,459.1,320.4,454.9,316z"/>
	<path class="st36" d="M446,327L446,327c0.4,1.3,1.8,2,3.1,1.6l8.4-2.5c1.3-0.1,2.4-1.2,2.3-2.6l0,0c-0.1-1.3-1.2-2.4-2.6-2.3
		l-9.6,2.7C446.3,324.4,445.6,325.7,446,327z"/>
	<path class="st37" d="M472.2,365.7c0.1,1.1-2.4,1.7-4.6,3c-3,1.7-6.2,2.6-7.7,1.8c-0.3-0.2-0.6-0.5-0.6-0.8v-1.8
		c-0.1-1,1.4-2.5,3.6-4.7c2.5-2.4,4-3.9,7.7-1.8c1,0.6,1.5,1.1,1.5,1.5L472.2,365.7z"/>
	<path class="st85" d="M463,363.2c-3,2.9-4.6,4.6-3.1,5.5s4.6-0.5,7.7-2.8c2.7-2.1,6.7-2.3,3.1-4.4S465.5,360.8,463,363.2z"/>
	<path class="st91" d="M465.4,361.1c-0.1-0.2-0.2-0.5-0.2-0.7v-25.5c0-1.6,1.7-2.9,3.7-2.9l0,0c2,0,3.7,1.3,3.7,2.9v27.7
		c0,0.4-0.3,0.8-0.7,0.9C470.5,363.9,467.2,364.5,465.4,361.1z"/>
	<path class="st37" d="M464.3,359.8c0.1,1.1-2.4,1.7-4.6,3c-3,1.7-6.2,2.6-7.7,1.8c-0.3-0.2-0.6-0.5-0.6-0.8v-1.7
		c0-1,1.4-2.5,3.6-4.7c2.5-2.4,4-3.9,7.7-1.8c1,0.6,1.5,1.1,1.5,1.4L464.3,359.8z"/>
	<path class="st85" d="M455,357.3c-3,2.9-4.6,4.6-3.1,5.5s4.6-0.5,7.7-2.8c2.7-2.1,6.7-2.3,3.1-4.4S457.5,354.9,455,357.3z"/>
	<path class="st92" d="M457.4,355.2c-0.1-0.2-0.2-0.5-0.2-0.7V329c0-1.6,1.7-2.9,3.7-2.9l0,0c2,0,3.7,1.3,3.7,2.9v27.7
		c0,0.4-0.3,0.8-0.7,0.9C462.6,358,459.2,358.6,457.4,355.2z"/>
	<path class="st93" d="M471.4,339.4c-0.1,0.1-0.2,0.1-0.3,0.1c-1.6,0.1-7.5-1.1-13.4-7.8c-0.5-0.5-0.8-1.2-0.8-1.9v-18.8
		c-0.1-1.1,0.4-2.2,1.3-2.9l4.4-2.6c1-0.5,2.2-0.4,3.1,0.3l6,3.5c2.6,1.7,4.2,4.6,4.4,7.7V336c0,0.4-0.1,0.7-0.4,0.9L471.4,339.4z"
		/>
	<path class="st94" d="M469.7,310.6c0,0.6-0.4,1.1-0.9,1.3c-1.4,0.7-3,0.7-4.4,0c-0.5-0.2-0.9-0.7-0.9-1.3v-4.1
		c0-0.6,0.4-1.1,0.9-1.3c1.4-0.7,3-0.7,4.4,0c0.5,0.2,0.9,0.7,0.9,1.3V310.6z"/>
	<circle class="st80" cx="466.6" cy="300" r="8.6"/>
	<path class="st95" d="M473.7,289.8c7.3,2.5,3.7,13.2-1.6,17.1c-2.6-1.4,0.6-4-3-2.2c-0.7-3.4,0.9-2.4-0.1-6.7
		c-3.7,1.9-11-0.4-12.1-4c1.3-0.6,2.6-4.3,5.7-5.6C466.5,286.6,471.5,287.4,473.7,289.8z"/>
	<path class="st80" d="M469.4,304.8c0,1,0.7,1.4,1.6,0.9c0.9-0.6,1.5-1.6,1.6-2.8c0-1-0.7-1.4-1.6-0.9
		C470.1,302.6,469.5,303.6,469.4,304.8z"/>
	<polygon class="st96" points="472.6,327 459.2,334.7 445.8,327 445.8,321.1 459.2,313.3 472.6,321.1 	"/>
	<polygon class="st97" points="459.2,313.3 472.6,321.1 459.2,328.7 445.8,321.1 	"/>
	<path class="st36" d="M472.2,332.1L472.2,332.1c1.3,0.2,2.6-0.7,2.8-2c0,0,0,0,0,0l1.4-10c0.2-1.3-0.7-2.6-2.1-2.8l0,0
		c-1.3-0.2-2.6,0.7-2.8,2.1l-1.4,10C470,330.6,470.9,331.8,472.2,332.1z"/>
	<path class="st90" d="M469.8,322.1l0.9-6.1c0.3-2.1,2.2-3.5,4.3-3.2l0,0c2.1,0.3,3.5,2.2,3.2,4.3l-0.9,6.1
		C477.3,323.2,474.2,326.2,469.8,322.1z"/>
	<path class="st36" d="M458.7,334.3L458.7,334.3c0.4,1.3,1.8,1.9,3.1,1.5l11-3.8c1.3-0.1,2.3-1.3,2.2-2.7l0,0
		c-0.1-1.3-1.3-2.3-2.7-2.2l-12.1,4C458.9,331.6,458.3,333,458.7,334.3C458.7,334.3,458.7,334.3,458.7,334.3z"/>
	<g id="web">
		<ellipse transform="matrix(0.866 -0.5 0.5 0.866 -168.1201 79.4688)" class="st98" cx="64.2" cy="353.5" rx="19.9" ry="34.5"/>
         accumulate="none" additive="replace" attributeName="transform" attributeType="XML" calcMode="linear" dur="3s" fill="remove" id="any" repeatCount="indefinite" restart="always" type="translate" values="0,10;0,-10;0,10"
		<ellipse transform="matrix(0.866 -0.5 0.5 0.866 -168.1201 79.4688)" class="st11" cx="64.2" cy="353.5" rx="17.9" ry="31"/>
		<path class="st12" d="M76.9,318c-6.8-3.9-12.9-4.3-17.3-1.7l-12.5,7.2l0,0c4.4-2.5,10.5-2.1,17.2,1.7
			c13.4,7.8,24.4,26.7,24.4,42.2c0,7.7-2.7,13.2-7.1,15.7l0,0l12.5-7.2c4.4-2.5,7.2-8,7.2-15.8C101.3,344.7,90.4,325.8,76.9,318z"/>
		<path class="st0" d="M58.1,358.2c1.1,0.1,2.2,0.3,3.3,0.6l0.3,0.1c0.7,0.3,1.4,0.5,2,0.9v-6.1l-6.6-3.8
			C57.1,352.7,57.5,355.5,58.1,358.2z"/>
		<path class="st0" d="M71,347.7h0.4h0.3c0.8-0.1,1.5-0.2,2.2-0.5c-1.6-2.6-3.5-5.1-5.8-7.1c0.7,1.4,1.4,2.8,1.9,4.2
			C70.3,345.4,70.7,346.5,71,347.7z"/>
		<path class="st0" d="M62.5,336.3c-1.2,0-2.3,0.8-3.3,2.4c-0.3,0.6-0.6,1.2-0.8,1.9c1,1.1,2,2.1,3.1,3l0.3,0.3
			c0.6,0.5,1.2,0.9,1.9,1.4v-8.3h-0.1C63.2,336.7,62.9,336.5,62.5,336.3z"/>
		<path class="st0" d="M61.5,360.1c-1-0.3-2-0.5-3.1-0.6c0.3,1,0.5,1.9,0.8,2.9c0.7,2.2,1.8,4.3,3.3,6.2c0.4,0.3,0.7,0.5,1.1,0.7
			l0.1,0.1V361c-0.6-0.3-1.2-0.6-1.9-0.8L61.5,360.1z"/>
		<path class="st0" d="M61.3,344.7c-1.2-1-2.2-2-3.2-3.1c-0.6,2.3-1,4.8-1,7.2l6.6,3.8v-6.1c-0.7-0.5-1.4-0.9-2-1.5L61.3,344.7z"/>
		<path class="st0" d="M57.3,340.7c-0.2-0.2-0.3-0.4-0.5-0.6l-0.3-0.4c-0.8-1.1-1.6-2.2-2.3-3.3c-2.5,1.5-3.9,4.5-4,8.5l6.1,3.5
			C56.2,345.7,56.6,343.1,57.3,340.7z"/>
		<path class="st0" d="M57.6,359.6h-0.4l-0.3,0.1c-0.7,0.1-1.4,0.3-2.1,0.6c1.5,2.4,3.4,4.7,5.5,6.6c-0.7-1.4-1.4-2.8-1.9-4.2
			C58.2,361.7,57.9,360.7,57.6,359.6z"/>
		<path class="st0" d="M56.8,358.3l0.5,0c-0.6-2.9-1-5.8-1-8.8l-6.1-3.5c0.3,4.6,1.7,9,4,13c0.7-0.3,1.5-0.6,2.3-0.7L56.8,358.3z"/>
		<path class="st0" d="M57.2,339.2l0.4,0.5c0.2-0.7,0.6-1.4,0.9-2c0.5-0.8,1.1-1.5,1.9-2.1c-1.8-0.5-3.7-0.4-5.5,0.3
			c0.6,1,1.3,2,2.1,3L57.2,339.2z"/>
		<path class="st0" d="M71.3,366c0.2,0.2,0.4,0.5,0.6,0.7l0.3,0.4c0.9,1.1,1.7,2.3,2.5,3.5c2.2-1.5,3.6-4.3,3.7-8.3l-6.1-3.5
			C72.2,361.1,71.9,363.6,71.3,366z"/>
		<path class="st0" d="M67,346.9c1,0.4,2.1,0.6,3.2,0.8c-0.3-1.1-0.6-2.2-0.9-3.2c-0.7-2.2-1.8-4.3-3.2-6.2
			c-0.4-0.3-0.7-0.5-1.1-0.7l-0.2-0.1v8.4c0.6,0.4,1.3,0.7,1.9,1L67,346.9z"/> 
		<path class="st0" d="M71.4,367.4L71,367c-0.3,0.8-0.6,1.5-1,2.3c-0.5,0.8-1.1,1.5-1.9,2.1c1.9,0.6,4,0.4,5.8-0.4
			c-0.7-1.1-1.4-2.1-2.3-3.1L71.4,367.4z"/>
		<path class="st0" d="M72.1,349h-0.3h-0.5c0.6,2.8,0.9,5.6,1,8.4l6.1,3.5c-0.3-4.4-1.5-8.7-3.7-12.5C73.8,348.7,73,348.9,72.1,349z
			"/>
		<path class="st0" d="M70.5,349c-1.1-0.1-2.3-0.4-3.3-0.8l-0.3-0.1c-0.7-0.3-1.4-0.6-2.1-1v6.1l6.6,3.8
			C71.3,354.3,71,351.6,70.5,349z"/>
		<path class="st0" d="M67.2,362.1c1.2,0.9,2.3,1.9,3.3,3c0.6-2.3,0.9-4.6,0.9-6.9l-6.6-3.8v6.1c0.7,0.4,1.4,0.9,2.1,1.4L67.2,362.1
			z"/>
		<path class="st0" d="M70.2,366.1c-1-1.1-2-2-3.2-2.9c-0.1-0.1-0.2-0.2-0.3-0.2c-0.6-0.5-1.3-0.9-2-1.3v8.4l0.2,0.1
			c0.4,0.2,0.7,0.4,1.1,0.5c1.2,0,2.3-0.8,3.3-2.4C69.6,367.5,69.9,366.8,70.2,366.1z"/>
        
     <animateTransform attributeName="transform"  
                       attributeType="XML" 
                       type="translate" 
                       dur="1s" 
                       repeatCount="indefinite" 
                       values="0,10; 0,-10; 0,10;" /> 
	</g>
</g>
</svg>
