<svg xmlns="http://www.w3.org/2000/svg" xmlns:xlink="http://www.w3.org/1999/xlink" viewBox="0 0 692.18 373.68"><defs><style>.cls-1{fill:url(#linear-gradient);}.cls-2{fill:url(#linear-gradient-2);}.cls-3{fill:#fff;}.cls-4{fill:#010101;}.cls-5{fill:#6d6e71;}.cls-6{fill:#f1f2f2;}</style><linearGradient id="linear-gradient" x1="673.83" y1="247.67" x2="-154.93" y2="141.94" gradientUnits="userSpaceOnUse"><stop offset="0" stop-color="#bf471e"/><stop offset="0.24" stop-color="#c05221"/><stop offset="0.66" stop-color="#c46f2a"/><stop offset="1" stop-color="#c78c32"/></linearGradient><linearGradient id="linear-gradient-2" x1="-71.51" y1="305.96" x2="519.65" y2="136.57" gradientUnits="userSpaceOnUse"><stop offset="0" stop-color="#f15a29"/><stop offset="0.2" stop-color="#f2652c"/><stop offset="0.55" stop-color="#f68234"/><stop offset="1" stop-color="#fbb040"/></linearGradient></defs><title>mozilla</title><g id="Layer_2" data-name="Layer 2"><g id="Layer_2-2" data-name="Layer 2"><path id="base" class="cls-1" d="M0,232.81V210.74C16.83,202.41,419.28,35.05,436.11,43.39L684.48,144.76c12.24,6.05,8.95,43.45-3.29,49.5L334,366.12a72.91,72.91,0,0,1-64.66,0Z"/><path id="top" class="cls-2" d="M0,210.74,382.68,21.32a60.24,60.24,0,0,1,53.43,0L681.19,142.63a16.5,16.5,0,0,1,0,29.57L334,344.06a72.91,72.91,0,0,1-64.66,0Z"/><g id="text4190"><path id="path4271" class="cls-3" d="M263,258.63c-7,3.42-7.36,9.17,3.14,14.67s21.54,5.79,29.07,2.13c4.2-2,5.51-4.4,5.42-6.13l-4.91-.39a6.46,6.46,0,0,1-4,4.57c-4.82,2.34-12.08,2.31-21-2.39-9.37-4.91-8.6-8.47-3.91-10.74a20,20,0,0,1,8.29-1.71l-.4-2.58C270.18,256.23,266.89,256.73,263,258.63Z"/><path id="path4273" class="cls-3" d="M292.12,251.86a21.51,21.51,0,0,0-6.59,4.83l4.06,1.08a19.57,19.57,0,0,1,5.14-3.77,9.77,9.77,0,0,1,9.65.05l1.75.92-3.65,1.77c-6.63,3.22-7.72,6.52-2.63,9.19a16.85,16.85,0,0,0,14.74.08c2.89-1.4,4.33-3.19,3.53-5.3a12.07,12.07,0,0,0,8.2-.39l-1.94-2a6.87,6.87,0,0,1-5.18-.72l-10.85-5.69A17.3,17.3,0,0,0,292.12,251.86Zm16.76,4.55,5.45,2.86c1.13,2,.54,3.47-1.9,4.65a9,9,0,0,1-8.38-.25c-3.25-1.7-2.66-3.63,1.72-5.75Z"/><path id="path4275" class="cls-3" d="M313.13,242.21l-3.56,1.72,23.74,12.45,4.15-2-16.85-8.83c-.94-2.09-1.17-3.67,1.41-4.92,1.8-.87,4.37-1.07,7.93.79L346.39,250l4.15-2-16.85-8.83c-.9-2.11-1.17-3.66,1.41-4.91,1.8-.88,4.37-1.08,7.93.79l16.44,8.62,4.15-2-17-8.93c-4.46-2.34-9.82-2.56-13.7-.68-3.2,1.56-3.66,3.51-2.8,5.68a14.94,14.94,0,0,0-10.28.67c-3.11,1.51-3.66,3.41-2.85,5.43Z"/><path id="path4277" class="cls-3" d="M351.81,223.44l-3.57,1.73,33.34,17.48,3.65-2.27L374,234.47a17.63,17.63,0,0,0,8.93-1.6c6.13-3,4.11-7.27-3.1-11.05-7.47-3.92-14.87-5.29-21.18-2.23-2.71,1.31-4,3.25-3.3,5.37Zm7,3.09c-.63-1.6-.5-3.49,2-4.71,3.56-1.73,8.3-1.07,14.47,2.16s7,5.76,3.19,7.6a14.81,14.81,0,0,1-8.12,1Z"/><path id="path4279" class="cls-3" d="M405.5,214.49c.94,1.95.71,3.79-1.86,5s-4.87,1.13-8.11-.57L379,210.27l-4.15,2,17,8.93a15.35,15.35,0,0,0,13.88.59c3.39-1.64,4.24-3.42,3.17-5.81l4,1.78,3.56-1.73L392.71,203.6l-4.15,2Z"/><path id="path4281" class="cls-3" d="M407.19,196c-4.92,2.39-5.82,5.6-2.08,7.56,3.38,1.77,7.61,1.95,14.11.16,5.81-1.59,7.89-1.69,10.36-.39,2.08,1.09,1.49,2.78-1.62,4.29a21.63,21.63,0,0,1-9,1.94l.32,2.49a28.51,28.51,0,0,0,12.08-2.73c4.83-2.34,7.13-5.73,2.17-8.33-4.14-2.17-9-1.81-15.28,0-4.82,1.34-7,1.48-8.92.46s-1.44-2.43,1.26-3.75a21.66,21.66,0,0,1,8.3-1.84l-.94-2.32A27,27,0,0,0,407.19,196Z"/><path id="path4283" class="cls-3" d="M437.58,173.91c-7,3.42-7.36,9.17,3.13,14.67s21.54,5.79,29.07,2.13c4.2-2,5.51-4.4,5.42-6.13l-4.91-.39a6.44,6.44,0,0,1-4,4.57c-4.83,2.34-12.09,2.31-21.05-2.39-9.37-4.91-8.6-8.47-3.91-10.75a20.07,20.07,0,0,1,8.3-1.7l-.41-2.58a26.56,26.56,0,0,0-11.67,2.57Z"/><path id="path4285" class="cls-3" d="M453.48,164l-3.65,2.27,28.6,15a10.79,10.79,0,0,0,10,.44,6.92,6.92,0,0,0,2.71-2.13l-4-1a4,4,0,0,1-1.27.89,3.51,3.51,0,0,1-3.38-.27Z"/><path id="path4287" class="cls-3" d="M503.29,167c.94,2,.71,3.79-1.86,5s-4.87,1.14-8.11-.56l-16.58-8.7-4.15,2,17,8.93a15.38,15.38,0,0,0,13.88.58c3.39-1.64,4.24-3.42,3.17-5.81l4,1.79,3.56-1.73L490.5,156.15l-4.15,2Z"/><path id="path4289" class="cls-3" d="M493.17,144.71,489.52,147l33.29,17.46,3.65-1.78-2.2-1.56a18.79,18.79,0,0,0,9.47-1.41c5.77-2.8,4.33-7.16-3.1-11.05-7.93-4.16-15.86-4.81-21.23-2.21-2.89,1.4-3.79,3.16-3.21,5.1Zm16.49,8.64c-.67-1.58-.76-3.36,1.86-4.63,3.33-1.61,7.89-1.46,14.64,2.08,6.49,3.41,6.76,6,3.28,7.64-2.12,1-5.32,1.27-8.43.87Z"/><path id="path4291" class="cls-3" d="M531.76,135.58c-4.91,2.39-5.82,5.6-2.08,7.56,3.38,1.77,7.61,2,14.11.16,5.82-1.6,7.89-1.69,10.37-.39,2.07,1.08,1.48,2.78-1.63,4.29a21.59,21.59,0,0,1-9,1.94l.32,2.49A28.51,28.51,0,0,0,556,148.9c4.83-2.34,7.13-5.73,2.18-8.33-4.15-2.17-9-1.81-15.29,0-4.82,1.34-7,1.48-8.92.46s-1.44-2.44,1.27-3.75a21.42,21.42,0,0,1,8.29-1.84l-.94-2.32a27,27,0,0,0-10.78,2.5Z"/></g><g id="g3975"><polygon id="rect3971" class="cls-4" points="167.66 220.92 450.1 83.88 522.25 121.71 239.81 258.75 167.66 220.92"/><path id="path3973" class="cls-3" d="M489.2,117.19a5.78,5.78,0,0,1-1.27.83,4.85,4.85,0,0,1-4.87-.1l-13.72-7.19c-7.2-3.78-17.13-2.5-24.73,1.18-5.8,2.82-8.29,4.67-12.26,8.84l5.88,4.49,8.84-3.51-2.42-2.42c.89-1.21,2.38-2.08,4.5-3.1,5.72-2.78,9.65-.8,12.87.88l1.05.55c-2,.77-4.12,1.72-6.08,2.67-8.07,3.92-14.64,8.94-6.87,13,6.58,3.45,14.83,1.93,19.92-.54,5.72-2.78,6.25-6.14,5.06-8.81a17,17,0,0,0,14-.46,12.64,12.64,0,0,0,4.86-3.85Zm-21.89,10.42a8.4,8.4,0,0,1-7.8.1c-3.43-1.8-1.2-3.8,2.4-5.54,1.64-.8,3.66-1.56,5.51-2.26C472.44,122.79,470.91,125.86,467.31,127.61Zm-56-15.66,32.87,32.67-10,4.83-32.87-32.67Zm-20.52,10,32.87,32.66-9.94,4.83-32.88-32.67ZM365,151.19l10.58-5.13L386.88,152l-10.58,5.13Zm20.23,10.6,10.57-5.13,11.35,6-10.58,5.13ZM369.39,169l8.69-3.51,8.87,6.86-30.87,15-5.77-2-.52-19.89-11,5.36,3.33,3.33-8,3.16-9.81-6.41,31-15,5.55,2.11.36,20,11.44-5.55Zm-71.06,13.85c-12.7,6.16-11.34,13.21-2.1,18.05,10.08,5.28,23.55,4.75,34.43-.54,11.29-5.47,13.06-12.76,3-18.05C324.83,177.73,311,176.74,298.33,182.89Zm25.72,13.73c-5.48,2.66-12.51,1.83-18-1-5.95-3.12-6.17-6.47-1-9a20,20,0,0,1,17.85.66C329,190.42,329.3,194.07,324.05,196.62ZM295.6,209.79l4.7-2.28,6.86,3.6-14.81,7.18L274.57,209c-5.46-2.86-9.59-3-13.58-1-4.86,2.35-3.74,4.92.67,7.23l11,5.76,4.7-2.28,6.86,3.6-14.8,7.18-17.77-9.32c-5.47-2.87-9.59-3-13.59-1-4.86,2.36-3.74,4.92.67,7.24l11,5.75,6.74-3.26,6.86,3.59-21.54,10.45-6.86-3.6,4.7-2.28-17.85-9.36-4.7,2.28-6.86-3.59,14.8-7.18,4.75,2.49c-1.24-2.79.42-5.64,5.35-8a27.91,27.91,0,0,1,18.31-2c-2.24-3.15-.83-6.45,4.73-9.14,6.34-3.08,15.58-4.1,23.06-.18l14.43,7.57Z"/></g><polygon id="rect3971-2" data-name="rect3971" class="cls-5" points="199.54 137.03 481.97 0 554.12 37.83 271.69 174.87 199.54 137.03"/><path id="path3973-2" data-name="path3973" class="cls-6" d="M521.08,33.31a6.17,6.17,0,0,1-1.27.83,4.83,4.83,0,0,1-4.87-.11l-13.72-7.19c-7.2-3.77-17.13-2.49-24.73,1.19-5.81,2.82-8.3,4.66-12.26,8.84l5.88,4.48,8.83-3.51-2.41-2.42c.88-1.2,2.38-2.07,4.5-3.1,5.72-2.77,9.65-.8,12.87.89l1.05.55c-2,.76-4.12,1.72-6.09,2.67-8.06,3.91-14.63,8.94-6.86,13,6.57,3.45,14.82,1.93,19.92-.55,5.72-2.77,6.24-6.13,5.06-8.81a16.92,16.92,0,0,0,14-.46,12.46,12.46,0,0,0,4.86-3.85ZM499.19,43.73a8.43,8.43,0,0,1-7.8.1c-3.43-1.8-1.2-3.8,2.4-5.55,1.63-.79,3.66-1.56,5.51-2.25C504.32,38.9,502.79,42,499.19,43.73Zm-56-15.66,32.88,32.66-10,4.83L433.25,32.9ZM422.68,38l32.88,32.66-9.94,4.82L412.74,42.85ZM396.85,67.31l10.58-5.13,11.33,5.94-10.58,5.13Zm20.23,10.6,10.57-5.13,11.34,6-10.57,5.13Zm-15.81,7.25L410,81.65l8.88,6.86-30.87,15-5.77-2-.52-19.89-11,5.36L374,90.29l-8,3.16L356.16,87l31-15.05,5.55,2.11.36,20,11.43-5.55ZM330.2,99c-12.69,6.16-11.33,13.2-2.09,18,10.08,5.29,23.54,4.75,34.43-.53,11.29-5.47,13.06-12.77,3-18C356.7,93.84,342.88,92.86,330.2,99Zm25.73,13.73c-5.48,2.66-12.51,1.82-18-1-5.95-3.12-6.17-6.47-1-9a20,20,0,0,1,17.85.66C360.84,106.53,361.18,110.19,355.93,112.74Zm-28.45,13.17,4.7-2.29,6.86,3.6-14.81,7.19-17.78-9.32c-5.46-2.86-9.59-3-13.58-1-4.86,2.36-3.75,4.93.67,7.24l11,5.76,4.71-2.28,6.86,3.59-14.8,7.18-17.77-9.32c-5.47-2.86-9.59-3-13.59-1-4.86,2.35-3.74,4.92.67,7.24l11,5.75,6.73-3.27,6.87,3.6L273.63,159l-6.86-3.6,4.7-2.28-17.85-9.36-4.7,2.28-6.87-3.6,14.8-7.18,4.76,2.5c-1.24-2.79.42-5.64,5.34-8a28,28,0,0,1,18.32-2c-2.24-3.15-.83-6.45,4.73-9.15,6.34-3.07,15.58-4.09,23.06-.17l14.43,7.57Z"/></g></g></svg>