<?xml version="1.0" encoding="utf-8"?>
<!-- Generator: Adobe Illustrator 23.0.0, SVG Export Plug-In . SVG Version: 6.00 Build 0)  -->
<svg version="1.1" id="Layer_1" xmlns="http://www.w3.org/2000/svg" xmlns:xlink="http://www.w3.org/1999/xlink" x="0px" y="0px"
	 viewBox="0 0 500 519.4" style="enable-background:new 0 0 500 519.4;" xml:space="preserve">
<style type="text/css">
	.st0{opacity:0.15;}
	.st1{fill:#BDCEFA;}
	.st2{fill:url(#SVGID_1_);}
	.st3{fill:url(#SVGID_2_);}
	.st4{fill:url(#SVGID_3_);}
	.st5{fill:url(#SVGID_4_);}
	.st6{fill:#E8F2FE;}
	.st7{fill:url(#SVGID_5_);}
	.st8{fill:#DDDDDD;}
	.st9{fill:url(#SVGID_6_);}
	.st10{fill:#0084E9;}
	.st11{fill:#52A3F6;}
	.st12{fill:#FFFFFF;}
	.st13{fill:url(#SVGID_7_);}
	.st14{fill:url(#SVGID_8_);}
	.st15{fill:url(#SVGID_9_);}
	.st16{fill:url(#SVGID_10_);}
	.st17{fill:url(#SVGID_11_);}
	.st18{fill:url(#SVGID_12_);}
	.st19{fill:url(#SVGID_13_);}
	.st20{fill:#C9C9C9;}
	.st21{fill:url(#SVGID_14_);}
	.st22{fill:url(#SVGID_15_);}
	.st23{fill:url(#SVGID_16_);}
	.st24{fill:#9CE3F0;}
	.st25{fill:#39C2D1;}
	.st26{fill:#20A8AF;}
	.st27{fill:#FF9100;}
	.st28{fill:#D87600;}
	.st29{fill:#BC6200;}
	.st30{fill:#FFEC00;}
	.st31{fill:#D6C100;}
	.st32{fill:#938100;}
	.st33{fill:url(#SVGID_17_);}
	.st34{fill:#76B5CE;}
	.st35{fill:url(#SVGID_18_);}
	.st36{fill:#F9AB83;}
	.st37{fill:#010400;}
	.st38{fill:#484968;}
	.st39{fill:#F1AC85;}
	.st40{fill:#E28C66;}
	.st41{fill:#54A5F8;}
	.st42{fill:#DD936F;}
	.st43{fill:#3F4893;}
	.st44{fill:url(#SVGID_19_);}
	.st45{fill:url(#SVGID_20_);}
	.st46{fill:url(#SVGID_21_);}
	.st47{fill:url(#SVGID_22_);}
	.st48{fill:#B8D0F6;}
	.st49{fill:#99B6E0;}
	.st50{fill:#E4F2FF;}
	.st51{clip-path:url(#SVGID_24_);}
	.st52{fill:url(#SVGID_25_);}
	.st53{fill:url(#SVGID_26_);}
	.st54{fill:url(#SVGID_27_);}
	.st55{fill:url(#SVGID_28_);}
	.st56{fill:url(#SVGID_29_);}
	.st57{fill:url(#SVGID_30_);}
	.st58{fill:url(#SVGID_31_);}
	.st59{fill:url(#SVGID_32_);}
	.st60{fill:url(#SVGID_33_);}
	.st61{fill:url(#SVGID_34_);}
	.st62{fill:url(#SVGID_35_);}
	.st63{fill:url(#SVGID_36_);}
	.st64{fill:url(#SVGID_37_);}
	.st65{fill:url(#SVGID_38_);}
	.st66{fill:url(#SVGID_39_);}
	.st67{fill:url(#SVGID_40_);}
	.st68{fill:url(#SVGID_41_);}
	.st69{fill:url(#SVGID_42_);}
	.st70{fill:url(#SVGID_43_);}
	.st71{fill:url(#SVGID_44_);}
	.st72{fill:url(#SVGID_45_);}
	.st73{fill:url(#SVGID_46_);}
	.st74{fill:url(#SVGID_47_);}
	.st75{fill:#2D0D60;}
	.st76{fill:url(#SVGID_48_);}
	.st77{fill:#A29AFB;}
	.st78{fill:#FFFFEB;}
	.st79{fill:#943BBB;}
	.st80{fill:#FCC4B7;}
	.st81{fill:#293677;}
	.st82{fill:#55D1FF;}
	.st83{fill:#5258A6;}
	.st84{fill-rule:evenodd;clip-rule:evenodd;fill:#E58800;}
	.st85{fill:#1C1C38;}
	.st86{fill:#FCFDFF;}
	.st87{fill:#0382FF;}
	.st88{fill:#BBBEB5;}
	.st89{fill:#EAEEF1;}
	.st90{fill:#D13985;}
	.st91{fill:#46466C;}
	.st92{fill:#2D2D4F;}
	.st93{fill:#ED549C;}
	.st94{fill:#E5A89C;}
	.st95{fill-rule:evenodd;clip-rule:evenodd;fill:#52A3F6;}
	.st96{fill-rule:evenodd;clip-rule:evenodd;fill:#BBBEB5;}
	.st97{fill-rule:evenodd;clip-rule:evenodd;fill:#EAEEF1;}
	.st98{fill:#007DC9;}
</style>
<title>emisha-bg</title>
<g>
	<g class="st0">
		<path class="st1" d="M453.3,414.3l-66.5,37.2c-3,1.7-8.1,1.5-11.5-0.5l-22.1-13.2c-3.4-2-3.8-5-0.8-6.7l66.2-38
			c3-1.7,8.1-1.5,11.5,0.5l22.4,14C455.9,409.6,456.3,412.6,453.3,414.3z"/>
		<path class="st1" d="M425.7,381.8L359.2,419c-3,1.7-8.1,1.5-11.5-0.5l-22.2-13.2c-3.4-2-3.8-5-0.8-6.7l66.2-38
			c3-1.7,8.1-1.5,11.5,0.5l22.4,13.9C428.2,377.1,428.6,380.1,425.7,381.8z"/>
		<path class="st1" d="M441.6,326.8L241,438.7c-8.9,5.1-24.6,4.5-34.8-1.4L89.3,369.8c-10.3-5.9-11.4-15-2.5-20.1l200.6-111.9
			c8.9-5.1,24.5-4.5,34.8,1.4l116.9,67.5C449.3,312.7,450.5,321.7,441.6,326.8z"/>
	</g>
	
		<linearGradient id="SVGID_1_" gradientUnits="userSpaceOnUse" x1="112.2343" y1="630.9984" x2="65.2943" y2="731.2384" gradientTransform="matrix(1 0 0 1 0 -558)">
		<stop  offset="0" style="stop-color:#E4F2FF"/>
		<stop  offset="0.2" style="stop-color:#DCEAFE;stop-opacity:0.78"/>
		<stop  offset="0.6" style="stop-color:#CBDBFC;stop-opacity:0.37"/>
		<stop  offset="0.87" style="stop-color:#C1D2FB;stop-opacity:0.1"/>
		<stop  offset="1" style="stop-color:#BDCEFA;stop-opacity:0"/>
	</linearGradient>
	<path class="st2" d="M54.6,176.5c-1.3,0-2.3-1-2.4-2.3V124c0-0.8,0.5-1.6,1.2-2l60.3-34.8c0.4-0.2,0.8-0.3,1.2-0.3
		c1.3,0,2.3,1,2.4,2.3v50.1c0,0.8-0.5,1.6-1.2,2l-60.3,34.9C55.4,176.4,55,176.5,54.6,176.5z"/>
	
		<linearGradient id="SVGID_2_" gradientUnits="userSpaceOnUse" x1="144.0932" y1="630.2073" x2="179.7534" y2="775.0073" gradientTransform="matrix(1 0 0 1 0 -558)">
		<stop  offset="0" style="stop-color:#E4F2FF"/>
		<stop  offset="0.2" style="stop-color:#DCEAFE;stop-opacity:0.78"/>
		<stop  offset="0.6" style="stop-color:#CBDBFC;stop-opacity:0.37"/>
		<stop  offset="0.87" style="stop-color:#C1D2FB;stop-opacity:0.1"/>
		<stop  offset="1" style="stop-color:#BDCEFA;stop-opacity:0"/>
	</linearGradient>
	<path class="st3" d="M99.6,249.3c-2.8,0-5.1-2.3-5.1-5.1V137c0-1.8,1-3.5,2.5-4.4l129-74.4c0.8-0.4,1.6-0.7,2.5-0.7
		c2.8,0,5.1,2.3,5.1,5.1v107.2c0,1.8-1,3.5-2.5,4.4l-129,74.4C101.4,249.1,100.5,249.3,99.6,249.3z"/>
	
		<linearGradient id="SVGID_3_" gradientUnits="userSpaceOnUse" x1="229.1406" y1="559.3622" x2="227.5506" y2="641.3022" gradientTransform="matrix(1 0 0 1 0 -558)">
		<stop  offset="0" style="stop-color:#E4F2FF"/>
		<stop  offset="0.2" style="stop-color:#DCEAFE;stop-opacity:0.78"/>
		<stop  offset="0.6" style="stop-color:#CBDBFC;stop-opacity:0.37"/>
		<stop  offset="0.87" style="stop-color:#C1D2FB;stop-opacity:0.1"/>
		<stop  offset="1" style="stop-color:#BDCEFA;stop-opacity:0"/>
	</linearGradient>
	<path class="st4" d="M201.2,106c-1.2,0-2.1-0.9-2.1-2.1l0,0V59.5c0-0.7,0.4-1.4,1.1-1.8l53.3-30.9c0.3-0.2,0.6-0.3,1-0.3
		c1.2,0,2.1,0.9,2.1,2.1l0,0V73c0,0.8-0.4,1.4-1.1,1.8l-53.4,30.8C201.8,105.9,201.5,106,201.2,106z"/>
	
		<linearGradient id="SVGID_4_" gradientUnits="userSpaceOnUse" x1="113.2275" y1="727.3993" x2="98.9075" y2="833.2094" gradientTransform="matrix(1 0 0 1 0 -558)">
		<stop  offset="0" style="stop-color:#E4F2FF"/>
		<stop  offset="0.2" style="stop-color:#DCEAFE;stop-opacity:0.78"/>
		<stop  offset="0.6" style="stop-color:#CBDBFC;stop-opacity:0.37"/>
		<stop  offset="0.87" style="stop-color:#C1D2FB;stop-opacity:0.1"/>
		<stop  offset="1" style="stop-color:#BDCEFA;stop-opacity:0"/>
	</linearGradient>
	<path class="st5" d="M76.6,282.6c-1.2,0-2.1-0.9-2.1-2.1v-44.4c0-0.7,0.4-1.4,1-1.8l53.4-30.8c0.3-0.2,0.6-0.3,1-0.3
		c1.2,0,2.1,0.9,2.1,2.1v44.4c0,0.8-0.4,1.4-1.1,1.8l-53.3,30.8C77.3,282.5,76.9,282.6,76.6,282.6z"/>
	<ellipse transform="matrix(0.5158 -0.8567 0.8567 0.5158 8.8586 245.534)" class="st1" cx="221.6" cy="114.9" rx="4.8" ry="2.8"/>
	<path class="st1" d="M237,106c-0.1,2.4-1.4,4.5-3.4,5.8c-1.9,1.1-3.4,0.3-3.4-1.9c0.1-2.4,1.4-4.6,3.4-5.8
		C235.5,103,237,103.9,237,106z"/>
	<path class="st1" d="M249.1,99.1c-0.1,2.4-1.4,4.6-3.4,5.8c-1.9,1.1-3.4,0.3-3.4-1.9c0.1-2.4,1.4-4.5,3.4-5.8
		C247.5,96.1,249.1,96.9,249.1,99.1z"/>
	<path class="st1" d="M137.2,170.6c-2.2,2.5-4.8,4.6-7.7,6.2c-7,4.1-13.2,1.8-13.2-7.8c0-10,6.3-22.2,15.8-27.8
		c7.4-4.3,12.8-1.5,12.8,6.7c0,7.1-3.5,13.6-8,16.3c-2,1.1-3.4,0.8-3.6-1.7h-0.1c-1,2.8-2.9,5.3-5.5,6.9c-2.8,1.6-4.7,0.4-4.7-3.6
		c0-6,3.8-13.6,9.9-17.1c1.5-1,3.2-1.5,5-1.7l-1.3,9.8c-0.4,3.1-0.1,4.3,1.1,3.6c1.8-1,4.1-5,4.1-10.6c0-6.4-3.6-9.2-10.1-5.4
		c-6.5,3.8-12.2,13-12.2,22.3c0,8.2,4.5,10.2,10.8,6.6c2.3-1.3,4.4-3.1,6.2-5.1L137.2,170.6z M133.4,152.6c-0.5,0.1-0.9,0.3-1.3,0.6
		c-2.8,1.6-5,6.1-5,9.8c0,1.9,0.7,2.6,2.1,1.8c1.6-0.9,3.2-4.1,3.6-7.2L133.4,152.6z"/>
	<path class="st1" d="M155.5,109l14.8,4.1c0.4,0.1,1.2-0.3,1.6-0.9l14.8-21.1L155.5,109z"/>
	<path class="st1" d="M166,113.4l-10.3,17c-0.2-0.3-0.3-0.6-0.3-0.9v-19L166,113.4z"/>
	<path class="st1" d="M175.3,108.9l10.4,5.2c-0.3,0.3-0.6,0.6-1,0.8l-27,15.6c-0.3,0.2-0.6,0.3-0.9,0.3l10.3-17.1l4.1,1.1
		L175.3,108.9z"/>
	<path class="st1" d="M186.8,92.4v19c0,0.4-0.1,0.8-0.3,1.2l-10.2-5.2L186.8,92.4z"/>
	<path class="st1" d="M290.3,118c-0.1,0-0.3-0.1-0.3-0.3V44.3l-100,57.8c-0.1,0.1-0.3,0.1-0.3-0.1s-0.1-0.3,0.1-0.3l0,0l100.8-58.3
		v74.4C290.6,117.9,290.5,118,290.3,118z"/>
	<path class="st1" d="M297,118.3c-0.3,0-0.5-0.2-0.5-0.5l0,0l0,0c0-0.3,0.2-0.5,0.5-0.5s0.5,0.2,0.5,0.5S297.3,118.3,297,118.3z"/>
	<path class="st1" d="M297,114.5c-0.3,0-0.5-0.2-0.5-0.4l0,0V114c0-0.3,0.2-0.5,0.5-0.5s0.5,0.2,0.5,0.5
		C297.5,114.2,297.3,114.4,297,114.5z M297,110.6c-0.3,0-0.5-0.2-0.5-0.4l0,0v-0.1c0-0.3,0.2-0.5,0.5-0.5s0.5,0.2,0.5,0.5
		C297.5,110.3,297.3,110.6,297,110.6z M297,106.7c-0.3,0-0.5-0.2-0.5-0.4l0,0v-0.1c0-0.3,0.2-0.5,0.5-0.5s0.5,0.2,0.5,0.5
		S297.3,106.7,297,106.7z M297,102.8c-0.3,0-0.5-0.2-0.5-0.4l0,0v-0.1c0-0.3,0.2-0.5,0.5-0.5s0.5,0.2,0.5,0.5S297.3,102.8,297,102.8
		z M297,99c-0.3,0-0.5-0.2-0.5-0.4l0,0v-0.1c0-0.3,0.2-0.5,0.5-0.5s0.5,0.2,0.5,0.5C297.5,98.7,297.3,98.9,297,99z M297,95.1
		c-0.3,0-0.5-0.2-0.5-0.4l0,0v-0.1c0-0.3,0.2-0.5,0.5-0.5s0.5,0.2,0.5,0.5C297.5,94.8,297.3,95.1,297,95.1z M297,91.2
		c-0.3,0-0.5-0.2-0.5-0.4l0,0v-0.1c0-0.3,0.2-0.5,0.5-0.5s0.5,0.2,0.5,0.5C297.5,90.9,297.3,91.2,297,91.2L297,91.2z"/>
	<path class="st1" d="M297,87.4c-0.2,0-0.3-0.1-0.4-0.2c0,0,0,0,0-0.1c-0.1-0.2-0.1-0.5,0.2-0.7l0,0c0.2-0.1,0.4-0.1,0.5,0
		c0.2,0.1,0.3,0.2,0.3,0.4C297.6,87.1,297.3,87.4,297,87.4L297,87.4z"/>
	<path class="st1" d="M153.9,167.2c-0.2,0-0.4-0.1-0.4-0.3c-0.1-0.2,0-0.5,0.2-0.7h0.1c0.2-0.1,0.5,0,0.7,0.2c0.1,0.2,0,0.5-0.2,0.6
		l-0.1,0.1C154.1,167.2,154,167.2,153.9,167.2z M157.5,165.2c-0.2,0-0.3-0.1-0.4-0.3c-0.1-0.2-0.1-0.5,0.2-0.7l0,0h0.1
		c0.2-0.1,0.5,0,0.7,0.2c0.1,0.2,0,0.5-0.2,0.6l-0.1,0.1C157.7,165.2,157.6,165.2,157.5,165.2L157.5,165.2z M161.1,163.2
		c-0.2,0-0.4-0.1-0.4-0.3c-0.1-0.2,0-0.5,0.2-0.7c0.3-0.1,0.6-0.1,0.7,0.2c0.1,0.2,0.1,0.5-0.1,0.7l0,0h-0.1
		C161.3,163.1,161.2,163.2,161.1,163.2z M164.7,161.2c-0.2,0-0.3-0.1-0.4-0.3c-0.1-0.2-0.1-0.5,0.2-0.7l0,0l0.1-0.1
		c0.2-0.1,0.5,0,0.7,0.2c0.1,0.2,0,0.5-0.2,0.7H165C164.8,161.1,164.8,161.2,164.7,161.2L164.7,161.2z M168.3,159.2
		c-0.2,0-0.3-0.1-0.4-0.3c-0.1-0.2,0-0.5,0.2-0.7l0.1-0.1c0.2-0.1,0.5,0,0.7,0.2c0.1,0.2,0.1,0.5-0.2,0.7l0,0h-0.2
		C168.4,159.1,168.3,159.2,168.3,159.2L168.3,159.2z M171.8,157.2c-0.2,0-0.3-0.1-0.4-0.3c-0.1-0.2,0-0.5,0.2-0.7
		c0.3-0.1,0.6-0.1,0.7,0.2c0.1,0.2,0.1,0.5-0.1,0.7l0,0l-0.1,0.1C172,157.2,171.9,157.2,171.8,157.2L171.8,157.2z M175.4,155.2
		c-0.3,0-0.5-0.2-0.5-0.5c0-0.2,0.1-0.3,0.2-0.4c0.2-0.1,0.6-0.1,0.7,0.2c0.1,0.2,0.1,0.5-0.1,0.6l0,0l-0.1,0.1
		C175.6,155.2,175.5,155.2,175.4,155.2L175.4,155.2z M179,153.2c-0.2,0-0.4-0.1-0.4-0.3c-0.1-0.2,0-0.5,0.2-0.7l0.1-0.1
		c0.2-0.1,0.5,0,0.7,0.2c0.1,0.2,0,0.5-0.2,0.7l0,0l-0.1,0.1C179.1,153.2,179.1,153.2,179,153.2L179,153.2z M182.6,151.2
		c-0.3,0-0.5-0.2-0.5-0.5c0-0.2,0.1-0.3,0.2-0.4h0.1c0.2-0.2,0.5-0.1,0.7,0.1c0.2,0.2,0.1,0.5-0.1,0.7c0,0-0.1,0-0.1,0.1l-0.1,0.1
		C182.7,151.2,182.6,151.2,182.6,151.2L182.6,151.2z M186.1,149.2c-0.2,0-0.4-0.1-0.4-0.3c-0.1-0.2,0-0.5,0.2-0.7l0,0
		c0.2-0.1,0.6-0.1,0.7,0.2c0.1,0.2,0.1,0.5-0.1,0.7l0,0h-0.1C186.3,149.2,186.2,149.2,186.1,149.2L186.1,149.2z M189.7,147.2
		c-0.2,0-0.3-0.1-0.4-0.3c-0.1-0.2,0-0.5,0.2-0.7c0.3-0.1,0.6-0.1,0.7,0.2c0.1,0.2,0.1,0.5-0.1,0.6l0,0H190
		C189.9,147.1,189.8,147.2,189.7,147.2L189.7,147.2z M193.3,145.2c-0.3,0-0.5-0.2-0.5-0.5c0-0.2,0.1-0.4,0.3-0.5s0.6-0.1,0.7,0.2
		c0.1,0.2,0.1,0.5-0.1,0.6l0,0h-0.2C193.5,145.1,193.4,145.2,193.3,145.2L193.3,145.2z M196.9,143.2c-0.2,0-0.4-0.1-0.4-0.3
		c-0.1-0.2,0-0.5,0.2-0.7c0.3-0.1,0.6-0.1,0.7,0.2c0.1,0.2,0.1,0.5-0.1,0.7l0,0l-0.1,0.1C197,143.2,196.9,143.2,196.9,143.2
		L196.9,143.2z M200.4,141.2c-0.2,0-0.3-0.1-0.4-0.3c-0.1-0.2,0-0.5,0.2-0.7l0,0c0.2-0.1,0.6-0.1,0.7,0.2c0.1,0.2,0.1,0.5-0.1,0.6
		l0,0l-0.1,0.1C200.6,141.2,200.5,141.2,200.4,141.2L200.4,141.2z M204,139.2c-0.2,0-0.4-0.1-0.4-0.3c-0.1-0.2-0.1-0.5,0.2-0.7l0,0
		c0.3-0.1,0.6-0.1,0.7,0.2c0.1,0.2,0.1,0.5-0.1,0.7l0,0h-0.1C204.2,139.2,204.1,139.2,204,139.2L204,139.2z M207.6,137.2
		c-0.2,0-0.3-0.1-0.4-0.3c-0.1-0.2,0-0.5,0.2-0.7l0.1-0.1c0.2-0.1,0.5,0,0.7,0.2c0.1,0.2,0,0.5-0.2,0.7l-0.1,0.1
		C207.8,137.2,207.7,137.2,207.6,137.2L207.6,137.2z M211.2,135.2c-0.3,0-0.5-0.2-0.5-0.5c0-0.2,0.1-0.3,0.2-0.4
		c0.2-0.1,0.6-0.1,0.7,0.2c0.1,0.2,0.1,0.5-0.1,0.7l0,0l-0.1,0.1C211.3,135.2,211.2,135.2,211.2,135.2L211.2,135.2z M214.7,133.2
		c-0.2,0-0.3-0.1-0.4-0.3c-0.1-0.2,0-0.5,0.2-0.7h0.1c0.2-0.1,0.5,0,0.7,0.2l0,0c0.1,0.2,0,0.5-0.2,0.7H215
		C214.9,133.2,214.8,133.3,214.7,133.2L214.7,133.2z M218.3,131.2c-0.3,0-0.5-0.2-0.5-0.5c0-0.2,0.1-0.3,0.2-0.4h0.1
		c0.2-0.1,0.5,0,0.7,0.2c0.1,0.2,0,0.5-0.2,0.6h-0.1C218.5,131.2,218.4,131.2,218.3,131.2L218.3,131.2z M221.9,129.2
		c-0.2,0-0.3-0.1-0.4-0.3c-0.1-0.2,0-0.5,0.2-0.7c0.2-0.1,0.6-0.1,0.7,0.2c0.1,0.2,0.1,0.5-0.1,0.6l0,0h-0.1
		C222.1,129.2,222,129.2,221.9,129.2L221.9,129.2z M225.5,127.2c-0.2,0-0.4-0.1-0.4-0.3c-0.1-0.2,0-0.5,0.2-0.7
		c0.3-0.1,0.6-0.1,0.7,0.2c0.1,0.2,0.1,0.5-0.1,0.7l0,0h-0.1C225.7,127.2,225.6,127.2,225.5,127.2L225.5,127.2z M229,125.2
		c-0.2,0-0.3-0.1-0.4-0.3c-0.1-0.2-0.1-0.5,0.2-0.7l0,0l0.1-0.1c0.2-0.1,0.5,0,0.7,0.2c0.1,0.2,0,0.5-0.2,0.7h-0.1
		C229.2,125.2,229.1,125.2,229,125.2L229,125.2z M232.6,123.2c-0.3,0-0.5-0.2-0.5-0.5c0-0.2,0.1-0.4,0.3-0.4l0.1-0.1
		c0.2-0.1,0.5,0,0.7,0.2c0.1,0.2,0,0.5-0.2,0.7h-0.1C232.8,123.2,232.7,123.3,232.6,123.2L232.6,123.2z M236.2,121.2
		c-0.3,0-0.5-0.2-0.5-0.5c0-0.2,0.1-0.3,0.2-0.4c0.2-0.1,0.6-0.1,0.7,0.2c0.1,0.2,0.1,0.5-0.1,0.7l0,0h-0.1
		C236.4,121.2,236.3,121.2,236.2,121.2L236.2,121.2z M239.8,119.2c-0.2,0-0.3-0.1-0.4-0.3c-0.1-0.2-0.1-0.5,0.2-0.7l0,0
		c0.2-0.1,0.6-0.1,0.7,0.2c0.1,0.2,0.1,0.5-0.1,0.6l0,0h-0.1C240,119.2,239.9,119.3,239.8,119.2L239.8,119.2z M243.3,117.2
		c-0.2,0-0.4-0.1-0.4-0.3c-0.1-0.2,0-0.5,0.2-0.7h0.1c0.2-0.1,0.5,0,0.7,0.2c0.1,0.2,0,0.5-0.2,0.7l-0.1,0.1
		C243.5,117.2,243.4,117.3,243.3,117.2L243.3,117.2z M246.9,115.2c-0.3,0-0.5-0.2-0.5-0.5c0-0.2,0.1-0.3,0.2-0.4h0.1
		c0.2-0.2,0.5-0.1,0.7,0.1s0.1,0.5-0.1,0.7c0,0-0.1,0-0.1,0.1l-0.1,0.1C247.1,115.2,247,115.3,246.9,115.2L246.9,115.2z
		 M250.5,113.2c-0.2,0-0.4-0.1-0.4-0.3c-0.1-0.2,0-0.5,0.2-0.7c0.3-0.1,0.6-0.1,0.7,0.2c0.1,0.2,0.1,0.5-0.1,0.6l0,0l-0.1,0.1
		C250.7,113.2,250.7,113.2,250.5,113.2L250.5,113.2z M254.1,111.2c-0.3,0-0.5-0.2-0.5-0.5c0-0.2,0.1-0.3,0.2-0.4
		c0.2-0.1,0.6-0.1,0.7,0.2c0.1,0.2,0.1,0.5-0.1,0.6l0,0h-0.1c-0.1,0.1-0.1,0.2-0.3,0.2L254.1,111.2z M257.6,109.2
		c-0.3,0-0.5-0.2-0.5-0.5c0-0.2,0.1-0.4,0.3-0.4c0.2-0.1,0.6-0.1,0.7,0.2c0.1,0.2,0.1,0.5-0.1,0.6l0,0h-0.1
		c-0.1,0.1-0.1,0.2-0.2,0.2L257.6,109.2z M261.2,107.2c-0.2,0-0.3-0.1-0.4-0.3c-0.1-0.2-0.1-0.5,0.2-0.7l0,0l0.1-0.1
		c0.2-0.1,0.5,0,0.7,0.2c0.1,0.2,0,0.5-0.2,0.7l0,0h-0.1C261.4,107.1,261.4,107.2,261.2,107.2L261.2,107.2z M264.8,105.2
		c-0.2,0-0.3-0.1-0.4-0.3c-0.1-0.2,0-0.5,0.2-0.7l0,0c0.2-0.1,0.6-0.1,0.7,0.2c0.1,0.2,0.1,0.5-0.1,0.6l0,0h-0.1
		c-0.1,0.1-0.1,0.2-0.2,0.2L264.8,105.2z M268.4,103.2c-0.2,0-0.4-0.1-0.4-0.3c-0.1-0.2-0.1-0.5,0.2-0.7l0,0
		c0.3-0.1,0.6-0.1,0.7,0.2c0.1,0.2,0.1,0.5-0.1,0.7l0,0h-0.1c0,0.1-0.1,0.2-0.2,0.2L268.4,103.2z M271.9,101.2
		c-0.2,0-0.3-0.1-0.4-0.3c-0.1-0.2,0-0.5,0.2-0.7c0.2-0.1,0.6-0.1,0.7,0.2c0.1,0.2,0.1,0.5-0.1,0.6l0,0h-0.1
		C272.1,101.1,272.1,101.2,271.9,101.2L271.9,101.2z M275.5,99.2c-0.3,0-0.5-0.2-0.5-0.5c0-0.2,0.1-0.3,0.2-0.4
		c0.3-0.1,0.6-0.1,0.7,0.2c0.1,0.2,0.1,0.5-0.1,0.6l0,0h-0.1C275.6,99.2,275.6,99.3,275.5,99.2L275.5,99.2z M279.1,97.2
		c-0.2,0-0.3-0.1-0.4-0.3c-0.1-0.2,0-0.5,0.2-0.7h0.1c0.2-0.1,0.5,0,0.7,0.2c0.1,0.2,0,0.5-0.2,0.7h-0.1
		C279.3,97.2,279.3,97.3,279.1,97.2L279.1,97.2z M282.7,95.2c-0.2,0-0.3-0.1-0.4-0.3c-0.1-0.2,0-0.5,0.2-0.7
		c0.2-0.1,0.6-0.1,0.7,0.2c0.1,0.2,0.1,0.5-0.1,0.7l0,0H283c0,0.1-0.1,0.2-0.2,0.2L282.7,95.2z M286.2,93.2c-0.2,0-0.3-0.1-0.4-0.3
		c-0.1-0.2,0-0.5,0.2-0.7c0.2-0.1,0.6-0.1,0.7,0.2c0.1,0.2,0.1,0.5-0.1,0.6l0,0h-0.1C286.5,93.1,286.4,93.2,286.2,93.2L286.2,93.2z
		 M289.8,91.2c-0.2,0-0.4-0.1-0.4-0.3c-0.1-0.2,0-0.5,0.2-0.7l0,0h0.1c0.2-0.1,0.5,0,0.7,0.2c0.1,0.2,0,0.5-0.2,0.7h-0.1
		c-0.1,0.1-0.1,0.2-0.2,0.2L289.8,91.2z M293.4,89.2c-0.2,0-0.3-0.1-0.4-0.3c-0.1-0.2-0.1-0.5,0.2-0.7l0,0c0.2-0.1,0.6-0.1,0.7,0.2
		c0.1,0.2,0.1,0.5-0.1,0.6l0,0h-0.1c0,0.1-0.1,0.2-0.2,0.3L293.4,89.2z"/>
	<path class="st1" d="M150.4,169.2c-0.3,0-0.5-0.2-0.5-0.5l0,0c0-0.2,0.1-0.4,0.3-0.5s0.6-0.1,0.7,0.2l0,0c0.1,0.2,0.1,0.5-0.1,0.6
		C150.7,169.1,150.5,169.2,150.4,169.2z"/>
	<path class="st1" d="M150.4,199c-0.3,0-0.5-0.2-0.5-0.5v-0.1c0-0.3,0.2-0.5,0.5-0.5s0.5,0.2,0.5,0.5v0.1
		C150.9,198.7,150.7,199,150.4,199z M150.4,194.7c-0.3,0-0.5-0.2-0.5-0.5v-0.1c0-0.3,0.2-0.5,0.5-0.5s0.5,0.2,0.5,0.5v0.1
		C150.9,194.5,150.7,194.7,150.4,194.7z M150.4,190.5c-0.3,0-0.5-0.2-0.5-0.5v-0.1c0-0.3,0.2-0.5,0.5-0.5s0.5,0.2,0.5,0.5v0.1
		C150.9,190.2,150.7,190.5,150.4,190.5z M150.4,186.2c-0.3,0-0.5-0.2-0.5-0.5v-0.1c0-0.3,0.2-0.5,0.5-0.5s0.5,0.2,0.5,0.5v0.1
		C150.9,186,150.7,186.2,150.4,186.2L150.4,186.2z M150.4,182c-0.3,0-0.5-0.2-0.5-0.5v-0.1c0-0.3,0.2-0.5,0.5-0.5s0.5,0.2,0.5,0.5
		v0.1C150.9,181.7,150.7,182,150.4,182L150.4,182z M150.4,177.7c-0.3,0-0.5-0.2-0.5-0.5v-0.1c0-0.3,0.2-0.5,0.5-0.5s0.5,0.2,0.5,0.5
		v0.1C150.9,177.5,150.7,177.7,150.4,177.7L150.4,177.7L150.4,177.7z M150.4,173.5c-0.3,0-0.5-0.2-0.5-0.5v-0.1
		c0-0.3,0.2-0.5,0.5-0.5s0.5,0.2,0.5,0.5v0.1C150.9,173.2,150.7,173.5,150.4,173.5L150.4,173.5L150.4,173.5z"/>
	<path class="st1" d="M150.4,203.2c-0.3,0-0.5-0.2-0.5-0.5s0.2-0.5,0.5-0.5s0.5,0.2,0.5,0.5l0,0v0.1
		C150.9,203,150.7,203.2,150.4,203.2z"/>
	<path class="st1" d="M87.8,222.9c-0.1,0-0.3-0.1-0.3-0.3v-40l0.1-0.1l23.5-12.4c0.1-0.1,0.3,0,0.3,0.1l0,0c0.1,0.1,0,0.3-0.1,0.3
		L88,182.8v39.7C88,222.8,87.9,222.9,87.8,222.9z"/>
	<path class="st1" d="M104.7,287.2c-0.3,0-0.5-0.2-0.5-0.4l0,0v-0.1c0-0.3,0.2-0.5,0.5-0.5s0.5,0.2,0.5,0.5
		C105.2,286.9,104.9,287.2,104.7,287.2z M104.7,283.2c-0.3,0-0.5-0.2-0.5-0.5v-0.1c0-0.3,0.2-0.5,0.5-0.5s0.5,0.2,0.5,0.5v0.1
		C105.1,282.9,104.9,283.1,104.7,283.2L104.7,283.2z M104.7,279c-0.3,0-0.5-0.2-0.5-0.4l0,0v-0.1c0-0.3,0.2-0.5,0.5-0.5
		s0.5,0.2,0.5,0.5C105.2,278.7,104.9,279,104.7,279L104.7,279z M104.7,275c-0.3,0-0.5-0.2-0.5-0.5v-0.1c0-0.3,0.2-0.5,0.5-0.5
		s0.5,0.2,0.5,0.5v0.1C105.1,274.7,104.9,274.9,104.7,275L104.7,275z M104.7,270.8c-0.3,0-0.5-0.2-0.5-0.4l0,0v-0.2
		c0-0.3,0.2-0.5,0.5-0.5s0.5,0.2,0.5,0.5S105,270.8,104.7,270.8L104.7,270.8L104.7,270.8z M104.7,266.7c-0.3,0-0.5-0.2-0.5-0.4l0,0
		v-0.1c0-0.3,0.2-0.5,0.5-0.5s0.5,0.2,0.5,0.5C105.2,266.4,104.9,266.7,104.7,266.7L104.7,266.7z M104.7,262.7
		c-0.3,0-0.5-0.2-0.5-0.5v-0.1c0-0.3,0.2-0.5,0.5-0.5s0.5,0.2,0.5,0.5v0.1C105.1,262.4,104.9,262.6,104.7,262.7L104.7,262.7z
		 M104.7,258.5c-0.3,0-0.5-0.2-0.5-0.4l0,0V258c0-0.3,0.2-0.5,0.5-0.5s0.5,0.2,0.5,0.5C105.2,258.2,104.9,258.5,104.7,258.5
		L104.7,258.5z M104.7,254.5c-0.3,0-0.5-0.2-0.5-0.5v-0.1c0-0.3,0.2-0.5,0.5-0.5s0.5,0.2,0.5,0.5v0.1
		C105.1,254.2,104.9,254.4,104.7,254.5L104.7,254.5z M104.7,250.3c-0.3,0-0.5-0.2-0.5-0.4l0,0v-0.1c0-0.3,0.2-0.5,0.5-0.5
		s0.5,0.2,0.5,0.5C105.2,250,104.9,250.3,104.7,250.3L104.7,250.3z M104.7,246.3c-0.3,0-0.5-0.2-0.5-0.5v-0.1c0-0.3,0.2-0.5,0.5-0.5
		s0.5,0.2,0.5,0.5v0.1C105.1,246,104.9,246.2,104.7,246.3L104.7,246.3z M104.7,242.2c-0.3,0-0.5-0.2-0.5-0.5v-0.1
		c0-0.3,0.2-0.5,0.5-0.5s0.5,0.2,0.5,0.5v0.1C105.1,241.9,104.9,242.1,104.7,242.2L104.7,242.2z M104.7,238c-0.3,0-0.5-0.2-0.5-0.4
		l0,0v-0.1c0-0.3,0.2-0.5,0.5-0.5s0.5,0.2,0.5,0.5C105.2,237.7,104.9,238,104.7,238L104.7,238z M104.7,234c-0.3,0-0.5-0.2-0.5-0.5
		v-0.1c0-0.3,0.2-0.5,0.5-0.5s0.5,0.2,0.5,0.5v0.1C105.1,233.8,104.9,233.9,104.7,234L104.7,234z M104.7,229.9
		c-0.3,0-0.5-0.2-0.5-0.5v-0.2c0-0.3,0.2-0.5,0.5-0.5s0.5,0.2,0.5,0.5v0.1C105.2,229.6,105,229.8,104.7,229.9
		C104.7,229.8,104.7,229.8,104.7,229.9L104.7,229.9z M104.7,225.8c-0.3,0-0.5-0.2-0.5-0.5v-0.1c0-0.3,0.2-0.5,0.5-0.5
		s0.5,0.2,0.5,0.5v0.1C105.1,225.6,104.9,225.7,104.7,225.8L104.7,225.8z M104.7,221.7c-0.3,0-0.5-0.2-0.5-0.5v-0.1
		c0-0.3,0.2-0.5,0.5-0.5s0.5,0.2,0.5,0.5v0.1C105.1,221.5,104.9,221.6,104.7,221.7L104.7,221.7z M104.7,217.6
		c-0.3,0-0.5-0.2-0.5-0.4l0,0v-0.1c0-0.3,0.2-0.5,0.5-0.5s0.5,0.2,0.5,0.5C105.1,217.3,104.9,217.5,104.7,217.6L104.7,217.6z
		 M104.7,213.6c-0.3,0-0.5-0.2-0.5-0.5V213c0-0.3,0.2-0.5,0.5-0.5s0.5,0.2,0.5,0.5v0.1c-0.1,0.2-0.3,0.4-0.5,0.4V213.6z
		 M104.7,209.5c-0.3,0-0.5-0.2-0.5-0.5v-0.1c0-0.3,0.2-0.5,0.5-0.5s0.5,0.2,0.5,0.5v0.1c-0.1,0.2-0.3,0.4-0.5,0.4V209.5z
		 M104.7,205.4c-0.3,0-0.5-0.2-0.5-0.5v-0.1c0-0.3,0.2-0.5,0.5-0.5s0.5,0.2,0.5,0.5v0.1c-0.1,0.2-0.3,0.4-0.5,0.3V205.4z
		 M104.7,201.3c-0.3,0-0.5-0.2-0.5-0.5v-0.1c0-0.3,0.2-0.5,0.5-0.5s0.5,0.2,0.5,0.5v0.1c-0.1,0.2-0.3,0.4-0.5,0.4V201.3z
		 M104.7,197.1c-0.3,0-0.5-0.2-0.5-0.4l0,0v-0.1c0-0.3,0.2-0.5,0.5-0.5s0.5,0.2,0.5,0.5c0,0.2-0.3,0.4-0.5,0.4V197.1z M104.7,193.1
		c-0.3,0-0.5-0.2-0.5-0.5v-0.1c0-0.3,0.2-0.5,0.5-0.5s0.5,0.2,0.5,0.5v0.1c-0.1,0.2-0.3,0.4-0.5,0.3V193.1z M104.7,189
		c-0.3,0-0.5-0.2-0.5-0.5v-0.3c0-0.3,0.2-0.5,0.5-0.5s0.5,0.2,0.5,0.5v0.1c0,0.3-0.2,0.5-0.5,0.5l0,0V189z M104.7,184.9
		c-0.3,0-0.5-0.2-0.5-0.5v-0.1c0-0.3,0.2-0.5,0.5-0.5s0.5,0.2,0.5,0.5v0.1c-0.1,0.2-0.3,0.4-0.5,0.3V184.9z M104.7,180.8
		c-0.3,0-0.5-0.2-0.5-0.5v-0.1c0-0.3,0.2-0.5,0.5-0.5s0.5,0.2,0.5,0.5v0.1c-0.1,0.2-0.3,0.4-0.5,0.3V180.8z M104.7,176.7
		c-0.3,0-0.5-0.2-0.5-0.4l0,0v-0.1c0-0.3,0.2-0.5,0.5-0.5s0.5,0.2,0.5,0.5c-0.1,0.2-0.3,0.4-0.5,0.4V176.7z M104.7,172.7
		c-0.3,0-0.5-0.2-0.5-0.5v-0.1c0-0.3,0.2-0.5,0.5-0.5s0.5,0.2,0.5,0.5v0.1c-0.1,0.2-0.3,0.3-0.5,0.3V172.7z M104.7,168.6
		c-0.3,0-0.5-0.2-0.5-0.5V168c0-0.3,0.2-0.5,0.5-0.5s0.5,0.2,0.5,0.5v0.1c-0.1,0.2-0.3,0.3-0.5,0.3V168.6z M104.7,164.5
		c-0.3,0-0.5-0.2-0.5-0.5v-0.1c0-0.3,0.2-0.5,0.5-0.5s0.5,0.2,0.5,0.5v0.1c-0.1,0.2-0.3,0.3-0.5,0.3V164.5z M104.7,160.3
		c-0.3,0-0.5-0.2-0.5-0.5v-0.1c0-0.3,0.2-0.5,0.5-0.5s0.5,0.2,0.5,0.5v0.1c-0.1,0.2-0.3,0.3-0.5,0.3V160.3z M104.7,156.2
		c-0.3,0-0.5-0.2-0.5-0.4l0,0v-0.1c0-0.3,0.2-0.5,0.5-0.5s0.5,0.2,0.5,0.5c-0.1,0.2-0.3,0.3-0.5,0.3V156.2z M104.7,152.2
		c-0.3,0-0.5-0.2-0.5-0.5v-0.1c0-0.3,0.2-0.5,0.5-0.5s0.5,0.2,0.5,0.5v0.1c-0.1,0.2-0.3,0.3-0.5,0.2V152.2z M104.7,148.1
		c-0.3,0-0.5-0.2-0.5-0.5v-0.4c0-0.3,0.2-0.5,0.5-0.5s0.5,0.2,0.5,0.5v0.1c0,0.3-0.2,0.5-0.5,0.5l0,0V148.1z M104.7,144
		c-0.3,0-0.5-0.2-0.5-0.5v-0.1c0-0.3,0.2-0.5,0.5-0.5s0.5,0.2,0.5,0.5v0.1c-0.1,0.2-0.3,0.3-0.5,0.2V144z M104.7,139.9
		c-0.3,0-0.5-0.2-0.5-0.5v-0.1c0-0.3,0.2-0.5,0.5-0.5s0.5,0.2,0.5,0.5v0.1c-0.1,0.2-0.3,0.3-0.5,0.2V139.9z M106.6,136.9
		c-0.3,0-0.5-0.2-0.5-0.5c0-0.2,0.1-0.3,0.2-0.4l0.1-0.1c0.3-0.1,0.5,0,0.7,0.2c0.1,0.2,0,0.5-0.2,0.6h-0.1c-0.1,0-0.2-0.1-0.3-0.1
		v0.3H106.6z M110.2,134.8c-0.2,0-0.4-0.1-0.4-0.2c-0.1-0.2-0.1-0.5,0.1-0.7l0,0h0.1c0.2-0.2,0.5-0.1,0.7,0.1
		c0.2,0.2,0.1,0.5-0.1,0.7c0,0-0.1,0-0.1,0.1c-0.1,0-0.2-0.1-0.3-0.2L110.2,134.8z M113.8,132.8c-0.2,0-0.3-0.1-0.4-0.2
		c-0.1-0.2-0.1-0.5,0.1-0.6l0,0l0.1-0.1c0.2-0.1,0.5,0,0.7,0.2c0.1,0.2,0.1,0.5-0.2,0.7l0,0c-0.1,0-0.2-0.1-0.3-0.2
		C113.8,132.6,113.8,132.8,113.8,132.8z M117.3,130.8c-0.2,0-0.4-0.1-0.4-0.3c-0.1-0.2,0-0.5,0.2-0.7l0.1-0.1c0.2-0.1,0.5,0,0.7,0.2
		c0.1,0.2,0,0.5-0.2,0.6l-0.1,0.1c-0.1,0-0.2-0.1-0.3-0.2L117.3,130.8z M120.9,128.7c-0.2,0-0.3-0.1-0.4-0.2
		c-0.1-0.2-0.1-0.5,0.1-0.6l0,0l0.1-0.1c0.2-0.1,0.5,0,0.7,0.2c0.1,0.2,0,0.5-0.2,0.6c-0.1,0-0.2-0.1-0.3-0.2L120.9,128.7z
		 M124.4,126.7c-0.2,0-0.3-0.1-0.4-0.2c-0.1-0.2-0.1-0.5,0.1-0.6l0,0l0.1-0.1c0.2-0.1,0.5,0,0.7,0.2c0.1,0.2,0,0.5-0.2,0.6
		c-0.1,0-0.2-0.1-0.3-0.2C124.4,126.4,124.4,126.7,124.4,126.7z M128,124.7c-0.3,0-0.5-0.2-0.5-0.5c0-0.2,0.1-0.3,0.2-0.4h0.1
		c0.2-0.1,0.5-0.1,0.7,0.2l0,0c0.1,0.2,0.1,0.5-0.2,0.7h-0.1c-0.1,0-0.2-0.1-0.3-0.2L128,124.7z M131.6,122.7
		c-0.2,0-0.4-0.1-0.4-0.2c-0.1-0.2-0.1-0.5,0.1-0.7l0,0h0.1c0.2-0.1,0.5-0.1,0.7,0.2c0.1,0.2,0,0.5-0.2,0.7
		c-0.1-0.1-0.2-0.1-0.3-0.2V122.7z M135.1,120.7c-0.2,0-0.4-0.1-0.4-0.2c-0.1-0.2-0.1-0.5,0.1-0.7l0,0h0.1c0.2-0.1,0.5,0,0.7,0.2
		c0.1,0.2,0,0.5-0.2,0.6c-0.1-0.1-0.2-0.2-0.3-0.3L135.1,120.7L135.1,120.7z M138.6,118.7c-0.2,0-0.3-0.1-0.4-0.3
		c-0.1-0.2,0-0.5,0.2-0.7h0.1c0.2-0.1,0.5,0,0.7,0.2c0.1,0.2,0,0.5-0.2,0.7h-0.1c-0.1,0-0.2-0.1-0.3-0.2V118.7z M142.3,116.6
		c-0.2,0-0.3-0.1-0.4-0.2c-0.1-0.2-0.1-0.5,0.1-0.6l0,0h0.1c0.2-0.1,0.5,0,0.7,0.2c0.1,0.2,0.1,0.5-0.2,0.7l0,0
		c-0.1-0.1-0.2-0.2-0.3-0.3L142.3,116.6L142.3,116.6z M145.8,114.6c-0.2,0-0.3-0.1-0.4-0.2c-0.1-0.2-0.1-0.5,0.1-0.6l0,0l0.1-0.1
		c0.2-0.1,0.5,0,0.7,0.2c0.1,0.2,0,0.5-0.2,0.6c-0.1,0-0.2-0.1-0.3-0.3L145.8,114.6L145.8,114.6z M149.3,112.6
		c-0.3,0-0.5-0.2-0.5-0.5c0-0.2,0.1-0.3,0.2-0.4l0.1-0.1c0.2-0.1,0.5-0.1,0.7,0.2c0.1,0.2,0.1,0.5-0.2,0.7h-0.1
		c-0.1,0-0.2-0.1-0.2-0.2V112.6z"/>
	<path class="st1" d="M176,141.5c-0.2,0-0.4-0.1-0.4-0.2c-0.1-0.2-0.1-0.5,0.1-0.6l0,0l0.1-0.1c0.2-0.2,0.5-0.1,0.7,0.1
		s0.1,0.5-0.1,0.7c0,0-0.1,0-0.1,0.1C176.2,141.5,176.1,141.5,176,141.5z M174.4,140.3c-0.3,0-0.5-0.2-0.5-0.5v-0.1
		c0-0.3,0.2-0.5,0.5-0.5s0.5,0.2,0.5,0.5v0.1C174.9,140.1,174.6,140.3,174.4,140.3L174.4,140.3L174.4,140.3z M179.5,139.4
		c-0.2,0-0.4-0.1-0.4-0.2c-0.1-0.2-0.1-0.5,0.1-0.7l0.1-0.1c0.2-0.1,0.5,0,0.7,0.2c0.1,0.2,0.1,0.5-0.2,0.7l0,0
		C179.7,139.4,179.6,139.4,179.5,139.4L179.5,139.4z M183.1,137.4c-0.2,0-0.3-0.1-0.4-0.2c-0.1-0.2-0.1-0.5,0.1-0.7l0,0h0.1
		c0.2-0.1,0.5-0.1,0.7,0.2c0.1,0.2,0.1,0.5-0.2,0.7C183.3,137.4,183.2,137.4,183.1,137.4L183.1,137.4z M174.4,136.2
		c-0.3,0-0.5-0.2-0.5-0.5v-0.1c0-0.3,0.2-0.5,0.5-0.5s0.5,0.2,0.5,0.5v0.1C174.8,136,174.6,136.2,174.4,136.2L174.4,136.2z
		 M186.6,135.4c-0.2,0-0.3-0.1-0.4-0.2c-0.1-0.2-0.1-0.5,0.1-0.6l0,0l0.1-0.1c0.3-0.1,0.5,0,0.7,0.2c0.1,0.2,0,0.5-0.2,0.6
		C186.8,135.3,186.7,135.3,186.6,135.4L186.6,135.4z M190.1,133.4c-0.3,0-0.5-0.2-0.5-0.5c0-0.2,0.1-0.3,0.2-0.4l0.1-0.1
		c0.3-0.1,0.5,0,0.7,0.2c0.1,0.2,0,0.5-0.2,0.6l-0.1,0.1C190.3,133.3,190.2,133.3,190.1,133.4L190.1,133.4z M174.4,132.1
		c-0.3,0-0.5-0.2-0.5-0.5s0.2-0.5,0.5-0.6c0.3,0,0.5,0.2,0.5,0.4l0,0v0.1C174.8,131.9,174.6,132.1,174.4,132.1L174.4,132.1z
		 M193.7,131.3c-0.2,0-0.3-0.1-0.4-0.2c-0.1-0.2-0.1-0.5,0.1-0.6l0,0h0.1c0.2-0.1,0.5-0.1,0.7,0.2c0.1,0.2,0.1,0.5-0.2,0.7
		C193.9,131.3,193.8,131.2,193.7,131.3L193.7,131.3z M197.3,129.2c-0.2,0-0.3-0.1-0.4-0.2c-0.1-0.2-0.1-0.5,0.1-0.6l0,0h0.1
		c0.2-0.1,0.5-0.1,0.7,0.2c0.1,0.2,0.1,0.5-0.2,0.7C197.5,129.2,197.4,129.2,197.3,129.2L197.3,129.2z M174.4,128
		c-0.3,0-0.5-0.2-0.5-0.5v-0.1c0-0.3,0.2-0.5,0.5-0.5s0.5,0.2,0.5,0.5v0.1C174.8,127.8,174.6,128,174.4,128L174.4,128z M200.8,127.2
		c-0.3,0.1-0.6-0.1-0.6-0.4c-0.1-0.3,0.1-0.6,0.4-0.6l0,0h0.1c0.2-0.2,0.5-0.1,0.7,0.1s0.1,0.5-0.1,0.7c0,0-0.1,0-0.1,0.1h-0.1
		C200.9,127.1,200.9,127.2,200.8,127.2L200.8,127.2z M204.4,125.1c-0.2,0-0.3-0.1-0.4-0.2c-0.1-0.2-0.1-0.5,0.1-0.6l0,0h0.1
		c0.2-0.1,0.5-0.1,0.7,0.2c0.1,0.2,0.1,0.5-0.2,0.7C204.6,125.1,204.5,125.1,204.4,125.1L204.4,125.1z M174.4,123.9
		c-0.3,0-0.5-0.2-0.5-0.5v-0.1c0-0.3,0.2-0.5,0.5-0.5s0.5,0.2,0.5,0.5v0.1C174.8,123.7,174.6,123.9,174.4,123.9L174.4,123.9z
		 M208,123.1c-0.2,0-0.3-0.1-0.4-0.2c-0.1-0.2-0.1-0.5,0.1-0.6l0,0h0.1c0.2-0.1,0.6-0.1,0.7,0.2c0.1,0.2,0,0.5-0.2,0.7
		C208.1,123.1,208,123.1,208,123.1L208,123.1z M211.5,121.1c-0.2,0-0.3-0.1-0.4-0.3c-0.1-0.2,0-0.5,0.2-0.7l0.1-0.1
		c0.2-0.1,0.5-0.1,0.7,0.2c0.1,0.2,0,0.5-0.2,0.7h-0.1C211.6,121,211.5,121,211.5,121.1L211.5,121.1z M215.1,119
		c-0.2,0-0.4-0.1-0.4-0.2c-0.1-0.2-0.1-0.5,0.1-0.6l0,0h0.1c0.2-0.2,0.5-0.1,0.7,0.1s0.1,0.5-0.1,0.7c0,0-0.1,0-0.1,0.1
		C215.2,119,215.1,119,215.1,119L215.1,119z"/>
	<path class="st6" d="M425.2,118.4l-36.3,21c-2.6,1.5-7.3,1.3-10.4-0.4l-34.8-20.1c-3.1-1.8-3.4-4.5-0.8-6l36.3-21
		c2.6-1.5,7.3-1.3,10.4,0.4l34.8,20.1C427.5,114.2,427.9,116.9,425.2,118.4z"/>
	
		<linearGradient id="SVGID_5_" gradientUnits="userSpaceOnUse" x1="438.5188" y1="687.0663" x2="367.5188" y2="828.0663" gradientTransform="matrix(1 0 0 1 0 -558)">
		<stop  offset="0" style="stop-color:#E4F2FF"/>
		<stop  offset="6.000000e-02" style="stop-color:#E1EFFF"/>
		<stop  offset="0.65" style="stop-color:#C7D7FB"/>
		<stop  offset="1" style="stop-color:#BDCEFA"/>
	</linearGradient>
	<path class="st7" d="M427,247.2V116.3l0,0c-0.2,0.9-0.9,1.7-1.7,2.1l-36.3,21c-1.5,0.8-3.2,1.1-4.8,1v131.8c1.7,0.1,3.3-0.2,4.8-1
		l36.3-20.9C426.5,249.8,427.2,248.5,427,247.2z"/>
	<path class="st8" d="M378.6,139l-34.8-20.1c-1.2-0.6-2.1-1.6-2.5-2.9v130.9c-0.3,1.3,0.6,2.8,2.5,3.9l34.8,20.1
		c1.7,0.9,3.6,1.4,5.5,1.5v-132C382.2,140.4,380.3,139.9,378.6,139z"/>
	
		<linearGradient id="SVGID_6_" gradientUnits="userSpaceOnUse" x1="453.4842" y1="617.101" x2="338.8141" y2="787.7711" gradientTransform="matrix(1 0 0 1 0 -558)">
		<stop  offset="0" style="stop-color:#E4F2FF"/>
		<stop  offset="6.000000e-02" style="stop-color:#E1EFFF"/>
		<stop  offset="0.65" style="stop-color:#C7D7FB"/>
		<stop  offset="1" style="stop-color:#BDCEFA"/>
	</linearGradient>
	<path class="st9" d="M378.6,139l-34.8-20.1c-1.2-0.6-2.1-1.6-2.5-2.9v130.9c-0.3,1.3,0.6,2.8,2.5,3.9l34.8,20.1
		c1.7,0.9,3.6,1.4,5.5,1.5v-132C382.2,140.4,380.3,139.9,378.6,139z"/>
	<g id="cloud">
		<path class="st10" d="M423.5,132.8c0,7.4-3.9,11.5-9.5,11c-1.5,0.1-3-0.3-4.3-1.1l-46.4-26.8c-0.4-0.2-0.8-0.5-1.1-0.8
			c-7.8-5.4-13.9-16.6-13.9-25.8c0-9,5.8-13.1,13.3-10c1.1-6.4,6.5-8.7,12.9-5c2.3,1.3,4.3,3.1,6,5.1c3.4-2.9,8.6-3,14.5,0.4
			c8.8,5.1,16.1,16.3,18.1,26.9c2.8,2.1,4.6,5.4,4.8,8.9C421.3,120.9,423.5,127.2,423.5,132.8z		">
<animateTransform  accumulate="none" additive="replace" attributeName="transform" attributeType="XML" calcMode="linear" dur="3s" fill="remove" id="any" repeatCount="indefinite" restart="always" type="translate" values="0,10;0,-10;0,10">
				</animateTransform>
		</path>
		<path class="st11" d="M427.9,109.9c-0.3-3.5-2-6.7-4.8-8.9c-2-10.6-9.3-21.9-18.1-26.9c-5.1-3-9.8-3.3-13.2-1.3l-1.4,0.8
			c-1.7-2-3.6-3.7-5.9-5c-3.6-2.1-6.9-2.3-9.3-0.9l-8.5,4.9c-1.3,0-2.6,0.3-3.8,0.9l-9.9,5.7c2.3-1.2,5.2-1.2,8.5,0.1
			c1.1-6.4,6.5-8.7,12.9-5c2.3,1.3,4.3,3.1,6,5.1c3.4-2.9,8.6-3,14.5,0.4c8.8,5.1,16.1,16.3,18.1,26.9c2.8,2.1,4.6,5.4,4.8,8.9
			c3.5,5.3,5.7,11.6,5.7,17.1c0,5.1-1.8,8.6-4.8,10.1l9.9-5.7c3-1.5,4.9-5.1,4.9-10.2C433.6,121.5,431.3,115.2,427.9,109.9z		">
<animateTransform  accumulate="none" additive="replace" attributeName="transform" attributeType="XML" calcMode="linear" dur="3s" fill="remove" id="any" repeatCount="indefinite" restart="always" type="translate" values="0,10;0,-10;0,10">
				</animateTransform>
		</path>
		<g>
			<path class="st12" d="M369.4,109.3c0,1.8-1.3,2.6-2.9,1.7c-1.7-1.1-2.8-3-2.9-5c0-1.8,1.3-2.6,2.9-1.7
				C368.2,105.4,369.3,107.3,369.4,109.3z"/>
			<path class="st12" d="M378.3,114.5c0,1.8-1.3,2.6-2.9,1.7c-1.7-1.1-2.8-3-2.9-5c0-1.8,1.3-2.6,2.9-1.7
				C377.2,110.6,378.2,112.4,378.3,114.5z"/>
			<path class="st12" d="M387.3,119.6c0,1.8-1.3,2.6-2.9,1.7c-1.7-1.1-2.8-3-2.9-5c0-1.8,1.3-2.6,2.9-1.7
				C386.1,115.7,387.2,117.6,387.3,119.6z"/>
			<path class="st12" d="M396.3,124.8c0,1.8-1.3,2.6-2.9,1.7c-1.7-1.1-2.8-3-2.9-5c0-1.8,1.3-2.6,2.9-1.7
				C395.1,120.9,396.2,122.8,396.3,124.8z"/>
			<path class="st12" d="M405.2,130c0,1.8-1.3,2.6-2.9,1.7c-1.7-1.1-2.8-3-2.9-5c0-1.8,1.3-2.6,2.9-1.7
				C404,126.1,405.1,128,405.2,130z"/>
			
				<animateTransform  accumulate="none" additive="replace" attributeName="transform" attributeType="XML" calcMode="linear" dur="3s" fill="remove" id="any" repeatCount="indefinite" restart="always" type="translate" values="0,10;0,-10;0,10">
				</animateTransform>
		</g>
	</g>
	
		<linearGradient id="SVGID_7_" gradientUnits="userSpaceOnUse" x1="305.4319" y1="1040.3727" x2="305.532" y2="1040.3727" gradientTransform="matrix(1 0 0 1 0 -558)">
		<stop  offset="0" style="stop-color:#DEEBFE"/>
		<stop  offset="0.6" style="stop-color:#C7D7FB"/>
		<stop  offset="1" style="stop-color:#BDCEFA"/>
	</linearGradient>
	<path class="st13" d="M305.5,482.4h-0.1H305.5z"/>
	
		<linearGradient id="SVGID_8_" gradientUnits="userSpaceOnUse" x1="134.032" y1="1078.5726" x2="134.032" y2="1078.5726" gradientTransform="matrix(1 0 0 1 0 -558)">
		<stop  offset="0" style="stop-color:#FCFDFF"/>
		<stop  offset="0.29" style="stop-color:#E7F2FF"/>
		<stop  offset="0.74" style="stop-color:#CDE5FE"/>
		<stop  offset="1" style="stop-color:#C3E0FE"/>
	</linearGradient>
	<path class="st14" d="M134,520.6L134,520.6L134,520.6z"/>
	<path class="st6" d="M425.7,344.5l-66.5,37.2c-3,1.7-8.1,1.5-11.5-0.5l-22.2-13.1c-3.4-2-3.8-5-0.8-6.7l66.2-38
		c3-1.7,8.1-1.5,11.5,0.5l22.4,13.9C428.2,339.8,428.6,342.8,425.7,344.5z"/>
	
		<linearGradient id="SVGID_9_" gradientUnits="userSpaceOnUse" x1="427.5994" y1="896.3582" x2="276.2094" y2="1013.1182" gradientTransform="matrix(1 0 0 1 0 -558)">
		<stop  offset="0" style="stop-color:#E4F2FF"/>
		<stop  offset="6.000000e-02" style="stop-color:#E1EFFF"/>
		<stop  offset="0.65" style="stop-color:#C7D7FB"/>
		<stop  offset="1" style="stop-color:#BDCEFA"/>
	</linearGradient>
	<path class="st15" d="M427.6,348.7v-6.5l0,0c-0.3,1-1,1.9-1.9,2.4l-66.5,37.2c-1.7,0.8-3.5,1.2-5.4,1.1v7.5
		c1.9,0.1,3.7-0.3,5.4-1.1l66.5-37.2C427,351.5,427.8,350.1,427.6,348.7z"/>
	
		<linearGradient id="SVGID_10_" gradientUnits="userSpaceOnUse" x1="382.7071" y1="895.3141" x2="329.0771" y2="943.9142" gradientTransform="matrix(1 0 0 1 0 -558)">
		<stop  offset="0" style="stop-color:#E4F2FF"/>
		<stop  offset="6.000000e-02" style="stop-color:#E1EFFF"/>
		<stop  offset="0.65" style="stop-color:#C7D7FB"/>
		<stop  offset="1" style="stop-color:#BDCEFA"/>
	</linearGradient>
	<path class="st16" d="M347.7,381.3l-22.2-13.2c-1.3-0.6-2.4-1.8-2.8-3.3v6.5c-0.3,1.5,0.6,3.1,2.8,4.3l22.1,13.2
		c1.9,1,4,1.6,6.2,1.6v-7.5C351.7,382.8,349.6,382.3,347.7,381.3z"/>
	<path class="st6" d="M453.3,385.5l-66.5,37.2c-3,1.7-8.1,1.5-11.5-0.5L353.2,409c-3.4-2-3.8-5-0.8-6.7l66.2-38
		c3-1.7,8.1-1.5,11.5,0.5l22.4,13.9C455.9,380.8,456.3,383.8,453.3,385.5z"/>
	
		<linearGradient id="SVGID_11_" gradientUnits="userSpaceOnUse" x1="451.6159" y1="942.3466" x2="309.5959" y2="1042.5967" gradientTransform="matrix(1 0 0 1 0 -558)">
		<stop  offset="0" style="stop-color:#E4F2FF"/>
		<stop  offset="6.000000e-02" style="stop-color:#E1EFFF"/>
		<stop  offset="0.65" style="stop-color:#C7D7FB"/>
		<stop  offset="1" style="stop-color:#BDCEFA"/>
	</linearGradient>
	<path class="st17" d="M455.3,389.6v-6.5l0,0c-0.3,1-1,1.9-1.9,2.4l-66.5,37.2c-1.7,0.8-3.5,1.2-5.4,1.1v7.6
		c1.9,0.1,3.7-0.3,5.4-1.1l66.5-37.2C454.7,392.4,455.5,391.1,455.3,389.6z"/>
	
		<linearGradient id="SVGID_12_" gradientUnits="userSpaceOnUse" x1="428.8696" y1="936.7056" x2="362.0396" y2="978.9656" gradientTransform="matrix(1 0 0 1 0 -558)">
		<stop  offset="0" style="stop-color:#E4F2FF"/>
		<stop  offset="6.000000e-02" style="stop-color:#E1EFFF"/>
		<stop  offset="0.65" style="stop-color:#C7D7FB"/>
		<stop  offset="1" style="stop-color:#BDCEFA"/>
	</linearGradient>
	<path class="st18" d="M375.3,422.2L353.2,409c-1.3-0.6-2.4-1.8-2.8-3.3v6.5c-0.3,1.5,0.6,3.1,2.8,4.3l22.1,13.2
		c1.9,1,4,1.6,6.2,1.6v-7.6C379.3,423.8,377.2,423.2,375.3,422.2z"/>
	<path class="st6" d="M441.6,280.1L244.4,393.7c-8.9,5.1-24.5,4.5-34.8-1.5L89.3,323.1c-10.3-5.9-11.4-15-2.5-20.1l200.6-111.9
		c8.9-5.1,24.5-4.5,34.8,1.4L439.1,260C449.3,265.9,450.5,275,441.6,280.1z"/>
	
		<linearGradient id="SVGID_13_" gradientUnits="userSpaceOnUse" x1="466.4087" y1="799.7314" x2="213.2387" y2="994.6514" gradientTransform="matrix(1 0 0 1 0 -558)">
		<stop  offset="0" style="stop-color:#E4F2FF"/>
		<stop  offset="6.000000e-02" style="stop-color:#E1EFFF"/>
		<stop  offset="0.65" style="stop-color:#C7D7FB"/>
		<stop  offset="1" style="stop-color:#BDCEFA"/>
	</linearGradient>
	<path class="st19" d="M447.4,278.4V273l0,0c-0.5,2.7-2.5,5.2-5.8,7.1L244.4,393.7c-4.3,2.5-10.1,3.6-16.2,3.4v8.6
		c6,0.1,11.9-1,16.2-3.4l197.2-113.6C446.2,286,448.1,282.2,447.4,278.4z"/>
	<path class="st20" d="M209.6,392.2L89.3,323.1c-4.9-2.8-7.7-6.4-8.3-9.9v5.4c-0.9,4.4,1.9,9.3,8.3,13l120.3,69.2
		c5.7,3.1,12.1,4.8,18.6,4.9v-8.6C221.7,397,215.3,395.3,209.6,392.2z"/>
	
		<linearGradient id="SVGID_14_" gradientUnits="userSpaceOnUse" x1="320.7881" y1="941.0603" x2="220.448" y2="926.8803" gradientTransform="matrix(1 0 0 1 0 -558)">
		<stop  offset="0" style="stop-color:#E4F2FF"/>
		<stop  offset="6.000000e-02" style="stop-color:#E1EFFF"/>
		<stop  offset="0.65" style="stop-color:#C7D7FB"/>
		<stop  offset="1" style="stop-color:#BDCEFA"/>
	</linearGradient>
	<path class="st21" d="M209.6,392.2L89.3,323.1c-4.9-2.8-7.7-6.4-8.3-9.9v5.4c-0.9,4.4,1.9,9.3,8.3,13l120.3,69.2
		c5.7,3.1,12.1,4.8,18.6,4.9v-8.6C221.7,397,215.3,395.3,209.6,392.2z"/>
	<polygon class="st12" points="256.4,342.7 215.2,366.4 110.5,305.9 151.6,282.1 	"/>
	
		<linearGradient id="SVGID_15_" gradientUnits="userSpaceOnUse" x1="254.8676" y1="902.2183" x2="131.3676" y2="1024.2183" gradientTransform="matrix(1 0 0 1 0 -558)">
		<stop  offset="0" style="stop-color:#E4F2FF"/>
		<stop  offset="6.000000e-02" style="stop-color:#E1EFFF"/>
		<stop  offset="0.65" style="stop-color:#C7D7FB"/>
		<stop  offset="1" style="stop-color:#BDCEFA"/>
	</linearGradient>
	<polygon class="st22" points="256.4,342.7 256.4,359.7 215.2,383.5 215.2,366.4 	"/>
	
		<linearGradient id="SVGID_16_" gradientUnits="userSpaceOnUse" x1="317.134" y1="947.4555" x2="131.134" y2="893.4555" gradientTransform="matrix(1 0 0 1 0 -558)">
		<stop  offset="0" style="stop-color:#E4F2FF"/>
		<stop  offset="6.000000e-02" style="stop-color:#E1EFFF"/>
		<stop  offset="0.65" style="stop-color:#C7D7FB"/>
		<stop  offset="1" style="stop-color:#BDCEFA"/>
	</linearGradient>
	<polygon class="st23" points="110.5,305.9 110.5,323 215.2,383.5 215.2,366.4 	"/>
	<g>
		<path class="st24" d="M170.9,300.5l-18.1,10.4c-1.7,0.7-3.6,0.7-5.2-0.2l-17.3-10c-1.5-0.9-1.7-2.2-0.4-3l18.1-10.4
			c1.7-0.7,3.6-0.7,5.2,0.2l17.3,10C172,298.3,172.2,299.7,170.9,300.5z"/>
		<path class="st25" d="M171.7,307.3v-8l0,0c-0.1,0.5-0.4,0.8-0.9,1.1l-18.1,10.4c-0.7,0.4-1.6,0.5-2.4,0.5v8.4
			c0.8,0,1.7-0.1,2.4-0.5l18.1-10.4C171.5,308.6,171.8,308,171.7,307.3z"/>
		<path class="st26" d="M147.6,310.7l-17.3-10c-0.6-0.3-1.1-0.8-1.2-1.5v8c-0.1,0.6,0.3,1.4,1.2,1.9l17.3,10
			c0.9,0.5,1.8,0.7,2.8,0.7v-8.4C149.4,311.4,148.5,311.1,147.6,310.7z"/>
		
			<animateTransform  accumulate="none" additive="replace" attributeName="transform" attributeType="XML" calcMode="linear" dur="1s" fill="remove" id="any" repeatCount="indefinite" restart="always" type="translate" values="0,2;0,-2;0,2">
			</animateTransform>
	</g>
	<g>
		<path class="st27" d="M202.7,318.9l-18.1,10.4c-1.7,0.7-3.6,0.7-5.2-0.2l-17.3-10c-1.5-0.9-1.7-2.2-0.4-3l18.1-10.4
			c1.7-0.7,3.6-0.7,5.2,0.2l17.3,10C203.9,316.8,204.1,318.2,202.7,318.9z"/>
		<path class="st28" d="M203.6,325.8v-8l0,0c-0.1,0.5-0.4,0.8-0.9,1.1l-18.1,10.4c-0.7,0.4-1.6,0.6-2.4,0.5v8.4
			c0.8,0.1,1.7-0.1,2.4-0.5l18.1-10.4C203.3,327,203.7,326.4,203.6,325.8z"/>
		<path class="st29" d="M179.5,329.1l-17.3-10c-0.6-0.3-1.1-0.8-1.2-1.5v8c-0.1,0.6,0.3,1.4,1.2,1.9l17.3,10
			c0.8,0.5,1.8,0.7,2.8,0.7v-8.4C181.3,329.9,180.3,329.6,179.5,329.1z"/>
		
			<animateTransform  accumulate="none" additive="replace" attributeName="transform" attributeType="XML" calcMode="linear" dur="1.5s" fill="remove" id="any" repeatCount="indefinite" restart="always" type="translate" values="0,4;0,-4;0,4">
			</animateTransform>
	</g>
	<g>
		<path class="st30" d="M235.3,337.6L217.2,348c-1.7,0.7-3.6,0.7-5.2-0.2l-17.3-10c-1.5-0.9-1.7-2.2-0.4-3l18.1-10.4
			c1.7-0.7,3.6-0.7,5.2,0.2l17.3,10C236.4,335.5,236.6,336.9,235.3,337.6z"/>
		<path class="st31" d="M236.1,344.5v-8l0,0c-0.1,0.5-0.4,0.8-0.9,1.1l-18.1,10.5c-0.7,0.4-1.6,0.5-2.4,0.5v8.4
			c0.8,0,1.7-0.1,2.4-0.5l18.1-10.4C235.9,345.8,236.2,345.2,236.1,344.5z"/>
		<path class="st32" d="M212,347.8l-17.3-10c-0.6-0.3-1.1-0.8-1.2-1.5v8c-0.1,0.6,0.3,1.4,1.2,1.9l17.3,10c0.8,0.5,1.8,0.7,2.8,0.7
			v-8.4C213.8,348.6,212.9,348.3,212,347.8z"/>
		
			<animateTransform  accumulate="none" additive="replace" attributeName="transform" attributeType="XML" calcMode="linear" dur="2s" fill="remove" id="any" repeatCount="indefinite" restart="always" type="translate" values="0,8;0,-8;0,8">
			</animateTransform>
	</g>
	<ellipse class="st12" cx="406" cy="250.4" rx="27.9" ry="16.1"/>
	
		<linearGradient id="SVGID_17_" gradientUnits="userSpaceOnUse" x1="454.2932" y1="823.1901" x2="378.7932" y2="825.6901" gradientTransform="matrix(1 0 0 1 0 -558)">
		<stop  offset="0" style="stop-color:#E4F2FF"/>
		<stop  offset="6.000000e-02" style="stop-color:#E1EFFF"/>
		<stop  offset="0.65" style="stop-color:#C7D7FB"/>
		<stop  offset="1" style="stop-color:#BDCEFA"/>
	</linearGradient>
	<path class="st33" d="M425.7,261.8c-10.9,6.3-28.5,6.3-39.4,0c-5.4-3.1-8.1-7.2-8.1-11.3v17.3c0,4.1,2.7,8.3,8.1,11.5
		c10.9,6.3,28.5,6.3,39.4,0c5.5-3.2,8.2-7.3,8.1-11.5v-17.3C433.8,254.6,431.1,258.7,425.7,261.8z"/>
	<path class="st34" d="M406,238.2l17,9.8c-9.3,5.4-24.7,5.4-34,0s-9.3-14.3,0-19.6c5.2-3,12.5-4.5,19.9-4L406,238.2z"/>
	<path class="st26" d="M389,248c-4.6-2.7-7-6.2-7-9.8v9.9c0,3.6,2.3,7.2,7,9.9c9.3,5.4,24.7,5.4,34,0v-10
		C413.6,253.4,398.3,253.4,389,248z"/>
	<path class="st24" d="M406,238.2l17,9.8c-9.3,5.4-24.7,5.4-34,0s-9.3-14.3,0-19.6c5.2-3,12.5-4.5,19.9-4L406,238.2z"/>
	<path class="st27" d="M406,228l2.8-13.8c5,0.3,9.8,1.6,14.2,4c9.3,5.4,9.3,14.3,0,19.6L406,228z"/>
	<polygon class="st29" points="406,228 406,238.2 423,248 423,237.8 	"/>
	<path class="st28" d="M430,248.1v-20c0,3.5-2.4,7-7,9.7v20.1C427.7,255.3,430,251.6,430,248.1z"/>
	<path class="st12" d="M348.7,222.8l-39.6-22.9c-4.7-2.7-4.1-7.4,1.3-10.5l0,0c5.4-3.1,13.6-3.5,18.3-0.8l39.6,22.9
		c4.7,2.7,4.1,7.4-1.3,10.5l0,0C361.5,225.2,353.3,225.5,348.7,222.8z"/>
	
		<linearGradient id="SVGID_18_" gradientUnits="userSpaceOnUse" x1="371.9228" y1="790.0312" x2="313.4228" y2="756.7812" gradientTransform="matrix(1 0 0 1 0 -558)">
		<stop  offset="0" style="stop-color:#E4F2FF"/>
		<stop  offset="6.000000e-02" style="stop-color:#E1EFFF"/>
		<stop  offset="0.65" style="stop-color:#C7D7FB"/>
		<stop  offset="1" style="stop-color:#BDCEFA"/>
	</linearGradient>
	<path class="st35" d="M366.9,222c-5.4,3.1-13.6,3.5-18.3,0.8L309,199.9c-2-1.2-3.1-2.7-3.2-4.4l0,0v11.7v0.1c0,1.7,1.1,3.3,3.2,4.5
		l39.6,22.9c4.7,2.7,12.9,2.4,18.3-0.8c3-1.8,4.6-4,4.5-6.2v-11.8C371.4,218.1,369.9,220.3,366.9,222z"/>
	<path class="st1" d="M325.9,196.5c-2.3,1.2-5,1.2-7.4,0c-2-1.2-2-3.1,0-4.3c2.3-1.2,5-1.2,7.4,0C328,193.4,328,195.3,325.9,196.5z"
		/>
	<path class="st1" d="M337.4,203.1c-2.3,1.2-5,1.2-7.4,0c-2-1.2-2-3.1,0-4.2c2.3-1.2,5-1.2,7.4,0C339.5,200,339.5,201.9,337.4,203.1
		z"/>
	<path class="st1" d="M348.9,209.7c-2.3,1.2-5,1.2-7.4,0c-2-1.2-2-3.1,0-4.3c2.3-1.2,5-1.2,7.4,0
		C350.9,206.7,350.9,208.6,348.9,209.7z"/>
	<path class="st1" d="M360.4,216.3c-2.3,1.2-5,1.2-7.4,0c-2-1.2-2-3.1,0-4.2c2.3-1.2,5-1.2,7.4,0
		C362.4,213.3,362.4,215.2,360.4,216.3z"/>
	<path class="st36" d="M332.1,202.2L332.1,202.2c1.4,0.2,2.7-0.7,3-2.1l2.5-14.1c0.2-1.4-0.7-2.7-2.1-2.9l0,0
		c-1.4-0.2-2.7,0.7-2.9,2.1l-2.5,14.1C329.8,200.6,330.7,201.9,332.1,202.2L332.1,202.2z"/>
	<path class="st36" d="M320.7,203.1L320.7,203.1c0.4,1.3,1.8,2.1,3.2,1.7l8.8-2.6c1.4-0.1,2.5-1.3,2.4-2.7l0,0
		c-0.1-1.4-1.3-2.5-2.7-2.4l-10,2.8C321,200.3,320.3,201.7,320.7,203.1z"/>
	<path class="st37" d="M347.1,245c0,0.3-0.2,0.6-0.7,0.9c-0.1,0.1,0-1.8-0.4-1.5c-0.1,0.1-6.3,4.9-9.7,4c-0.3-0.1-0.5-0.4-0.5-0.7
		v-0.8c0-0.9,1.2-2.2,3.2-4.1c2.1-2.1,3.5-3.4,6.8-1.6c0.9,0.5,1.3,0.9,1.3,1.3L347.1,245z"/>
	<path class="st38" d="M339,242.8c-2.6,2.5-4,4-2.7,4.8s4-0.4,6.8-2.5c2.4-1.8,5.9-2,2.7-3.9S341.1,240.7,339,242.8z"/>
	<path class="st39" d="M341.6,241.6l0.2-23.4l7.7,2.5l-1.3,3.8c0.3,3.5,0,6.9-1,10.3c0,0-1.1,2.3-0.9,7.5
		C346.3,242.3,343.5,243.9,341.6,241.6z"/>
	<path class="st37" d="M339.6,238.9c0,0.3-0.2,0.6-0.7,0.9c-0.1,0.1,0-1.8-0.4-1.5c-0.1,0.1-6.2,4.9-9.6,4c-0.3-0.1-0.5-0.4-0.5-0.7
		v-0.8c0-0.9,1.2-2.2,3.2-4.1c2.1-2.1,3.5-3.4,6.7-1.6c0.9,0.5,1.3,0.9,1.3,1.3V238.9z"/>
	<path class="st38" d="M331.5,236.7c-2.6,2.5-4,4-2.7,4.8s4-0.4,6.8-2.5c2.4-1.8,5.9-2,2.7-3.9S333.7,234.6,331.5,236.7z"/>
	<path class="st40" d="M334.1,235.5l0.2-23.4l7.8,2.5l-1.3,3.8c0.3,3.5,0,6.9-1,10.3c0,0-1.1,2.3-0.9,7.5
		C338.9,236.1,336,237.8,334.1,235.5z"/>
	<path class="st24" d="M352.3,212.7v8.6c0,0-10.1,3.4-19.7-8.6v-8.4L352.3,212.7z"/>
	<path class="st41" d="M347.5,216c-0.1,0.1-0.2,0.1-0.3,0.1c-1.7,0.1-7.8-1.2-13.9-8.1c-0.5-0.5-0.8-1.3-0.8-2v-19.5
		c-0.1-1.2,0.4-2.3,1.4-3l4.6-2.7c1.1-0.5,2.3-0.4,3.3,0.3l6.3,3.6c2.7,1.8,4.4,4.8,4.6,8v19.6c0,0.4-0.1,0.7-0.5,0.9L347.5,216z"/>
	<path class="st42" d="M345.7,186c0,0.6-0.4,1.1-1,1.4c-1.4,0.7-3.1,0.7-4.6,0c-0.5-0.2-0.9-0.8-0.9-1.4v-4.3c0-0.6,0.4-1.1,0.9-1.4
		c1.4-0.7,3.1-0.7,4.6,0c0.5,0.2,0.9,0.8,1,1.4V186z"/>
	<path class="st36" d="M345.4,180c0,1.1,0.8,1.5,1.7,1c1-0.6,1.6-1.7,1.7-2.9c0-1.1-0.8-1.5-1.7-1
		C346.1,177.7,345.5,178.8,345.4,180z"/>
	<path class="st43" d="M336.7,191.5c0,0-8.6-7.8-3.4-21.8l4,14.5L336.7,191.5z"/>
	<ellipse class="st39" cx="342.5" cy="174.9" rx="8.9" ry="8.9"/>
	<path class="st43" d="M339.8,191.5c0,0,6.6-7.3,2-20.9l-8.3,2.8c0,0-2.9-7,6.5-9.1c0,0,6.2-1.4,8.4,3.8c0,0,5,0.4,3.1,10.7
		C351.6,178.9,351.3,188.6,339.8,191.5z"/>
	<path class="st36" d="M345.7,207.9L345.7,207.9c1.4,0.4,2.8-0.4,3.1-1.8l3.9-14.6c0.4-1.4-0.4-2.7-1.8-3.1l0,0
		c-1.4-0.4-2.7,0.4-3.1,1.8l-3.9,14.6C343.6,206.1,344.3,207.5,345.7,207.9z"/>
	<path class="st36" d="M331.5,208.4L331.5,208.4c0.3,1.4,1.6,2.2,3,1.9l11.8-2.4c1.4,0,2.6-1.1,2.6-2.4l0,0l0,0
		c0-1.4-1.1-2.6-2.5-2.6l-13,2.5C332.1,205.7,331.2,207,331.5,208.4z"/>
	<path class="st12" d="M171.1,268.1v-87.6c0-2.2,1.2-4.3,3.1-5.4l105.3-60.7c3-1.7,6.8-0.7,8.5,2.3c0.5,0.9,0.8,2,0.8,3.1v87.6
		c0,2.2-1.2,4.3-3.1,5.4l-105.2,60.7c-3,1.7-6.8,0.8-8.5-2.2C171.4,270.3,171.1,269.2,171.1,268.1z"/>
	
		<linearGradient id="SVGID_19_" gradientUnits="userSpaceOnUse" x1="138.7167" y1="901.0793" x2="309.5766" y2="621.8395" gradientTransform="matrix(1 0 0 1 0 -558)">
		<stop  offset="0" style="stop-color:#0F123B"/>
		<stop  offset="7.000000e-02" style="stop-color:#141754"/>
		<stop  offset="0.21" style="stop-color:#1B1F7A"/>
		<stop  offset="0.35" style="stop-color:#212599"/>
		<stop  offset="0.49" style="stop-color:#262AB2"/>
		<stop  offset="0.64" style="stop-color:#292DC3"/>
		<stop  offset="0.81" style="stop-color:#2B2FCE"/>
		<stop  offset="1" style="stop-color:#2C30D1"/>
	</linearGradient>
	<path class="st44" d="M177.4,272.2c-2.3,0-4.1-1.9-4.1-4.1v-87.5c0-1.5,0.8-2.8,2.1-3.6l105.1-60.8c0.6-0.4,1.3-0.5,2-0.6
		c2.3,0,4.1,1.9,4.1,4.1v87.6c0,1.5-0.8,2.8-2.1,3.6l-105.2,60.7C178.8,272,178.1,272.2,177.4,272.2z"/>
	
		<linearGradient id="SVGID_20_" gradientUnits="userSpaceOnUse" x1="274.098" y1="659.3396" x2="156.598" y2="799.3396" gradientTransform="matrix(1 0 0 1 0 -558)">
		<stop  offset="0" style="stop-color:#E4F2FF"/>
		<stop  offset="6.000000e-02" style="stop-color:#E1EFFF"/>
		<stop  offset="0.65" style="stop-color:#C7D7FB"/>
		<stop  offset="1" style="stop-color:#BDCEFA"/>
	</linearGradient>
	<path class="st45" d="M171.1,268.1v-87.6c0-2.2,1.2-4.3,3.1-5.4l105.3-60.7c1.6-0.9,3.6-1.1,5.3-0.4l0,0l-2.5-1.3
		c-2-1.5-4.7-1.7-6.8-0.4l-105.3,60.8c-1.9,1.1-3.1,3.2-3.1,5.4v87.6c0,2,0.9,3.8,2.6,5l0,0h0.1c0.4,0.3,0.9,0.5,1.3,0.7l2.8,1.5
		C172.2,272,171.1,270.1,171.1,268.1z"/>
	
		<linearGradient id="SVGID_21_" gradientUnits="userSpaceOnUse" x1="175.032" y1="831.7726" x2="175.032" y2="831.7726" gradientTransform="matrix(1 0 0 1 0 -558)">
		<stop  offset="0" style="stop-color:#E4F2FF"/>
		<stop  offset="6.000000e-02" style="stop-color:#E1EFFF"/>
		<stop  offset="0.65" style="stop-color:#C7D7FB"/>
		<stop  offset="1" style="stop-color:#BDCEFA"/>
	</linearGradient>
	<path class="st46" d="M175,273.8L175,273.8z"/>
	<path class="st12" d="M180.5,284.2l75.8,43.8c1.9,1.1,4.3,1.1,6.2,0l105.3-60.8c3-1.7,4-5.5,2.3-8.5c-0.5-0.9-1.3-1.7-2.3-2.3
		L292,212.6c-1.9-1.1-4.3-1.1-6.2,0l-105.3,60.9c-3,1.7-4,5.5-2.2,8.5C178.8,282.9,179.6,283.7,180.5,284.2z"/>
	
		<linearGradient id="SVGID_22_" gradientUnits="userSpaceOnUse" x1="400.5599" y1="840.7676" x2="219.6099" y2="864.5076" gradientTransform="matrix(1 0 0 1 0 -558)">
		<stop  offset="0" style="stop-color:#E4F2FF"/>
		<stop  offset="6.000000e-02" style="stop-color:#E1EFFF"/>
		<stop  offset="0.65" style="stop-color:#C7D7FB"/>
		<stop  offset="1" style="stop-color:#BDCEFA"/>
	</linearGradient>
	<path class="st47" d="M367.8,267.2L262.5,328c-1.9,1.1-4.3,1.1-6.2,0l-75.8-43.8c-1.9-1.1-3.1-3.2-3.1-5.4v5.7
		c0,2.2,1.2,4.3,3.1,5.4l75.8,43.8c1.9,1.1,4.3,1.1,6.2,0l105.3-60.8c1.8-1.1,3-3,3.1-5.1l0,0v-5.7
		C370.8,264.2,369.6,266.2,367.8,267.2z M370.8,261.5C370.8,261.6,370.8,261.6,370.8,261.5L370.8,261.5z"/>
	<path class="st48" d="M328.5,250.1l-90.4,52.1c-3.5,2-9.7,1.8-13.8-0.6l-27.2-15.7c-4.1-2.4-4.5-5.9-1-7.9l90.4-52.2
		c3.5-2,9.7-1.8,13.8,0.6l27.2,15.7C331.6,244.5,332,248,328.5,250.1z"/>
	<path class="st49" d="M196.2,279.3l90.4-52.2c3.5-2,9.7-1.8,13.8,0.6l27.2,15.7c1.9,1.1,3,2.5,3.3,3.9c0.4-1.7-0.8-3.7-3.3-5.1
		l-27.2-15.7c-4.1-2.4-10.2-2.6-13.8-0.6l-90.4,52.2c-1.9,1.1-2.6,2.5-2.3,4.1C194.2,280.8,195,279.8,196.2,279.3z"/>
	<path class="st49" d="M269.1,249.7l-4.8-2.8l-4.8,2.8l4.8,2.8L269.1,249.7z M259.7,255.1l-4.8-2.8l-4.8,2.8l4.8,2.8L259.7,255.1z
		 M278.5,244.3l-4.8-2.8l-4.8,2.8l4.8,2.8L278.5,244.3z M305.9,247.2l10-5.8l-4.8-2.8l-10,5.8L305.9,247.2z M307.8,236.7l-4.8-2.8
		l-4.8,2.8l4.8,2.8L307.8,236.7z M288,238.8l-4.8-2.8l-4.8,2.8l4.8,2.8L288,238.8z M250.3,260.6l-4.8-2.8l-4.8,2.8l4.8,2.8
		L250.3,260.6z M299.5,245.3L216.9,293l4.8,2.8l82.6-47.7L299.5,245.3z M240.9,266l-4.8-2.8l-4.8,2.8l4.8,2.8L240.9,266z
		 M295.7,238.2l-86.9,50.1l4.8,2.8l86.9-50.2L295.7,238.2z M319.2,243.3L225,297.7l4.8,2.8l94.2-54.4L319.2,243.3z M222,276.9
		l-4.8-2.8l-4.8,2.8l4.8,2.8L222,276.9z M231.4,271.5l-4.8-2.8l-4.8,2.8l4.8,2.8L231.4,271.5z"/>
	<path class="st50" d="M269.1,248.9l-4.8-2.8l-4.8,2.8l4.8,2.8L269.1,248.9z M259.7,254.3l-4.8-2.8l-4.8,2.8l4.8,2.8L259.7,254.3z
		 M278.5,243.4l-4.8-2.8l-4.8,2.8l4.8,2.8L278.5,243.4z M305.9,246.3l10-5.8l-4.8-2.8l-10,5.8L305.9,246.3z M307.8,235.9l-4.8-2.8
		l-4.8,2.8l4.8,2.8L307.8,235.9z M288,238l-4.8-2.8l-4.8,2.8l4.8,2.8L288,238z M250.3,259.7l-4.8-2.8l-4.8,2.8l4.8,2.8L250.3,259.7z
		 M299.5,244.5l-82.6,47.7l4.8,2.8l82.6-47.7L299.5,244.5z M240.9,265.2l-4.8-2.8l-4.8,2.8l4.8,2.8L240.9,265.2z M295.7,237.3
		l-86.9,50.2l4.8,2.8l86.9-50.2L295.7,237.3z M319.2,242.5L225,296.9l4.8,2.8l94.2-54.4L319.2,242.5z M222,276.1l-4.8-2.8l-4.8,2.8
		l4.8,2.8L222,276.1z M231.4,270.6l-4.8-2.8l-4.8,2.8l4.8,2.8L231.4,270.6z"/>
	<path class="st12" d="M273.8,241.1l4.4,2.6l0.4-0.2l-4.8-2.8l-4.8,2.8l0.4,0.2L273.8,241.1z M283.2,235.6l4.4,2.6l0.4-0.2l-4.8-2.8
		l-4.8,2.8l0.4,0.2L283.2,235.6z M264.3,246.5l4.4,2.6l0.4-0.2l-4.8-2.8l-4.8,2.8l0.4,0.2L264.3,246.5z M301.5,243.8l9.6-5.6
		l4.4,2.6l0.4-0.2l-4.8-2.8l-10,5.8L301.5,243.8z M254.9,252l4.4,2.6l0.4-0.2l-4.8-2.8l-4.8,2.8l0.4,0.2L254.9,252z M303,233.5
		l4.5,2.6l0.4-0.2l-4.8-2.8l-4.8,2.8l0.4,0.2L303,233.5z M319.2,242.5L225,296.9l0.4,0.2l93.8-54.2l4.4,2.6l0.4-0.2L319.2,242.5z
		 M300.1,240.3l0.4-0.2l-4.8-2.8l-86.9,50.2l0.4,0.2l86.6-50L300.1,240.3z M217.2,273.7l4.4,2.5l0.4-0.2l-4.8-2.8l-4.8,2.8l0.4,0.2
		L217.2,273.7z M303.9,247.5l0.4-0.2l-4.8-2.8l-82.6,47.7l0.4,0.2l82.2-47.5L303.9,247.5z M226.7,268.3l4.4,2.5l0.4-0.2l-4.8-2.8
		l-4.8,2.8l0.4,0.2L226.7,268.3z M245.5,257.4l4.4,2.6l0.4-0.2l-4.8-2.8l-4.8,2.8l0.4,0.2L245.5,257.4z M236.1,262.8l4.4,2.6
		l0.4-0.2l-4.8-2.8l-4.8,2.8l0.4,0.2L236.1,262.8z"/>
	<path class="st48" d="M321.1,280.7L292.9,297c-2.2,1-4.7,0.9-6.9-0.3l-6.2-3.6c-2-1.2-2.2-3-0.5-4l28.2-16.3c2.2-1,4.7-0.9,6.8,0.3
		l6.2,3.6C322.6,277.9,322.9,279.7,321.1,280.7z"/>
	<path class="st49" d="M279.4,290l28.2-16.3c2.2-1,4.7-0.9,6.8,0.3l6.2,3.6c0.8,0.4,1.3,1,1.6,1.8c0.3-0.9-0.3-1.9-1.6-2.7l-6.2-3.5
		c-2.1-1.2-4.6-1.3-6.8-0.3l-28.2,16.3c-0.8,0.4-1.3,1.2-1.1,2.1C278.5,290.7,278.9,290.3,279.4,290z"/>
	<path class="st12" d="M271.8,146.3v-3.2c0-2.8-2-3.9-4.4-2.5l-75,43.3c-2.6,1.7-4.2,4.5-4.4,7.6v3.2L271.8,146.3z"/>
	<g>
		<path class="st12" d="M195.9,186c-0.1,1.2-0.7,2.3-1.8,3c-1,0.6-1.8,0.1-1.8-1c0.1-1.2,0.7-2.3,1.8-3
			C195.1,184.4,195.9,184.8,195.9,186z"/>
		<path class="st12" d="M202,182.4c-0.1,1.2-0.7,2.4-1.8,3.1c-1,0.6-1.8,0.1-1.8-1c0.1-1.2,0.7-2.3,1.8-3
			C201.2,180.8,202,181.3,202,182.4z"/>
		<path class="st12" d="M208.2,178.8c-0.1,1.2-0.7,2.3-1.8,3c-1,0.6-1.8,0.1-1.8-1c0.1-1.2,0.7-2.3,1.8-3
			C207.4,177.3,208.2,177.7,208.2,178.8z"/>
	</g>
	<g>
		<g>
			<defs>
				<polygon id="SVGID_23_" points="243.4,205.8 214.5,222.5 210.3,185.2 239.2,168.5 				"/>
			</defs>
			<clipPath id="SVGID_24_">
				<use xlink:href="#SVGID_23_"  style="overflow:visible;"/>
			</clipPath>
			<g class="st51">
			</g>
		</g>
	</g>
	
		<linearGradient id="SVGID_25_" gradientUnits="userSpaceOnUse" x1="249.5592" y1="753.3245" x2="274.4893" y2="737.9944" gradientTransform="matrix(1 0 0 1 0 -558)">
		<stop  offset="0" style="stop-color:#FCFDFF;stop-opacity:0"/>
		<stop  offset="0.12" style="stop-color:#FCDBE7;stop-opacity:0.16"/>
		<stop  offset="0.37" style="stop-color:#FD9CB8;stop-opacity:0.45"/>
		<stop  offset="0.59" style="stop-color:#FE6A94;stop-opacity:0.69"/>
		<stop  offset="0.77" style="stop-color:#FF4679;stop-opacity:0.86"/>
		<stop  offset="0.91" style="stop-color:#FF2F69;stop-opacity:0.96"/>
		<stop  offset="1" style="stop-color:#FF2763"/>
	</linearGradient>
	<polygon class="st52" points="266.1,186.3 268.9,184.8 268.9,182.2 266.1,183.8 	"/>
	
		<linearGradient id="SVGID_26_" gradientUnits="userSpaceOnUse" x1="247.4195" y1="749.8323" x2="272.3494" y2="734.5122" gradientTransform="matrix(1 0 0 1 0 -558)">
		<stop  offset="0" style="stop-color:#FCFDFF;stop-opacity:0"/>
		<stop  offset="0.12" style="stop-color:#FCDBE7;stop-opacity:0.16"/>
		<stop  offset="0.37" style="stop-color:#FD9CB8;stop-opacity:0.45"/>
		<stop  offset="0.59" style="stop-color:#FE6A94;stop-opacity:0.69"/>
		<stop  offset="0.77" style="stop-color:#FF4679;stop-opacity:0.86"/>
		<stop  offset="0.91" style="stop-color:#FF2F69;stop-opacity:0.96"/>
		<stop  offset="1" style="stop-color:#FF2763"/>
	</linearGradient>
	<polygon class="st53" points="266.1,181.6 268.9,180 268.9,177.5 266.1,179 	"/>
	
		<linearGradient id="SVGID_27_" gradientUnits="userSpaceOnUse" x1="245.2974" y1="746.3951" x2="270.2274" y2="731.0652" gradientTransform="matrix(1 0 0 1 0 -558)">
		<stop  offset="0" style="stop-color:#FCFDFF;stop-opacity:0"/>
		<stop  offset="0.12" style="stop-color:#FCDBE7;stop-opacity:0.16"/>
		<stop  offset="0.37" style="stop-color:#FD9CB8;stop-opacity:0.45"/>
		<stop  offset="0.59" style="stop-color:#FE6A94;stop-opacity:0.69"/>
		<stop  offset="0.77" style="stop-color:#FF4679;stop-opacity:0.86"/>
		<stop  offset="0.91" style="stop-color:#FF2F69;stop-opacity:0.96"/>
		<stop  offset="1" style="stop-color:#FF2763"/>
	</linearGradient>
	<polygon class="st54" points="266.1,176.8 268.9,175.2 268.9,172.7 266.1,174.3 	"/>
	
		<linearGradient id="SVGID_28_" gradientUnits="userSpaceOnUse" x1="249.3856" y1="753.0324" x2="274.3156" y2="737.7124" gradientTransform="matrix(1 0 0 1 0 -558)">
		<stop  offset="0" style="stop-color:#FCFDFF;stop-opacity:0"/>
		<stop  offset="0.12" style="stop-color:#FCDBE7;stop-opacity:0.16"/>
		<stop  offset="0.37" style="stop-color:#FD9CB8;stop-opacity:0.45"/>
		<stop  offset="0.59" style="stop-color:#FE6A94;stop-opacity:0.69"/>
		<stop  offset="0.77" style="stop-color:#FF4679;stop-opacity:0.86"/>
		<stop  offset="0.91" style="stop-color:#FF2F69;stop-opacity:0.96"/>
		<stop  offset="1" style="stop-color:#FF2763"/>
	</linearGradient>
	<polygon class="st55" points="250.7,195.3 264.8,187.1 264.8,184.6 250.7,192.7 	"/>
	
		<linearGradient id="SVGID_29_" gradientUnits="userSpaceOnUse" x1="247.2603" y1="749.59" x2="272.2003" y2="734.26" gradientTransform="matrix(1 0 0 1 0 -558)">
		<stop  offset="0" style="stop-color:#FCFDFF;stop-opacity:0"/>
		<stop  offset="0.12" style="stop-color:#FCDBE7;stop-opacity:0.16"/>
		<stop  offset="0.37" style="stop-color:#FD9CB8;stop-opacity:0.45"/>
		<stop  offset="0.59" style="stop-color:#FE6A94;stop-opacity:0.69"/>
		<stop  offset="0.77" style="stop-color:#FF4679;stop-opacity:0.86"/>
		<stop  offset="0.91" style="stop-color:#FF2F69;stop-opacity:0.96"/>
		<stop  offset="1" style="stop-color:#FF2763"/>
	</linearGradient>
	<polygon class="st56" points="250.7,190.5 264.8,182.3 264.8,179.8 250.7,188 	"/>
	
		<linearGradient id="SVGID_30_" gradientUnits="userSpaceOnUse" x1="245.1453" y1="746.1382" x2="270.0753" y2="730.8181" gradientTransform="matrix(1 0 0 1 0 -558)">
		<stop  offset="0" style="stop-color:#FCFDFF;stop-opacity:0"/>
		<stop  offset="0.12" style="stop-color:#FCDBE7;stop-opacity:0.16"/>
		<stop  offset="0.37" style="stop-color:#FD9CB8;stop-opacity:0.45"/>
		<stop  offset="0.59" style="stop-color:#FE6A94;stop-opacity:0.69"/>
		<stop  offset="0.77" style="stop-color:#FF4679;stop-opacity:0.86"/>
		<stop  offset="0.91" style="stop-color:#FF2F69;stop-opacity:0.96"/>
		<stop  offset="1" style="stop-color:#FF2763"/>
	</linearGradient>
	<polygon class="st57" points="250.7,185.8 264.8,177.6 264.8,175 250.7,183.2 	"/>
	
		<linearGradient id="SVGID_31_" gradientUnits="userSpaceOnUse" x1="212.1802" y1="762.7348" x2="183.9802" y2="781.8548" gradientTransform="matrix(1 0 0 1 0 -558)">
		<stop  offset="0" style="stop-color:#FCFDFF;stop-opacity:0"/>
		<stop  offset="0.12" style="stop-color:#FCFAD7;stop-opacity:0.16"/>
		<stop  offset="0.37" style="stop-color:#FDF58C;stop-opacity:0.45"/>
		<stop  offset="0.59" style="stop-color:#FEF150;stop-opacity:0.69"/>
		<stop  offset="0.77" style="stop-color:#FFEE24;stop-opacity:0.86"/>
		<stop  offset="0.91" style="stop-color:#FFED0A;stop-opacity:0.96"/>
		<stop  offset="1" style="stop-color:#FFEC00"/>
	</linearGradient>
	<polygon class="st58" points="193.9,216 191.2,217.6 191.2,220.1 193.9,218.5 	"/>
	
		<linearGradient id="SVGID_32_" gradientUnits="userSpaceOnUse" x1="214.3816" y1="765.9922" x2="186.1816" y2="785.1122" gradientTransform="matrix(1 0 0 1 0 -558)">
		<stop  offset="0" style="stop-color:#FCFDFF;stop-opacity:0"/>
		<stop  offset="0.12" style="stop-color:#FCFAD7;stop-opacity:0.16"/>
		<stop  offset="0.37" style="stop-color:#FDF58C;stop-opacity:0.45"/>
		<stop  offset="0.59" style="stop-color:#FEF150;stop-opacity:0.69"/>
		<stop  offset="0.77" style="stop-color:#FFEE24;stop-opacity:0.86"/>
		<stop  offset="0.91" style="stop-color:#FFED0A;stop-opacity:0.96"/>
		<stop  offset="1" style="stop-color:#FFEC00"/>
	</linearGradient>
	<polygon class="st59" points="193.9,220.8 191.2,222.3 191.2,224.9 193.9,223.3 	"/>
	
		<linearGradient id="SVGID_33_" gradientUnits="userSpaceOnUse" x1="216.5877" y1="769.2464" x2="188.3877" y2="788.3664" gradientTransform="matrix(1 0 0 1 0 -558)">
		<stop  offset="0" style="stop-color:#FCFDFF;stop-opacity:0"/>
		<stop  offset="0.12" style="stop-color:#FCFAD7;stop-opacity:0.16"/>
		<stop  offset="0.37" style="stop-color:#FDF58C;stop-opacity:0.45"/>
		<stop  offset="0.59" style="stop-color:#FEF150;stop-opacity:0.69"/>
		<stop  offset="0.77" style="stop-color:#FFEE24;stop-opacity:0.86"/>
		<stop  offset="0.91" style="stop-color:#FFED0A;stop-opacity:0.96"/>
		<stop  offset="1" style="stop-color:#FFEC00"/>
	</linearGradient>
	<polygon class="st60" points="193.9,225.5 191.2,227.1 191.2,229.6 193.9,228 	"/>
	
		<linearGradient id="SVGID_34_" gradientUnits="userSpaceOnUse" x1="212.6268" y1="763.395" x2="184.4168" y2="782.5151" gradientTransform="matrix(1 0 0 1 0 -558)">
		<stop  offset="0" style="stop-color:#FCFDFF;stop-opacity:0"/>
		<stop  offset="0.12" style="stop-color:#FCFAD7;stop-opacity:0.16"/>
		<stop  offset="0.37" style="stop-color:#FDF58C;stop-opacity:0.45"/>
		<stop  offset="0.59" style="stop-color:#FEF150;stop-opacity:0.69"/>
		<stop  offset="0.77" style="stop-color:#FFEE24;stop-opacity:0.86"/>
		<stop  offset="0.91" style="stop-color:#FFED0A;stop-opacity:0.96"/>
		<stop  offset="1" style="stop-color:#FFEC00"/>
	</linearGradient>
	<polygon class="st61" points="209.4,207.1 195.2,215.2 195.2,217.8 209.4,209.6 	"/>
	
		<linearGradient id="SVGID_35_" gradientUnits="userSpaceOnUse" x1="214.8318" y1="766.6476" x2="186.6318" y2="785.7676" gradientTransform="matrix(1 0 0 1 0 -558)">
		<stop  offset="0" style="stop-color:#FCFDFF;stop-opacity:0"/>
		<stop  offset="0.12" style="stop-color:#FCFAD7;stop-opacity:0.16"/>
		<stop  offset="0.37" style="stop-color:#FDF58C;stop-opacity:0.45"/>
		<stop  offset="0.59" style="stop-color:#FEF150;stop-opacity:0.69"/>
		<stop  offset="0.77" style="stop-color:#FFEE24;stop-opacity:0.86"/>
		<stop  offset="0.91" style="stop-color:#FFED0A;stop-opacity:0.96"/>
		<stop  offset="1" style="stop-color:#FFEC00"/>
	</linearGradient>
	<polygon class="st62" points="209.4,211.8 195.2,220 195.2,222.5 209.4,214.3 	"/>
	
		<linearGradient id="SVGID_36_" gradientUnits="userSpaceOnUse" x1="217.061" y1="769.9361" x2="188.861" y2="789.0562" gradientTransform="matrix(1 0 0 1 0 -558)">
		<stop  offset="0" style="stop-color:#FCFDFF;stop-opacity:0"/>
		<stop  offset="0.12" style="stop-color:#FCFAD7;stop-opacity:0.16"/>
		<stop  offset="0.37" style="stop-color:#FDF58C;stop-opacity:0.45"/>
		<stop  offset="0.59" style="stop-color:#FEF150;stop-opacity:0.69"/>
		<stop  offset="0.77" style="stop-color:#FFEE24;stop-opacity:0.86"/>
		<stop  offset="0.91" style="stop-color:#FFED0A;stop-opacity:0.96"/>
		<stop  offset="1" style="stop-color:#FFEC00"/>
	</linearGradient>
	<polygon class="st63" points="209.4,216.6 195.2,224.8 195.2,227.3 209.4,219.1 	"/>
	<path class="st12" d="M266.3,203.3L195,244.5c-1.5,0.9-2.7-0.1-2.7-2l0,0c0-2,1-3.9,2.7-5.1l71.3-41.2c1.5-0.9,2.7,0.1,2.7,2l0,0
		C268.9,200.2,267.9,202.1,266.3,203.3z"/>
	
		<linearGradient id="SVGID_37_" gradientUnits="userSpaceOnUse" x1="198.7249" y1="725.5143" x2="122.6349" y2="859.3444" gradientTransform="matrix(1 0 0 1 0 -558)">
		<stop  offset="0" style="stop-color:#E4F2FF"/>
		<stop  offset="0.2" style="stop-color:#DCEAFE;stop-opacity:0.78"/>
		<stop  offset="0.6" style="stop-color:#CBDBFC;stop-opacity:0.37"/>
		<stop  offset="0.87" style="stop-color:#C1D2FB;stop-opacity:0.1"/>
		<stop  offset="1" style="stop-color:#BDCEFA;stop-opacity:0"/>
	</linearGradient>
	<path class="st64" d="M192,256.3l-67.6,39c-2.1,1.2-3.8-0.1-3.8-2.9v-63.9c0-2.8,1.7-6.1,3.8-7.3l67.6-39.1
		c2.1-1.2,3.8,0.1,3.8,2.9v63.9C195.8,251.9,194.1,255.1,192,256.3z"/>
	<g>
		
			<linearGradient id="SVGID_38_" gradientUnits="userSpaceOnUse" x1="204.5985" y1="744.0665" x2="150.7385" y2="836.4965" gradientTransform="matrix(1 0 0 1 0 -558)">
			<stop  offset="0" style="stop-color:#E4F2FF"/>
			<stop  offset="6.000000e-02" style="stop-color:#E1EFFF"/>
			<stop  offset="0.65" style="stop-color:#C7D7FB"/>
			<stop  offset="1" style="stop-color:#BDCEFA"/>
		</linearGradient>
		<polygon class="st65" points="189.9,249.8 126.4,286.4 126.4,281.7 189.9,245 		"/>
		
			<linearGradient id="SVGID_39_" gradientUnits="userSpaceOnUse" x1="190.0078" y1="735.5702" x2="136.1478" y2="828.0002" gradientTransform="matrix(1 0 0 1 -4.504655e-03 -558.0068)">
			<stop  offset="0" style="stop-color:#E4F2FF"/>
			<stop  offset="6.000000e-02" style="stop-color:#E1EFFF"/>
			<stop  offset="0.65" style="stop-color:#C7D7FB"/>
			<stop  offset="1" style="stop-color:#BDCEFA"/>
		</linearGradient>
		<path class="st66" d="M144.3,224.2c7.7-13.3,20.1-20.4,27.7-16c7.7,4.4,7.7,18.8,0,32s-20.1,20.4-27.7,16
			C136.6,251.8,136.6,237.5,144.3,224.2z"/>
	</g>
	
		<linearGradient id="SVGID_40_" gradientUnits="userSpaceOnUse" x1="332.2461" y1="632.4506" x2="270.456" y2="761.0206" gradientTransform="matrix(1 0 0 1 0 -558)">
		<stop  offset="0" style="stop-color:#E4F2FF"/>
		<stop  offset="0.2" style="stop-color:#DCEAFE;stop-opacity:0.78"/>
		<stop  offset="0.6" style="stop-color:#CBDBFC;stop-opacity:0.37"/>
		<stop  offset="0.87" style="stop-color:#C1D2FB;stop-opacity:0.1"/>
		<stop  offset="1" style="stop-color:#BDCEFA;stop-opacity:0"/>
	</linearGradient>
	<path class="st67" d="M330.8,158.3l-67.6,39c-2.1,1.2-3.8-0.1-3.8-2.9v-49.9c0-2.8,1.7-6.1,3.8-7.3l67.6-39
		c2.1-1.2,3.8,0.1,3.8,2.9V151C334.6,153.8,332.9,157.1,330.8,158.3z"/>
	<g>
		
			<linearGradient id="SVGID_41_" gradientUnits="userSpaceOnUse" x1="344.6666" y1="681.7992" x2="262.2666" y2="754.5692" gradientTransform="matrix(1 0 0 1 0 -558)">
			<stop  offset="0" style="stop-color:#E4F2FF"/>
			<stop  offset="6.000000e-02" style="stop-color:#E1EFFF"/>
			<stop  offset="0.65" style="stop-color:#C7D7FB"/>
			<stop  offset="1" style="stop-color:#BDCEFA"/>
		</linearGradient>
		<polygon class="st68" points="328.8,149.9 265.3,186.6 265.3,181.8 328.8,145.1 		"/>
		
			<linearGradient id="SVGID_42_" gradientUnits="userSpaceOnUse" x1="339.8343" y1="676.3265" x2="257.4243" y2="749.0865" gradientTransform="matrix(1 0 0 1 0 -558)">
			<stop  offset="0" style="stop-color:#E4F2FF"/>
			<stop  offset="6.000000e-02" style="stop-color:#E1EFFF"/>
			<stop  offset="0.65" style="stop-color:#C7D7FB"/>
			<stop  offset="1" style="stop-color:#BDCEFA"/>
		</linearGradient>
		<polygon class="st69" points="328.8,140.2 265.3,176.8 265.3,172 328.8,135.4 		"/>
		
			<linearGradient id="SVGID_43_" gradientUnits="userSpaceOnUse" x1="327.1361" y1="661.9461" x2="244.7362" y2="734.7161" gradientTransform="matrix(1 0 0 1 0 -558)">
			<stop  offset="0" style="stop-color:#E4F2FF"/>
			<stop  offset="6.000000e-02" style="stop-color:#E1EFFF"/>
			<stop  offset="0.65" style="stop-color:#C7D7FB"/>
			<stop  offset="1" style="stop-color:#BDCEFA"/>
		</linearGradient>
		<polygon class="st70" points="283.6,154.8 266.6,164.7 266.6,145 283.6,135.2 		"/>
		
			<linearGradient id="SVGID_44_" gradientUnits="userSpaceOnUse" x1="330.46" y1="665.709" x2="248.0499" y2="738.469" gradientTransform="matrix(1 0 0 1 0 -558)">
			<stop  offset="0" style="stop-color:#E4F2FF"/>
			<stop  offset="6.000000e-02" style="stop-color:#E1EFFF"/>
			<stop  offset="0.65" style="stop-color:#C7D7FB"/>
			<stop  offset="1" style="stop-color:#BDCEFA"/>
		</linearGradient>
		<polygon class="st71" points="305.5,142.2 288.5,152 288.5,132.3 305.5,122.5 		"/>
		
			<linearGradient id="SVGID_45_" gradientUnits="userSpaceOnUse" x1="333.7973" y1="669.4887" x2="251.3973" y2="742.2587" gradientTransform="matrix(1 0 0 1 0 -558)">
			<stop  offset="0" style="stop-color:#E4F2FF"/>
			<stop  offset="6.000000e-02" style="stop-color:#E1EFFF"/>
			<stop  offset="0.65" style="stop-color:#C7D7FB"/>
			<stop  offset="1" style="stop-color:#BDCEFA"/>
		</linearGradient>
		<polygon class="st72" points="327.5,129.5 310.4,139.4 310.4,119.7 327.5,109.8 		"/>
	</g>
	<path class="st6" d="M119.2,382.7l-36.3,21c-2.7,1.5-7.3,1.3-10.4-0.4l-34.8-20.1c-3.1-1.8-3.4-4.5-0.7-6l36.3-21
		c2.7-1.5,7.3-1.3,10.4,0.4l34.8,20.1C121.5,378.5,121.8,381.2,119.2,382.7z"/>
	
		<linearGradient id="SVGID_46_" gradientUnits="userSpaceOnUse" x1="123.0186" y1="935.9025" x2="39.6185" y2="1104.0326" gradientTransform="matrix(1 0 0 1 0 -558)">
		<stop  offset="0" style="stop-color:#E4F2FF"/>
		<stop  offset="6.000000e-02" style="stop-color:#E1EFFF"/>
		<stop  offset="0.65" style="stop-color:#C7D7FB"/>
		<stop  offset="1" style="stop-color:#BDCEFA"/>
	</linearGradient>
	<path class="st73" d="M120.9,445.7v-66.1l0,0c-0.2,0.9-0.9,1.7-1.7,2.1l-36.3,21c-1.5,0.8-3.1,1.1-4.8,1v67c1.7,0.1,3.3-0.2,4.8-1
		l36.3-21C120.4,448.2,121.1,447,120.9,445.7z"/>
	
		<linearGradient id="SVGID_47_" gradientUnits="userSpaceOnUse" x1="112.8483" y1="902.3488" x2="37.2882" y2="1009.3988" gradientTransform="matrix(1 0 0 1 0 -558)">
		<stop  offset="0" style="stop-color:#E4F2FF"/>
		<stop  offset="6.000000e-02" style="stop-color:#E1EFFF"/>
		<stop  offset="0.65" style="stop-color:#C7D7FB"/>
		<stop  offset="1" style="stop-color:#BDCEFA"/>
	</linearGradient>
	<path class="st74" d="M72.5,401.3l-34.8-20.1c-1.2-0.6-2.1-1.6-2.5-2.9v66.1c-0.3,1.3,0.6,2.8,2.5,3.9l34.8,19.9
		c1.7,0.9,3.6,1.4,5.6,1.4v-67C76.1,402.7,74.2,402.2,72.5,401.3z"/>
	<path class="st37" d="M364.5,338.4c-0.3,0.1-0.4,0.5-0.5,1c0,0.2,1.6-0.9,1.5-0.4c0,0.1-1.1,7.8,1.3,10.3c0.2,0.2,0.6,0.3,0.9,0.1
		l0.7-0.4c0.8-0.4,1.3-2.1,2-4.8c0.8-2.9,1.2-4.7-2-6.6c-0.9-0.5-1.4-0.7-1.7-0.5L364.5,338.4z"/>
	<path class="st38" d="M370.4,344.3c-0.9,3.5-1.5,5.5-2.9,4.7s-1.6-3.7-1.2-7.1c0.4-3-1.1-6.1,2.1-4.2S371.2,341.4,370.4,344.3z"/>
	<path class="st40" d="M391,321.9l-6.5,2.4l-2.7,3c-3.1,1.4-6,3.4-8.4,5.9c0,0-1.4,2.1-6.1,4.5c0,0,0,3.3,2.9,3.8l18.7-10.8
		c1.3-0.7,2.2-2.1,2.3-3.6C391.3,325.4,391.3,323.6,391,321.9z"/>
	<path class="st75" d="M377.2,354.9c0,0.3,0.2,0.6,0.7,0.9c0.1,0.1,0-1.8,0.4-1.5c0.1,0.1,6.2,4.8,9.6,4c0.3-0.1,0.5-0.4,0.5-0.7
		v-0.8c0-0.9-1.2-2.2-3.2-4.1c-2.1-2.1-3.5-3.4-6.7-1.5c-0.9,0.5-1.3,0.9-1.3,1.3V354.9z"/>
	<path class="st38" d="M385.3,352.7c2.6,2.5,4,4,2.7,4.8s-4-0.4-6.7-2.5c-2.4-1.8-5.9-2-2.7-3.9S383.1,350.7,385.3,352.7z"/>
	<path class="st39" d="M382.7,351.5l-0.2-23.3l-6.4,2l-0.1,4.3c-0.3,3.4,0,6.9,1,10.2c0,0,1.1,2.2,0.9,7.5
		C377.9,352.2,380.8,353.8,382.7,351.5z"/>
	<path class="st40" d="M399.9,318.8L399.9,318.8c-1.3,0.6-2.8,0-3.3-1.3l0,0l-10-22.1c-0.6-1.3,0-2.8,1.3-3.4l0,0
		c1.3-0.6,2.8,0,3.3,1.3l0,0l10,22.1C401.8,316.8,401.2,318.2,399.9,318.8z"/>
	
		<linearGradient id="SVGID_48_" gradientUnits="userSpaceOnUse" x1="402.934" y1="867.2674" x2="383.664" y2="859.7473" gradientTransform="matrix(1 0 0 1 0 -558)">
		<stop  offset="0" style="stop-color:#E8E9FF"/>
		<stop  offset="1" style="stop-color:#C0C0F6"/>
	</linearGradient>
	<polygon class="st76" points="400.9,316.3 385.2,307.3 385.2,294.6 400.9,303.7 	"/>
	<polygon class="st77" points="397,312.9 397,303.3 397.4,303.5 397.4,313.1 	"/>
	<polygon class="st77" points="396.3,309.6 396.3,302.9 396.6,303.1 396.6,309.8 	"/>
	<polygon class="st77" points="395.5,311.3 395.5,302.4 395.9,302.6 395.9,311.5 	"/>
	<polygon class="st77" points="394.8,311.6 394.8,302 395.1,302.2 395.1,311.8 	"/>
	<polygon class="st77" points="394,305.1 394,301.6 394.3,301.7 394.3,305.3 	"/>
	<path class="st27" d="M372,322.7v8.6c0,0,10.1,3.4,19.6-8.6v-8.3L372,322.7z"/>
	<path class="st78" d="M376.6,325.4c0.1,0.1,0.2,0.1,0.3,0.1c1.7,0.1,7.8-1.2,13.9-8.1c0.5-0.5,0.8-1.3,0.8-2V296
		c0.1-1.2-0.4-2.3-1.4-3l-4.6-2.7c-1.1-0.5-2.3-0.4-3.3,0.3l-6.2,3.6c-2.7,1.8-4.4,4.7-4.6,7.9v19.6c0,0.4,0.1,0.7,0.4,0.9
		L376.6,325.4z"/>
	<path class="st42" d="M378.4,295.5c0,0.6,0.4,1.1,1,1.3c1.4,0.7,3.1,0.7,4.6,0c0.5-0.2,0.9-0.8,1-1.3v-4.3c0-0.6-0.4-1.1-1-1.3
		c-1.4-0.7-3.1-0.7-4.6,0c-0.5,0.2-0.9,0.8-1,1.3V295.5z"/>
	<path class="st36" d="M361.1,323.3L361.1,323.3c-1.2-0.6-1.7-2.2-1.1-3.4l11-21.8c0.6-1.2,2.1-1.7,3.4-1.1l0,0l0,0
		c1.2,0.6,1.7,2.1,1.1,3.4l0,0l-11,21.8C363.9,323.4,362.4,323.9,361.1,323.3z"/>
	<path class="st79" d="M389.8,282.1l3.2,12.4c0.2,0.8-0.2,1.6-1,1.8c-0.3,0.1-0.6,0.1-0.9-0.1l-7.4-3.1c-0.6-0.3-1-0.9-0.9-1.6
		l2.4-12.2c0.1-0.8,0.9-1.3,1.7-1.1c0.4,0.1,0.8,0.3,1,0.7l1.8,2.9C389.7,281.8,389.8,281.9,389.8,282.1z"/>
	<path class="st36" d="M378.6,289.5c0,1.1-0.8,1.5-1.7,1c-1-0.6-1.6-1.7-1.7-2.9c0-1.1,0.8-1.5,1.7-1
		C378,287.2,378.6,288.3,378.6,289.5z"/>
	<circle class="st36" cx="381.6" cy="284.4" r="8.9"/>
	<path class="st79" d="M372.9,285.6c0,0,7.5,4.1,11.2-6.6c0,0,2,4.5,6.8,3.5c0,0,0-7-7.3-8.4C383.7,274.1,370.8,272.8,372.9,285.6z"
		/>
	<path class="st79" d="M377.1,286l3.2,12.4c0.2,0.8-0.2,1.6-1,1.8c-0.3,0.1-0.7,0.1-1-0.1l-7.3-3c-0.6-0.3-1-0.9-0.9-1.6l2.4-12.3
		c0.2-0.8,0.9-1.3,1.7-1.1c0.4,0.1,0.7,0.3,0.9,0.7l1.8,2.9C377,285.7,377,285.8,377.1,286z"/>
	<path d="M306.1,324c-0.1,1,1.5,2.5,3.9,3.9c3.2,1.8,4.3,4.1,8.2,1.9c1.1-0.6,1.6-1.2,1.6-1.6v-2.4c0.1-1.1-2.6-1.8-4.9-3.1
		c-3.2-1.8-6.6-2.8-8.2-1.9c-0.4,0.2-0.6,0.5-0.6,0.9V324z"/>
	<path class="st75" d="M310,325.4c-3.2-1.8-4.9-3.8-3.3-4.7s5,0.1,8.2,1.9s7.2,2.5,3.3,4.7S313.1,327.2,310,325.4z"/>
	<path d="M314.9,317.9c-0.1,1,1.5,2.5,3.9,3.9c3.2,1.8,4.3,4.1,8.2,1.9c1.1-0.6,1.6-1.2,1.6-1.6v-2.4c0.1-1.1-2.6-1.8-4.9-3.1
		c-3.2-1.8-6.6-2.8-8.2-1.9c-0.4,0.2-0.6,0.5-0.6,0.9V317.9z"/>
	<path class="st75" d="M318.8,319.3c-3.2-1.8-4.9-3.8-3.3-4.7s5,0,8.2,1.9s7.2,2.5,3.3,4.7S322,321.1,318.8,319.3z"/>
	<path class="st80" d="M311.4,245.2L311.4,245.2c1.2-0.8,2.8-0.4,3.6,0.8l10.8,17.2c0.8,1.2,0.4,2.8-0.8,3.6l0,0
		c-1.2,0.8-2.8,0.4-3.6-0.8l-10.8-17.2C309.8,247.6,310.2,246,311.4,245.2z"/>
	<path class="st81" d="M318.5,264l3.5,5.5c1.2,1.9,3.6,2.5,5.5,1.3l0,0l0,0c1.9-1.2,2.5-3.6,1.3-5.5l0,0l-3.5-5.5
		C325.3,259.7,320.9,258.1,318.5,264z"/>
	<path class="st82" d="M319.7,324.6c0.1-0.2,0.2-0.5,0.2-0.8v-27.2c0-1.7-1.8-3.1-3.9-3.1l0,0c-2.2,0-3.9,1.4-3.9,3.1v29.6
		c0,0.4,0.3,0.8,0.7,1C314.2,327.6,317.8,328.2,319.7,324.6z"/>
	<path class="st82" d="M328.5,318.2c0.1-0.2,0.2-0.5,0.2-0.8l-0.6-27.2c0-1.7-1.8-3.1-4-3l0,0c-2.2,0-3.9,1.5-3.9,3.2l0.6,29.5
		c0,0.4,0.3,0.8,0.7,0.9C323.1,321.3,326.7,321.9,328.5,318.2z"/>
	<path class="st83" d="M313.3,301.5c0.1,0.1,0.2,0.1,0.3,0.1c1.7,0.1,8-1.2,14.3-8.3c0.5-0.5,0.8-1.3,0.9-2v-20
		c0.1-1.2-0.4-2.4-1.4-3l-4.7-2.8c-1.1-0.5-2.4-0.4-3.4,0.3l-6.4,3.7c-2.8,1.8-4.5,4.9-4.7,8.2v20.1c-0.1,0.4,0.1,0.8,0.5,1
		L313.3,301.5z"/>
	<path class="st39" d="M315.1,270.7c0.1,0.6,0.4,1.1,1,1.4c1.5,0.8,3.2,0.8,4.7,0c0.6-0.2,0.9-0.8,1-1.4v-4.4
		c-0.1-0.6-0.4-1.1-1-1.4c-1.5-0.8-3.2-0.8-4.7,0c-0.6,0.2-0.9,0.8-1,1.4V270.7z"/>
	<circle class="st80" cx="318.4" cy="259.4" r="9.1"/>
	<path class="st80" d="M302.6,299.8L302.6,299.8c-1.4-0.5-2.1-1.9-1.6-3.3l6.9-18.6c0.5-1.4,1.9-2.1,3.3-1.6l0,0l0,0
		c1.4,0.5,2.1,1.9,1.6,3.3l-6.9,18.6C305.4,299.6,304,300.3,302.6,299.8z"/>
	<path class="st81" d="M313.1,283.1l2.1-6.2c0.7-2.1-0.4-4.4-2.5-5.1l0,0l0,0c-2.1-0.7-4.4,0.4-5.1,2.5l0,0l-2.1,6.2
		C305.5,280.5,307,285,313.1,283.1z"/>
	<path class="st84" d="M323.6,267.7c-2.9,1.7-5.1,0.4-5.9-0.8c-2-3.1-2.3-1-3.5-2.5c-1.5-2.5-1.2-6-3.3-7.6
		c-3.1-2.3-2.2-6.9,5.8-8.9c10.7-2.7,15,10.8,8.3,18.6C324.6,267.1,324.1,267.5,323.6,267.7z"/>
	<path class="st80" d="M315.2,264.9c-0.2,0.5-0.8,0.7-1.3,0.5c-0.4-0.2-0.6-0.6-0.6-1c-0.2-1.2,0.1-2.4,0.9-3.3
		c0.8-0.8,1.6-0.5,1.9,0.5C316.4,262.7,316,264,315.2,264.9z"/>
	<path class="st80" d="M268.7,372.7L268.7,372.7c-1,0.7-2.5,0.5-3.2-0.5l0,0l-10.4-14.7c-0.7-1-0.5-2.5,0.5-3.2l0,0l0,0
		c1-0.7,2.5-0.5,3.2,0.5l10.4,14.7C270,370.5,269.7,371.9,268.7,372.7L268.7,372.7z"/>
	<path class="st1" d="M261.5,356.3l-3.4-4.7c-1.1-1.6-3.4-2-5-0.9l0,0l0,0c-1.6,1.1-2,3.4-0.9,5l0,0l3.4,4.7
		C255.6,360.5,259.6,361.7,261.5,356.3z"/>
	<path class="st83" d="M249.8,375.2c0.1,0.2,0.3,0.4,0.5,0.5l12.2,6.9c1.3,0.8,3.2,0,4.1-1.6l0,0c1-1.7,0.6-3.6-0.7-4.4l-13.9-8
		c-0.3-0.2-0.7-0.1-1,0.1C249.9,369.7,247.9,372.1,249.8,375.2z"/>
	<path class="st83" d="M241.8,379.3c0.1,0.2,0.3,0.4,0.5,0.5l12.1,6.9c1.3,0.8,3.2,0,4.1-1.6l0,0c0.9-1.7,0.6-3.6-0.7-4.4l-13.9-8
		c-0.3-0.2-0.7-0.1-1,0.1C241.9,373.8,239.8,376.2,241.8,379.3z"/>
	<path class="st37" d="M260.8,400.2c-0.1,1,2.3,1.6,4.3,2.8c2.8,1.6,5.8,2.5,7.3,1.7c0.3-0.2,0.5-0.4,0.5-0.8v-1.7
		c0-0.9-1.3-2.4-3.5-4.4c-2.3-2.3-3.8-3.7-7.3-1.7c-1,0.6-1.4,1-1.4,1.4L260.8,400.2z"/>
	<path class="st85" d="M269.5,397.8c2.8,2.7,4.3,4.4,2.9,5.2s-4.3-0.4-7.3-2.6c-2.6-2-6.4-2.2-2.9-4.2
		C265.7,394.1,267.1,395.5,269.5,397.8z"/>
	<path class="st83" d="M267.2,395.8c0.1-0.2,0.2-0.5,0.2-0.7v-16.2c0-1.5-1.6-2.8-3.5-2.8l0,0c-1.9,0-3.5,1.2-3.5,2.8v18.3
		c0,0.4,0.2,0.7,0.6,0.8C262.4,398.5,265.5,399,267.2,395.8z"/>
	<path class="st86" d="M243,380.7c0.1,0.1,0.2,0.1,0.3,0.1c1.5,0.1,7.1-1.1,12.6-7.3c0.4-0.5,0.7-1.1,0.8-1.8V354
		c0.1-1.1-0.4-2.1-1.3-2.7l-4.2-2.4c-1-0.5-2.1-0.4-3,0.3l-5.7,3.3c-2.5,1.6-4,4.3-4.2,7.2v17.9c0,0.3,0.1,0.7,0.4,0.9L243,380.7z"
		/>
	<path class="st37" d="M252.4,403.8c-0.1,1,2.3,1.6,4.3,2.8c2.8,1.6,5.8,2.5,7.3,1.7c0.3-0.1,0.5-0.4,0.5-0.8v-1.6
		c0-0.9-1.3-2.4-3.4-4.4c-2.3-2.3-3.8-3.7-7.3-1.7c-1,0.6-1.4,1-1.4,1.4L252.4,403.8z"/>
	<path class="st85" d="M261.1,401.5c2.8,2.7,4.3,4.4,2.9,5.2s-4.3-0.4-7.3-2.7c-2.6-2-6.4-2.2-2.9-4.2
		C257.3,397.8,258.8,399.2,261.1,401.5z"/>
	<path class="st83" d="M258.9,399.5c0.1-0.2,0.2-0.5,0.2-0.7v-16.2c0-1.5-1.6-2.8-3.5-2.8l0,0c-1.9,0-3.5,1.3-3.5,2.8v18.3
		c0,0.4,0.3,0.7,0.6,0.8C254.1,402.1,257.2,402.7,258.9,399.5z"/>
	<path class="st39" d="M243.6,353.4c0,0.5,0.4,1,0.9,1.2c1.3,0.7,2.9,0.7,4.2,0c0.5-0.2,0.8-0.7,0.9-1.2v-3.9c0-0.5-0.4-1-0.9-1.2
		c-1.3-0.7-2.9-0.7-4.2,0c-0.5,0.2-0.8,0.7-0.9,1.2V353.4z"/>
	<circle class="st80" cx="246.6" cy="343.4" r="8.1"/>
	<path class="st87" d="M242.2,349.8c0.8-0.7,1.3-1.7,1.7-2.7c0-0.1,0-0.1,0-0.2V343c0-0.8,0.2-1.5,0.6-2.2c0.3-0.6,0.9-1,1.6-1
		c0,0,6.5,2.8,8.9-2.5c0.2-0.4,0-0.8-0.3-1h-0.1c-0.5-0.1-1.1-0.5-1.8-1.6c-0.2-0.3-0.5-0.4-0.8-0.3c-1.1,0.2-2.2-0.2-2.9-1.1
		c-0.1-0.2-0.3-0.2-0.5-0.2c-1.2,0-5.5,0.2-7.9,1.9l0,0c-0.5,0.4-8.5,7.3,0.6,14.8C241.6,350,242,350,242.2,349.8z"/>
	<path class="st80" d="M243.9,348c0,1-0.7,1.4-1.5,0.9c-0.9-0.6-1.5-1.6-1.5-2.6s0.7-1.4,1.5-0.9C243.2,345.9,243.8,346.9,243.9,348
		z"/>
	<polygon class="st88" points="266.9,375.7 252.4,384 241.3,377.9 256.1,369.5 	"/>
	<polygon class="st89" points="266.9,375.7 269.1,361.2 253.1,370.4 252.4,384 	"/>
	<path class="st80" d="M254.2,378.1L254.2,378.1c-1,0.7-2.5,0.5-3.2-0.5l0,0l-10.4-14.7c-0.7-1-0.5-2.5,0.5-3.2l0,0
		c1-0.7,2.5-0.5,3.2,0.5l10.4,14.7C255.5,375.9,255.2,377.4,254.2,378.1L254.2,378.1z"/>
	<path class="st1" d="M246.6,362.5l-2.9-5c-1-1.7-3.2-2.3-4.9-1.3l0,0c-1.7,1-2.3,3.2-1.3,4.9l2.9,5
		C240.4,366,244.2,367.6,246.6,362.5z"/>
	<path class="st36" d="M460.4,327.3L460.4,327.3c1.3,0.2,2.6-0.7,2.8-2l0,0l1.8-9.9c0.2-1.3-0.7-2.6-2-2.8l0,0l0,0
		c-1.3-0.2-2.6,0.7-2.8,2l0,0l-1.7,9.9C458.3,325.8,459.1,327,460.4,327.3z"/>
	<path class="st90" d="M458.4,317.2l1.1-6c0.4-2,2.3-3.4,4.4-3l0,0c2,0.4,3.4,2.3,3,4.4l-1.1,6C465.8,318.6,462.6,321.6,458.4,317.2
		z"/>
	<path class="st36" d="M449.5,328.2L449.5,328.2c0.4,1.3,1.8,2,3.1,1.6l8.4-2.5c1.3-0.1,2.4-1.2,2.3-2.6l0,0
		c-0.1-1.3-1.2-2.4-2.6-2.3l-9.6,2.7C449.8,325.6,449.1,326.9,449.5,328.2z"/>
	<path class="st37" d="M475.7,366.9c0.1,1.1-2.4,1.7-4.6,3c-3,1.7-6.2,2.6-7.7,1.8c-0.3-0.2-0.6-0.5-0.6-0.8v-1.8
		c-0.1-1,1.4-2.5,3.6-4.7c2.5-2.4,4-3.9,7.7-1.8c1,0.6,1.5,1.1,1.5,1.5L475.7,366.9z"/>
	<path class="st85" d="M466.5,364.4c-3,2.9-4.6,4.6-3.1,5.5s4.6-0.5,7.7-2.8c2.7-2.1,6.7-2.3,3.1-4.4S469,362,466.5,364.4z"/>
	<path class="st91" d="M468.9,362.3c-0.1-0.2-0.2-0.5-0.2-0.7v-25.5c0-1.6,1.7-2.9,3.7-2.9l0,0c2,0,3.7,1.3,3.7,2.9v27.7
		c0,0.4-0.3,0.8-0.7,0.9C474,365.1,470.7,365.7,468.9,362.3z"/>
	<path class="st37" d="M467.8,361c0.1,1.1-2.4,1.7-4.6,3c-3,1.7-6.2,2.6-7.7,1.8c-0.3-0.2-0.6-0.5-0.6-0.8v-1.7c0-1,1.4-2.5,3.6-4.7
		c2.5-2.4,4-3.9,7.7-1.8c1,0.6,1.5,1.1,1.5,1.4L467.8,361z"/>
	<path class="st85" d="M458.5,358.5c-3,2.9-4.6,4.6-3.1,5.5s4.6-0.5,7.7-2.8c2.7-2.1,6.7-2.3,3.1-4.4S461,356.1,458.5,358.5z"/>
	<path class="st92" d="M460.9,356.4c-0.1-0.2-0.2-0.5-0.2-0.7v-25.5c0-1.6,1.7-2.9,3.7-2.9l0,0c2,0,3.7,1.3,3.7,2.9v27.7
		c0,0.4-0.3,0.8-0.7,0.9C466.1,359.2,462.7,359.8,460.9,356.4z"/>
	<path class="st93" d="M474.9,340.6c-0.1,0.1-0.2,0.1-0.3,0.1c-1.6,0.1-7.5-1.1-13.4-7.8c-0.5-0.5-0.8-1.2-0.8-1.9v-18.8
		c-0.1-1.1,0.4-2.2,1.3-2.9l4.4-2.6c1-0.5,2.2-0.4,3.1,0.3l6,3.5c2.6,1.7,4.2,4.6,4.4,7.7v19c0,0.4-0.1,0.7-0.4,0.9L474.9,340.6z"/>
	<path class="st94" d="M473.2,311.8c0,0.6-0.4,1.1-0.9,1.3c-1.4,0.7-3,0.7-4.4,0c-0.5-0.2-0.9-0.7-0.9-1.3v-4.1
		c0-0.6,0.4-1.1,0.9-1.3c1.4-0.7,3-0.7,4.4,0c0.5,0.2,0.9,0.7,0.9,1.3V311.8z"/>
	<circle class="st80" cx="470.1" cy="301.2" r="8.6"/>
	<path class="st95" d="M477.2,291c7.3,2.5,3.7,13.2-1.6,17.1c-2.6-1.4,0.6-4-3-2.2c-0.7-3.4,0.9-2.4-0.1-6.7c-3.7,1.9-11-0.4-12.1-4
		c1.3-0.6,2.6-4.3,5.7-5.6C470,287.8,475,288.6,477.2,291z"/>
	<path class="st80" d="M472.9,306c0,1,0.7,1.4,1.6,0.9c0.9-0.6,1.5-1.6,1.6-2.8c0-1-0.7-1.4-1.6-0.9
		C473.6,303.8,473,304.8,472.9,306z"/>
	<polygon class="st96" points="476.1,328.2 462.7,335.9 449.3,328.2 449.3,322.3 462.7,314.5 476.1,322.3 	"/>
	<polygon class="st97" points="462.7,314.5 476.1,322.3 462.7,329.9 449.3,322.3 	"/>
	<path class="st36" d="M475.7,333.3L475.7,333.3c1.3,0.2,2.6-0.7,2.8-2l0,0l1.4-10c0.2-1.3-0.7-2.6-2.1-2.8l0,0
		c-1.3-0.2-2.6,0.7-2.8,2.1l-1.4,10C473.5,331.8,474.4,333,475.7,333.3z"/>
	<path class="st90" d="M473.3,323.3l0.9-6.1c0.3-2.1,2.2-3.5,4.3-3.2l0,0c2.1,0.3,3.5,2.2,3.2,4.3l-0.9,6.1
		C480.8,324.4,477.7,327.4,473.3,323.3z"/>
	<path class="st36" d="M462.2,335.5L462.2,335.5c0.4,1.3,1.8,1.9,3.1,1.5l11-3.8c1.3-0.1,2.3-1.3,2.2-2.7l0,0
		c-0.1-1.3-1.3-2.3-2.7-2.2l-12.1,4C462.4,332.8,461.8,334.2,462.2,335.5L462.2,335.5z"/>
	<g id="web">
		<ellipse transform="matrix(0.866 -0.5 0.5 0.866 -168.2617 81.3996)" class="st98" cx="67.8" cy="354.7" rx="19.9" ry="34.5"/>
		<ellipse transform="matrix(0.866 -0.5 0.5 0.866 -168.2617 81.3996)" class="st10" cx="67.8" cy="354.7" rx="17.9" ry="31"/>
		<path class="st11" d="M80.4,319.2c-6.8-3.9-12.9-4.3-17.3-1.7l-12.5,7.2l0,0c4.4-2.5,10.5-2.1,17.2,1.7
			c13.4,7.8,24.4,26.7,24.4,42.2c0,7.7-2.7,13.2-7.1,15.7l0,0l12.5-7.2c4.4-2.5,7.2-8,7.2-15.8C104.8,345.9,93.9,327,80.4,319.2z"/>
		<path class="st12" d="M61.6,359.4c1.1,0.1,2.2,0.3,3.3,0.6l0.3,0.1c0.7,0.3,1.4,0.5,2,0.9v-6.1l-6.6-3.8
			C60.6,353.9,61,356.7,61.6,359.4z"/>
		<path class="st12" d="M74.5,348.9h0.4h0.3c0.8-0.1,1.5-0.2,2.2-0.5c-1.6-2.6-3.5-5.1-5.8-7.1c0.7,1.4,1.4,2.8,1.9,4.2
			C73.8,346.6,74.2,347.7,74.5,348.9z"/>
		<path class="st12" d="M66,337.5c-1.2,0-2.3,0.8-3.3,2.4c-0.3,0.6-0.6,1.2-0.8,1.9c1,1.1,2,2.1,3.1,3l0.3,0.3
			c0.6,0.5,1.2,0.9,1.9,1.4v-8.3h-0.1C66.7,337.9,66.4,337.7,66,337.5z"/>
		<path class="st12" d="M65,361.3c-1-0.3-2-0.5-3.1-0.6c0.3,1,0.5,1.9,0.8,2.9c0.7,2.2,1.8,4.3,3.3,6.2c0.4,0.3,0.7,0.5,1.1,0.7
			l0.1,0.1v-8.4c-0.6-0.3-1.2-0.6-1.9-0.8L65,361.3z"/>
		<path class="st12" d="M64.8,345.9c-1.2-1-2.2-2-3.2-3.1c-0.6,2.3-1,4.8-1,7.2l6.6,3.8v-6.1c-0.7-0.5-1.4-0.9-2-1.5L64.8,345.9z"/>
		<path class="st12" d="M60.8,341.9c-0.2-0.2-0.3-0.4-0.5-0.6l-0.3-0.4c-0.8-1.1-1.6-2.2-2.3-3.3c-2.5,1.5-3.9,4.5-4,8.5l6.1,3.5
			C59.7,346.9,60.1,344.3,60.8,341.9z"/>
		<path class="st12" d="M61.1,360.8h-0.4l-0.3,0.1c-0.7,0.1-1.4,0.3-2.1,0.6c1.5,2.4,3.4,4.7,5.5,6.6c-0.7-1.4-1.4-2.8-1.9-4.2
			C61.7,362.9,61.4,361.9,61.1,360.8z"/>
		<path class="st12" d="M60.3,359.5h0.5c-0.6-2.9-1-5.8-1-8.8l-6.1-3.5c0.3,4.6,1.7,9,4,13c0.7-0.3,1.5-0.6,2.3-0.7H60.3z"/>
		<path class="st12" d="M60.7,340.4l0.4,0.5c0.2-0.7,0.6-1.4,0.9-2c0.5-0.8,1.1-1.5,1.9-2.1c-1.8-0.5-3.7-0.4-5.5,0.3
			c0.6,1,1.3,2,2.1,3L60.7,340.4z"/>
		<path class="st12" d="M74.8,367.2c0.2,0.2,0.4,0.5,0.6,0.7l0.3,0.4c0.9,1.1,1.7,2.3,2.5,3.5c2.2-1.5,3.6-4.3,3.7-8.3l-6.1-3.5
			C75.7,362.3,75.4,364.8,74.8,367.2z"/>
		<path class="st12" d="M70.5,348.1c1,0.4,2.1,0.6,3.2,0.8c-0.3-1.1-0.6-2.2-0.9-3.2c-0.7-2.2-1.8-4.3-3.2-6.2
			c-0.4-0.3-0.7-0.5-1.1-0.7l-0.2-0.1v8.4c0.6,0.4,1.3,0.7,1.9,1L70.5,348.1z"/>
		<path class="st12" d="M74.9,368.6l-0.4-0.4c-0.3,0.8-0.6,1.5-1,2.3c-0.5,0.8-1.1,1.5-1.9,2.1c1.9,0.6,4,0.4,5.8-0.4
			c-0.7-1.1-1.4-2.1-2.3-3.1L74.9,368.6z"/>
		<path class="st12" d="M75.6,350.2h-0.3h-0.5c0.6,2.8,0.9,5.6,1,8.4l6.1,3.5c-0.3-4.4-1.5-8.7-3.7-12.5
			C77.3,349.9,76.5,350.1,75.6,350.2z"/>
		<path class="st12" d="M74,350.2c-1.1-0.1-2.3-0.4-3.3-0.8l-0.3-0.1c-0.7-0.3-1.4-0.6-2.1-1v6.1l6.6,3.8
			C74.8,355.5,74.5,352.8,74,350.2z"/>
		<path class="st12" d="M70.7,363.3c1.2,0.9,2.3,1.9,3.3,3c0.6-2.3,0.9-4.6,0.9-6.9l-6.6-3.8v6.1c0.7,0.4,1.4,0.9,2.1,1.4
			L70.7,363.3z"/>
		<path class="st12" d="M73.7,367.3c-1-1.1-2-2-3.2-2.9c-0.1-0.1-0.2-0.2-0.3-0.2c-0.6-0.5-1.3-0.9-2-1.3v8.4l0.2,0.1
			c0.4,0.2,0.7,0.4,1.1,0.5c1.2,0,2.3-0.8,3.3-2.4C73.1,368.7,73.4,368,73.7,367.3z"/>
		
			<animateTransform  accumulate="none" additive="replace" attributeName="transform" attributeType="XML" calcMode="linear" dur="1s" fill="remove" repeatCount="indefinite" restart="always" type="translate" values="0,10; 0,-10; 0,10;">
			</animateTransform>
	</g>
</g>
</svg>
