<svg xmlns="http://www.w3.org/2000/svg" xmlns:xlink="http://www.w3.org/1999/xlink" viewBox="0 0 300 200"><defs><style>.cls-1{fill:url(#linear-gradient);}.cls-2{fill:#353535;}.cls-2,.cls-3,.cls-4,.cls-5,.cls-6,.cls-7,.cls-8{fill-rule:evenodd;}.cls-3{fill:#c53c02;}.cls-4{fill:#751b00;}.cls-5{fill:#265a8f;}.cls-6{fill:#162f51;}.cls-7{fill:#fdee00;}.cls-8{fill:#ecc700;}.cls-9{font-size:25.61px;fill:#fff;font-family:Arial-BoldMT, Arial;font-weight:700;}</style><linearGradient id="linear-gradient" x1="366.26" y1="-25.27" x2="-68.77" y2="226.73" gradientUnits="userSpaceOnUse"><stop offset="0" stop-color="#c53c02"/><stop offset="0.5" stop-color="#e19601"/><stop offset="1" stop-color="#fdee00"/></linearGradient></defs><title>mlh-event</title><g id="pallates"><rect class="cls-1" width="300" height="200"/><g id="Page-1"><g id="mlh-logo-color"><g id="Layer_1" data-name="Layer 1"><g id="Group"><path id="Shape" class="cls-2" d="M67.29,114.48a3.71,3.71,0,0,1,.53.32,1.09,1.09,0,0,1,.33.54,2.84,2.84,0,0,1,.1.64v7.85s0,.16,0,.16a.18.18,0,0,1-.16.06H66.1a.19.19,0,0,1-.16-.06.2.2,0,0,1,0-.16v-7.1H64.33v7.1s0,.16,0,.16a.2.2,0,0,1-.17.06H62.34c-.05,0-.16,0-.16-.06a.2.2,0,0,1,0-.16v-7.1H60.57v7.1a.26.26,0,0,1-.27.27H58.36a.26.26,0,0,1-.27-.27v-9.19a.26.26,0,0,1,.27-.27h8.39a.64.64,0,0,1,.54.11Z" transform="translate(0 0)"/><path class="cls-2" d="M77,114.31a2.86,2.86,0,0,1,.64.11,6,6,0,0,1,.54.32,1.16,1.16,0,0,1,.32.54,2.46,2.46,0,0,1,.11.65v7.85s0,.16,0,.16a.22.22,0,0,1-.16,0H76.48s-.16,0-.16,0a.22.22,0,0,1,0-.16V121.3s0-.16-.06-.16a.19.19,0,0,0-.16,0H73.31s-.16,0-.16,0a.19.19,0,0,0-.06.16v2.48a.25.25,0,0,1-.26.27H70.89a.26.26,0,0,1-.27-.27v-7.85a2.46,2.46,0,0,1,.11-.65c.11-.21.21-.37.32-.54a1.15,1.15,0,0,1,.54-.32,1.32,1.32,0,0,1,.64-.11Zm-.86,4.63v-2.42H72.88v2.42Z" transform="translate(0 0)"/><path class="cls-2" d="M87.4,114.42a.22.22,0,0,1,0,.16v7.85a2.46,2.46,0,0,1-.11.65,4.53,4.53,0,0,1-.32.54,1.15,1.15,0,0,1-.54.32,1.32,1.32,0,0,1-.64.11h-4.2a2.86,2.86,0,0,1-.64-.11,6,6,0,0,1-.54-.32,1.16,1.16,0,0,1-.32-.54,1.36,1.36,0,0,1-.11-.65v-3a.25.25,0,0,1,.27-.27h1.93a.25.25,0,0,1,.27.27v2a.19.19,0,0,0,.06.16.2.2,0,0,0,.16.05h2c.05,0,.16,0,.16-.05a.22.22,0,0,0,0-.16v-6.83c0-.06,0-.16.06-.16a.17.17,0,0,1,.16-.06h1.93a.25.25,0,0,1,.33,0Z" transform="translate(0 0)"/><path class="cls-2" d="M96.16,114.31a3,3,0,0,1,.65.11c.21.11.37.22.53.32a1.18,1.18,0,0,1,.33.54,2.93,2.93,0,0,1,.1.65v6.45a2.84,2.84,0,0,1-.1.64,4.26,4.26,0,0,1-.33.54,1.09,1.09,0,0,1-.53.32,1.36,1.36,0,0,1-.65.11H91.27a2.46,2.46,0,0,1-.65-.11,3.71,3.71,0,0,1-.53-.32,1.09,1.09,0,0,1-.33-.54,1.43,1.43,0,0,1-.1-.64v-6.45a2.93,2.93,0,0,1,.1-.65,2.11,2.11,0,0,1,.33-.54,1.17,1.17,0,0,1,.53-.32,1.36,1.36,0,0,1,.65-.11Zm-.86,2.37H92v5H95.3v-5Z" transform="translate(0 0)"/><path class="cls-2" d="M108.42,123.83a.1.1,0,0,1,0,.16c0,.06,0,.06-.16.06h-2.21a.29.29,0,0,1-.21-.06l-.16-.16-1.45-2.63c0-.06-.06-.06-.11-.06h-1.67s0,0,0,.06v2.58a.26.26,0,0,1-.27.27h-1.94a.25.25,0,0,1-.26-.27v-9.2a.25.25,0,0,1,.26-.27h6.3a2.86,2.86,0,0,1,.64.11,6,6,0,0,1,.54.32,1.16,1.16,0,0,1,.32.54,1.36,1.36,0,0,1,.11.65v3.65a1.63,1.63,0,0,1-.32,1,1.74,1.74,0,0,1-.81.59h0c-.06,0-.06.06-.06.11v0l1.56,2.53Zm-2.74-7.26h-3.34v2.37h3.34v-2.37Z" transform="translate(0 0)"/><path class="cls-2" d="M121.49,121.68a.22.22,0,0,1,.16,0,.23.23,0,0,1,0,.17v1.82c0,.06,0,.16,0,.16a.19.19,0,0,1-.16.06h-6a.26.26,0,0,1-.27-.27v-9.19a.25.25,0,0,1,.27-.27h1.93a.25.25,0,0,1,.27.27v6.82a.2.2,0,0,0,.06.17.19.19,0,0,0,.16,0h3.55v.16Z" transform="translate(0 0)"/><path class="cls-2" d="M130.47,114.42a.22.22,0,0,1,.05.16v1.78a.18.18,0,0,1-.21.21h-4.63c-.05,0-.05,0-.05.06v1.5c0,.06,0,.06.05.06h4a.18.18,0,0,1,.21.21v1.4s0,.16-.05.16a.2.2,0,0,1-.16.05h-4c-.05,0-.05,0-.05.06v.7h0v.8c0,.06,0,.06.05.06h4.63c.05,0,.16,0,.16.05a.2.2,0,0,1,.05.16v1.72c0,.06,0,.16-.05.16a.19.19,0,0,1-.16.06h-6.89a.26.26,0,0,1-.27-.27v-9.2s0-.16.06-.16a.19.19,0,0,1,.16-.05h6.88a.93.93,0,0,0,.22.32Z" transform="translate(0 0)"/><path class="cls-2" d="M139.28,114.31a3,3,0,0,1,.65.11c.21.11.38.22.54.32a1.16,1.16,0,0,1,.32.54,3,3,0,0,1,.11.65v7.85s0,.16-.06.16a.19.19,0,0,1-.16,0h-2c-.05,0-.16,0-.16,0a.22.22,0,0,1-.05-.16V121.3s0-.16-.06-.16a.19.19,0,0,0-.16,0h-2.79c-.06,0-.16,0-.16,0a.19.19,0,0,0-.06.16v2.48a.26.26,0,0,1-.27.27h-1.93a.26.26,0,0,1-.27-.27v-7.85a2.46,2.46,0,0,1,.11-.65,4.53,4.53,0,0,1,.32-.54,1.15,1.15,0,0,1,.54-.32,1.32,1.32,0,0,1,.64-.11Zm-.86,4.63v-2.42h-3.28v2.42Z" transform="translate(0 0)"/><path class="cls-2" d="M151.17,118.83a.2.2,0,0,1,.05.16v3.44a2.46,2.46,0,0,1-.11.65,4.53,4.53,0,0,1-.32.54,1.15,1.15,0,0,1-.54.32,1.32,1.32,0,0,1-.64.11h-4.89a3,3,0,0,1-.65-.11,6,6,0,0,1-.54-.32,1.16,1.16,0,0,1-.32-.54,1.36,1.36,0,0,1-.11-.65V116a2.86,2.86,0,0,1,.11-.64,1.61,1.61,0,0,1,.32-.54,1.07,1.07,0,0,1,.54-.32,1.36,1.36,0,0,1,.65-.11h5.75c.05,0,.16,0,.16,0a.22.22,0,0,1,.05.16v1.83s0,.16-.05.16a.18.18,0,0,1-.16.06h-4.63c-.05,0-.16,0-.16.05a.2.2,0,0,0-.05.16v4.52a.2.2,0,0,0,.05.16.22.22,0,0,0,.16,0h2.75a.22.22,0,0,0,.16,0,.2.2,0,0,0,.05-.16v-2.42c0-.06,0-.16.06-.16a.17.17,0,0,1,.16-.06H151a.46.46,0,0,1,.22.11Z" transform="translate(0 0)"/><path class="cls-2" d="M161.38,114.42a.19.19,0,0,1,.06.16v7.85a3,3,0,0,1-.11.65c-.11.21-.21.37-.32.54a1.2,1.2,0,0,1-.54.32,1.36,1.36,0,0,1-.65.11h-4.89a2.86,2.86,0,0,1-.64-.11,6,6,0,0,1-.54-.32,1.16,1.16,0,0,1-.32-.54,1.36,1.36,0,0,1-.11-.65v-7.85a.26.26,0,0,1,.27-.27h1.93a.26.26,0,0,1,.27.27v6.83a.21.21,0,0,0,.22.22h2.74a.18.18,0,0,0,.16-.06.19.19,0,0,0,.05-.16v-6.83s0-.16.06-.16a.2.2,0,0,1,.16,0h1.94c.16-.06.21,0,.26,0Z" transform="translate(0 0)"/><path class="cls-2" d="M171,114.42a.22.22,0,0,1,.05.16v1.78a.18.18,0,0,1-.21.21h-4.63c-.05,0-.05,0-.05.06v1.5c0,.06,0,.06.05.06h4a.19.19,0,0,1,.16,0,.18.18,0,0,1,.06.16v1.4s0,.16-.06.16a.19.19,0,0,1-.16.05h-4c-.05,0-.05,0-.05.06v.7h0v.8c0,.06,0,.06.05.06h4.63c.05,0,.16,0,.16.05a.2.2,0,0,1,.05.16v1.72c0,.06,0,.16-.05.16a.19.19,0,0,1-.16.06H164a.25.25,0,0,1-.26-.27v-9.2s0-.16.05-.16a.2.2,0,0,1,.16-.05h6.88a.93.93,0,0,0,.22.32Z" transform="translate(0 0)"/><path class="cls-2" d="M185.9,114.31c.06,0,.16,0,.16.06a.18.18,0,0,1,.06.16v9.19c0,.06,0,.16-.06.16a.17.17,0,0,1-.16.06H184c-.06,0-.16,0-.16-.06a.17.17,0,0,1-.06-.16V120.5a.19.19,0,0,0-.05-.16.19.19,0,0,0-.16-.06h-2.75s-.16,0-.16.06a.19.19,0,0,0,0,.16v3.22a.26.26,0,0,1-.27.27h-1.93a.25.25,0,0,1-.27-.27v-9.19a.25.25,0,0,1,.27-.27h1.93a.26.26,0,0,1,.27.27v3.12a.26.26,0,0,0,.27.27h2.74a.18.18,0,0,0,.16-.06.17.17,0,0,0,.06-.16v-3.12s0-.16.05-.16a.2.2,0,0,1,.16,0h1.88v-.06Z" transform="translate(0 0)"/><path class="cls-2" d="M194.88,114.31a3,3,0,0,1,.65.11c.21.11.37.22.54.32a1.25,1.25,0,0,1,.32.54,3,3,0,0,1,.11.65v7.85s0,.16-.06.16a.2.2,0,0,1-.16,0h-1.94c-.05,0-.16,0-.16,0a.22.22,0,0,1-.05-.16V121.3s0-.16,0-.16a.23.23,0,0,0-.17,0h-2.74s-.16,0-.16,0a.22.22,0,0,0,0,.16v2.48a.26.26,0,0,1-.27.27h-1.94a.26.26,0,0,1-.27-.27v-7.85a3,3,0,0,1,.11-.65c.11-.21.22-.37.32-.54a1.25,1.25,0,0,1,.54-.32,1.36,1.36,0,0,1,.65-.11Zm-.8,4.63v-2.42H190.8v2.42Z" transform="translate(0 0)"/><path class="cls-2" d="M201.17,116.73a.22.22,0,0,0,0,.16v4.52a.19.19,0,0,0,0,.16.19.19,0,0,0,.16.06h4.47s.16,0,.16.05a.2.2,0,0,1,0,.16v1.83s0,.16,0,.16a.2.2,0,0,1-.16,0h-5.54a2.93,2.93,0,0,1-.65-.1,4.91,4.91,0,0,1-.53-.33,1.19,1.19,0,0,1-.33-.53,1.48,1.48,0,0,1-.1-.65v-6.5a2.93,2.93,0,0,1,.1-.65,5.11,5.11,0,0,1,.33-.54,1.09,1.09,0,0,1,.53-.32,1.36,1.36,0,0,1,.65-.11h5.54s.16,0,.16.06a.19.19,0,0,1,0,.16v1.83s0,.16,0,.16a.2.2,0,0,1-.16,0h-4.47c-.05.27-.1.32-.16.32Z" transform="translate(0 0)"/><path class="cls-2" d="M213.81,118.4c-.05,0-.05,0,0,.11l3.23,5.32a.1.1,0,0,1,0,.16c-.06.06-.06.06-.17.06h-2.31a.29.29,0,0,1-.21-.06l-.16-.16-2.1-3.76c-.06-.06-.06-.06-.06,0l-1.12,1.23a.28.28,0,0,0-.11.22.45.45,0,0,0-.06.27v2a.25.25,0,0,1-.26.27h-1.89a.26.26,0,0,1-.27-.27v-9.19a.26.26,0,0,1,.27-.27h1.94a.26.26,0,0,1,.27.27v4.14l3.6-4.2a.89.89,0,0,1,.22-.16.41.41,0,0,1,.21,0h2.31c.06,0,.11,0,.11,0a.19.19,0,0,1-.05.16l-3.39,3.82Z" transform="translate(0 0)"/><path class="cls-2" d="M221.28,123.78a.25.25,0,0,1-.27.27h-1.93a.26.26,0,0,1-.27-.27v-9.2a.26.26,0,0,1,.27-.27H221a.25.25,0,0,1,.27.27v9.2Z" transform="translate(0 0)"/><path class="cls-2" d="M230.64,114.48a3.85,3.85,0,0,1,.54.32,1.07,1.07,0,0,1,.32.54,1.32,1.32,0,0,1,.11.64v7.85s0,.16-.06.16a.17.17,0,0,1-.16.06h-1.93a.17.17,0,0,1-.16-.06.18.18,0,0,1-.06-.16V117a.2.2,0,0,0-.05-.16.22.22,0,0,0-.16,0h-2.75c-.05,0-.16,0-.16,0s-.05.11-.05.16v6.83a.26.26,0,0,1-.27.27h-1.94a.25.25,0,0,1-.26-.27v-9.19a.25.25,0,0,1,.26-.27h6.3a.55.55,0,0,1,.48.11Z" transform="translate(0 0)"/><path class="cls-2" d="M241.88,118.83a.2.2,0,0,1,.05.16v3.44a2.46,2.46,0,0,1-.11.65,4.53,4.53,0,0,1-.32.54,1.15,1.15,0,0,1-.54.32,1.32,1.32,0,0,1-.64.11h-4.9a2.86,2.86,0,0,1-.64-.11,6,6,0,0,1-.54-.32,1.16,1.16,0,0,1-.32-.54,1.36,1.36,0,0,1-.11-.65V116a2.86,2.86,0,0,1,.11-.64,1.61,1.61,0,0,1,.32-.54,1.07,1.07,0,0,1,.54-.32,1.32,1.32,0,0,1,.64-.11h5.76s.16,0,.16,0a.22.22,0,0,1,0,.16v1.83s0,.16,0,.16a.18.18,0,0,1-.16.06h-4.63c-.05,0-.16,0-.16.05a.2.2,0,0,0,0,.16v4.52a.2.2,0,0,0,0,.16.22.22,0,0,0,.16,0h2.75a.22.22,0,0,0,.16,0,.2.2,0,0,0,0-.16v-2.42c0-.06,0-.16.06-.16a.17.17,0,0,1,.16-.06h1.93a.31.31,0,0,1,.22.11Z" transform="translate(0 0)"/></g><path class="cls-3" d="M116.59,47.42a10.3,10.3,0,0,1,3.23,2.21,11.39,11.39,0,0,1,2.2,3.23,9.86,9.86,0,0,1,.81,4v51a1.58,1.58,0,0,1-.48,1.18,1.61,1.61,0,0,1-1.19.48H109a1.39,1.39,0,0,1-1.13-.48,1.76,1.76,0,0,1-.43-1.18V61.46H97.56v46.35a1.76,1.76,0,0,1-.43,1.18,1.47,1.47,0,0,1-1.13.48H84.92a1.64,1.64,0,0,1-1.66-1.66V61.46H73.42v46.35a1.46,1.46,0,0,1-1.67,1.66H59.65A1.46,1.46,0,0,1,58,107.81V48.28a1.46,1.46,0,0,1,1.67-1.66h52.91a10.31,10.31,0,0,1,4,.8Z" transform="translate(0 0)"/><path class="cls-4" d="M116.59,47.42a10.3,10.3,0,0,1,3.23,2.21,11.39,11.39,0,0,1,2.2,3.23,9.86,9.86,0,0,1,.81,4v4.52l-15.43.11H73.47L58,61.35V48.23a1.46,1.46,0,0,1,1.67-1.67h52.9a11.54,11.54,0,0,1,4,.86Z" transform="translate(0 0)"/><path class="cls-5" d="M176,94.2a1.52,1.52,0,0,1,1.18.49,1.71,1.71,0,0,1,.49,1.23v11.89a1.79,1.79,0,0,1-.49,1.23,1.55,1.55,0,0,1-1.18.49H134.23a1.55,1.55,0,0,1-1.77-1.72V48.34a1.55,1.55,0,0,1,1.77-1.72H147a1.55,1.55,0,0,1,1.77,1.72v44.3a1.45,1.45,0,0,0,.54,1.19,1.67,1.67,0,0,0,1.24.43H176V94.2Z" transform="translate(0 0)"/><path class="cls-6" d="M148.69,109.47H134.23a1.55,1.55,0,0,1-1.77-1.72V48.34a1.55,1.55,0,0,1,1.77-1.72H147a1.55,1.55,0,0,1,1.77,1.72v44.3c0,.43-.11,16.83-.11,16.83Z" transform="translate(0 0)"/><path class="cls-7" d="M240.21,46.62A1.72,1.72,0,0,1,242,48.34V108a1.67,1.67,0,0,1-.53,1.24,1.74,1.74,0,0,1-1.24.48h-13a1.7,1.7,0,0,1-1.24-.48,1.79,1.79,0,0,1-.54-1.24V87.16a1.58,1.58,0,0,0-.48-1.18,1.56,1.56,0,0,0-1.24-.43H205.48a1.9,1.9,0,0,0-1.24.43,1.64,1.64,0,0,0-.54,1.18V108a1.55,1.55,0,0,1-1.77,1.72H189a1.55,1.55,0,0,1-1.77-1.72V48.34A1.55,1.55,0,0,1,189,46.62h12.91a1.55,1.55,0,0,1,1.77,1.72V68.5a1.55,1.55,0,0,0,1.78,1.72H223.7a1.64,1.64,0,0,0,1.72-1.72V48.34A1.63,1.63,0,0,1,226,47.1a1.7,1.7,0,0,1,1.24-.48Z" transform="translate(0 0)"/><path class="cls-8" d="M203.75,87.16V108a1.55,1.55,0,0,1-1.77,1.72h-12.9A1.55,1.55,0,0,1,187.3,108V48.34a1.55,1.55,0,0,1,1.78-1.72H202a1.55,1.55,0,0,1,1.77,1.72V87.16Z" transform="translate(0 0)"/><path class="cls-8" d="M240.21,46.62A1.72,1.72,0,0,1,242,48.34V108a1.67,1.67,0,0,1-.53,1.24,1.74,1.74,0,0,1-1.24.48h-13a1.7,1.7,0,0,1-1.24-.48,1.79,1.79,0,0,1-.54-1.24V48.34A1.63,1.63,0,0,1,226,47.1a1.7,1.7,0,0,1,1.24-.48Z" transform="translate(0 0)"/></g></g></g></g><g id="Layer_4" data-name="Layer 4"><text class="cls-9" transform="translate(89.52 150.3)">Localhost</text></g></svg>