<svg xmlns="http://www.w3.org/2000/svg" xmlns:xlink="http://www.w3.org/1999/xlink" viewBox="0 0 300 200"><defs><style>.cls-1{fill:url(#linear-gradient);}.cls-2{fill:#8e714e;}.cls-2,.cls-3,.cls-4,.cls-5,.cls-6,.cls-7{fill-rule:evenodd;}.cls-3{fill:#442d22;}.cls-4,.cls-8{fill:#fff;}.cls-5{fill:#a6a385;}.cls-6{fill:#499d4a;}.cls-7{fill:#58aa50;}.cls-8{font-size:25.61px;font-family:Arial-BoldMT, Arial;font-weight:700;}</style><linearGradient id="linear-gradient" x1="366.77" y1="-20.73" x2="-25.82" y2="197.92" gradientUnits="userSpaceOnUse"><stop offset="0" stop-color="#452e23"/><stop offset="1" stop-color="#8e724f"/></linearGradient></defs><title>mongodb-event</title><g id="pallates"><rect class="cls-1" width="300" height="200"/><path class="cls-2" d="M247.1,70.32c-.19,0-.37.45-.37.67,0,1.49-.08,5.42-.08,8.1a.28.28,0,0,0,.22.22c.56,0,1.9.08,3,.08a8,8,0,0,0,3.05-.45,3.94,3.94,0,0,0,2-3.71c0-3.61-2.53-5-6.28-5a5.85,5.85,0,0,0-1.56.07Zm9.58,16.61c0-3.68-2.71-5.72-7.61-5.72a20.07,20.07,0,0,0-2.16,0c-.11,0-.26.11-.26.22,0,2.64,0,6.84.08,8.47A2.79,2.79,0,0,0,248,92a8.54,8.54,0,0,0,3.23.44c2.94,0,5.5-1.63,5.5-5.46ZM239.52,68.28c.37,0,1.48.11,4.34.11s4.87-.08,7.51-.08c3.23,0,7.69,1.16,7.69,6a5.82,5.82,0,0,1-3.86,5.2c-.11,0-.11.11,0,.15,3.12.78,5.87,2.71,5.87,6.35s-2.23,5.84-5.46,7.25a17.9,17.9,0,0,1-6.92,1.15c-1.89,0-7-.22-9.81-.15-.29-.11.26-1.45.52-1.67a6.83,6.83,0,0,0,1.9-.3c1-.26,1.11-.56,1.26-2.08.08-1.3.08-5.91.08-9.18,0-4.49,0-7.54,0-9,0-1.15-.45-1.52-1.27-1.74-.63-.11-1.67-.26-2.52-.37-.19-.19.44-1.45.67-1.6ZM218.07,91.39a7.48,7.48,0,0,0,4.2,1,8.26,8.26,0,0,0,5.95-2.11c2-1.79,3.34-4.54,3.34-8.92,0-4.2-1.59-7.62-4.86-9.63a13.19,13.19,0,0,0-7-1.63,5.6,5.6,0,0,0-2.08.26,1.09,1.09,0,0,0-.37.59c-.08.75-.08,6.47-.08,9.81s0,8.29.08,8.85a2.32,2.32,0,0,0,.81,1.78Zm-8.43-23.11c.71,0,3.42.11,4.72.11,2.34,0,4-.11,8.43-.11a13.72,13.72,0,0,1,9.07,2.9A12.05,12.05,0,0,1,236,80.69c0,5.61-2.57,8.84-5.13,10.7s-5.91,3-10.67,3c-2.52,0-6.87-.07-10.48-.11h0c-.19-.34.29-1.64.59-1.67a5.62,5.62,0,0,0,1.71-.34c.78-.3.93-.7,1-2.08.11-2.56.08-5.65.08-9.14,0-2.49,0-7.36,0-8.92-.11-1.3-.67-1.63-1.79-1.86-.55-.11-1.3-.26-2.34-.37-.15-.26.52-1.41.71-1.63Z" transform="translate(0 0)"/><path class="cls-3" d="M164.68,92.84a7.51,7.51,0,0,1-2.42-.63,1.18,1.18,0,0,1-.3-.6c-.07-1.3-.07-5-.07-7.5a8.78,8.78,0,0,0-1.19-5,5.07,5.07,0,0,0-4.31-2.23c-1.64,0-3.83,1.11-5.65,2.67,0,0-.33.3-.3-.11s.08-1.22.12-1.78a1,1,0,0,0-.26-.78,25,25,0,0,1-5.76,1.48c-.9.19-1.12,1-.19,1.34h0a8.18,8.18,0,0,1,2.19,1,1.15,1.15,0,0,1,.33,1c0,2.79,0,7.06-.07,9.4,0,.93-.3,1.26-1,1.41l.08,0a14.1,14.1,0,0,1-1.56.29,2.11,2.11,0,0,0,0,1.67c.41,0,2.56-.11,4.34-.11,2.46,0,3.72.11,4.35.11a2.4,2.4,0,0,0,.19-1.67,6.48,6.48,0,0,1-1.71-.26c-.67-.15-.86-.48-.89-1.26-.08-2-.08-6.13-.08-9A1.78,1.78,0,0,1,151,81a5.62,5.62,0,0,1,3.45-1.26,3.88,3.88,0,0,1,2.57.85,3.63,3.63,0,0,1,1.19,2.34c.18,1.6.11,4.76.11,7.51,0,1.48-.11,1.86-.67,2a7,7,0,0,1-1.71.33,2.18,2.18,0,0,0,0,1.68c1.08,0,2.34-.11,4.2-.11,2.3,0,3.79.11,4.38.11a2.63,2.63,0,0,0,.12-1.6ZM175,78.64c-2,0-3.2,1.53-3.2,3.91s1.08,5.2,4.13,5.2a2.86,2.86,0,0,0,1.93-.74A4.91,4.91,0,0,0,179,83.59c0-3.09-1.52-5-4.05-5Zm-.26,16.43a3.19,3.19,0,0,0-1.6.41c-1.56,1-2.27,2-2.27,3.12a3.26,3.26,0,0,0,1.31,2.67,6.57,6.57,0,0,0,4.45,1.38c3.79,0,5.47-2,5.47-4.05a2.84,2.84,0,0,0-2.16-2.86,14.88,14.88,0,0,0-5.2-.67Zm.26,9.66a8.19,8.19,0,0,1-5.31-1.56,4.88,4.88,0,0,1-2-3.68,2.84,2.84,0,0,1,.74-1.86,20.09,20.09,0,0,1,3.42-2.75.15.15,0,0,0,.11-.15c0-.07-.08-.14-.15-.18a3.51,3.51,0,0,1-2.41-2.34v-.08c0-.22-.12-.44.22-.67s.63-.4,1-.66a15.92,15.92,0,0,0,1.71-1.12.28.28,0,0,0,.07-.22.24.24,0,0,0-.15-.19c-2.6-.85-3.9-2.78-3.9-5.68a5.66,5.66,0,0,1,2.38-4.69,11,11,0,0,1,5.35-1.82h.11a11.29,11.29,0,0,1,4.09.9,6.88,6.88,0,0,0,2.42.37,3.21,3.21,0,0,0,2.6-1,2.33,2.33,0,0,1,.15.74,2.86,2.86,0,0,1-.49,1.71,2.08,2.08,0,0,1-1.63.71h-.19a6.72,6.72,0,0,1-1-.15l-.15.08c0,.07,0,.14,0,.26l0,.07a12.47,12.47,0,0,1,.22,1.6,6,6,0,0,1-2.52,5.39,8.69,8.69,0,0,1-4.35,1.67,4.24,4.24,0,0,0-.52,0c-.19,0-.45,0-.48,0h0c-.3.08-1,.45-1,1.08s.33,1.23,1.93,1.34c.34,0,.67,0,1,.07a32.42,32.42,0,0,1,6,.75,4.16,4.16,0,0,1,2.79,4c0,2.75-2,5.32-5.24,6.91a11.88,11.88,0,0,1-4.94,1.08Zm21.18-25.9a3.48,3.48,0,0,0-2,.56c-1.45.89-2.19,2.67-2.19,5.27,0,4.87,2.45,8.29,6,8.29a3.78,3.78,0,0,0,2.56-.89c1.08-.89,1.64-2.68,1.64-5.17,0-4.83-2.42-8.06-5.95-8.06Zm.67,15.9c-6.32,0-8.58-4.64-8.58-9a8,8,0,0,1,3.67-7.06A11.18,11.18,0,0,1,197.6,77c4.83,0,8.21,3.46,8.21,8.43a8.65,8.65,0,0,1-3.9,7.7,10.37,10.37,0,0,1-5.09,1.59ZM130.6,78.83a3.48,3.48,0,0,0-2,.56c-1.45.89-2.19,2.67-2.19,5.27,0,4.87,2.45,8.29,5.95,8.29a3.8,3.8,0,0,0,2.56-.89c1.08-.89,1.64-2.68,1.64-5.17,0-4.83-2.38-8.06-6-8.06Zm.67,15.9c-6.32,0-8.58-4.64-8.58-9a8,8,0,0,1,3.67-7.06A11.18,11.18,0,0,1,132.05,77c4.83,0,8.21,3.46,8.21,8.43a8.65,8.65,0,0,1-3.9,7.7,10.15,10.15,0,0,1-5.09,1.59ZM88.8,94.36a1.56,1.56,0,0,1-.12-.85A1.21,1.21,0,0,1,88.8,93a13.79,13.79,0,0,0,1.63-.33c.74-.19,1-.6,1.08-1.53.11-2.23.11-6.46.07-9.4v-.07a1.11,1.11,0,0,0-.41-1,8.32,8.32,0,0,0-2.23-1c-.33-.11-.55-.3-.52-.52s.23-.48.71-.56a27,27,0,0,0,5.69-1.45,1,1,0,0,1,.18.6l0,.41c0,.41-.07.89-.07,1.37a.29.29,0,0,0,.3.26.47.47,0,0,0,.22-.07,10.47,10.47,0,0,1,5.65-2.53,4.82,4.82,0,0,1,4.31,2.64.29.29,0,0,0,.48,0c2.19-1.68,4.39-2.68,5.84-2.68,3.45,0,5.5,2.57,5.5,6.91,0,1.23,0,2.83,0,4.28,0,1.3,0,2.49,0,3.34a1.16,1.16,0,0,0,.67.89,8,8,0,0,0,2.16.52h0a2.88,2.88,0,0,1-.22,1.41c-.22,0-.56,0-.93,0-.94,0-1.88-.08-2.82-.08-2.31,0-3.5,0-4.65.11a3.71,3.71,0,0,1,0-1.41,11.61,11.61,0,0,0,1.41-.33c.75-.22.93-.56,1-1.53,0-.7.15-6.72-.07-8.17a3.67,3.67,0,0,0-3.79-3.23,6.56,6.56,0,0,0-3.79,1.45.61.61,0,0,0-.15.37v0a17.06,17.06,0,0,1,.15,3v2.42c0,1.67,0,3.23,0,4.42a1.08,1.08,0,0,0,.89,1.15l.55.11,1.19.26a1.94,1.94,0,0,1,0,1,.72.72,0,0,1-.15.37c-1.27,0-2.57-.07-4.46-.07-.56,0-1.53,0-2.34,0s-1.3,0-1.67,0a1.8,1.8,0,0,1-.12-.74,1.22,1.22,0,0,1,.15-.67,3.24,3.24,0,0,1,.52-.07l1.19-.22c.63-.19.86-.52.89-1.34a64.86,64.86,0,0,0,0-8.51c-.45-2.16-1.68-3.23-3.65-3.23a6.83,6.83,0,0,0-3.79,1.44,1.23,1.23,0,0,0-.33.86v2.19c0,2.68,0,6,0,7.47a1.13,1.13,0,0,0,1,1.15,7.33,7.33,0,0,0,.85.15l.67.11a3,3,0,0,1-.11,1.41c-.37,0-.82,0-1.34,0-.78,0-1.78-.08-2.9-.08-1.3,0-2.23,0-3,.08a8.34,8.34,0,0,0-1.37-.08Z" transform="translate(0 0)"/><path class="cls-4" d="M69.25,103.28l-1.52-.52s.18-7.77-2.61-8.32c-1.85-2.16.3-91.42,7-.3,0,0-2.3,1.15-2.71,3.12a28.41,28.41,0,0,0-.15,6Z" transform="translate(0 0)"/><path class="cls-5" d="M69.25,103.28l-1.52-.52s.18-7.77-2.61-8.32c-1.85-2.16.3-91.42,7-.3,0,0-2.3,1.15-2.71,3.12a28.41,28.41,0,0,0-.15,6Z" transform="translate(0 0)"/><path class="cls-4" d="M70.07,95.78s13.34-8.77,10.22-27c-3-13.27-10.11-17.61-10.89-19.29a18.3,18.3,0,0,1-1.67-3.27l.55,36.9s-1.15,11.3,1.79,12.68" transform="translate(0 0)"/><path class="cls-6" d="M70.07,95.78s13.34-8.77,10.22-27c-3-13.27-10.11-17.61-10.89-19.29a18.3,18.3,0,0,1-1.67-3.27l.55,36.9s-1.15,11.3,1.79,12.68" transform="translate(0 0)"/><path class="cls-4" d="M67,96.26s-12.53-8.55-11.78-23.6,9.55-22.44,11.26-23.78a3.46,3.46,0,0,0,1.22-2.82c.78,1.67.63,25,.74,27.75C68.73,84.4,67.8,94.25,67,96.26Z" transform="translate(0 0)"/><path class="cls-7" d="M67,96.26s-12.53-8.55-11.78-23.6,9.55-22.44,11.26-23.78a3.46,3.46,0,0,0,1.22-2.82c.78,1.67.63,25,.74,27.75C68.73,84.4,67.8,94.25,67,96.26Z" transform="translate(0 0)"/></g><g id="Layer_4" data-name="Layer 4"><text class="cls-8" transform="translate(95.5 121.3)">Bootcamp</text></g></svg>