<svg xmlns="http://www.w3.org/2000/svg" xmlns:xlink="http://www.w3.org/1999/xlink" viewBox="0 0 300 200"><defs><style>.cls-1,.cls-6{fill:url(#linear-gradient);}.cls-1{clip-rule:evenodd;}.cls-2{fill:url(#linear-gradient-2);}.cls-3,.cls-5{fill:#679e63;}.cls-15,.cls-4{fill:#fff;}.cls-4,.cls-5,.cls-6{fill-rule:evenodd;}.cls-7{clip-path:url(#clip-path);}.cls-8{fill:none;}.cls-9{fill:url(#linear-gradient-4);}.cls-10{fill:url(#linear-gradient-5);}.cls-11{fill:url(#linear-gradient-6);}.cls-12{fill:url(#linear-gradient-7);}.cls-13{fill:url(#linear-gradient-8);}.cls-14{fill:url(#linear-gradient-9);}.cls-15{font-size:25.61px;font-family:Arial-BoldMT, Arial;font-weight:700;}</style><linearGradient id="linear-gradient" x1="137.33" y1="55.34" x2="121.61" y2="87.43" gradientUnits="userSpaceOnUse"><stop offset="0" stop-color="#3f873f"/><stop offset="0.33" stop-color="#3f8b3d"/><stop offset="0.64" stop-color="#3e9637"/><stop offset="0.93" stop-color="#3da92e"/><stop offset="1" stop-color="#3dae2b"/></linearGradient><linearGradient id="linear-gradient-2" x1="1.23" y1="290.56" x2="169.86" y2="74.56" gradientUnits="userSpaceOnUse"><stop offset="0.09" stop-color="#6abf4b"/><stop offset="0.29" stop-color="#63b649"/><stop offset="0.6" stop-color="#529f44"/><stop offset="0.86" stop-color="#3f873f"/></linearGradient><clipPath id="clip-path" transform="translate(0 0)"><path class="cls-1" d="M131.31,47.86a2.13,2.13,0,0,0-2.1,0l-17.41,10a2.1,2.1,0,0,0-1,1.82V79.84a2.11,2.11,0,0,0,1,1.82l17.41,10a2.08,2.08,0,0,0,2.1,0l17.41-10a2.11,2.11,0,0,0,1.05-1.82V59.73a2.08,2.08,0,0,0-1.06-1.82Z"/></clipPath><linearGradient id="linear-gradient-4" x1="127.61" y1="72.13" x2="171.74" y2="39.53" gradientUnits="userSpaceOnUse"><stop offset="0.14" stop-color="#3f873f"/><stop offset="0.4" stop-color="#529f44"/><stop offset="0.71" stop-color="#63b649"/><stop offset="0.91" stop-color="#6abf4b"/></linearGradient><linearGradient id="linear-gradient-5" x1="110.13" y1="44.24" x2="150.38" y2="44.24" xlink:href="#linear-gradient-2"/><linearGradient id="linear-gradient-6" x1="110.13" y1="69.78" x2="150.38" y2="69.78" xlink:href="#linear-gradient-2"/><linearGradient id="linear-gradient-7" x1="110.13" y1="81.27" x2="150.38" y2="81.27" xlink:href="#linear-gradient-2"/><linearGradient id="linear-gradient-8" x1="110.13" y1="86.46" x2="150.38" y2="86.46" xlink:href="#linear-gradient-2"/><linearGradient id="linear-gradient-9" x1="156.25" y1="54.39" x2="131.42" y2="105.03" xlink:href="#linear-gradient"/></defs><title>Nodejs-event</title><g id="pallates"><rect class="cls-2" width="300" height="200"/><path class="cls-3" d="M153.14,133.94a3.42,3.42,0,0,1-1.73-.46l-5.51-3.26c-.83-.46-.42-.62-.15-.72a11,11,0,0,0,2.49-1.13.43.43,0,0,1,.41,0l4.23,2.51a.52.52,0,0,0,.51,0l16.51-9.52a.54.54,0,0,0,.25-.45v-19a.53.53,0,0,0-.25-.45l-16.5-9.52a.52.52,0,0,0-.51,0l-16.5,9.52a.52.52,0,0,0-.26.45v19a.51.51,0,0,0,.26.44l4.52,2.61c2.46,1.23,4-.21,4-1.67v-18.8a.47.47,0,0,1,.48-.48h2.09a.48.48,0,0,1,.48.48v18.8c0,3.28-1.78,5.16-4.89,5.16a7,7,0,0,1-3.8-1L134.9,124a3.48,3.48,0,0,1-1.73-3v-19a3.48,3.48,0,0,1,1.73-3l16.51-9.54a3.62,3.62,0,0,1,3.47,0l16.5,9.54a3.49,3.49,0,0,1,1.74,3v19a3.49,3.49,0,0,1-1.74,3l-16.5,9.53A3.43,3.43,0,0,1,153.14,133.94Z" transform="translate(0 0)"/><path class="cls-3" d="M158.24,120.82c-7.22,0-8.74-3.32-8.74-6.1a.47.47,0,0,1,.48-.47h2.13a.48.48,0,0,1,.48.4c.32,2.17,1.28,3.27,5.65,3.27,3.48,0,5-.79,5-2.63,0-1.06-.42-1.85-5.83-2.38-4.51-.45-7.31-1.45-7.31-5.06,0-3.33,2.81-5.32,7.52-5.32,5.28,0,7.9,1.84,8.23,5.78a.48.48,0,0,1-.47.52h-2.15a.48.48,0,0,1-.46-.38c-.51-2.28-1.76-3-5.15-3-3.8,0-4.24,1.32-4.24,2.31,0,1.2.52,1.55,5.65,2.23s7.48,1.62,7.48,5.18S163.47,120.82,158.24,120.82Z" transform="translate(0 0)"/><path class="cls-3" d="M182,100.84a3.18,3.18,0,1,1-3.18-3.18A3.19,3.19,0,0,1,182,100.84Zm-5.85,0a2.67,2.67,0,1,0,2.66-2.66A2.67,2.67,0,0,0,176.19,100.83Zm1.47-1.77h1.23c.42,0,1.25,0,1.25.94a.83.83,0,0,1-.68.88c.49,0,.53.35.59.8a3.79,3.79,0,0,0,.19.95h-.76c0-.17-.13-1.08-.13-1.13,0-.2-.12-.3-.37-.3h-.63v1.43h-.69Zm.68,1.56h.55a.48.48,0,0,0,.54-.5c0-.49-.34-.49-.52-.49h-.57Z" transform="translate(0 0)"/><path class="cls-4" d="M102,59.41a2.1,2.1,0,0,0-1-1.83L83.47,47.51a2,2,0,0,0-1-.28h-.18a2,2,0,0,0-1,.28L63.85,57.58a2.1,2.1,0,0,0-1.05,1.83l0,27.12a1,1,0,0,0,.52.92,1,1,0,0,0,1,0l10.4-6a2.12,2.12,0,0,0,1.06-1.83V67a2.09,2.09,0,0,1,1.06-1.83l4.43-2.55a2.06,2.06,0,0,1,2.11,0l4.42,2.55A2.09,2.09,0,0,1,89,67V79.66A2.13,2.13,0,0,0,90,81.49l10.4,6a1,1,0,0,0,1,0,1.06,1.06,0,0,0,.53-.92Z" transform="translate(0 0)"/><path class="cls-4" d="M186.23,22.13a1.06,1.06,0,0,0-1.57.93V49.91a.74.74,0,0,1-1.11.65L179.17,48a2.11,2.11,0,0,0-2.12,0l-17.5,10.1A2.11,2.11,0,0,0,158.49,60V80.18A2.11,2.11,0,0,0,159.55,82l17.5,10.11a2.11,2.11,0,0,0,2.12,0L196.68,82a2.12,2.12,0,0,0,1-1.83V29.79A2.1,2.1,0,0,0,196.65,28Zm-1.62,51.41a.51.51,0,0,1-.27.45l-6,3.47a.55.55,0,0,1-.53,0l-6-3.47a.52.52,0,0,1-.26-.45v-7a.52.52,0,0,1,.26-.45l6-3.48a.55.55,0,0,1,.53,0l6,3.48a.51.51,0,0,1,.27.45Z" transform="translate(0 0)"/><path class="cls-4" d="M244.53,66.41a2.11,2.11,0,0,0,1.05-1.82v-4.9a2.11,2.11,0,0,0-1.05-1.83l-17.4-10.1a2.11,2.11,0,0,0-2.12,0l-17.5,10.1a2.12,2.12,0,0,0-1,1.83V79.9a2.09,2.09,0,0,0,1.06,1.83l17.4,9.91a2.12,2.12,0,0,0,2.07,0l10.52-5.85a1.06,1.06,0,0,0,0-1.84L219.91,73.86a1.06,1.06,0,0,1-.53-.92V66.61a1.06,1.06,0,0,1,.53-.92l5.48-3.16a1.09,1.09,0,0,1,1.05,0l5.49,3.16a1.06,1.06,0,0,1,.53.92v5a1.06,1.06,0,0,0,1.59.92Z" transform="translate(0 0)"/><path class="cls-5" d="M225.81,65.47a.38.38,0,0,1,.41,0l3.36,1.93a.41.41,0,0,1,.2.36v3.88a.41.41,0,0,1-.2.35l-3.36,1.93a.38.38,0,0,1-.41,0L222.46,72a.41.41,0,0,1-.2-.35V67.76a.41.41,0,0,1,.2-.36Z" transform="translate(0 0)"/><path class="cls-6" d="M131.31,47.86a2.13,2.13,0,0,0-2.1,0l-17.41,10a2.1,2.1,0,0,0-1,1.82V79.84a2.11,2.11,0,0,0,1,1.82l17.41,10a2.08,2.08,0,0,0,2.1,0l17.41-10a2.11,2.11,0,0,0,1.05-1.82V59.73a2.08,2.08,0,0,0-1.06-1.82Z" transform="translate(0 0)"/><g class="cls-7"><path class="cls-8" d="M129.17,47.86l-17.45,10a2.16,2.16,0,0,0-1.12,1.82V79.84a2.07,2.07,0,0,0,.54,1.34l19.6-33.54A2.16,2.16,0,0,0,129.17,47.86Z" transform="translate(0 0)"/><path class="cls-8" d="M130.84,91.92a2.13,2.13,0,0,0,.49-.21l17.43-10a2.15,2.15,0,0,0,1.09-1.82V59.73a2.06,2.06,0,0,0-.63-1.46Z" transform="translate(0 0)"/><path class="cls-9" d="M148.75,57.91l-17.46-10a2.18,2.18,0,0,0-.55-.22l-19.6,33.54a2.48,2.48,0,0,0,.59.48l17.49,10a2.09,2.09,0,0,0,1.62.21l18.38-33.65A2.35,2.35,0,0,0,148.75,57.91Z" transform="translate(0 0)"/><path class="cls-8" d="M149.85,79.84V59.73a2.14,2.14,0,0,0-1.1-1.82l-17.46-10a2.14,2.14,0,0,0-.64-.23l19.14,32.69A2,2,0,0,0,149.85,79.84Z" transform="translate(0 0)"/><path class="cls-8" d="M111.72,57.91a2.16,2.16,0,0,0-1.12,1.82V79.84a2.19,2.19,0,0,0,1.13,1.82l17.49,10a2,2,0,0,0,1.34.26L111.83,57.85Z" transform="translate(0 0)"/><polygon class="cls-10" points="128.63 44.17 128.39 44.31 128.71 44.31 128.63 44.17"/><path class="cls-11" d="M148.76,81.66a2.2,2.2,0,0,0,1-1.34L130.65,47.63a2.13,2.13,0,0,0-1.48.23l-17.34,10L130.56,92a2,2,0,0,0,.77-.26Z" transform="translate(0 0)"/><polygon class="cls-12" points="150.38 81.34 150.27 81.14 150.27 81.41 150.38 81.34"/><path class="cls-13" d="M148.76,81.66l-17.43,10a2,2,0,0,1-.77.26l.35.64L150.27,81.4v-.26l-.48-.82A2.2,2.2,0,0,1,148.76,81.66Z" transform="translate(0 0)"/><path class="cls-14" d="M148.76,81.66l-17.43,10a2,2,0,0,1-.77.26l.35.64L150.27,81.4v-.26l-.48-.82A2.2,2.2,0,0,1,148.76,81.66Z" transform="translate(0 0)"/></g></g><g id="Layer_4" data-name="Layer 4"><text class="cls-15" transform="translate(93.72 162.3)">Bootcamp</text></g></svg>