<svg xmlns="http://www.w3.org/2000/svg" xmlns:xlink="http://www.w3.org/1999/xlink" viewBox="0 0 300.23 200.05"><defs><style>.cls-1{fill:url(#linear-gradient);}.cls-2{fill:url(#linear-gradient-2);}.cls-3,.cls-4{fill:#fff;}.cls-4{font-size:19px;font-family:Arial-BoldMT, Arial;font-weight:700;}</style><linearGradient id="linear-gradient" x1="-26.85" y1="201.55" x2="261.15" y2="36.33" gradientUnits="userSpaceOnUse"><stop offset="0" stop-color="#0c95d3"/><stop offset="0.18" stop-color="#148bcb"/><stop offset="0.49" stop-color="#186eb7"/><stop offset="0.89" stop-color="#283f91"/><stop offset="1" stop-color="#303086"/></linearGradient><linearGradient id="linear-gradient-2" x1="149.43" y1="107.53" x2="129.67" y2="73.3" gradientTransform="matrix(1, 0, 0, -1, 0, 202)" gradientUnits="userSpaceOnUse"><stop offset="0" stop-color="#fff" stop-opacity="0.4"/><stop offset="0.92" stop-color="#fff"/></linearGradient></defs><title>Atlassian-event</title><g id="main"><rect class="cls-1" width="300.23" height="200.05"/><g id="Blue"><path class="cls-2" d="M139.17,88.69a2.18,2.18,0,0,0-3.7.4l-18.72,37.44a2.24,2.24,0,0,0,1,3,2.2,2.2,0,0,0,1,.24h26.08a2.17,2.17,0,0,0,2-1.24C152.45,116.91,149,99.24,139.17,88.69Z" transform="translate(-0.14 -0.46)"/><path class="cls-3" d="M152.91,54.63A49.41,49.41,0,0,0,150,103.39l12.57,25.14a2.25,2.25,0,0,0,2,1.24h26.07a2.24,2.24,0,0,0,2.24-2.24,2.3,2.3,0,0,0-.24-1s-35.07-70.16-36-71.91A2.11,2.11,0,0,0,152.91,54.63Z" transform="translate(-0.14 -0.46)"/><path class="cls-3" d="M149.53,139.15c0,1.51.7,2.7,3.43,3.23,1.63.34,2,.6,2,1.15s-.35.86-1.49.86a8.33,8.33,0,0,1-4-1.07v2.46a8.23,8.23,0,0,0,3.93.85c2.85,0,4-1.27,4-3.17m0,0c0-1.78-.94-2.62-3.61-3.19-1.48-.33-1.83-.65-1.83-1.12s.53-.84,1.5-.84a8.45,8.45,0,0,1,3.45.86v-2.35a7.69,7.69,0,0,0-3.37-.69c-2.64,0-4,1.14-4,3" transform="translate(-0.14 -0.46)"/><polygon class="cls-3" points="186.06 135.82 186.06 146.01 188.23 146.01 188.23 138.24 189.14 140.31 192.22 146.01 194.95 146.01 194.95 135.82 192.77 135.82 192.77 142.4 191.95 140.49 189.49 135.82 186.06 135.82"/><rect class="cls-3" x="169.87" y="135.82" width="2.37" height="10.19"/><path class="cls-3" d="M167.27,143.46c0-1.78-.94-2.62-3.61-3.19-1.47-.33-1.83-.66-1.83-1.12s.53-.84,1.5-.84a8.45,8.45,0,0,1,3.45.86v-2.35a7.84,7.84,0,0,0-3.37-.7c-2.64,0-4,1.15-4,3,0,1.5.7,2.7,3.43,3.23,1.63.34,2,.6,2,1.14s-.34.87-1.49.87a8.33,8.33,0,0,1-4-1.07v2.45a8.12,8.12,0,0,0,3.93.86c2.85,0,4-1.28,4-3.17" transform="translate(-0.14 -0.46)"/><polygon class="cls-3" points="130.95 135.82 130.95 146.01 135.83 146.01 136.59 143.81 133.34 143.81 133.34 135.82 130.95 135.82"/><polygon class="cls-3" points="121.31 135.82 121.31 138.02 123.95 138.02 123.95 146.01 126.33 146.01 126.33 138.02 129.16 138.02 129.16 135.82 121.31 135.82"/><path class="cls-3" d="M118,136.28h-3.13l-3.56,10.19H114l.5-1.71a6.82,6.82,0,0,0,3.8,0l.5,1.71h2.72Zm-1.57,6.64a4.4,4.4,0,0,1-1.3-.19l1.3-4.45,1.31,4.45A4.51,4.51,0,0,1,116.42,142.92Z" transform="translate(-0.14 -0.46)"/><path class="cls-3" d="M144.38,136.28h-3.13l-3.55,10.19h2.71l.5-1.71a6.82,6.82,0,0,0,3.8,0l.51,1.71h2.71Zm-1.57,6.64a4.4,4.4,0,0,1-1.3-.19l1.3-4.45,1.31,4.45a4.42,4.42,0,0,1-1.31.19Z" transform="translate(-0.14 -0.46)"/><path class="cls-3" d="M180.94,136.28h-3.13l-3.55,10.19H177l.5-1.71a6.82,6.82,0,0,0,3.8,0l.51,1.71h2.71Zm-1.57,6.64a4.4,4.4,0,0,1-1.3-.19l1.3-4.45,1.31,4.45a4.42,4.42,0,0,1-1.31.19Z" transform="translate(-0.14 -0.46)"/></g><text class="cls-4" transform="translate(95.51 44.46)">DevOps with</text></g></svg>