<svg xmlns="http://www.w3.org/2000/svg" viewBox="0 0 300 200"><defs><style>.cls-1{fill:#d3b818;}.cls-2{fill:#f7df1e;}.cls-3,.cls-4{font-size:25.61px;font-family:Arial-BoldMT, Arial;font-weight:700;}.cls-3{fill:#fff;}.cls-4{fill:#0a0a0a;}</style></defs><title>js-event</title><g id="pallates"><rect class="cls-1" width="300" height="200"/><rect class="cls-2" x="104.18" y="46" width="97" height="97"/><path d="M169.34,121.78c1.95,3.19,4.5,5.54,9,5.54,3.78,0,6.19-1.89,6.19-4.5,0-3.12-2.48-4.23-6.63-6l-2.28-1c-6.58-2.8-11-6.31-11-13.73,0-6.84,5.21-12,13.35-12,5.79,0,10,2,13,7.3l-7.1,4.55c-1.56-2.8-3.24-3.9-5.86-3.9s-4.36,1.69-4.36,3.9c0,2.74,1.69,3.85,5.6,5.54l2.28,1c7.74,3.33,12.12,6.71,12.12,14.32,0,8.21-6.45,12.71-15.11,12.71-8.46,0-13.93-4-16.61-9.32Zm-32.2.79c1.43,2.54,2.74,4.69,5.87,4.69s4.88-1.17,4.88-5.73v-31H157v31.12c0,9.43-5.54,13.73-13.62,13.73-7.29,0-11.52-3.78-13.67-8.33Z" transform="translate(0 0)"/></g><g id="Layer_4" data-name="Layer 4"><text class="cls-3" transform="translate(53.8 38.3)">Get Groovy with</text><text class="cls-4" transform="translate(87.91 167.3)">JavaScript</text></g></svg>