<svg id="Layer_2" data-name="Layer 2" xmlns="http://www.w3.org/2000/svg" viewBox="0 0 1319 755.58">
    <defs>
        <style>
            .cls-1 {
                fill: #fa0;
            }
            
            .cls-2 {
                fill: #ffb100;
            }
            
            .cls-3 {
                fill: #ffb800;
            }
            
            .cls-4 {
                fill: #ffbf00;
            }
            
            .cls-5 {
                fill: #ffc500;
            }
            
            .cls-6 {
                fill: #fc0;
            }
            
            .cls-7 {
                fill: #ffd624;
            }
            
            .cls-8 {
                fill: #ffe038;
            }
            
            .cls-9 {
                fill: #ffeb49;
            }
            
            .cls-10 {
                fill: #fff558;
            }
            
            .cls-11 {
                fill: #ff6;
            }
            
            .cls-12 {
                fill: #c3fff9;
            }
            
            .cls-13 {
                fill: #8cd3b9;
            }
            
            .cls-14 {
                fill: #92d6be;
            }
            
            .cls-15 {
                fill: #aff2d8;
            }
            
            .cls-16 {
                fill: #87ceb7;
            }
            
            .cls-17 {
                fill: #92ddc2;
            }
            
            .cls-18 {
                fill: none;
            }
            
            .cls-19 {
                fill: #00a7d3;
            }
            
            .cls-20 {
                fill: #21214f;
            }
        </style>
    </defs>
    <title>webBG</title>
    <g id="background">
        <rect class="cls-1" x="0.01" width="1310.56" height="752" />
        <path class="cls-2" d="M398.08,663.45c-89.53-20.51-183-30.23-274.64-18.24A514.31,514.31,0,0,0,0,676.61V752H691.21c-94.93-31.21-189-64-284.71-86.67C403.66,664.67,400.86,664.11,398.08,663.45Z" transform="translate(0)" />
        <path class="cls-3" d="M1310.58,0H0V676.61a514.37,514.37,0,0,1,123.44-31.49c91.66-12,185.11-2.25,274.64,18.26,2.78.66,5.58,1.32,8.36,1.88,95.67,22.57,189.77,55.46,284.71,86.68h619.43Z" transform="translate(0)" />
        <path class="cls-4" d="M391.86,546.14c2.62.75,5.24,1.6,7.78,2.35C560.35,597.84,718,674,885.77,714.49c142.69,34.4,286.28,27.45,424.79-9.58V0H0V540.4a449.35,449.35,0,0,1,132-29C219.86,505.16,307.73,521,391.86,546.14Z" transform="translate(0)" />
        <path class="cls-5" d="M0,0V403.64a403.29,403.29,0,0,1,140.39-26c84.21-.76,166.44,21.33,245.16,51.23l7.29,2.81C543.21,489.94,692.38,569,853.5,612.22c152.93,41,308.23,32.34,457-11.87V0Z" transform="translate(0)" />
        <path class="cls-6" d="M148.88,243.83c80.44,5.65,157.19,33.09,230.42,67.78,2.29,1,4.5,2.16,6.79,3.24,140.07,67.3,280.71,149,435.19,195.24,162.87,48.65,330.42,38.3,489.27-14V0H0V266.2A349.06,349.06,0,0,1,148.88,243.83Z" transform="translate(0)" />
        <path class="cls-7" d="M1310.58,0H0V128.12c51-19.66,104.6-25.85,157.45-18,76.67,11.37,147.84,44.84,215.67,84.21,2.12,1.22,4.17,2.44,6.3,3.66C509.21,274.22,641.28,358.6,789.21,407.76c172.42,57.34,352.87,46.06,521.44-15.61V0Z" transform="translate(0)" />
        <path class="cls-8" d="M372.61,81.12c119.42,85.29,243,172,384.32,224.38,170.87,63.35,353.28,57.15,522.5-5,10.48-3.85,20.8-7.89,31.21-12.12V0H236c45.91,20,89,47.57,130.83,77.07C368.76,78.39,370.64,79.81,372.61,81.12Z" transform="translate(0)" />
        <path class="cls-9" d="M1310.58,0H407.91c96.74,80.65,199.45,154.63,316.83,203.23,157.1,65,327.64,70.17,487.36,19.83a733,733,0,0,0,98.54-39.2V0Z" transform="translate(0)" />
        <path class="cls-10" d="M1144.69,145.51a641.12,641.12,0,0,0,113.57-41.18c17.79-8.35,35.23-17.66,52.35-27.72V0H527c51.52,39.24,106.2,73.55,165.56,101C835.82,167.42,994.55,184.33,1144.69,145.51Z" transform="translate(0)" />
        <path class="cls-11" d="M1077.36,68A549.8,549.8,0,0,0,1255,0H662.74C791.91,66.74,937.62,94.94,1077.36,68Z" transform="translate(0)" />
    </g>
    <g id="cloud_3" data-name="cloud 3">
        <path class="cls-12" d="M707.45,142.45a30.89,30.89,0,1,1,30.15-37.61,20.26,20.26,0,1,1,10.48,37.61Z" transform="translate(0)">
              <animateTransform id="any"
                      attributeName="transform"
                      attributeType="XML"
                      type="translate"
                      dur="25s"
                      values="800,0;-800,0"
                      repeatCount="indefinite"/>
            </path>
        <path class="cls-13" d="M700.46,111.56a31.45,31.45,0,0,1,.24-3.88h12.62a5.19,5.19,0,0,0,5.19-5.19h0a5.19,5.19,0,0,0-5.19-5.19H709.7a3.11,3.11,0,0,1-2.44-5,31,31,0,0,1,10.86-8.6.59.59,0,0,0,.3-.78h0a.62.62,0,0,0-.3-.3A30.85,30.85,0,0,0,676.56,112c.25,17,14.42,30.44,31.39,30.44h23.4A30.94,30.94,0,0,1,700.46,111.56Z" transform="translate(0)">
            
            <animateTransform id="any"
                      attributeName="transform"
                      attributeType="XML"
                      type="translate"
                      dur="25s"
                      values="800,0;-800,0"
                      repeatCount="indefinite"/>
            </path>
    </g>
    <g id="cloud_1" data-name="cloud 1">
        <path class="cls-12" d="M198.14,118.28a26.14,26.14,0,1,1,25.5-31.88,17.16,17.16,0,1,1,8.82,31.88Z" transform="translate(0)">
            <animateTransform id="any"
                      attributeName="transform"
                      attributeType="XML"
                      type="translate"
                      dur="30s"
                      values="800,0;-800,0"
                      repeatCount="indefinite"/>
            </path>
            
        <path class="cls-14" d="M207.42,118.28a1,1,0,0,0,.44-1.88,26.59,26.59,0,0,1-15.74-24.23V91a3.13,3.13,0,0,1,3.13-3h7.57a5.21,5.21,0,0,0,5.27-5,5.08,5.08,0,0,0-4.94-5.22H203a3.11,3.11,0,0,1-2-5.4,25.49,25.49,0,0,1,3.68-2.77,1.6,1.6,0,0,0,.54-2.2h0a1.54,1.54,0,0,0-1-.72,25.83,25.83,0,0,0-6-.71A26.15,26.15,0,0,0,172,92.17v.47c.27,14.31,12.26,25.63,26.57,25.63Z" transform="translate(0)">
            
            <animateTransform id="any"
                      attributeName="transform"
                      attributeType="XML"
                      type="translate"
                      dur="30s"
                      values="800,0;-800,0"
                      repeatCount="indefinite"/>
            </path>
    </g>
    <g id="cloud_2" data-name="cloud 2">
        <path class="cls-15" d="M319.26,264.25h-74c-12.8,0-23.22-10.71-23.22-23.86a23.54,23.54,0,0,1,20.79-23.74c2-16,15.36-28,31.07-28,17.27,0,31.33,14.44,31.33,32.2a32.08,32.08,0,0,1-.18,3.39,21.11,21.11,0,0,1,11.82-4.55l1.77-.12.73,1.66a15.54,15.54,0,0,0,14.17,9.43H337l.71,1.47a23,23,0,0,1,2.2,9.81c0,11.65-8.85,21.42-20.16,22.24l-.28.06Z" transform="translate(0)">
            
            <animateTransform id="any"
                      attributeName="transform"
                      attributeType="XML"
                      type="translate"
                      dur="20s"
                      values="800,0;-800,0"
                      repeatCount="indefinite"/>
            </path>
        <path class="cls-16" d="M237.6,240.73a24.16,24.16,0,0,1,20-24.13h15.28a5,5,0,0,0,4.94-5.06h0a5,5,0,0,0-4.92-5.08H267a3,3,0,0,1-3-3,3,3,0,0,1,.58-1.77,32.39,32.39,0,0,1,12.55-10.78,1.11,1.11,0,0,0-.35-2.1c-.93-.09-1.87-.13-2.81-.13-15.71,0-29,12-31.07,28a23.53,23.53,0,0,0-20.79,23.6,23.88,23.88,0,0,0,23.56,24h5.27a.76.76,0,0,0,.72-.8h0a.73.73,0,0,0-.4-.63A24.52,24.52,0,0,1,237.6,240.73Z" transform="translate(0)">
            
            <animateTransform id="any"
                      attributeName="transform"
                      attributeType="XML"
                      type="translate"
                      dur="20s"
                      values="800,0;-800,0"
                      repeatCount="indefinite"/>
            </path>
        <path class="cls-12" d="M343.48,232.4A26.14,26.14,0,1,1,369,200.52a17.16,17.16,0,1,1,8.82,31.88Z" transform="translate(0)">
            <animateTransform id="any"
                      attributeName="transform"
                      attributeType="XML"
                      type="translate"
                      dur="20s"
                      values="800,0;-800,0"
                      repeatCount="indefinite"/>
            </path>
        <path class="cls-17" d="M358.35,232.91a26.18,26.18,0,0,1-25.56-20.68,5,5,0,0,1,3.9-5.9h0a4.78,4.78,0,0,1,1-.1h7.74A5.51,5.51,0,0,0,351,201a5.37,5.37,0,0,0-5.26-5.48h-5.68a2.94,2.94,0,0,1-2.32-4.73,26.23,26.23,0,0,1,8.48-7.12,1.31,1.31,0,0,0-.37-2.44,26.12,26.12,0,0,0-31.54,26.07c.27,14.31,12.26,25.63,26.57,25.63Z" transform="translate(0)">
            <animateTransform id="any"
                      attributeName="transform"
                      attributeType="XML"
                      type="translate"
                      dur="20s"
                      values="800,0;-800,0"
                      repeatCount="indefinite"/>
            </path>
    </g>
    <path class="cls-18" d="M504.78,301c.3-5.5-2.14-8-7.38-9.14-2.75,7.71-7.53,13.77-15,16.94a101.5,101.5,0,0,1-16.62,5c-3.26.76-3.33,2.68-3,5.08s-1,6.09,3,6.09c12.86.2,25.75.07,38.88.07C504.65,316.39,504.33,308.68,504.78,301Z" transform="translate(0)" />
    <path class="cls-18" d="M450.92,313.67c-13.38-2.44-25.28-7.33-31-21.64v33.05c9.93,0,20-.28,30.07.12,4.67.18,5.23-2,5.46-5.61S455.14,314.43,450.92,313.67Z" transform="translate(0)" />
    <path id="temple_shadow" data-name="temple shadow" class="cls-19" d="M1317.69,690.86c.45-5.56-1.76-6.83-7-6.67-11.89.37-23.8-.07-35.7.19-4.37.09-5.46-1.42-5.4-5.49.17-13.36,0-26.73,0-40.09V538.48c0-18.76-.14-18.63-12.86-32.4l-105-114.15c-3.75-4.06-7.53-8.13-11.3-12.19l-1.54,1V387q-.08,98.47-.08,196.95V670c0,7.8-.06,7.84-8.13,7.9-6.94.08-13.86,0-20.8,0-7.77,0-7.71-.08-7.71-7.76q0-71.79.08-143.62c0-4.62-1.48-6.21-6.16-6-8.52.3-17.06.08-25.59.08-8.71,0-8.71,0-8.71-8.82V192c-2.61-.24-4.73-.58-6.78-.58-9.41-.14-18.81-.14-28.22-.14-12.25,0-24.5.09-36.74,0-4.64,0-6.85,1.63-6.38,6.58.38,3.84,0,7.73,0,11.61V669.37c0,8.46,0,8.45-8.79,8.52-3.73,0-7.47,0-11.18.22-1.7.1-3.37,1.24-5.08,1.18-2.37-.1-4.74-1.43-7.05-1.24-5.51.39-7-2.11-7.11-7.12-1.44-58.57-2.83-117.15-4.67-175.72-.49-15.41-2-30.84-4-46.16a42.31,42.31,0,0,0-14.52-27.26c-6.8-6.1-12-14.23-16.63-22.26-4.32-7.57-2.64-11.87,4-17.5,7.49-6.41,12.81-14.08,15-23.7,2.74-12.14-1.37-21.63-11.3-25.51-4.6-1.82-9.36-3.71-14.22-4.28-12.53-1.45-20.55-8.36-24.65-19.64a78.09,78.09,0,0,0-19.53-29.77c-7.9-7.6-12.06-16.73-10.84-28a23.49,23.49,0,0,0-1-10.91c-1.26-3.15-3.87-7-6.78-8-5-1.8-6.1-4.58-5.59-9.07.16-1.73,0-3.51,0-5.27,0-25.17.06-50.33-.1-75.5,0-1.8-1.39-4.88-2.55-5.08-3.76-.71-2.45,2.66-2.93,4.7-.65,2.68-.79,5.77-2.26,7.94a180.3,180.3,0,0,1-12,15.43c-8.47,10-21.34,12.93-32.1,19.25-2.47,1.44-5,2.83-7.45,4.25l.31,1.81c8.76.77,17.57,1.28,26.29,2.39,6.09.83,12.31,1.78,18,3.88,5.09,1.84,9,5.92,9.15,11.89s.11,12,0,17.95a9.18,9.18,0,0,1-1,3.94c-1.79,3.5-4.2,6.72-5.6,10.36-2.33,6.1-3.41,12.67-6.16,18.52-10,21.27-23.3,40.56-38.46,58.52-2.51,3-7.43,4.15-11.43,5.72-9.82,3.82-19.79,7.33-29.64,11.17a7.61,7.61,0,0,0-3.23,3.34c-7,12.09-3.27,25.27,9.06,31.43,11.32,5.64,16.42,22.75,4.91,32.42-17.27,14.48-27.63,33.74-28.91,56.86-.9,16.31-2.31,32.66-2.57,48.94-.82,49.79-1.23,99.58-1.73,149.38-.11,14.37,0,28.73,0,43.31H684.41V694q.12-77.1,0-154.18a31.42,31.42,0,0,0-1.41-8.72c-1.46-5.08-3.73-5.75-7.83-2.4a17.09,17.09,0,0,0-4.12,4.8c-4.16,7.47-6.95,15.33-6.95,24.07.09,23.57,0,47.16,0,70.75,0,2.86-.27,5.74-.47,9.34a43,43,0,0,1-3.93-2.36c-7-5.58-14.1-11.09-21-16.78-1-.89-2.24-2.68-2-3.87,1.14-7.72-4.89-11-8.9-15.58l-4.06,3.37c-.94-3.76-2-6.7-2.39-9.76q-2.65-19.1-4.95-38.22c-3.89-32.57-19.22-59.57-42.73-81.73-19.44-18.29-43.69-29.12-69-37.27-5.65-1.82-7-4-6.87-9.37.37-12.8.15-12.7,12.54-16.25a7.5,7.5,0,0,0,4.41-4.19c1-2.93.88-6.21,1.31-9.34,2.33-16.83,4.71-33.67,7-50.5.92-6.69,1.69-13.39,2.72-21H509.6V297.9c4.75-.37,8.34-.28,11.72-1,11.75-2.52,16.95-12.87,11.68-22.73-6.74-12.64-27.58-15.49-37.26-5.09a60.61,60.61,0,0,0-4.31,5.87c-17.09-12.43-35-14.34-54.14-6.49a6.08,6.08,0,0,1-4.94-.28c-12.19-8.34-24.1-6.1-36,.45-4.55,2.54-8.3,6-7.55,11.7s5.08,8.74,10.55,9.76c5,1,10.08,1.39,16.37,2.23v32.23c-1.82.1-5,.72-8.07.35-5.4-.65-7.11,1.33-7.11,6.65.12,22.35-.12,44.71-.21,67.07,0,9.74,0,9.74,9.32,12.38,12.2,3.47,12.1,3.47,12.2,15.93,0,3.6-1.47,5.19-4.39,6.84-15.78,8.95-31.69,17.77-47.1,27.33-18.48,11.47-31.07,28.59-42.57,46.43-4.74,7.33-9.69,14.8-12.7,22.86-7.12,19.07-7.88,39.18-7.48,59.28a10.7,10.7,0,0,1-3.61,8.78c-1.45,1.39-2,4-2.43,6.1a17.52,17.52,0,0,0,0,5.78c1.18,8.87-1.16,15.67-9.5,20.67-5.08,3-8.92,8-14.29,13.11-.18-4.07-.42-7-.42-9.92,0-23.59.22-47.17-.12-70.75a192.15,192.15,0,0,0-2.6-25.66c-1.16-7.63-6.49-10.73-14-8.13-3.32,1.15-8.62.14-8.56,6.52.28,27.1.21,54.2.52,81.29,0,4.52-1.17,6.49-5.84,6.42-11.91-.17-23.82-.3-35.71-.1-4.89.08-6.38-1.59-6.38-6.44q.15-142.83.15-285.65c0-21.34-.12-42.59,0-63.87,0-3.83-1.2-5.08-5.18-5.08-28.1.12-56.16,0-84.25.12-12.59.07-12.59.31-12.59,13V601.12c-.06,12.31-.15,24.63,0,37,0,3.61-1.09,5.08-4.87,5-6.74-.16-13.51,0-20.25,0-7.43,0-7.43,0-7.43-7.12V516.23h-55a28.44,28.44,0,0,1-6.38-.39H5.13v236.4H1311c2.65,0,5.32.19,8,.29l.06-51.75C1318.51,697.46,1317.42,694.11,1317.69,690.86ZM455.45,319.64c-.23,3.57-.79,5.79-5.46,5.61-10.06-.4-20.14-.12-30.07-.12V292c5.72,14.31,17.62,19.2,31,21.64C455.14,314.43,455.69,316,455.45,319.64ZM465.77,325c-4.07,0-2.85-3.71-3-6.1s-.18-4.33,3-5.08a101.5,101.5,0,0,0,16.62-5c7.48-3.17,12.26-9.23,15-16.94,5.24,1.14,7.68,3.65,7.38,9.14-.45,7.68-.13,15.38-.13,24h0c-13.13-.06-26,.07-38.88-.13Z" transform="translate(0)" />
    <path class="cls-19" d="M504.65,325Z" transform="translate(0)" />
    <path id="temple" class="cls-20" d="M1312.55,693.92c.45-5.56-1.76-6.83-7-6.67-11.89.37-23.81-.07-35.71.19-4.36.09-5.45-1.43-5.39-5.49.16-13.37,0-26.73,0-40.09V541.53c0-18.75-.14-18.62-12.86-32.39q-52.49-57.09-105-114.16c-3.74-4.07-7.53-8.13-11.3-12.2l-1.53,1V390q-.07,98.48-.08,197v86c0,7.81-.06,7.85-8.13,7.91-6.93.08-13.86,0-20.79,0-7.78,0-7.71-.08-7.71-7.77q0-71.79.08-143.61c0-4.62-1.5-6.21-6.17-6-8.52.3-17,.08-25.58.08-8.71,0-8.71,0-8.71-8.83V195.07c-2.61-.24-4.74-.58-6.8-.58-9.4-.15-18.8-.15-28.21-.15-12.2,0-24.49.1-36.73,0-4.64,0-6.85,1.64-6.39,6.59.38,3.83,0,7.73,0,11.59v459.9c0,8.47,0,8.46-8.78,8.53-3.73,0-7.47,0-11.18.22-1.71.1-3.38,1.23-5.08,1.17-2.36-.09-4.74-1.42-7-1.24-5.51.4-7-2.11-7.11-7.11-1.43-58.57-2.83-117.15-4.67-175.72-.48-15.41-2-30.85-4-46.16a42.41,42.41,0,0,0-14.53-27.27c-6.8-6.09-12-14.22-16.62-22.26-4.33-7.57-2.64-11.86,4-17.49,7.48-6.41,12.81-14.08,15-23.72,2.74-12.13-1.38-21.61-11.3-25.5-4.6-1.81-9.37-3.7-14.22-4.27-12.54-1.46-20.55-8.37-24.67-19.64a77.91,77.91,0,0,0-19.52-29.78c-7.89-7.59-12-16.73-10.83-28a23.8,23.8,0,0,0-1-10.92c-1.27-3.14-3.87-7-6.78-8s-4.52-2.47-5.23-4.37h-6.09a9.39,9.39,0,0,1-.94,2.87c-1.79,3.49-4.19,6.72-5.6,10.35-2.32,6.09-3.4,12.67-6.15,18.52-10,21.27-23.31,40.56-38.46,58.52-2.52,3-7.44,4.16-11.43,5.72-9.84,3.82-19.8,7.34-29.64,11.18a7.66,7.66,0,0,0-3.24,3.33c-7,12.1-3.26,25.28,9.06,31.44,11.32,5.64,16.43,22.74,4.91,32.42-17.28,14.48-27.62,33.74-28.91,56.85-.9,16.32-2.3,32.66-2.56,48.95-.82,49.79-1.24,99.58-1.73,149.37-.11,14.37,0,28.74,0,43.3H679.33v-6.65q.12-77.1,0-154.18a31.54,31.54,0,0,0-1.4-8.73c-1.47-5.08-3.73-5.74-7.84-2.39a17.26,17.26,0,0,0-4.07,4.81c-4.17,7.47-6.95,15.32-6.95,24.06.09,23.58,0,47.17,0,70.75,0,2.87-.28,5.73-.47,9.35a43.68,43.68,0,0,1-3.93-2.38c-7-5.58-14.1-11.07-21-16.76-1-.89-2.23-2.7-2-3.89,1.14-7.7-4.88-11-8.89-15.56l-4.06,3.36a99.64,99.64,0,0,1-2.38-9.75q-2.65-19.1-5-38.22C607.43,525,592.11,498,568.64,475.78c-19.44-18.3-43.69-29.12-69-37.26-5.65-1.82-7-4-6.86-9.38.35-12.8.14-12.7,12.52-16.26a7.52,7.52,0,0,0,4.42-4.19c1-2.92.88-6.21,1.31-9.33q3.5-25.26,7-50.52c.92-6.68,1.68-13.38,2.72-21H504.46V301c4.75-.37,8.33-.28,11.73-1,11.74-2.53,16.95-12.87,11.66-22.75-6.73-12.63-27.56-15.47-37.25-5.08a58.76,58.76,0,0,0-4.3,5.86c-17.09-12.42-35-14.34-54.14-6.49a6.08,6.08,0,0,1-4.94-.28c-12.14-8.34-24.1-6.1-36,.45-4.55,2.55-8.3,6-7.55,11.7s5.08,8.75,10.55,9.77c5,1,10.08,1.39,16.38,2.22v32.24c-1.83.1-5,.71-8.13.34-5.4-.64-7.06,1.33-7.06,6.65.12,22.35-.13,44.71-.21,67.06,0,9.76,0,9.76,9.32,12.39,12.2,3.48,12.08,3.48,12.2,15.93,0,3.6-1.48,5.19-4.39,6.84-15.8,9-31.7,17.77-47.1,27.34-18.48,11.46-31.08,28.57-42.58,46.43C318,517.9,313,525.35,310,533.42c-7.12,19.07-7.88,39.18-7.48,59.28a10.75,10.75,0,0,1-3.6,8.79c-1.46,1.39-2,4-2.44,6.09a18.08,18.08,0,0,0,0,5.78c1.18,8.88-1.15,15.68-9.49,20.67-5.08,3.05-8.93,8-14.29,13.11-.19-4.06-.44-7-.44-9.92,0-23.59.23-47.17-.11-70.75a192.15,192.15,0,0,0-2.6-25.66c-1.15-7.63-6.49-10.72-14-8.13-3.31,1.15-8.62.13-8.56,6.51.28,27.11.21,54.21.53,81.3,0,4.52-1.18,6.49-5.85,6.42-11.9-.17-23.81-.3-35.71-.1-4.89.08-6.38-1.6-6.38-6.44q.17-142.82.16-285.65c0-21.29-.13-42.58,0-63.87,0-3.82-1.21-5.08-5.19-5.08-28.1.11-56.17,0-84.24.11-12.59.07-12.59.32-12.59,13V604.17c-.08,12.32-.17,24.64,0,37,0,3.6-1.1,5.08-4.88,5-6.74-.17-13.5,0-20.24,0-7.43,0-7.43,0-7.43-7.12V519.28H22.25v.12H0V755.3H1305.84c2.65,0,5.32.18,8,.28l.07-51.75C1313.38,700.52,1312.29,697.16,1312.55,693.92ZM450.31,322.69c-.23,3.57-.78,5.79-5.45,5.61-10.06-.4-20.15-.12-30.09-.12v-33.1c5.73,14.31,17.62,19.2,31,21.64C450,317.47,450.55,319.07,450.31,322.69Zm10.31,5.38c-4.06,0-2.84-3.71-3-6.09s-.17-4.33,3-5.08a101.29,101.29,0,0,0,16.63-5c7.48-3.18,12.25-9.24,15-16.95,5.25,1.13,7.68,3.65,7.37,9.14-.43,7.67-.11,15.38-.11,24-13.14-.06-26,.08-38.9-.12Z" transform="translate(0)" />
    <path id="flag" class="cls-20" d="M824.65,226.15c.16-1.75,0-3.53,0-5.27,0-25.17.06-50.34-.11-75.52,0-1.79-1.38-4.86-2.54-5.08-3.76-.7-2.46,2.68-2.93,4.71-.65,2.69-.79,5.77-2.27,7.94a178.7,178.7,0,0,1-12,15.45c-8.47,10-21.34,12.93-32.1,19.25-2.47,1.44-5,2.82-7.45,4.24l.31,1.81c8.77.78,17.57,1.28,26.3,2.4,6.09.82,12.31,1.77,18,3.87,5.09,1.85,8.94,5.92,9.15,11.89s.11,12,0,17.95a7.89,7.89,0,0,1-.1,1.08H825A10.21,10.21,0,0,1,824.65,226.15Z" transform="translate(0)" >
    
    <animateMotion  dur="6s" repeatCount="indefinite">
       
     
    </animateMotion>
        
    </path>
    <g id="window_2" data-name="window 2">
        <rect class="cls-19" x="1172.01" y="550.9" width="19.64" height="15.87" />
        <rect class="cls-3" x="1205.57" y="550.9" width="19.64" height="15.87" />
        <rect class="cls-3" x="1171.67" y="581.44" width="19.64" height="15.87" />
        <rect class="cls-19" x="1206.26" y="581.44" width="19.64" height="15.87" />
        <rect class="cls-19" x="1172.01" y="615.36" width="19.64" height="15.87" />
        <rect class="cls-3" x="1205.57" y="615.36" width="19.64" height="15.87" />
        <rect class="cls-3" x="1171.67" y="645.89" width="19.64" height="15.87" />
        <rect class="cls-19" x="1206.26" y="645.89" width="19.64" height="15.87" />
    </g>
    <g id="window_1" data-name="window 1">
        <rect class="cls-19" x="121.95" y="304.45" width="19.64" height="15.87" />
        <rect class="cls-3" x="155.51" y="304.45" width="19.64" height="15.87" />
        <rect class="cls-3" x="121.61" y="334.97" width="19.64" height="15.87" />
        <rect class="cls-19" x="156.2" y="334.97" width="19.64" height="15.87" />
        <rect class="cls-19" x="121.95" y="368.91" width="19.64" height="15.87" />
        <rect class="cls-3" x="155.51" y="368.91" width="19.64" height="15.87" />
        <rect class="cls-3" x="121.61" y="399.44" width="19.64" height="15.87" />
        <rect class="cls-19" x="156.2" y="399.44" width="19.64" height="15.87" />
        <rect class="cls-19" x="122.87" y="431.78" width="19.64" height="15.87" />
        <rect class="cls-3" x="156.42" y="431.78" width="19.64" height="15.87" />
        <rect class="cls-3" x="122.52" y="462.32" width="19.64" height="15.87" />
        <rect class="cls-19" x="157.11" y="462.32" width="19.64" height="15.87" />
        <rect class="cls-19" x="122.87" y="496.25" width="19.64" height="15.87" />
        <rect class="cls-3" x="156.42" y="496.25" width="19.64" height="15.87" />
        <rect class="cls-3" x="122.52" y="526.79" width="19.64" height="15.87" />
        <rect class="cls-19" x="157.11" y="526.79" width="19.64" height="15.87" />
    </g>
</svg>